  0
SECTION
  2
HEADER
  9
$ACADVER
  1
AC1014
  9
$HANDSEED
  5
FFFF
  9
$MEASUREMENT
 70
     1
  0
ENDSEC
  0
SECTION
  2
TABLES
  0
TABLE
  2
VPORT
  5
8
330
0
100
AcDbSymbolTable
 70
     4
  0
VPORT
  5
2E
330
8
100
AcDbSymbolTableRecord
100
AcDbViewportTableRecord
  2
*ACTIVE
 70
     0
 10
0.0
 20
0.0
 11
1.0
 21
1.0
 12
210.0
 22
148.5
 13
0.0
 23
0.0
 14
10.0
 24
10.0
 15
10.0
 25
10.0
 16
0.0
 26
0.0
 36
1.0
 17
0.0
 27
0.0
 37
0.0
 40
341.0
 41
1.24
 42
50.0
 43
0.0
 44
0.0
 50
0.0
 51
0.0
 71
     0
 72
   100
 73
     1
 74
     3
 75
     0
 76
     0
 77
     0
 78
     0
  0
ENDTAB
  0
TABLE
  2
LTYPE
  5
5
330
0
100
AcDbSymbolTable
 70
     1
  0
LTYPE
  5
14
330
5
100
AcDbSymbolTableRecord
100
AcDbLinetypeTableRecord
  2
BYBLOCK
 70
     0
  3

 72
    65
 73
     0
 40
0.0
  0
LTYPE
  5
15
330
5
100
AcDbSymbolTableRecord
100
AcDbLinetypeTableRecord
  2
BYLAYER
 70
     0
  3

 72
    65
 73
     0
 40
0.0
  0
LTYPE
  5
16
330
5
100
AcDbSymbolTableRecord
100
AcDbLinetypeTableRecord
  2
CONTINUOUS
 70
     0
  3
Solid line
 72
    65
 73
     0
 40
0.0
  0
ENDTAB
  0
TABLE
  2
LAYER
  5
2
100
AcDbSymbolTable
 70
1
  0
LAYER
  5
50
100
AcDbSymbolTableRecord
100
AcDbLayerTableRecord
  2
0
 70
0
  6
CONTINUOUS
  0
ENDTAB
  0
TABLE
  2
STYLE
  5
3
330
0
100
AcDbSymbolTable
 70
     1
  0
STYLE
  5
11
330
3
100
AcDbSymbolTableRecord
100
AcDbTextStyleTableRecord
  2
STANDARD
 70
     0
 40
0.0
 41
1.0
 50
0.0
 71
     0
 42
2.5
  3
txt
  4

  0
ENDTAB
  0
TABLE
  2
VIEW
  5
6
330
0
100
AcDbSymbolTable
 70
     0
  0
ENDTAB
  0
TABLE
  2
UCS
  5
7
330
0
100
AcDbSymbolTable
 70
     0
  0
ENDTAB
  0
TABLE
  2
APPID
  5
9
330
0
100
AcDbSymbolTable
 70
     2
  0
APPID
  5
12
330
9
100
AcDbSymbolTableRecord
100
AcDbRegAppTableRecord
  2
ACAD
 70
     0
  0
ENDTAB
  0
TABLE
  2
DIMSTYLE
  5
A
330
0
100
AcDbSymbolTable
 70
     1
  0
DIMSTYLE
105
27
330
A
100
AcDbSymbolTableRecord
100
AcDbDimStyleTableRecord
  2
ISO-25
 70
     0
  3

  4

  5

  6

  7

 40
1.0
 41
2.5
 42
0.625
 43
3.75
 44
1.25
 45
0.0
 46
0.0
 47
0.0
 48
0.0
140
2.5
141
2.5
142
0.0
143
0.03937007874016
144
1.0
145
0.0
146
1.0
147
0.625
 71
     0
 72
     0
 73
     0
 74
     0
 75
     0
 76
     0
 77
     1
 78
     8
170
     0
171
     3
172
     1
173
     0
174
     0
175
     0
176
     0
177
     0
178
     0
270
     2
271
     2
272
     2
273
     2
274
     3
340
11
275
     0
280
     0
281
     0
282
     0
283
     0
284
     8
285
     0
286
     0
287
     3
288
     0
  0
ENDTAB
  0
TABLE
  2
BLOCK_RECORD
  5
1
330
0
100
AcDbSymbolTable
 70
     1
  0
BLOCK_RECORD
  5
1F
330
1
100
AcDbSymbolTableRecord
100
AcDbBlockTableRecord
  2
*MODEL_SPACE
  0
BLOCK_RECORD
  5
1B
330
1
100
AcDbSymbolTableRecord
100
AcDbBlockTableRecord
  2
*PAPER_SPACE
  0
ENDTAB
  0
ENDSEC
  0
SECTION
  2
BLOCKS
  0
BLOCK
  5
20
330
1F
100
AcDbEntity
  8
0
100
AcDbBlockBegin
  2
*MODEL_SPACE
 70
     0
 10
0.0
 20
0.0
 30
0.0
  3
*MODEL_SPACE
  1

  0
ENDBLK
  5
21
330
1F
100
AcDbEntity
  8
0
100
AcDbBlockEnd
  0
BLOCK
  5
1C
330
1B
100
AcDbEntity
 67
     1
  8
0
100
AcDbBlockBegin
  2
*PAPER_SPACE
  1

  0
ENDBLK
  5
1D
330
1B
100
AcDbEntity
 67
     1
  8
0
100
AcDbBlockEnd
  0
ENDSEC
  0
SECTION
  2
ENTITIES
  0
SPLINE
  5
100
100
AcDbEntity
  8
0
 62
7
100
AcDbSpline
 70
8
 71
3
 72
8
 73
4
 74
0
 40
0
 40
0
 40
0
 40
0
 40
1
 40
1
 40
1
 40
1
 10
5.271322
 20
57.858674
 30
0.0
 10
7.444214
 20
58.288886
 30
0.0
 10
9.599803
 20
58.755083
 30
0.0
 10
11.729410
 20
59.274725
 30
0.0
  0
SPLINE
  5
101
100
AcDbEntity
  8
0
 62
7
100
AcDbSpline
 70
8
 71
3
 72
8
 73
4
 74
0
 40
0
 40
0
 40
0
 40
0
 40
1
 40
1
 40
1
 40
1
 10
11.729410
 20
59.274725
 30
0.0
 10
13.850391
 20
59.785636
 30
0.0
 10
16.083874
 20
60.242836
 30
0.0
 10
18.412606
 20
60.628070
 30
0.0
  0
SPLINE
  5
102
100
AcDbEntity
  8
0
 62
7
100
AcDbSpline
 70
8
 71
3
 72
8
 73
4
 74
0
 40
0
 40
0
 40
0
 40
0
 40
1
 40
1
 40
1
 40
1
 10
18.412606
 20
60.628070
 30
0.0
 10
19.269645
 20
60.771474
 30
0.0
 10
20.161318
 20
60.896887
 30
0.0
 10
21.078947
 20
61.013568
 30
0.0
  0
SPLINE
  5
103
100
AcDbEntity
  8
0
 62
7
100
AcDbSpline
 70
8
 71
3
 72
8
 73
4
 74
0
 40
0
 40
0
 40
0
 40
0
 40
1
 40
1
 40
1
 40
1
 10
21.078947
 20
61.013568
 30
0.0
 10
21.996602
 20
61.129985
 30
0.0
 10
22.905553
 20
61.201687
 30
0.0
 10
23.814635
 20
61.237670
 30
0.0
  0
SPLINE
  5
104
100
AcDbEntity
  8
0
 62
7
100
AcDbSpline
 70
8
 71
3
 72
8
 73
4
 74
0
 40
0
 40
0
 40
0
 40
0
 40
1
 40
1
 40
1
 40
1
 10
23.814635
 20
61.237670
 30
0.0
 10
24.723480
 20
61.273389
 30
0.0
 10
25.571999
 20
61.237670
 30
0.0
 10
26.359665
 20
61.138981
 30
0.0
  0
SPLINE
  5
105
100
AcDbEntity
  8
0
 62
7
100
AcDbSpline
 70
8
 71
3
 72
8
 73
4
 74
0
 40
0
 40
0
 40
0
 40
0
 40
1
 40
1
 40
1
 40
1
 10
26.359665
 20
61.138981
 30
0.0
 10
27.147595
 20
61.040291
 30
0.0
 10
27.874671
 20
60.861168
 30
0.0
 10
28.523959
 20
60.619074
 30
0.0
  0
SPLINE
  5
106
100
AcDbEntity
  8
0
 62
7
100
AcDbSpline
 70
8
 71
3
 72
8
 73
4
 74
0
 40
0
 40
0
 40
0
 40
0
 40
1
 40
1
 40
1
 40
1
 10
28.523959
 20
60.619074
 30
0.0
 10
29.822535
 20
60.090436
 30
0.0
 10
30.688253
 20
59.355423
 30
0.0
 10
31.138309
 20
58.405303
 30
0.0
  0
SPLINE
  5
107
100
AcDbEntity
  8
0
 62
7
100
AcDbSpline
 70
8
 71
3
 72
8
 73
4
 74
0
 40
0
 40
0
 40
0
 40
0
 40
1
 40
1
 40
1
 40
1
 10
31.138309
 20
58.405303
 30
0.0
 10
31.579899
 20
57.455448
 30
0.0
 10
31.727008
 20
56.415635
 30
0.0
 10
31.597097
 20
55.295388
 30
0.0
  0
SPLINE
  5
108
100
AcDbEntity
  8
0
 62
7
100
AcDbSpline
 70
8
 71
3
 72
8
 73
4
 74
0
 40
0
 40
0
 40
0
 40
0
 40
1
 40
1
 40
1
 40
1
 10
31.597097
 20
55.295388
 30
0.0
 10
31.441258
 20
54.013745
 30
0.0
 10
30.791970
 20
52.750094
 30
0.0
 10
29.640766
 20
51.495438
 30
0.0
  0
SPLINE
  5
109
100
AcDbEntity
  8
0
 62
7
100
AcDbSpline
 70
8
 71
3
 72
8
 73
4
 74
0
 40
0
 40
0
 40
0
 40
0
 40
1
 40
1
 40
1
 40
1
 10
29.640766
 20
51.495438
 30
0.0
 10
28.498030
 20
50.240519
 30
0.0
 10
26.879043
 20
49.209966
 30
0.0
 10
24.766872
 20
48.394255
 30
0.0
  0
SPLINE
  5
10a
100
AcDbEntity
  8
0
 62
7
100
AcDbSpline
 70
8
 71
3
 72
8
 73
4
 74
0
 40
0
 40
0
 40
0
 40
0
 40
1
 40
1
 40
1
 40
1
 10
24.766872
 20
48.394255
 30
0.0
 10
27.701633
 20
48.546655
 30
0.0
 10
29.822535
 20
48.071727
 30
0.0
 10
31.129578
 20
46.969472
 30
0.0
  0
SPLINE
  5
10b
100
AcDbEntity
  8
0
 62
7
100
AcDbSpline
 70
8
 71
3
 72
8
 73
4
 74
0
 40
0
 40
0
 40
0
 40
0
 40
1
 40
1
 40
1
 40
1
 10
31.129578
 20
46.969472
 30
0.0
 10
32.428154
 20
45.866952
 30
0.0
 10
32.904405
 20
44.325488
 30
0.0
 10
32.575527
 20
42.353812
 30
0.0
  0
SPLINE
  5
10c
100
AcDbEntity
  8
0
 62
7
100
AcDbSpline
 70
8
 71
3
 72
8
 73
4
 74
0
 40
0
 40
0
 40
0
 40
0
 40
1
 40
1
 40
1
 40
1
 10
32.575527
 20
42.353812
 30
0.0
 10
32.410956
 20
41.018194
 30
0.0
 10
31.848187
 20
39.718824
 30
0.0
 10
30.913149
 20
38.445912
 30
0.0
  0
SPLINE
  5
10d
100
AcDbEntity
  8
0
 62
7
100
AcDbSpline
 70
8
 71
3
 72
8
 73
4
 74
0
 40
0
 40
0
 40
0
 40
0
 40
1
 40
1
 40
1
 40
1
 10
30.913149
 20
38.445912
 30
0.0
 10
29.978375
 20
37.182261
 30
0.0
 10
28.731657
 20
36.062014
 30
0.0
 10
27.181991
 20
35.085172
 30
0.0
  0
SPLINE
  5
10e
100
AcDbEntity
  8
0
 62
7
100
AcDbSpline
 70
8
 71
3
 72
8
 73
4
 74
0
 40
0
 40
0
 40
0
 40
0
 40
1
 40
1
 40
1
 40
1
 10
27.181991
 20
35.085172
 30
0.0
 10
25.632589
 20
34.117060
 30
0.0
 10
23.754046
 20
33.355324
 30
0.0
 10
21.537788
 20
32.799699
 30
0.0
  0
SPLINE
  5
10f
100
AcDbEntity
  8
0
 62
7
100
AcDbSpline
 70
8
 71
3
 72
8
 73
4
 74
0
 40
0
 40
0
 40
0
 40
0
 40
1
 40
1
 40
1
 40
1
 10
21.537788
 20
32.799699
 30
0.0
 10
19.321583
 20
32.244073
 30
0.0
 10
16.707206
 20
31.813860
 30
0.0
 10
13.694578
 20
31.491068
 30
0.0
  0
SPLINE
  5
110
100
AcDbEntity
  8
0
 62
7
100
AcDbSpline
 70
8
 71
3
 72
8
 73
4
 74
0
 40
0
 40
0
 40
0
 40
0
 40
1
 40
1
 40
1
 40
1
 10
13.694578
 20
31.491068
 30
0.0
 10
12.560520
 20
31.374651
 30
0.0
 10
11.461069
 20
31.267230
 30
0.0
 10
10.404905
 20
31.159545
 30
0.0
  0
SPLINE
  5
111
100
AcDbEntity
  8
0
 62
7
100
AcDbSpline
 70
8
 71
3
 72
8
 73
4
 74
0
 40
0
 40
0
 40
0
 40
0
 40
1
 40
1
 40
1
 40
1
 10
10.404905
 20
31.159545
 30
0.0
 10
9.348766
 20
31.052124
 30
0.0
 10
8.266646
 20
30.917716
 30
0.0
 10
7.158543
 20
30.756320
 30
0.0
  0
SPLINE
  5
112
100
AcDbEntity
  8
0
 62
7
100
AcDbSpline
 70
8
 71
3
 72
8
 73
4
 74
0
 40
0
 40
0
 40
0
 40
0
 40
1
 40
1
 40
1
 40
1
 10
7.158543
 20
30.756320
 30
0.0
 10
6.414058
 20
30.648634
 30
0.0
 10
5.669546
 20
30.532217
 30
0.0
 10
4.942365
 20
30.406805
 30
0.0
  0
SPLINE
  5
113
100
AcDbEntity
  8
0
 62
7
100
AcDbSpline
 70
8
 71
3
 72
8
 73
4
 74
0
 40
0
 40
0
 40
0
 40
0
 40
1
 40
1
 40
1
 40
1
 10
4.942365
 20
30.406805
 30
0.0
 10
4.215183
 20
30.290123
 30
0.0
 10
3.488002
 20
30.164711
 30
0.0
 10
2.778124
 20
30.030302
 30
0.0
  0
LINE
  5
114
100
AcDbEntity
  8
0
 62
7
100
AcDbLine
 10
2.778124
 20
30.030302
 30
0.0
 11
5.271322
 21
57.858674
 31
0.0
  0
SPLINE
  5
115
100
AcDbEntity
  8
0
 62
7
100
AcDbSpline
 70
8
 71
3
 72
8
 73
4
 74
0
 40
0
 40
0
 40
0
 40
0
 40
1
 40
1
 40
1
 40
1
 10
13.694578
 20
48.044740
 30
0.0
 10
14.811306
 20
48.143429
 30
0.0
 10
15.850140
 20
48.277838
 30
0.0
 10
16.793751
 20
48.439234
 30
0.0
  0
SPLINE
  5
116
100
AcDbEntity
  8
0
 62
7
100
AcDbSpline
 70
8
 71
3
 72
8
 73
4
 74
0
 40
0
 40
0
 40
0
 40
0
 40
1
 40
1
 40
1
 40
1
 10
16.793751
 20
48.439234
 30
0.0
 10
17.737362
 20
48.600630
 30
0.0
 10
18.568419
 20
48.842459
 30
0.0
 10
19.278297
 20
49.173982
 30
0.0
  0
SPLINE
  5
117
100
AcDbEntity
  8
0
 62
7
100
AcDbSpline
 70
8
 71
3
 72
8
 73
4
 74
0
 40
0
 40
0
 40
0
 40
0
 40
1
 40
1
 40
1
 40
1
 10
19.278297
 20
49.173982
 30
0.0
 10
19.988175
 20
49.505770
 30
0.0
 10
20.559516
 20
49.935983
 30
0.0
 10
21.001027
 20
50.473617
 30
0.0
  0
SPLINE
  5
118
100
AcDbEntity
  8
0
 62
7
100
AcDbSpline
 70
8
 71
3
 72
8
 73
4
 74
0
 40
0
 40
0
 40
0
 40
0
 40
1
 40
1
 40
1
 40
1
 10
21.001027
 20
50.473617
 30
0.0
 10
21.433859
 20
51.011515
 30
0.0
 10
21.702253
 20
51.737268
 30
0.0
 10
21.806128
 20
52.642673
 30
0.0
  0
SPLINE
  5
119
100
AcDbEntity
  8
0
 62
7
100
AcDbSpline
 70
8
 71
3
 72
8
 73
4
 74
0
 40
0
 40
0
 40
0
 40
0
 40
1
 40
1
 40
1
 40
1
 10
21.806128
 20
52.642673
 30
0.0
 10
21.892700
 20
53.449124
 30
0.0
 10
21.771494
 20
54.058724
 30
0.0
 10
21.442538
 20
54.488937
 30
0.0
  0
SPLINE
  5
11a
100
AcDbEntity
  8
0
 62
7
100
AcDbSpline
 70
8
 71
3
 72
8
 73
4
 74
0
 40
0
 40
0
 40
0
 40
0
 40
1
 40
1
 40
1
 40
1
 10
21.442538
 20
54.488937
 30
0.0
 10
21.113581
 20
54.919150
 30
0.0
 10
20.611481
 20
55.178971
 30
0.0
 10
19.944889
 20
55.277661
 30
0.0
  0
SPLINE
  5
11b
100
AcDbEntity
  8
0
 62
7
100
AcDbSpline
 70
8
 71
3
 72
8
 73
4
 74
0
 40
0
 40
0
 40
0
 40
0
 40
1
 40
1
 40
1
 40
1
 10
19.944889
 20
55.277661
 30
0.0
 10
19.278323
 20
55.376086
 30
0.0
 10
18.464544
 20
55.331371
 30
0.0
 10
17.503629
 20
55.151984
 30
0.0
  0
SPLINE
  5
11c
100
AcDbEntity
  8
0
 62
7
100
AcDbSpline
 70
8
 71
3
 72
8
 73
4
 74
0
 40
0
 40
0
 40
0
 40
0
 40
1
 40
1
 40
1
 40
1
 10
17.503629
 20
55.151984
 30
0.0
 10
16.542714
 20
54.972860
 30
0.0
 10
15.486550
 20
54.695048
 30
0.0
 10
14.335188
 20
54.336537
 30
0.0
  0
LINE
  5
11d
100
AcDbEntity
  8
0
 62
7
100
AcDbLine
 10
14.335188
 20
54.336537
 30
0.0
 11
13.694578
 21
48.044740
 31
0.0
  0
SPLINE
  5
11e
100
AcDbEntity
  8
0
 62
7
100
AcDbSpline
 70
8
 71
3
 72
8
 73
4
 74
0
 40
0
 40
0
 40
0
 40
0
 40
1
 40
1
 40
1
 40
1
 10
12.534511
 20
36.617640
 30
0.0
 10
15.547139
 20
36.635631
 30
0.0
 10
17.789300
 20
37.065844
 30
0.0
 10
19.286949
 20
37.872559
 30
0.0
  0
SPLINE
  5
11f
100
AcDbEntity
  8
0
 62
7
100
AcDbSpline
 70
8
 71
3
 72
8
 73
4
 74
0
 40
0
 40
0
 40
0
 40
0
 40
1
 40
1
 40
1
 40
1
 10
19.286949
 20
37.872559
 30
0.0
 10
20.784624
 20
38.679010
 30
0.0
 10
21.589699
 20
39.826245
 30
0.0
 10
21.719557
 20
41.296006
 30
0.0
  0
SPLINE
  5
120
100
AcDbEntity
  8
0
 62
7
100
AcDbSpline
 70
8
 71
3
 72
8
 73
4
 74
0
 40
0
 40
0
 40
0
 40
0
 40
1
 40
1
 40
1
 40
1
 10
21.719557
 20
41.296006
 30
0.0
 10
21.823459
 20
42.228134
 30
0.0
 10
21.676271
 20
42.936160
 30
0.0
 10
21.278046
 20
43.420083
 30
0.0
  0
SPLINE
  5
121
100
AcDbEntity
  8
0
 62
7
100
AcDbSpline
 70
8
 71
3
 72
8
 73
4
 74
0
 40
0
 40
0
 40
0
 40
0
 40
1
 40
1
 40
1
 40
1
 10
21.278046
 20
43.420083
 30
0.0
 10
20.879821
 20
43.904271
 30
0.0
 10
20.308480
 20
44.226799
 30
0.0
 10
19.555316
 20
44.370203
 30
0.0
  0
SPLINE
  5
122
100
AcDbEntity
  8
0
 62
7
100
AcDbSpline
 70
8
 71
3
 72
8
 73
4
 74
0
 40
0
 40
0
 40
0
 40
0
 40
1
 40
1
 40
1
 40
1
 10
19.555316
 20
44.370203
 30
0.0
 10
18.802179
 20
44.522603
 30
0.0
 10
17.893175
 20
44.522603
 30
0.0
 10
16.811055
 20
44.379199
 30
0.0
  0
SPLINE
  5
123
100
AcDbEntity
  8
0
 62
7
100
AcDbSpline
 70
8
 71
3
 72
8
 73
4
 74
0
 40
0
 40
0
 40
0
 40
0
 40
1
 40
1
 40
1
 40
1
 10
16.811055
 20
44.379199
 30
0.0
 10
15.728935
 20
44.235795
 30
0.0
 10
14.542939
 20
44.011692
 30
0.0
 10
13.253067
 20
43.715888
 30
0.0
  0
LINE
  5
124
100
AcDbEntity
  8
0
 62
7
100
AcDbLine
 10
13.253067
 20
43.715888
 30
0.0
 11
12.534511
 21
36.617640
 31
0.0
  0
SPLINE
  5
125
100
AcDbEntity
  8
0
 62
7
100
AcDbSpline
 70
8
 71
3
 72
8
 73
4
 74
0
 40
0
 40
0
 40
0
 40
0
 40
1
 40
1
 40
1
 40
1
 10
51.268622
 20
36.425816
 30
0.0
 10
48.044406
 20
35.964647
 30
0.0
 10
45.424764
 20
36.017829
 30
0.0
 10
43.418427
 20
36.585625
 30
0.0
  0
SPLINE
  5
126
100
AcDbEntity
  8
0
 62
7
100
AcDbSpline
 70
8
 71
3
 72
8
 73
4
 74
0
 40
0
 40
0
 40
0
 40
0
 40
1
 40
1
 40
1
 40
1
 10
43.418427
 20
36.585625
 30
0.0
 10
41.403359
 20
37.153157
 30
0.0
 10
39.852634
 20
38.040305
 30
0.0
 10
38.766254
 20
39.264534
 30
0.0
  0
SPLINE
  5
127
100
AcDbEntity
  8
0
 62
7
100
AcDbSpline
 70
8
 71
3
 72
8
 73
4
 74
0
 40
0
 40
0
 40
0
 40
0
 40
1
 40
1
 40
1
 40
1
 10
38.766254
 20
39.264534
 30
0.0
 10
37.671143
 20
40.479766
 30
0.0
 10
36.970261
 20
41.925715
 30
0.0
 10
36.663608
 20
43.611113
 30
0.0
  0
SPLINE
  5
128
100
AcDbEntity
  8
0
 62
7
100
AcDbSpline
 70
8
 71
3
 72
8
 73
4
 74
0
 40
0
 40
0
 40
0
 40
0
 40
1
 40
1
 40
1
 40
1
 10
36.663608
 20
43.611113
 30
0.0
 10
36.356956
 20
45.296510
 30
0.0
 10
36.295573
 20
47.026093
 30
0.0
 10
36.497185
 20
48.809122
 30
0.0
  0
SPLINE
  5
129
100
AcDbEntity
  8
0
 62
7
100
AcDbSpline
 70
8
 71
3
 72
8
 73
4
 74
0
 40
0
 40
0
 40
0
 40
0
 40
1
 40
1
 40
1
 40
1
 10
36.497185
 20
48.809122
 30
0.0
 10
36.733723
 20
50.574423
 30
0.0
 10
37.250455
 20
52.383910
 30
0.0
 10
38.056641
 20
54.237847
 30
0.0
  0
SPLINE
  5
12a
100
AcDbEntity
  8
0
 62
7
100
AcDbSpline
 70
8
 71
3
 72
8
 73
4
 74
0
 40
0
 40
0
 40
0
 40
0
 40
1
 40
1
 40
1
 40
1
 10
38.056641
 20
54.237847
 30
0.0
 10
38.862562
 20
56.091784
 30
0.0
 10
40.036784
 20
57.830363
 30
0.0
 10
41.569782
 20
59.462579
 30
0.0
  0
SPLINE
  5
12b
100
AcDbEntity
  8
0
 62
7
100
AcDbSpline
 70
8
 71
3
 72
8
 73
4
 74
0
 40
0
 40
0
 40
0
 40
0
 40
1
 40
1
 40
1
 40
1
 10
41.569782
 20
59.462579
 30
0.0
 10
43.103043
 20
61.094795
 30
0.0
 10
45.039266
 20
62.523017
 30
0.0
 10
47.378714
 20
63.755977
 30
0.0
  0
SPLINE
  5
12c
100
AcDbEntity
  8
0
 62
7
100
AcDbSpline
 70
8
 71
3
 72
8
 73
4
 74
0
 40
0
 40
0
 40
0
 40
0
 40
1
 40
1
 40
1
 40
1
 10
47.378714
 20
63.755977
 30
0.0
 10
49.717897
 20
64.988936
 30
0.0
 10
52.547883
 20
65.876085
 30
0.0
 10
55.868407
 20
66.408163
 30
0.0
  0
SPLINE
  5
12d
100
AcDbEntity
  8
0
 62
7
100
AcDbSpline
 70
8
 71
3
 72
8
 73
4
 74
0
 40
0
 40
0
 40
0
 40
0
 40
1
 40
1
 40
1
 40
1
 10
55.868407
 20
66.408163
 30
0.0
 10
59.188931
 20
66.940505
 30
0.0
 10
61.817305
 20
66.940505
 30
0.0
 10
63.884761
 20
66.408163
 30
0.0
  0
SPLINE
  5
12e
100
AcDbEntity
  8
0
 62
7
100
AcDbSpline
 70
8
 71
3
 72
8
 73
4
 74
0
 40
0
 40
0
 40
0
 40
0
 40
1
 40
1
 40
1
 40
1
 10
63.884761
 20
66.408163
 30
0.0
 10
65.952481
 20
65.876085
 30
0.0
 10
67.529664
 20
64.988936
 30
0.0
 10
68.624775
 20
63.755977
 30
0.0
  0
SPLINE
  5
12f
100
AcDbEntity
  8
0
 62
7
100
AcDbSpline
 70
8
 71
3
 72
8
 73
4
 74
0
 40
0
 40
0
 40
0
 40
0
 40
1
 40
1
 40
1
 40
1
 10
68.624775
 20
63.755977
 30
0.0
 10
69.719887
 20
62.514022
 30
0.0
 10
70.377112
 20
61.032618
 30
0.0
 10
70.622381
 20
59.311767
 30
0.0
  0
SPLINE
  5
130
100
AcDbEntity
  8
0
 62
7
100
AcDbSpline
 70
8
 71
3
 72
8
 73
4
 74
0
 40
0
 40
0
 40
0
 40
0
 40
1
 40
1
 40
1
 40
1
 10
70.622381
 20
59.311767
 30
0.0
 10
70.858919
 20
57.582184
 30
0.0
 10
70.823730
 20
55.816882
 30
0.0
 10
70.508346
 20
54.007130
 30
0.0
  0
SPLINE
  5
131
100
AcDbEntity
  8
0
 62
7
100
AcDbSpline
 70
8
 71
3
 72
8
 73
4
 74
0
 40
0
 40
0
 40
0
 40
0
 40
1
 40
1
 40
1
 40
1
 10
70.508346
 20
54.007130
 30
0.0
 10
70.192962
 20
52.197643
 30
0.0
 10
69.597120
 20
50.299256
 30
0.0
 10
68.738546
 20
48.409865
 30
0.0
  0
SPLINE
  5
132
100
AcDbEntity
  8
0
 62
7
100
AcDbSpline
 70
8
 71
3
 72
8
 73
4
 74
0
 40
0
 40
0
 40
0
 40
0
 40
1
 40
1
 40
1
 40
1
 10
68.738546
 20
48.409865
 30
0.0
 10
67.879973
 20
46.520474
 30
0.0
 10
66.688553
 20
44.755437
 30
0.0
 10
65.164022
 20
43.131952
 30
0.0
  0
SPLINE
  5
133
100
AcDbEntity
  8
0
 62
7
100
AcDbSpline
 70
8
 71
3
 72
8
 73
4
 74
0
 40
0
 40
0
 40
0
 40
0
 40
1
 40
1
 40
1
 40
1
 10
65.164022
 20
43.131952
 30
0.0
 10
63.639492
 20
41.508732
 30
0.0
 10
61.738459
 20
40.098237
 30
0.0
 10
59.451663
 20
38.900731
 30
0.0
  0
SPLINE
  5
134
100
AcDbEntity
  8
0
 62
7
100
AcDbSpline
 70
8
 71
3
 72
8
 73
4
 74
0
 40
0
 40
0
 40
0
 40
0
 40
1
 40
1
 40
1
 40
1
 10
59.451663
 20
38.900731
 30
0.0
 10
57.173863
 20
37.703226
 30
0.0
 10
54.448916
 20
36.887250
 30
0.0
 10
51.259891
 20
36.425816
 30
0.0
  0
LINE
  5
135
100
AcDbEntity
  8
0
 62
7
100
AcDbLine
 10
51.259891
 20
36.425816
 30
0.0
 11
51.268622
 21
36.425816
 31
0.0
  0
SPLINE
  5
136
100
AcDbEntity
  8
0
 62
7
100
AcDbSpline
 70
8
 71
3
 72
8
 73
4
 74
0
 40
0
 40
0
 40
0
 40
0
 40
1
 40
1
 40
1
 40
1
 10
54.974644
 20
60.526999
 30
0.0
 10
53.519712
 20
60.295110
 30
0.0
 10
52.311081
 20
59.737482
 30
0.0
 10
51.330005
 20
58.992414
 30
0.0
  0
SPLINE
  5
137
100
AcDbEntity
  8
0
 62
7
100
AcDbSpline
 70
8
 71
3
 72
8
 73
4
 74
0
 40
0
 40
0
 40
0
 40
0
 40
1
 40
1
 40
1
 40
1
 10
51.330005
 20
58.992414
 30
0.0
 10
50.357396
 20
58.247347
 30
0.0
 10
49.551474
 20
57.404648
 30
0.0
 10
48.911976
 20
56.446591
 30
0.0
  0
SPLINE
  5
138
100
AcDbEntity
  8
0
 62
7
100
AcDbSpline
 70
8
 71
3
 72
8
 73
4
 74
0
 40
0
 40
0
 40
0
 40
0
 40
1
 40
1
 40
1
 40
1
 10
48.911976
 20
56.446591
 30
0.0
 10
48.272213
 20
55.488534
 30
0.0
 10
47.781675
 20
54.468564
 30
0.0
 10
47.448829
 20
53.377421
 30
0.0
  0
SPLINE
  5
139
100
AcDbEntity
  8
0
 62
7
100
AcDbSpline
 70
8
 71
3
 72
8
 73
4
 74
0
 40
0
 40
0
 40
0
 40
0
 40
1
 40
1
 40
1
 40
1
 10
47.448829
 20
53.377421
 30
0.0
 10
47.106987
 20
52.286279
 30
0.0
 10
46.870449
 20
51.266309
 30
0.0
 10
46.730220
 20
50.290525
 30
0.0
  0
SPLINE
  5
13a
100
AcDbEntity
  8
0
 62
7
100
AcDbSpline
 70
8
 71
3
 72
8
 73
4
 74
0
 40
0
 40
0
 40
0
 40
0
 40
1
 40
1
 40
1
 40
1
 10
46.730220
 20
50.290525
 30
0.0
 10
46.589990
 20
49.314741
 30
0.0
 10
46.520140
 20
48.259052
 30
0.0
 10
46.546334
 20
47.176906
 30
0.0
  0
SPLINE
  5
13b
100
AcDbEntity
  8
0
 62
7
100
AcDbSpline
 70
8
 71
3
 72
8
 73
4
 74
0
 40
0
 40
0
 40
0
 40
0
 40
1
 40
1
 40
1
 40
1
 10
46.546334
 20
47.176906
 30
0.0
 10
46.563797
 20
46.094759
 30
0.0
 10
46.756678
 20
45.101247
 30
0.0
 10
47.115718
 20
44.214099
 30
0.0
  0
SPLINE
  5
13c
100
AcDbEntity
  8
0
 62
7
100
AcDbSpline
 70
8
 71
3
 72
8
 73
4
 74
0
 40
0
 40
0
 40
0
 40
0
 40
1
 40
1
 40
1
 40
1
 10
47.115718
 20
44.214099
 30
0.0
 10
47.475023
 20
43.318219
 30
0.0
 10
48.035675
 20
42.608606
 30
0.0
 10
48.806672
 20
42.085259
 30
0.0
  0
SPLINE
  5
13d
100
AcDbEntity
  8
0
 62
7
100
AcDbSpline
 70
8
 71
3
 72
8
 73
4
 74
0
 40
0
 40
0
 40
0
 40
0
 40
1
 40
1
 40
1
 40
1
 10
48.806672
 20
42.085259
 30
0.0
 10
49.568937
 20
41.552917
 30
0.0
 10
50.655317
 20
41.384377
 30
0.0
 10
52.057081
 20
41.561913
 30
0.0
  0
SPLINE
  5
13e
100
AcDbEntity
  8
0
 62
7
100
AcDbSpline
 70
8
 71
3
 72
8
 73
4
 74
0
 40
0
 40
0
 40
0
 40
0
 40
1
 40
1
 40
1
 40
1
 10
52.057081
 20
41.561913
 30
0.0
 10
53.423920
 20
41.783634
 30
0.0
 10
54.589146
 20
42.298249
 30
0.0
 10
55.561755
 20
43.078771
 30
0.0
  0
SPLINE
  5
13f
100
AcDbEntity
  8
0
 62
7
100
AcDbSpline
 70
8
 71
3
 72
8
 73
4
 74
0
 40
0
 40
0
 40
0
 40
0
 40
1
 40
1
 40
1
 40
1
 10
55.561755
 20
43.078771
 30
0.0
 10
56.525368
 20
43.868288
 30
0.0
 10
57.340286
 20
44.781895
 30
0.0
 10
58.005978
 20
45.837584
 30
0.0
  0
SPLINE
  5
140
100
AcDbEntity
  8
0
 62
7
100
AcDbSpline
 70
8
 71
3
 72
8
 73
4
 74
0
 40
0
 40
0
 40
0
 40
0
 40
1
 40
1
 40
1
 40
1
 10
58.005978
 20
45.837584
 30
0.0
 10
58.663204
 20
46.893007
 30
0.0
 10
59.179935
 20
47.993146
 30
0.0
 10
59.539240
 20
49.146201
 30
0.0
  0
SPLINE
  5
141
100
AcDbEntity
  8
0
 62
7
100
AcDbSpline
 70
8
 71
3
 72
8
 73
4
 74
0
 40
0
 40
0
 40
0
 40
0
 40
1
 40
1
 40
1
 40
1
 10
59.539240
 20
49.146201
 30
0.0
 10
59.898544
 20
50.299256
 30
0.0
 10
60.161276
 20
51.372672
 30
0.0
 10
60.327699
 20
52.375179
 30
0.0
  0
SPLINE
  5
142
100
AcDbEntity
  8
0
 62
7
100
AcDbSpline
 70
8
 71
3
 72
8
 73
4
 74
0
 40
0
 40
0
 40
0
 40
0
 40
1
 40
1
 40
1
 40
1
 10
60.327699
 20
52.375179
 30
0.0
 10
60.494387
 20
53.377421
 30
0.0
 10
60.564237
 20
54.362202
 30
0.0
 10
60.546774
 20
55.408894
 30
0.0
  0
SPLINE
  5
143
100
AcDbEntity
  8
0
 62
7
100
AcDbSpline
 70
8
 71
3
 72
8
 73
4
 74
0
 40
0
 40
0
 40
0
 40
0
 40
1
 40
1
 40
1
 40
1
 10
60.546774
 20
55.408894
 30
0.0
 10
60.538043
 20
56.446591
 30
0.0
 10
60.345426
 20
57.377925
 30
0.0
 10
59.977390
 20
58.176438
 30
0.0
  0
SPLINE
  5
144
100
AcDbEntity
  8
0
 62
7
100
AcDbSpline
 70
8
 71
3
 72
8
 73
4
 74
0
 40
0
 40
0
 40
0
 40
0
 40
1
 40
1
 40
1
 40
1
 10
59.977390
 20
58.176438
 30
0.0
 10
59.600623
 20
58.983683
 30
0.0
 10
59.031239
 20
59.613392
 30
0.0
 10
58.242516
 20
60.083557
 30
0.0
  0
SPLINE
  5
145
100
AcDbEntity
  8
0
 62
7
100
AcDbSpline
 70
8
 71
3
 72
8
 73
4
 74
0
 40
0
 40
0
 40
0
 40
0
 40
1
 40
1
 40
1
 40
1
 10
58.242516
 20
60.083557
 30
0.0
 10
57.454057
 20
60.553722
 30
0.0
 10
56.360345
 20
60.747853
 30
0.0
 10
54.974644
 20
60.526999
 30
0.0
  0
LINE
  5
146
100
AcDbEntity
  8
0
 62
7
100
AcDbLine
 10
54.974644
 20
60.526999
 30
0.0
 11
54.974644
 21
60.526999
 31
0.0
  0
LINE
  5
147
100
AcDbEntity
  8
0
 62
7
100
AcDbLine
 10
72.099022
 20
68.240669
 30
0.0
 11
83.190101
 21
69.997504
 31
0.0
  0
LINE
  5
148
100
AcDbEntity
  8
0
 62
7
100
AcDbLine
 10
83.190101
 20
69.997504
 30
0.0
 11
86.857759
 21
58.306349
 31
0.0
  0
LINE
  5
149
100
AcDbEntity
  8
0
 62
7
100
AcDbLine
 10
86.857759
 20
58.306349
 30
0.0
 11
95.341896
 21
71.921026
 31
0.0
  0
LINE
  5
14a
100
AcDbEntity
  8
0
 62
7
100
AcDbLine
 10
95.341896
 20
71.921026
 30
0.0
 11
106.494887
 21
73.686592
 31
0.0
  0
LINE
  5
14b
100
AcDbEntity
  8
0
 62
7
100
AcDbLine
 10
106.494887
 20
73.686592
 30
0.0
 11
90.304489
 21
51.964281
 31
0.0
  0
LINE
  5
14c
100
AcDbEntity
  8
0
 62
7
100
AcDbLine
 10
90.304489
 20
51.964281
 30
0.0
 11
88.404250
 21
42.513091
 31
0.0
  0
LINE
  5
14d
100
AcDbEntity
  8
0
 62
7
100
AcDbLine
 10
88.404250
 20
42.513091
 30
0.0
 11
78.691916
 21
41.142813
 31
0.0
  0
LINE
  5
14e
100
AcDbEntity
  8
0
 62
7
100
AcDbLine
 10
78.691916
 20
41.142813
 30
0.0
 11
80.468330
 21
50.523888
 31
0.0
  0
LINE
  5
14f
100
AcDbEntity
  8
0
 62
7
100
AcDbLine
 10
80.468330
 20
50.523888
 30
0.0
 11
72.099022
 21
68.240669
 31
0.0
  0
SPLINE
  5
150
100
AcDbEntity
  8
0
 62
7
100
AcDbSpline
 70
8
 71
3
 72
8
 73
4
 74
0
 40
0
 40
0
 40
0
 40
0
 40
1
 40
1
 40
1
 40
1
 10
104.791763
 20
52.196850
 30
0.0
 10
105.324899
 20
51.428499
 30
0.0
 10
106.181356
 20
50.845886
 30
0.0
 10
107.352403
 20
50.457213
 30
0.0
  0
SPLINE
  5
151
100
AcDbEntity
  8
0
 62
7
100
AcDbSpline
 70
8
 71
3
 72
8
 73
4
 74
0
 40
0
 40
0
 40
0
 40
0
 40
1
 40
1
 40
1
 40
1
 10
107.352403
 20
50.457213
 30
0.0
 10
108.523185
 20
50.059808
 30
0.0
 10
109.729157
 20
49.865604
 30
0.0
 10
110.970054
 20
49.874600
 30
0.0
  0
SPLINE
  5
152
100
AcDbEntity
  8
0
 62
7
100
AcDbSpline
 70
8
 71
3
 72
8
 73
4
 74
0
 40
0
 40
0
 40
0
 40
0
 40
1
 40
1
 40
1
 40
1
 10
110.970054
 20
49.874600
 30
0.0
 10
112.210951
 20
49.874600
 30
0.0
 10
113.381998
 20
50.121721
 30
0.0
 10
114.491926
 20
50.589769
 30
0.0
  0
SPLINE
  5
153
100
AcDbEntity
  8
0
 62
7
100
AcDbSpline
 70
8
 71
3
 72
8
 73
4
 74
0
 40
0
 40
0
 40
0
 40
0
 40
1
 40
1
 40
1
 40
1
 10
114.491926
 20
50.589769
 30
0.0
 10
115.601590
 20
51.057817
 30
0.0
 10
116.379465
 20
51.763991
 30
0.0
 10
116.833755
 20
52.708819
 30
0.0
  0
SPLINE
  5
154
100
AcDbEntity
  8
0
 62
7
100
AcDbSpline
 70
8
 71
3
 72
8
 73
4
 74
0
 40
0
 40
0
 40
0
 40
0
 40
1
 40
1
 40
1
 40
1
 10
116.833755
 20
52.708819
 30
0.0
 10
117.218195
 20
53.538817
 30
0.0
 10
117.279579
 20
54.307168
 30
0.0
 10
117.008645
 20
55.013606
 30
0.0
  0
SPLINE
  5
155
100
AcDbEntity
  8
0
 62
7
100
AcDbSpline
 70
8
 71
3
 72
8
 73
4
 74
0
 40
0
 40
0
 40
0
 40
0
 40
1
 40
1
 40
1
 40
1
 10
117.008645
 20
55.013606
 30
0.0
 10
116.737712
 20
55.719780
 30
0.0
 10
116.134726
 20
56.240745
 30
0.0
 10
115.199687
 20
56.576237
 30
0.0
  0
SPLINE
  5
156
100
AcDbEntity
  8
0
 62
7
100
AcDbSpline
 70
8
 71
3
 72
8
 73
4
 74
0
 40
0
 40
0
 40
0
 40
0
 40
1
 40
1
 40
1
 40
1
 10
115.199687
 20
56.576237
 30
0.0
 10
114.299574
 20
56.894266
 30
0.0
 10
113.285954
 20
57.097202
 30
0.0
 10
112.176026
 20
57.194569
 30
0.0
  0
SPLINE
  5
157
100
AcDbEntity
  8
0
 62
7
100
AcDbSpline
 70
8
 71
3
 72
8
 73
4
 74
0
 40
0
 40
0
 40
0
 40
0
 40
1
 40
1
 40
1
 40
1
 10
112.176026
 20
57.194569
 30
0.0
 10
111.066363
 20
57.291671
 30
0.0
 10
109.991359
 20
57.432959
 30
0.0
 10
108.960277
 20
57.618167
 30
0.0
  0
SPLINE
  5
158
100
AcDbEntity
  8
0
 62
7
100
AcDbSpline
 70
8
 71
3
 72
8
 73
4
 74
0
 40
0
 40
0
 40
0
 40
0
 40
1
 40
1
 40
1
 40
1
 10
108.960277
 20
57.618167
 30
0.0
 10
107.929195
 20
57.803640
 30
0.0
 10
106.993892
 20
58.095211
 30
0.0
 10
106.155162
 20
58.501347
 30
0.0
  0
SPLINE
  5
159
100
AcDbEntity
  8
0
 62
7
100
AcDbSpline
 70
8
 71
3
 72
8
 73
4
 74
0
 40
0
 40
0
 40
0
 40
0
 40
1
 40
1
 40
1
 40
1
 10
106.155162
 20
58.501347
 30
0.0
 10
105.316168
 20
58.898487
 30
0.0
 10
104.748107
 20
59.578467
 30
0.0
 10
104.442248
 20
60.532026
 30
0.0
  0
SPLINE
  5
15a
100
AcDbEntity
  8
0
 62
7
100
AcDbSpline
 70
8
 71
3
 72
8
 73
4
 74
0
 40
0
 40
0
 40
0
 40
0
 40
1
 40
1
 40
1
 40
1
 10
104.442248
 20
60.532026
 30
0.0
 10
104.223967
 20
61.185547
 30
0.0
 10
104.145121
 20
61.909448
 30
0.0
 10
104.188777
 20
62.704257
 30
0.0
  0
SPLINE
  5
15b
100
AcDbEntity
  8
0
 62
7
100
AcDbSpline
 70
8
 71
3
 72
8
 73
4
 74
0
 40
0
 40
0
 40
0
 40
0
 40
1
 40
1
 40
1
 40
1
 10
104.188777
 20
62.704257
 30
0.0
 10
104.241429
 20
63.499066
 30
0.0
 10
104.381129
 20
64.284879
 30
0.0
 10
104.625869
 20
65.061961
 30
0.0
  0
SPLINE
  5
15c
100
AcDbEntity
  8
0
 62
7
100
AcDbSpline
 70
8
 71
3
 72
8
 73
4
 74
0
 40
0
 40
0
 40
0
 40
0
 40
1
 40
1
 40
1
 40
1
 10
104.625869
 20
65.061961
 30
0.0
 10
104.870609
 20
65.838779
 30
0.0
 10
105.176468
 20
66.571675
 30
0.0
 10
105.543445
 20
67.278114
 30
0.0
  0
SPLINE
  5
15d
100
AcDbEntity
  8
0
 62
7
100
AcDbSpline
 70
8
 71
3
 72
8
 73
4
 74
0
 40
0
 40
0
 40
0
 40
0
 40
1
 40
1
 40
1
 40
1
 10
105.543445
 20
67.278114
 30
0.0
 10
105.910422
 20
67.975820
 30
0.0
 10
106.277400
 20
68.558433
 30
0.0
 10
106.653108
 20
69.008755
 30
0.0
  0
SPLINE
  5
15e
100
AcDbEntity
  8
0
 62
7
100
AcDbSpline
 70
8
 71
3
 72
8
 73
4
 74
0
 40
0
 40
0
 40
0
 40
0
 40
1
 40
1
 40
1
 40
1
 10
106.653108
 20
69.008755
 30
0.0
 10
107.361134
 20
69.909397
 30
0.0
 10
108.234789
 20
70.783581
 30
0.0
 10
109.266136
 20
71.640038
 30
0.0
  0
SPLINE
  5
15f
100
AcDbEntity
  8
0
 62
7
100
AcDbSpline
 70
8
 71
3
 72
8
 73
4
 74
0
 40
0
 40
0
 40
0
 40
0
 40
1
 40
1
 40
1
 40
1
 10
109.266136
 20
71.640038
 30
0.0
 10
110.305949
 20
72.487764
 30
0.0
 10
111.485728
 20
73.264846
 30
0.0
 10
112.813937
 20
73.971284
 30
0.0
  0
SPLINE
  5
160
100
AcDbEntity
  8
0
 62
7
100
AcDbSpline
 70
8
 71
3
 72
8
 73
4
 74
0
 40
0
 40
0
 40
0
 40
0
 40
1
 40
1
 40
1
 40
1
 10
112.813937
 20
73.971284
 30
0.0
 10
114.142411
 20
74.668727
 30
0.0
 10
115.627783
 20
75.278062
 30
0.0
 10
117.279579
 20
75.799028
 30
0.0
  0
SPLINE
  5
161
100
AcDbEntity
  8
0
 62
7
100
AcDbSpline
 70
8
 71
3
 72
8
 73
4
 74
0
 40
0
 40
0
 40
0
 40
0
 40
1
 40
1
 40
1
 40
1
 10
117.279579
 20
75.799028
 30
0.0
 10
118.931109
 20
76.319993
 30
0.0
 10
120.722605
 20
76.708401
 30
0.0
 10
122.653800
 20
76.964518
 30
0.0
  0
SPLINE
  5
162
100
AcDbEntity
  8
0
 62
7
100
AcDbSpline
 70
8
 71
3
 72
8
 73
4
 74
0
 40
0
 40
0
 40
0
 40
0
 40
1
 40
1
 40
1
 40
1
 10
122.653800
 20
76.964518
 30
0.0
 10
123.151747
 20
77.043893
 30
0.0
 10
123.711076
 20
77.096810
 30
0.0
 10
124.331525
 20
77.114537
 30
0.0
  0
SPLINE
  5
163
100
AcDbEntity
  8
0
 62
7
100
AcDbSpline
 70
8
 71
3
 72
8
 73
4
 74
0
 40
0
 40
0
 40
0
 40
0
 40
1
 40
1
 40
1
 40
1
 10
124.331525
 20
77.114537
 30
0.0
 10
124.951973
 20
77.132264
 30
0.0
 10
125.581153
 20
77.132264
 30
0.0
 10
126.210333
 20
77.096810
 30
0.0
  0
SPLINE
  5
164
100
AcDbEntity
  8
0
 62
7
100
AcDbSpline
 70
8
 71
3
 72
8
 73
4
 74
0
 40
0
 40
0
 40
0
 40
0
 40
1
 40
1
 40
1
 40
1
 10
126.210333
 20
77.096810
 30
0.0
 10
126.839513
 20
77.061620
 30
0.0
 10
127.442499
 20
76.999708
 30
0.0
 10
128.010559
 20
76.884879
 30
0.0
  0
SPLINE
  5
165
100
AcDbEntity
  8
0
 62
7
100
AcDbSpline
 70
8
 71
3
 72
8
 73
4
 74
0
 40
0
 40
0
 40
0
 40
0
 40
1
 40
1
 40
1
 40
1
 10
128.010559
 20
76.884879
 30
0.0
 10
128.578620
 20
76.779045
 30
0.0
 10
129.085563
 20
76.620030
 30
0.0
 10
129.513659
 20
76.425826
 30
0.0
  0
LINE
  5
166
100
AcDbEntity
  8
0
 62
7
100
AcDbLine
 10
129.513659
 20
76.425826
 30
0.0
 11
126.271716
 21
68.434873
 31
0.0
  0
SPLINE
  5
167
100
AcDbEntity
  8
0
 62
7
100
AcDbSpline
 70
8
 71
3
 72
8
 73
4
 74
0
 40
0
 40
0
 40
0
 40
0
 40
1
 40
1
 40
1
 40
1
 10
126.271716
 20
68.434873
 30
0.0
 10
125.721118
 20
69.468072
 30
0.0
 10
124.978167
 20
70.103602
 30
0.0
 10
124.025666
 20
70.341991
 30
0.0
  0
SPLINE
  5
168
100
AcDbEntity
  8
0
 62
7
100
AcDbSpline
 70
8
 71
3
 72
8
 73
4
 74
0
 40
0
 40
0
 40
0
 40
0
 40
1
 40
1
 40
1
 40
1
 10
124.025666
 20
70.341991
 30
0.0
 10
123.073165
 20
70.580381
 30
0.0
 10
122.085739
 20
70.624567
 30
0.0
 10
121.072120
 20
70.492275
 30
0.0
  0
SPLINE
  5
169
100
AcDbEntity
  8
0
 62
7
100
AcDbSpline
 70
8
 71
3
 72
8
 73
4
 74
0
 40
0
 40
0
 40
0
 40
0
 40
1
 40
1
 40
1
 40
1
 10
121.072120
 20
70.492275
 30
0.0
 10
119.306818
 20
70.209700
 30
0.0
 10
117.838644
 20
69.653280
 30
0.0
 10
116.659130
 20
68.805819
 30
0.0
  0
SPLINE
  5
16a
100
AcDbEntity
  8
0
 62
7
100
AcDbSpline
 70
8
 71
3
 72
8
 73
4
 74
0
 40
0
 40
0
 40
0
 40
0
 40
1
 40
1
 40
1
 40
1
 10
116.659130
 20
68.805819
 30
0.0
 10
115.479352
 20
67.958093
 30
0.0
 10
114.701476
 20
66.951353
 30
0.0
 10
114.325768
 20
65.777131
 30
0.0
  0
SPLINE
  5
16b
100
AcDbEntity
  8
0
 62
7
100
AcDbSpline
 70
8
 71
3
 72
8
 73
4
 74
0
 40
0
 40
0
 40
0
 40
0
 40
1
 40
1
 40
1
 40
1
 10
114.325768
 20
65.777131
 30
0.0
 10
113.967521
 20
64.691015
 30
0.0
 10
114.089759
 20
63.896206
 30
0.0
 10
114.684014
 20
63.410695
 30
0.0
  0
SPLINE
  5
16c
100
AcDbEntity
  8
0
 62
7
100
AcDbSpline
 70
8
 71
3
 72
8
 73
4
 74
0
 40
0
 40
0
 40
0
 40
0
 40
1
 40
1
 40
1
 40
1
 10
114.684014
 20
63.410695
 30
0.0
 10
115.278269
 20
62.916189
 30
0.0
 10
116.239501
 20
62.580697
 30
0.0
 10
117.576706
 20
62.386492
 30
0.0
  0
SPLINE
  5
16d
100
AcDbEntity
  8
0
 62
7
100
AcDbSpline
 70
8
 71
3
 72
8
 73
4
 74
0
 40
0
 40
0
 40
0
 40
0
 40
1
 40
1
 40
1
 40
1
 10
117.576706
 20
62.386492
 30
0.0
 10
118.983497
 20
62.201019
 30
0.0
 10
120.285513
 20
62.006815
 30
0.0
 10
121.500216
 20
61.812346
 30
0.0
  0
SPLINE
  5
16e
100
AcDbEntity
  8
0
 62
7
100
AcDbSpline
 70
8
 71
3
 72
8
 73
4
 74
0
 40
0
 40
0
 40
0
 40
0
 40
1
 40
1
 40
1
 40
1
 10
121.500216
 20
61.812346
 30
0.0
 10
122.706188
 20
61.609410
 30
0.0
 10
123.728539
 20
61.300377
 30
0.0
 10
124.567533
 20
60.876514
 30
0.0
  0
SPLINE
  5
16f
100
AcDbEntity
  8
0
 62
7
100
AcDbSpline
 70
8
 71
3
 72
8
 73
4
 74
0
 40
0
 40
0
 40
0
 40
0
 40
1
 40
1
 40
1
 40
1
 10
124.567533
 20
60.876514
 30
0.0
 10
125.406528
 20
60.452651
 30
0.0
 10
126.044439
 20
59.861042
 30
0.0
 10
126.489998
 20
59.101687
 30
0.0
  0
SPLINE
  5
170
100
AcDbEntity
  8
0
 62
7
100
AcDbSpline
 70
8
 71
3
 72
8
 73
4
 74
0
 40
0
 40
0
 40
0
 40
0
 40
1
 40
1
 40
1
 40
1
 10
126.489998
 20
59.101687
 30
0.0
 10
126.927090
 20
58.342332
 30
0.0
 10
127.092984
 20
57.291671
 30
0.0
 10
126.962015
 20
55.967166
 30
0.0
  0
SPLINE
  5
171
100
AcDbEntity
  8
0
 62
7
100
AcDbSpline
 70
8
 71
3
 72
8
 73
4
 74
0
 40
0
 40
0
 40
0
 40
0
 40
1
 40
1
 40
1
 40
1
 10
126.962015
 20
55.967166
 30
0.0
 10
126.865706
 20
54.907508
 30
0.0
 10
126.516191
 20
53.812661
 30
0.0
 10
125.921937
 20
52.682360
 30
0.0
  0
SPLINE
  5
172
100
AcDbEntity
  8
0
 62
7
100
AcDbSpline
 70
8
 71
3
 72
8
 73
4
 74
0
 40
0
 40
0
 40
0
 40
0
 40
1
 40
1
 40
1
 40
1
 10
125.921937
 20
52.682360
 30
0.0
 10
125.327947
 20
51.552059
 30
0.0
 10
124.602458
 20
50.572042
 30
0.0
 10
123.754733
 20
49.759770
 30
0.0
  0
SPLINE
  5
173
100
AcDbEntity
  8
0
 62
7
100
AcDbSpline
 70
8
 71
3
 72
8
 73
4
 74
0
 40
0
 40
0
 40
0
 40
0
 40
1
 40
1
 40
1
 40
1
 10
123.754733
 20
49.759770
 30
0.0
 10
123.055703
 20
49.071059
 30
0.0
 10
122.251898
 20
48.461723
 30
0.0
 10
121.369247
 20
47.949490
 30
0.0
  0
SPLINE
  5
174
100
AcDbEntity
  8
0
 62
7
100
AcDbSpline
 70
8
 71
3
 72
8
 73
4
 74
0
 40
0
 40
0
 40
0
 40
0
 40
1
 40
1
 40
1
 40
1
 10
121.369247
 20
47.949490
 30
0.0
 10
120.477865
 20
47.437520
 30
0.0
 10
119.560289
 20
46.995930
 30
0.0
 10
118.607788
 20
46.633980
 30
0.0
  0
SPLINE
  5
175
100
AcDbEntity
  8
0
 62
7
100
AcDbSpline
 70
8
 71
3
 72
8
 73
4
 74
0
 40
0
 40
0
 40
0
 40
0
 40
1
 40
1
 40
1
 40
1
 10
118.607788
 20
46.633980
 30
0.0
 10
117.655287
 20
46.272030
 30
0.0
 10
116.694055
 20
45.971727
 30
0.0
 10
115.724092
 20
45.742069
 30
0.0
  0
SPLINE
  5
176
100
AcDbEntity
  8
0
 62
7
100
AcDbSpline
 70
8
 71
3
 72
8
 73
4
 74
0
 40
0
 40
0
 40
0
 40
0
 40
1
 40
1
 40
1
 40
1
 10
115.724092
 20
45.742069
 30
0.0
 10
114.745133
 20
45.512675
 30
0.0
 10
113.783900
 20
45.327202
 30
0.0
 10
112.831400
 20
45.185914
 30
0.0
  0
SPLINE
  5
177
100
AcDbEntity
  8
0
 62
7
100
AcDbSpline
 70
8
 71
3
 72
8
 73
4
 74
0
 40
0
 40
0
 40
0
 40
0
 40
1
 40
1
 40
1
 40
1
 10
112.831400
 20
45.185914
 30
0.0
 10
111.878899
 20
45.044627
 30
0.0
 10
110.978785
 20
44.956256
 30
0.0
 10
110.026285
 20
44.903339
 30
0.0
  0
SPLINE
  5
178
100
AcDbEntity
  8
0
 62
7
100
AcDbSpline
 70
8
 71
3
 72
8
 73
4
 74
0
 40
0
 40
0
 40
0
 40
0
 40
1
 40
1
 40
1
 40
1
 10
110.026285
 20
44.903339
 30
0.0
 10
109.073784
 20
44.850422
 30
0.0
 10
108.138745
 20
44.832695
 30
0.0
 10
107.247363
 20
44.859153
 30
0.0
  0
SPLINE
  5
179
100
AcDbEntity
  8
0
 62
7
100
AcDbSpline
 70
8
 71
3
 72
8
 73
4
 74
0
 40
0
 40
0
 40
0
 40
0
 40
1
 40
1
 40
1
 40
1
 10
107.247363
 20
44.859153
 30
0.0
 10
106.347250
 20
44.885612
 30
0.0
 10
105.517251
 20
44.964987
 30
0.0
 10
104.748107
 20
45.079816
 30
0.0
  0
SPLINE
  5
17a
100
AcDbEntity
  8
0
 62
7
100
AcDbSpline
 70
8
 71
3
 72
8
 73
4
 74
0
 40
0
 40
0
 40
0
 40
0
 40
1
 40
1
 40
1
 40
1
 10
104.748107
 20
45.079816
 30
0.0
 10
103.979227
 20
45.194645
 30
0.0
 10
103.332585
 20
45.344929
 30
0.0
 10
102.790717
 20
45.530137
 30
0.0
  0
LINE
  5
17b
100
AcDbEntity
  8
0
 62
7
100
AcDbLine
 10
102.790717
 20
45.530137
 30
0.0
 11
104.791763
 21
52.196850
 31
0.0
  0
SPLINE
  5
17c
100
AcDbEntity
  8
0
 62
7
100
AcDbSpline
 70
8
 71
3
 72
8
 73
4
 74
0
 40
0
 40
0
 40
0
 40
0
 40
1
 40
1
 40
1
 40
1
 10
20.885986
 20
23.595630
 30
0.0
 10
20.399232
 20
23.719719
 30
0.0
 10
19.947244
 20
23.781632
 30
0.0
 10
19.521343
 20
23.781632
 30
0.0
  0
SPLINE
  5
17d
100
AcDbEntity
  8
0
 62
7
100
AcDbSpline
 70
8
 71
3
 72
8
 73
4
 74
0
 40
0
 40
0
 40
0
 40
0
 40
1
 40
1
 40
1
 40
1
 10
19.521343
 20
23.781632
 30
0.0
 10
19.095443
 20
23.781632
 30
0.0
 10
18.712988
 20
23.763905
 30
0.0
 10
18.356620
 20
23.710723
 30
0.0
  0
SPLINE
  5
17e
100
AcDbEntity
  8
0
 62
7
100
AcDbSpline
 70
8
 71
3
 72
8
 73
4
 74
0
 40
0
 40
0
 40
0
 40
0
 40
1
 40
1
 40
1
 40
1
 10
18.356620
 20
23.710723
 30
0.0
 10
16.983299
 20
23.498263
 30
0.0
 10
15.775131
 20
23.019896
 30
0.0
 10
14.714733
 20
22.284883
 30
0.0
  0
SPLINE
  5
17f
100
AcDbEntity
  8
0
 62
7
100
AcDbSpline
 70
8
 71
3
 72
8
 73
4
 74
0
 40
0
 40
0
 40
0
 40
0
 40
1
 40
1
 40
1
 40
1
 10
14.714733
 20
22.284883
 30
0.0
 10
13.654308
 20
21.549605
 30
0.0
 10
12.776420
 20
20.681771
 30
0.0
 10
12.081068
 20
19.680851
 30
0.0
  0
SPLINE
  5
180
100
AcDbEntity
  8
0
 62
7
100
AcDbSpline
 70
8
 71
3
 72
8
 73
4
 74
0
 40
0
 40
0
 40
0
 40
0
 40
1
 40
1
 40
1
 40
1
 10
12.081068
 20
19.680851
 30
0.0
 10
11.385716
 20
18.680196
 30
0.0
 10
10.838134
 20
17.635091
 30
0.0
 10
10.429617
 20
16.527809
 30
0.0
  0
SPLINE
  5
181
100
AcDbEntity
  8
0
 62
7
100
AcDbSpline
 70
8
 71
3
 72
8
 73
4
 74
0
 40
0
 40
0
 40
0
 40
0
 40
1
 40
1
 40
1
 40
1
 10
10.429617
 20
16.527809
 30
0.0
 10
10.029804
 20
15.420791
 30
0.0
 10
9.795092
 20
14.375686
 30
0.0
 10
9.734265
 20
13.392493
 30
0.0
  0
SPLINE
  5
182
100
AcDbEntity
  8
0
 62
7
100
AcDbSpline
 70
8
 71
3
 72
8
 73
4
 74
0
 40
0
 40
0
 40
0
 40
0
 40
1
 40
1
 40
1
 40
1
 10
9.734265
 20
13.392493
 30
0.0
 10
9.629939
 20
12.400569
 30
0.0
 10
9.647349
 20
11.426373
 30
0.0
 10
9.777736
 20
10.460907
 30
0.0
  0
SPLINE
  5
183
100
AcDbEntity
  8
0
 62
7
100
AcDbSpline
 70
8
 71
3
 72
8
 73
4
 74
0
 40
0
 40
0
 40
0
 40
0
 40
1
 40
1
 40
1
 40
1
 10
9.777736
 20
10.460907
 30
0.0
 10
9.908096
 20
9.495442
 30
0.0
 10
10.186253
 20
8.645335
 30
0.0
 10
10.620858
 20
7.901326
 30
0.0
  0
SPLINE
  5
184
100
AcDbEntity
  8
0
 62
7
100
AcDbSpline
 70
8
 71
3
 72
8
 73
4
 74
0
 40
0
 40
0
 40
0
 40
0
 40
1
 40
1
 40
1
 40
1
 10
10.620858
 20
7.901326
 30
0.0
 10
11.046758
 20
7.157317
 30
0.0
 10
11.637785
 20
6.555124
 30
0.0
 10
12.376608
 20
6.112211
 30
0.0
  0
SPLINE
  5
185
100
AcDbEntity
  8
0
 62
7
100
AcDbSpline
 70
8
 71
3
 72
8
 73
4
 74
0
 40
0
 40
0
 40
0
 40
0
 40
1
 40
1
 40
1
 40
1
 10
12.376608
 20
6.112211
 30
0.0
 10
13.115405
 20
5.660567
 30
0.0
 10
14.071530
 20
5.465569
 30
0.0
 10
15.236254
 20
5.510019
 30
0.0
  0
SPLINE
  5
186
100
AcDbEntity
  8
0
 62
7
100
AcDbSpline
 70
8
 71
3
 72
8
 73
4
 74
0
 40
0
 40
0
 40
0
 40
0
 40
1
 40
1
 40
1
 40
1
 10
15.236254
 20
5.510019
 30
0.0
 10
15.610004
 20
5.527746
 30
0.0
 10
16.079349
 20
5.607386
 30
0.0
 10
16.644314
 20
5.748938
 30
0.0
  0
SPLINE
  5
187
100
AcDbEntity
  8
0
 62
7
100
AcDbSpline
 70
8
 71
3
 72
8
 73
4
 74
0
 40
0
 40
0
 40
0
 40
0
 40
1
 40
1
 40
1
 40
1
 10
16.644314
 20
5.748938
 30
0.0
 10
17.200601
 20
5.882024
 30
0.0
 10
17.809038
 20
6.085488
 30
0.0
 10
18.460919
 20
6.360126
 30
0.0
  0
SPLINE
  5
188
100
AcDbEntity
  8
0
 62
7
100
AcDbSpline
 70
8
 71
3
 72
8
 73
4
 74
0
 40
0
 40
0
 40
0
 40
0
 40
1
 40
1
 40
1
 40
1
 10
18.460919
 20
6.360126
 30
0.0
 10
19.112826
 20
6.634764
 30
0.0
 10
19.773412
 20
6.980046
 30
0.0
 10
20.442676
 20
7.405231
 30
0.0
  0
SPLINE
  5
189
100
AcDbEntity
  8
0
 62
7
100
AcDbSpline
 70
8
 71
3
 72
8
 73
4
 74
0
 40
0
 40
0
 40
0
 40
0
 40
1
 40
1
 40
1
 40
1
 10
20.442676
 20
7.405231
 30
0.0
 10
21.111967
 20
7.830417
 30
0.0
 10
21.772553
 20
8.361701
 30
0.0
 10
22.407051
 20
8.999612
 30
0.0
  0
LINE
  5
18a
100
AcDbEntity
  8
0
 62
7
100
AcDbLine
 10
22.407051
 20
8.999612
 30
0.0
 11
21.842085
 21
2.472071
 31
0.0
  0
SPLINE
  5
18b
100
AcDbEntity
  8
0
 62
7
100
AcDbSpline
 70
8
 71
3
 72
8
 73
4
 74
0
 40
0
 40
0
 40
0
 40
0
 40
1
 40
1
 40
1
 40
1
 10
21.842085
 20
2.472071
 30
0.0
 10
20.460086
 20
1.816697
 30
0.0
 10
19.147593
 20
1.329334
 30
0.0
 10
17.895954
 20
1.001780
 30
0.0
  0
SPLINE
  5
18c
100
AcDbEntity
  8
0
 62
7
100
AcDbSpline
 70
8
 71
3
 72
8
 73
4
 74
0
 40
0
 40
0
 40
0
 40
0
 40
1
 40
1
 40
1
 40
1
 10
17.895954
 20
1.001780
 30
0.0
 10
16.644314
 20
0.673961
 30
0.0
 10
15.531767
 20
0.443773
 30
0.0
 10
14.549580
 20
0.328679
 30
0.0
  0
SPLINE
  5
18d
100
AcDbEntity
  8
0
 62
7
100
AcDbSpline
 70
8
 71
3
 72
8
 73
4
 74
0
 40
0
 40
0
 40
0
 40
0
 40
1
 40
1
 40
1
 40
1
 10
14.549580
 20
0.328679
 30
0.0
 10
11.942003
 20
0.009856
 30
0.0
 10
9.708203
 20
0.080500
 30
0.0
 10
7.830744
 20
0.532408
 30
0.0
  0
SPLINE
  5
18e
100
AcDbEntity
  8
0
 62
7
100
AcDbSpline
 70
8
 71
3
 72
8
 73
4
 74
0
 40
0
 40
0
 40
0
 40
0
 40
1
 40
1
 40
1
 40
1
 10
7.830744
 20
0.532408
 30
0.0
 10
5.953312
 20
0.992784
 30
0.0
 10
4.432221
 20
1.772247
 30
0.0
 10
3.258793
 20
2.870533
 30
0.0
  0
SPLINE
  5
18f
100
AcDbEntity
  8
0
 62
7
100
AcDbSpline
 70
8
 71
3
 72
8
 73
4
 74
0
 40
0
 40
0
 40
0
 40
0
 40
1
 40
1
 40
1
 40
1
 10
3.258793
 20
2.870533
 30
0.0
 10
2.085391
 20
3.968820
 30
0.0
 10
1.242269
 20
5.341744
 30
0.0
 10
0.729453
 20
6.980046
 30
0.0
  0
SPLINE
  5
190
100
AcDbEntity
  8
0
 62
7
100
AcDbSpline
 70
8
 71
3
 72
8
 73
4
 74
0
 40
0
 40
0
 40
0
 40
0
 40
1
 40
1
 40
1
 40
1
 10
0.729453
 20
6.980046
 30
0.0
 10
0.216638
 20
8.618612
 30
0.0
 10
0.034101
 20
10.469903
 30
0.0
 10
0.181871
 20
12.533390
 30
0.0
  0
SPLINE
  5
191
100
AcDbEntity
  8
0
 62
7
100
AcDbSpline
 70
8
 71
3
 72
8
 73
4
 74
0
 40
0
 40
0
 40
0
 40
0
 40
1
 40
1
 40
1
 40
1
 10
0.181871
 20
12.533390
 30
0.0
 10
0.277465
 20
14.411140
 30
0.0
 10
0.694687
 20
16.271162
 30
0.0
 10
1.459572
 20
18.122189
 30
0.0
  0
SPLINE
  5
192
100
AcDbEntity
  8
0
 62
7
100
AcDbSpline
 70
8
 71
3
 72
8
 73
4
 74
0
 40
0
 40
0
 40
0
 40
0
 40
1
 40
1
 40
1
 40
1
 10
1.459572
 20
18.122189
 30
0.0
 10
2.224457
 20
19.973216
 30
0.0
 10
3.354414
 20
21.664963
 30
0.0
 10
4.849417
 20
23.205898
 30
0.0
  0
SPLINE
  5
193
100
AcDbEntity
  8
0
 62
7
100
AcDbSpline
 70
8
 71
3
 72
8
 73
4
 74
0
 40
0
 40
0
 40
0
 40
0
 40
1
 40
1
 40
1
 40
1
 10
4.849417
 20
23.205898
 30
0.0
 10
6.353098
 20
24.747097
 30
0.0
 10
8.247940
 20
26.084567
 30
0.0
 10
10.551299
 20
27.209312
 30
0.0
  0
SPLINE
  5
194
100
AcDbEntity
  8
0
 62
7
100
AcDbSpline
 70
8
 71
3
 72
8
 73
4
 74
0
 40
0
 40
0
 40
0
 40
0
 40
1
 40
1
 40
1
 40
1
 10
10.551299
 20
27.209312
 30
0.0
 10
12.854657
 20
28.334057
 30
0.0
 10
15.610004
 20
29.131247
 30
0.0
 10
18.799930
 20
29.582891
 30
0.0
  0
SPLINE
  5
195
100
AcDbEntity
  8
0
 62
7
100
AcDbSpline
 70
8
 71
3
 72
8
 73
4
 74
0
 40
0
 40
0
 40
0
 40
0
 40
1
 40
1
 40
1
 40
1
 10
18.799930
 20
29.582891
 30
0.0
 10
20.016803
 20
29.760162
 30
0.0
 10
21.251032
 20
29.804348
 30
0.0
 10
22.502645
 20
29.733439
 30
0.0
  0
SPLINE
  5
196
100
AcDbEntity
  8
0
 62
7
100
AcDbSpline
 70
8
 71
3
 72
8
 73
4
 74
0
 40
0
 40
0
 40
0
 40
0
 40
1
 40
1
 40
1
 40
1
 10
22.502645
 20
29.733439
 30
0.0
 10
23.745579
 20
29.662531
 30
0.0
 10
24.849422
 20
29.396889
 30
0.0
 10
25.796895
 20
28.953976
 30
0.0
  0
LINE
  5
197
100
AcDbEntity
  8
0
 62
7
100
AcDbLine
 10
25.796895
 20
28.953976
 30
0.0
 11
23.693456
 21
21.611782
 31
0.0
  0
SPLINE
  5
198
100
AcDbEntity
  8
0
 62
7
100
AcDbSpline
 70
8
 71
3
 72
8
 73
4
 74
0
 40
0
 40
0
 40
0
 40
0
 40
1
 40
1
 40
1
 40
1
 10
23.693456
 20
21.611782
 30
0.0
 10
23.267556
 20
22.187516
 30
0.0
 10
22.806889
 20
22.630164
 30
0.0
 10
22.328826
 20
22.940256
 30
0.0
  0
SPLINE
  5
199
100
AcDbEntity
  8
0
 62
7
100
AcDbSpline
 70
8
 71
3
 72
8
 73
4
 74
0
 40
0
 40
0
 40
0
 40
0
 40
1
 40
1
 40
1
 40
1
 10
22.328826
 20
22.940256
 30
0.0
 10
21.850764
 20
23.250348
 30
0.0
 10
21.372714
 20
23.471805
 30
0.0
 10
20.885986
 20
23.595630
 30
0.0
  0
LINE
  5
19a
100
AcDbEntity
  8
0
 62
7
100
AcDbLine
 10
20.885986
 20
23.595630
 30
0.0
 11
20.885986
 21
23.595630
 31
0.0
  0
LINE
  5
19b
100
AcDbEntity
  8
0
 62
7
100
AcDbLine
 10
26.590647
 20
2.513610
 30
0.0
 11
30.155911
 21
30.053321
 31
0.0
  0
LINE
  5
19c
100
AcDbEntity
  8
0
 62
7
100
AcDbLine
 10
30.155911
 20
30.053321
 30
0.0
 11
39.477719
 21
31.353220
 31
0.0
  0
LINE
  5
19d
100
AcDbEntity
  8
0
 62
7
100
AcDbLine
 10
39.477719
 20
31.353220
 30
0.0
 11
36.312506
 21
9.021572
 31
0.0
  0
LINE
  5
19e
100
AcDbEntity
  8
0
 62
7
100
AcDbLine
 10
36.312506
 20
9.021572
 30
0.0
 11
46.434415
 21
10.278080
 31
0.0
  0
LINE
  5
19f
100
AcDbEntity
  8
0
 62
7
100
AcDbLine
 10
46.434415
 20
10.278080
 30
0.0
 11
45.590923
 21
4.809931
 31
0.0
  0
LINE
  5
1a0
100
AcDbEntity
  8
0
 62
7
100
AcDbLine
 10
45.590923
 20
4.809931
 30
0.0
 11
26.590647
 21
2.513610
 31
0.0
  0
SPLINE
  5
1a1
100
AcDbEntity
  8
0
 62
7
100
AcDbSpline
 70
8
 71
3
 72
8
 73
4
 74
0
 40
0
 40
0
 40
0
 40
0
 40
1
 40
1
 40
1
 40
1
 10
61.895357
 20
5.934940
 30
0.0
 10
57.677630
 20
5.425352
 30
0.0
 10
54.527762
 20
5.706340
 30
0.0
 10
52.445490
 20
6.778168
 30
0.0
  0
SPLINE
  5
1a2
100
AcDbEntity
  8
0
 62
7
100
AcDbSpline
 70
8
 71
3
 72
8
 73
4
 74
0
 40
0
 40
0
 40
0
 40
0
 40
1
 40
1
 40
1
 40
1
 10
52.445490
 20
6.778168
 30
0.0
 10
50.354221
 20
7.841265
 30
0.0
 10
49.533747
 20
9.826700
 30
0.0
 10
50.001531
 20
12.716747
 30
0.0
  0
LINE
  5
1a3
100
AcDbEntity
  8
0
 62
7
100
AcDbLine
 10
50.001531
 20
12.716747
 30
0.0
 11
53.283690
 21
33.343947
 31
0.0
  0
LINE
  5
1a4
100
AcDbEntity
  8
0
 62
7
100
AcDbLine
 10
53.283690
 20
33.343947
 30
0.0
 11
62.865849
 21
34.679036
 31
0.0
  0
LINE
  5
1a5
100
AcDbEntity
  8
0
 62
7
100
AcDbLine
 10
62.865849
 20
34.679036
 30
0.0
 11
59.371759
 21
14.245511
 31
0.0
  0
SPLINE
  5
1a6
100
AcDbEntity
  8
0
 62
7
100
AcDbSpline
 70
8
 71
3
 72
8
 73
4
 74
0
 40
0
 40
0
 40
0
 40
0
 40
1
 40
1
 40
1
 40
1
 10
59.371759
 20
14.245511
 30
0.0
 10
59.292383
 20
13.771112
 30
0.0
 10
59.257194
 20
13.331903
 30
0.0
 10
59.257194
 20
12.918889
 30
0.0
  0
SPLINE
  5
1a7
100
AcDbEntity
  8
0
 62
7
100
AcDbSpline
 70
8
 71
3
 72
8
 73
4
 74
0
 40
0
 40
0
 40
0
 40
0
 40
1
 40
1
 40
1
 40
1
 10
59.257194
 20
12.918889
 30
0.0
 10
59.257194
 20
12.506138
 30
0.0
 10
59.363027
 20
12.163502
 30
0.0
 10
59.557232
 20
11.873519
 30
0.0
  0
SPLINE
  5
1a8
100
AcDbEntity
  8
0
 62
7
100
AcDbSpline
 70
8
 71
3
 72
8
 73
4
 74
0
 40
0
 40
0
 40
0
 40
0
 40
1
 40
1
 40
1
 40
1
 10
59.557232
 20
11.873519
 30
0.0
 10
59.751171
 20
11.592266
 30
0.0
 10
60.104126
 20
11.390389
 30
0.0
 10
60.615830
 20
11.267358
 30
0.0
  0
SPLINE
  5
1a9
100
AcDbEntity
  8
0
 62
7
100
AcDbSpline
 70
8
 71
3
 72
8
 73
4
 74
0
 40
0
 40
0
 40
0
 40
0
 40
1
 40
1
 40
1
 40
1
 10
60.615830
 20
11.267358
 30
0.0
 10
61.127800
 20
11.153058
 30
0.0
 10
61.859902
 20
11.153058
 30
0.0
 10
62.830660
 20
11.267358
 30
0.0
  0
SPLINE
  5
1aa
100
AcDbEntity
  8
0
 62
7
100
AcDbSpline
 70
8
 71
3
 72
8
 73
4
 74
0
 40
0
 40
0
 40
0
 40
0
 40
1
 40
1
 40
1
 40
1
 10
62.830660
 20
11.267358
 30
0.0
 10
63.801152
 20
11.381658
 30
0.0
 10
64.568709
 20
11.574804
 30
0.0
 10
65.142326
 20
11.820867
 30
0.0
  0
SPLINE
  5
1ab
100
AcDbEntity
  8
0
 62
7
100
AcDbSpline
 70
8
 71
3
 72
8
 73
4
 74
0
 40
0
 40
0
 40
0
 40
0
 40
1
 40
1
 40
1
 40
1
 10
65.142326
 20
11.820867
 30
0.0
 10
65.715944
 20
12.075661
 30
0.0
 10
66.157004
 20
12.374111
 30
0.0
 10
66.465773
 20
12.725742
 30
0.0
  0
SPLINE
  5
1ac
100
AcDbEntity
  8
0
 62
7
100
AcDbSpline
 70
8
 71
3
 72
8
 73
4
 74
0
 40
0
 40
0
 40
0
 40
0
 40
1
 40
1
 40
1
 40
1
 10
66.465773
 20
12.725742
 30
0.0
 10
66.774542
 20
13.077109
 30
0.0
 10
67.003936
 20
13.463666
 30
0.0
 10
67.162951
 20
13.902875
 30
0.0
  0
SPLINE
  5
1ad
100
AcDbEntity
  8
0
 62
7
100
AcDbSpline
 70
8
 71
3
 72
8
 73
4
 74
0
 40
0
 40
0
 40
0
 40
0
 40
1
 40
1
 40
1
 40
1
 10
67.162951
 20
13.902875
 30
0.0
 10
67.312970
 20
14.333352
 30
0.0
 10
67.436266
 20
14.790024
 30
0.0
 10
67.524637
 20
15.264422
 30
0.0
  0
LINE
  5
1ae
100
AcDbEntity
  8
0
 62
7
100
AcDbLine
 10
67.524637
 20
15.264422
 30
0.0
 11
71.248122
 21
35.838706
 31
0.0
  0
LINE
  5
1af
100
AcDbEntity
  8
0
 62
7
100
AcDbLine
 10
71.248122
 20
35.838706
 30
0.0
 11
80.830280
 21
37.174059
 31
0.0
  0
LINE
  5
1b0
100
AcDbEntity
  8
0
 62
7
100
AcDbLine
 10
80.830280
 20
37.174059
 30
0.0
 11
76.771568
 21
16.081456
 31
0.0
  0
SPLINE
  5
1b1
100
AcDbEntity
  8
0
 62
7
100
AcDbSpline
 70
8
 71
3
 72
8
 73
4
 74
0
 40
0
 40
0
 40
0
 40
0
 40
1
 40
1
 40
1
 40
1
 10
76.771568
 20
16.081456
 30
0.0
 10
76.197951
 20
13.121030
 30
0.0
 10
74.636379
 20
10.810422
 30
0.0
 10
72.086322
 20
9.158891
 30
0.0
  0
SPLINE
  5
1b2
100
AcDbEntity
  8
0
 62
7
100
AcDbSpline
 70
8
 71
3
 72
8
 73
4
 74
0
 40
0
 40
0
 40
0
 40
0
 40
1
 40
1
 40
1
 40
1
 10
72.086322
 20
9.158891
 30
0.0
 10
69.545262
 20
7.516092
 30
0.0
 10
66.148273
 20
6.435533
 30
0.0
 10
61.895357
 20
5.926209
 30
0.0
  0
LINE
  5
1b3
100
AcDbEntity
  8
0
 62
7
100
AcDbLine
 10
61.895357
 20
5.926209
 30
0.0
 11
61.895357
 21
5.934940
 31
0.0
  0
SPLINE
  5
1b4
100
AcDbEntity
  8
0
 62
7
100
AcDbSpline
 70
8
 71
3
 72
8
 73
4
 74
0
 40
0
 40
0
 40
0
 40
0
 40
1
 40
1
 40
1
 40
1
 10
85.537751
 20
37.537597
 30
0.0
 10
87.665003
 20
37.908543
 30
0.0
 10
89.756801
 20
38.322352
 30
0.0
 10
91.839868
 20
38.779552
 30
0.0
  0
SPLINE
  5
1b5
100
AcDbEntity
  8
0
 62
7
100
AcDbSpline
 70
8
 71
3
 72
8
 73
4
 74
0
 40
0
 40
0
 40
0
 40
0
 40
1
 40
1
 40
1
 40
1
 10
91.839868
 20
38.779552
 30
0.0
 10
93.923199
 20
39.236488
 30
0.0
 10
96.102838
 20
39.615901
 30
0.0
 10
98.370584
 20
39.926522
 30
0.0
  0
SPLINE
  5
1b6
100
AcDbEntity
  8
0
 62
7
100
AcDbSpline
 70
8
 71
3
 72
8
 73
4
 74
0
 40
0
 40
0
 40
0
 40
0
 40
1
 40
1
 40
1
 40
1
 10
98.370584
 20
39.926522
 30
0.0
 10
99.205610
 20
40.038705
 30
0.0
 10
100.067094
 20
40.142157
 30
0.0
 10
100.954772
 20
40.219680
 30
0.0
  0
SPLINE
  5
1b7
100
AcDbEntity
  8
0
 62
7
100
AcDbSpline
 70
8
 71
3
 72
8
 73
4
 74
0
 40
0
 40
0
 40
0
 40
0
 40
1
 40
1
 40
1
 40
1
 10
100.954772
 20
40.219680
 30
0.0
 10
101.842450
 20
40.305935
 30
0.0
 10
102.721397
 20
40.349062
 30
0.0
 10
103.591612
 20
40.349062
 30
0.0
  0
SPLINE
  5
1b8
100
AcDbEntity
  8
0
 62
7
100
AcDbSpline
 70
8
 71
3
 72
8
 73
4
 74
0
 40
0
 40
0
 40
0
 40
0
 40
1
 40
1
 40
1
 40
1
 10
103.591612
 20
40.349062
 30
0.0
 10
104.461827
 20
40.349062
 30
0.0
 10
105.261663
 20
40.288737
 30
0.0
 10
106.008847
 20
40.159355
 30
0.0
  0
SPLINE
  5
1b9
100
AcDbEntity
  8
0
 62
7
100
AcDbSpline
 70
8
 71
3
 72
8
 73
4
 74
0
 40
0
 40
0
 40
0
 40
0
 40
1
 40
1
 40
1
 40
1
 10
106.008847
 20
40.159355
 30
0.0
 10
106.747036
 20
40.029974
 30
0.0
 10
107.415109
 20
39.823070
 30
0.0
 10
108.004072
 20
39.538378
 30
0.0
  0
SPLINE
  5
1ba
100
AcDbEntity
  8
0
 62
7
100
AcDbSpline
 70
8
 71
3
 72
8
 73
4
 74
0
 40
0
 40
0
 40
0
 40
0
 40
1
 40
1
 40
1
 40
1
 10
108.004072
 20
39.538378
 30
0.0
 10
109.173002
 20
38.943329
 30
0.0
 10
109.911191
 20
38.150108
 30
0.0
 10
110.218901
 20
37.149717
 30
0.0
  0
SPLINE
  5
1bb
100
AcDbEntity
  8
0
 62
7
100
AcDbSpline
 70
8
 71
3
 72
8
 73
4
 74
0
 40
0
 40
0
 40
0
 40
0
 40
1
 40
1
 40
1
 40
1
 10
110.218901
 20
37.149717
 30
0.0
 10
110.526612
 20
36.149327
 30
0.0
 10
110.544075
 20
35.071413
 30
0.0
 10
110.271553
 20
33.915712
 30
0.0
  0
SPLINE
  5
1bc
100
AcDbEntity
  8
0
 62
7
100
AcDbSpline
 70
8
 71
3
 72
8
 73
4
 74
0
 40
0
 40
0
 40
0
 40
0
 40
1
 40
1
 40
1
 40
1
 10
110.271553
 20
33.915712
 30
0.0
 10
109.964107
 20
32.596234
 30
0.0
 10
109.190465
 20
31.311416
 30
0.0
 10
107.951156
 20
30.060994
 30
0.0
  0
SPLINE
  5
1bd
100
AcDbEntity
  8
0
 62
7
100
AcDbSpline
 70
8
 71
3
 72
8
 73
4
 74
0
 40
0
 40
0
 40
0
 40
0
 40
1
 40
1
 40
1
 40
1
 10
107.951156
 20
30.060994
 30
0.0
 10
106.711846
 20
28.810572
 30
0.0
 10
105.041794
 20
27.801450
 30
0.0
 10
102.932270
 20
27.033893
 30
0.0
  0
SPLINE
  5
1be
100
AcDbEntity
  8
0
 62
7
100
AcDbSpline
 70
8
 71
3
 72
8
 73
4
 74
0
 40
0
 40
0
 40
0
 40
0
 40
1
 40
1
 40
1
 40
1
 10
102.932270
 20
27.033893
 30
0.0
 10
105.753789
 20
27.085752
 30
0.0
 10
107.713824
 20
26.516368
 30
0.0
 10
108.821371
 20
25.326535
 30
0.0
  0
SPLINE
  5
1bf
100
AcDbEntity
  8
0
 62
7
100
AcDbSpline
 70
8
 71
3
 72
8
 73
4
 74
0
 40
0
 40
0
 40
0
 40
0
 40
1
 40
1
 40
1
 40
1
 10
108.821371
 20
25.326535
 30
0.0
 10
109.920186
 20
24.136438
 30
0.0
 10
110.192443
 20
22.523802
 30
0.0
 10
109.638934
 20
20.497091
 30
0.0
  0
SPLINE
  5
1c0
100
AcDbEntity
  8
0
 62
7
100
AcDbSpline
 70
8
 71
3
 72
8
 73
4
 74
0
 40
0
 40
0
 40
0
 40
0
 40
1
 40
1
 40
1
 40
1
 10
109.638934
 20
20.497091
 30
0.0
 10
109.313496
 20
19.126019
 30
0.0
 10
108.627960
 20
17.797810
 30
0.0
 10
107.582061
 20
16.521459
 30
0.0
  0
SPLINE
  5
1c1
100
AcDbEntity
  8
0
 62
7
100
AcDbSpline
 70
8
 71
3
 72
8
 73
4
 74
0
 40
0
 40
0
 40
0
 40
0
 40
1
 40
1
 40
1
 40
1
 10
107.582061
 20
16.521459
 30
0.0
 10
106.536163
 20
15.245107
 30
0.0
 10
105.217743
 20
14.132798
 30
0.0
 10
103.618070
 20
13.184266
 30
0.0
  0
SPLINE
  5
1c2
100
AcDbEntity
  8
0
 62
7
100
AcDbSpline
 70
8
 71
3
 72
8
 73
4
 74
0
 40
0
 40
0
 40
0
 40
0
 40
1
 40
1
 40
1
 40
1
 10
103.618070
 20
13.184266
 30
0.0
 10
102.027129
 20
12.235469
 30
0.0
 10
100.137209
 20
11.519771
 30
0.0
 10
97.966300
 20
11.028174
 30
0.0
  0
SPLINE
  5
1c3
100
AcDbEntity
  8
0
 62
7
100
AcDbSpline
 70
8
 71
3
 72
8
 73
4
 74
0
 40
0
 40
0
 40
0
 40
0
 40
1
 40
1
 40
1
 40
1
 10
97.966300
 20
11.028174
 30
0.0
 10
95.795392
 20
10.536578
 30
0.0
 10
93.246394
 20
10.183094
 30
0.0
 10
90.337033
 20
9.967459
 30
0.0
  0
SPLINE
  5
1c4
100
AcDbEntity
  8
0
 62
7
100
AcDbSpline
 70
8
 71
3
 72
8
 73
4
 74
0
 40
0
 40
0
 40
0
 40
0
 40
1
 40
1
 40
1
 40
1
 10
90.337033
 20
9.967459
 30
0.0
 10
89.238217
 20
9.889936
 30
0.0
 10
88.183587
 20
9.812148
 30
0.0
 10
87.163882
 20
9.743356
 30
0.0
  0
SPLINE
  5
1c5
100
AcDbEntity
  8
0
 62
7
100
AcDbSpline
 70
8
 71
3
 72
8
 73
4
 74
0
 40
0
 40
0
 40
0
 40
0
 40
1
 40
1
 40
1
 40
1
 10
87.163882
 20
9.743356
 30
0.0
 10
86.144442
 20
9.674300
 30
0.0
 10
85.098278
 20
9.570848
 30
0.0
 10
84.026185
 20
9.449933
 30
0.0
  0
SPLINE
  5
1c6
100
AcDbEntity
  8
0
 62
7
100
AcDbSpline
 70
8
 71
3
 72
8
 73
4
 74
0
 40
0
 40
0
 40
0
 40
0
 40
1
 40
1
 40
1
 40
1
 10
84.026185
 20
9.449933
 30
0.0
 10
83.296464
 20
9.363679
 30
0.0
 10
82.584734
 20
9.268958
 30
0.0
 10
81.872740
 20
9.173973
 30
0.0
  0
SPLINE
  5
1c7
100
AcDbEntity
  8
0
 62
7
100
AcDbSpline
 70
8
 71
3
 72
8
 73
4
 74
0
 40
0
 40
0
 40
0
 40
0
 40
1
 40
1
 40
1
 40
1
 10
81.872740
 20
9.173973
 30
0.0
 10
81.160745
 20
9.079252
 30
0.0
 10
80.457482
 20
8.975799
 30
0.0
 10
79.771946
 20
8.863616
 30
0.0
  0
LINE
  5
1c8
100
AcDbEntity
  8
0
 62
7
100
AcDbLine
 10
79.771946
 20
8.863616
 30
0.0
 11
85.537751
 21
37.537597
 31
0.0
  0
SPLINE
  5
1c9
100
AcDbEntity
  8
0
 62
7
100
AcDbSpline
 70
8
 71
3
 72
8
 73
4
 74
0
 40
0
 40
0
 40
0
 40
0
 40
1
 40
1
 40
1
 40
1
 10
92.340989
 20
27.102950
 30
0.0
 10
93.422077
 20
27.163275
 30
0.0
 10
94.424055
 20
27.258260
 30
0.0
 10
95.355919
 20
27.396108
 30
0.0
  0
SPLINE
  5
1ca
100
AcDbEntity
  8
0
 62
7
100
AcDbSpline
 70
8
 71
3
 72
8
 73
4
 74
0
 40
0
 40
0
 40
0
 40
0
 40
1
 40
1
 40
1
 40
1
 10
95.355919
 20
27.396108
 30
0.0
 10
96.278786
 20
27.525490
 30
0.0
 10
97.096085
 20
27.749592
 30
0.0
 10
97.808079
 20
28.060213
 30
0.0
  0
SPLINE
  5
1cb
100
AcDbEntity
  8
0
 62
7
100
AcDbSpline
 70
8
 71
3
 72
8
 73
4
 74
0
 40
0
 40
0
 40
0
 40
0
 40
1
 40
1
 40
1
 40
1
 10
97.808079
 20
28.060213
 30
0.0
 10
98.520074
 20
28.370569
 30
0.0
 10
99.117768
 20
28.801841
 30
0.0
 10
99.601162
 20
29.345031
 30
0.0
  0
SPLINE
  5
1cc
100
AcDbEntity
  8
0
 62
7
100
AcDbSpline
 70
8
 71
3
 72
8
 73
4
 74
0
 40
0
 40
0
 40
0
 40
0
 40
1
 40
1
 40
1
 40
1
 10
99.601162
 20
29.345031
 30
0.0
 10
100.084557
 20
29.888485
 30
0.0
 10
100.427457
 20
30.621382
 30
0.0
 10
100.629599
 20
31.552716
 30
0.0
  0
SPLINE
  5
1cd
100
AcDbEntity
  8
0
 62
7
100
AcDbSpline
 70
8
 71
3
 72
8
 73
4
 74
0
 40
0
 40
0
 40
0
 40
0
 40
1
 40
1
 40
1
 40
1
 10
100.629599
 20
31.552716
 30
0.0
 10
100.814013
 20
32.380598
 30
0.0
 10
100.770093
 20
33.018774
 30
0.0
 10
100.506567
 20
33.475974
 30
0.0
  0
SPLINE
  5
1ce
100
AcDbEntity
  8
0
 62
7
100
AcDbSpline
 70
8
 71
3
 72
8
 73
4
 74
0
 40
0
 40
0
 40
0
 40
0
 40
1
 40
1
 40
1
 40
1
 10
100.506567
 20
33.475974
 30
0.0
 10
100.242778
 20
33.932910
 30
0.0
 10
99.794573
 20
34.217602
 30
0.0
 10
99.170420
 20
34.346983
 30
0.0
  0
SPLINE
  5
1cf
100
AcDbEntity
  8
0
 62
7
100
AcDbSpline
 70
8
 71
3
 72
8
 73
4
 74
0
 40
0
 40
0
 40
0
 40
0
 40
1
 40
1
 40
1
 40
1
 10
99.170420
 20
34.346983
 30
0.0
 10
98.546532
 20
34.467633
 30
0.0
 10
97.764159
 20
34.458902
 30
0.0
 10
96.832560
 20
34.303856
 30
0.0
  0
SPLINE
  5
1d0
100
AcDbEntity
  8
0
 62
7
100
AcDbSpline
 70
8
 71
3
 72
8
 73
4
 74
0
 40
0
 40
0
 40
0
 40
0
 40
1
 40
1
 40
1
 40
1
 10
96.832560
 20
34.303856
 30
0.0
 10
95.900696
 20
34.148546
 30
0.0
 10
94.854798
 20
33.906981
 30
0.0
 10
93.712061
 20
33.579426
 30
0.0
  0
LINE
  5
1d1
100
AcDbEntity
  8
0
 62
7
100
AcDbLine
 10
93.712061
 20
33.579426
 30
0.0
 11
92.340989
 21
27.102950
 31
0.0
  0
SPLINE
  5
1d2
100
AcDbEntity
  8
0
 62
7
100
AcDbSpline
 70
8
 71
3
 72
8
 73
4
 74
0
 40
0
 40
0
 40
0
 40
0
 40
1
 40
1
 40
1
 40
1
 10
89.853639
 20
15.331362
 30
0.0
 10
92.718814
 20
15.245107
 30
0.0
 10
94.916446
 20
15.598856
 30
0.0
 10
96.437007
 20
16.374879
 30
0.0
  0
SPLINE
  5
1d3
100
AcDbEntity
  8
0
 62
7
100
AcDbSpline
 70
8
 71
3
 72
8
 73
4
 74
0
 40
0
 40
0
 40
0
 40
0
 40
1
 40
1
 40
1
 40
1
 10
96.437007
 20
16.374879
 30
0.0
 10
97.957569
 20
17.159634
 30
0.0
 10
98.871705
 20
18.306604
 30
0.0
 10
99.170420
 20
19.824520
 30
0.0
  0
SPLINE
  5
1d4
100
AcDbEntity
  8
0
 62
7
100
AcDbSpline
 70
8
 71
3
 72
8
 73
4
 74
0
 40
0
 40
0
 40
0
 40
0
 40
1
 40
1
 40
1
 40
1
 10
99.170420
 20
19.824520
 30
0.0
 10
99.381293
 20
20.781783
 30
0.0
 10
99.328641
 20
21.523411
 30
0.0
 10
99.012199
 20
22.040672
 30
0.0
  0
SPLINE
  5
1d5
100
AcDbEntity
  8
0
 62
7
100
AcDbSpline
 70
8
 71
3
 72
8
 73
4
 74
0
 40
0
 40
0
 40
0
 40
0
 40
1
 40
1
 40
1
 40
1
 10
99.012199
 20
22.040672
 30
0.0
 10
98.687026
 20
22.558197
 30
0.0
 10
98.185905
 20
22.903214
 30
0.0
 10
97.482906
 20
23.092921
 30
0.0
  0
SPLINE
  5
1d6
100
AcDbEntity
  8
0
 62
7
100
AcDbSpline
 70
8
 71
3
 72
8
 73
4
 74
0
 40
0
 40
0
 40
0
 40
0
 40
1
 40
1
 40
1
 40
1
 10
97.482906
 20
23.092921
 30
0.0
 10
96.788374
 20
23.273896
 30
0.0
 10
95.918424
 20
23.317023
 30
0.0
 10
94.872260
 20
23.205104
 30
0.0
  0
SPLINE
  5
1d7
100
AcDbEntity
  8
0
 62
7
100
AcDbSpline
 70
8
 71
3
 72
8
 73
4
 74
0
 40
0
 40
0
 40
0
 40
0
 40
1
 40
1
 40
1
 40
1
 10
94.872260
 20
23.205104
 30
0.0
 10
93.826361
 20
23.101388
 30
0.0
 10
92.674893
 20
22.911681
 30
0.0
 10
91.400394
 20
22.644452
 30
0.0
  0
LINE
  5
1d8
100
AcDbEntity
  8
0
 62
7
100
AcDbLine
 10
91.400394
 20
22.644452
 30
0.0
 11
89.853639
 21
15.331362
 31
0.0
  0
ENDSEC
  0
SECTION
  2
OBJECTS
  0
DICTIONARY
  5
C
330
0
100
AcDbDictionary
  3
ACAD_GROUP
350
D
  3
ACAD_MLINESTYLE
350
17
  0
DICTIONARY
  5
D
330
C
100
AcDbDictionary
  0
DICTIONARY
  5
1A
330
C
100
AcDbDictionary
  0
DICTIONARY
  5
17
330
C
100
AcDbDictionary
  3
STANDARD
350
18
  0
DICTIONARY
  5
19
330
C
100
AcDbDictionary
  0
ENDSEC
  0
EOF
