<?xml version="1.0" encoding="UTF-8" standalone="no"?>
<svg
   width="490.14383"
   height="292.00027"
   viewBox="0 0 490.14383 292.00027"
   fill="none"
   version="1.1"
   id="svg18"
   sodipodi:docname="boys_club_logo.svg"
   inkscape:version="1.1.2 (0a00cf5339, 2022-02-04)"
   xmlns:inkscape="http://www.inkscape.org/namespaces/inkscape"
   xmlns:sodipodi="http://sodipodi.sourceforge.net/DTD/sodipodi-0.dtd"
   xmlns="http://www.w3.org/2000/svg"
   xmlns:svg="http://www.w3.org/2000/svg">
  <defs
     id="defs22" />
  <sodipodi:namedview
     id="namedview20"
     pagecolor="#ffffff"
     bordercolor="#666666"
     borderopacity="1.0"
     inkscape:pageshadow="2"
     inkscape:pageopacity="0.0"
     inkscape:pagecheckerboard="0"
     showgrid="false"
     fit-margin-top="0"
     fit-margin-left="0"
     fit-margin-right="0"
     fit-margin-bottom="0"
     inkscape:zoom="0.5"
     inkscape:cx="149"
     inkscape:cy="-165"
     inkscape:window-width="1920"
     inkscape:window-height="1028"
     inkscape:window-x="0"
     inkscape:window-y="0"
     inkscape:window-maximized="1"
     inkscape:current-layer="svg18" />
  <path
     d="m 19.923087,73.322021 c 8.2125,-1.626 16.3596,-3.388 24.4085,-5.352 8.0163,-1.931 16.4578,-3.659 25.2593,-5.115 3.2392,-0.542 6.6093,-1.016 10.0775,-1.457 3.4683,-0.44 6.9037,-0.711 10.3396,-0.847 3.435,-0.135 6.642,0 9.619,0.373 2.978003,0.373 5.726003,1.05 8.180003,1.965 4.908,1.998 8.18,4.776 9.881,8.367 1.669,3.59 2.225,7.52 1.734,11.754 -0.589,4.844 -3.043,9.62 -7.394,14.362 -4.319,4.742999 -10.438,8.637999 -18.421003,11.720999 11.092003,-0.576 19.108003,1.219 24.048003,5.385 4.908,4.167 6.708,9.993 5.465,17.445 -0.622,5.048 -2.749,9.959 -6.283,14.77 -3.533,4.776 -8.245,9.01 -14.102,12.702 -5.856003,3.659 -12.956003,6.538 -21.332403,8.638 -8.3762,2.1 -18.2573,3.726 -29.6436,4.946 -4.2862,0.44 -8.4416,0.846 -12.4334,1.253 -3.9917,0.406 -8.0816,0.914 -12.2697,1.524 -2.8138,0.407 -5.6277,0.847 -8.3761,1.321 -2.7484,0.441 -5.4968,0.915 -8.1798,1.423 z m 31.8359,37.091999 c 4.2207,-0.373 8.147,-0.881 11.7134,-1.491 3.5664,-0.61 6.7074,-1.524 9.3904,-2.777 2.683,-1.254 4.8424,-2.88 6.5111,-4.912 1.6359,-2.032999 2.6503,-4.775999 3.0429,-8.197999 0.3272,-3.048 -0.1309,-5.352 -1.3742,-6.978 -1.2433,-1.626 -3.141,-2.608 -5.6604,-2.981 -2.5193,-0.372 -5.595,-0.203 -9.2268,0.475 -3.6318,0.677 -7.6236,1.727 -11.9752,3.082 z m -4.3845,43.189 c 11.3863,-0.068 19.8606,-1.694 25.521,-4.743 5.6605,-3.048 8.7033,-7.384 9.1941,-12.939 0.3927,-3.523 -0.1636,-6.199 -1.6687,-8.028 -1.5051,-1.83 -3.6645,-3.049 -6.5111,-3.591 -2.8465,-0.576 -6.2821,-0.576 -10.372,-0.034 -4.0899,0.542 -8.5724,1.389 -13.4475,2.507 z"
     fill="black"
     id="path2"
     style="fill:none;stroke:#000000;stroke-opacity:1"
     sodipodi:nodetypes="cccccccccccccccsccccccccscccscccccccccsc" />
  <path
     d="m 193.77099,154.32802 c -12.186,1.743 -22.087,1.542 -29.67,-0.604 -7.616,-2.145 -13.477,-5.498 -17.583,-10.125 -4.139,-4.593 -6.788,-10.058 -7.947,-16.428 -1.159,-6.37 -1.391,-12.907 -0.629,-19.646 0.894,-6.672 2.847,-13.510999 5.894,-20.517999 3.046,-7.007 7.484,-13.578 13.278,-19.747 5.795,-6.169 13.113,-11.567 21.955,-16.227 8.841,-4.66 19.537,-8.013 32.087,-10.024 12.55,-2.012 22.484,-2.012 30.298,0 7.815,2.011 13.776,5.364 17.915,10.024 4.139,4.694 6.623,10.293 7.55,16.797 0.894,6.537 0.761,13.209 -0.431,20.049 -1.192,6.839 -3.444,14.013999 -6.689,21.154999 -3.245,7.141 -7.748,13.812 -13.51,19.948 -5.762,6.135 -12.947,11.466 -21.59,15.992 -8.609,4.526 -18.908,7.61 -30.961,9.354 z m 14.007,-91.090999 c -5.49895,0.876429 -10.067,2.984 -13.775,5.8 -3.676,2.816 -6.722,6.001 -9.139,9.622 -2.418,3.621 -4.272,7.476 -5.53,11.6 -1.292,4.124 -2.186,7.979 -2.716,11.666999 -0.53,3.688 -0.794,7.678 -0.695,11.768 0.066,4.09 0.795,7.845 2.152,11.198 1.358,3.386 3.477,6.068 6.391,8.046 2.881,2.012 6.987,2.649 12.285,1.978 5.166,-0.838 9.57,-2.783 13.246,-5.733 3.642,-2.984 6.722,-6.437 9.238,-10.427 2.484,-3.989 4.437,-8.147 5.795,-12.505 1.358,-4.358 2.351,-8.414999 2.98,-12.203999 0.63,-3.788 0.894,-7.51 0.828,-11.466 -0.033,-3.922 -0.761,-7.442 -2.152,-10.46 -1.424,-3.051 -3.576,-5.431 -6.557,-7.208 -2.98,-1.777 -7.11371,-2.510725 -12.351,-1.676 z"
     fill="black"
     id="path4"
     style="fill:none;stroke:#000000;stroke-opacity:1"
     sodipodi:nodetypes="cccscccccccccsccccscccsccccccsccccs" />
  <path
     d="m 272.49999,34.083021 41.919,-6.64 13.862,44.187 32.066,-51.457 42.153,-6.673 -61.192,82.1 -7.182,35.720999 -36.708,5.179 6.714,-35.456 z"
     fill="black"
     id="path6"
     style="fill:none;stroke:#000000;stroke-opacity:1"
     sodipodi:nodetypes="cccccccccc" />
  <path
     d="m 396.06299,94.721021 c 2.015,2.904 5.252,5.106 9.678,6.574999 4.425,1.502 8.983,2.236 13.673,2.202 4.69,0 9.116,-0.934 13.311,-2.703 4.194,-1.768999 7.134,-4.437999 8.851,-8.008999 1.453,-3.137 1.685,-6.041 0.661,-8.711 -1.024,-2.669 -3.303,-4.638 -6.837,-5.906 -3.402,-1.202 -7.233,-1.969 -11.428,-2.337 -4.194,-0.367 -8.257,-0.901 -12.154,-1.601 -3.897,-0.701 -7.432,-1.803 -10.602,-3.338 -3.171,-1.501 -5.318,-4.071 -6.474,-7.675 -0.825,-2.47 -1.123,-5.206 -0.958,-8.21 0.199,-3.004 0.727,-5.974 1.652,-8.911 0.925,-2.936 2.081,-5.706 3.468,-8.376 1.387,-2.637 2.774,-4.839 4.194,-6.541 2.676,-3.404 5.978,-6.708 9.876,-9.945 3.93,-3.204 8.389,-6.141 13.409,-8.811 5.021,-2.6359997 10.635,-4.9389997 16.878,-6.9079997 6.242,-1.969 13.013,-3.437 20.312,-4.405 1.882,-0.30000003 3.996,-0.50000003 6.341,-0.56700003 2.345,-0.067 4.723,-0.067 7.101,0.067 2.378,0.133 4.657,0.367 6.804,0.80100003 2.147,0.4 4.063,1.001 5.681,1.735 l -12.253,30.2019997 c -2.081,-3.905 -4.889,-6.307 -8.489,-7.208 -3.6,-0.901 -7.332,-1.068 -11.163,-0.568 -6.672,1.068 -12.221,3.171 -16.679,6.374 -4.459,3.204 -7.399,7.009 -8.819,11.447 -1.354,4.105 -0.892,7.109 1.354,8.944 2.246,1.869 5.879,3.137 10.933,3.871 5.317,0.701 10.238,1.435 14.829,2.17 4.558,0.767 8.422,1.935 11.593,3.537 3.171,1.602 5.582,3.838 7.266,6.708 1.652,2.87 2.279,6.841 1.784,11.847 -0.364,4.005 -1.685,8.143 -3.931,12.415 -2.245,4.272 -4.987,7.975999 -8.191,11.045999 -2.642,2.603 -5.68,4.906 -9.016,6.842 -3.369,1.935 -6.837,3.604 -10.437,4.972 -3.6,1.368 -7.233,2.503 -10.899,3.371 -3.7,0.867 -7.333,1.568 -10.933,2.102 -3.6,0.534 -7.002,0.868 -10.602,1.068 -3.6,0.2 -7.134,0.267 -10.503,0.167 -3.402,-0.1 -6.539,-0.4 -9.446,-0.834 -2.906,-0.434 -5.35,-1.002 -7.398,-1.702 z"
     fill="black"
     id="path8"
     style="fill:none;stroke:#000000;stroke-opacity:1"
     sodipodi:nodetypes="cccccccccccccccccccsccccsccccccscccccscsscccc" />
  <path
     d="m 78.939087,202.82002 c -1.8397,-0.469 -3.548,-0.703 -5.1577,-0.703 -1.6097,0 -3.0552,0.067 -4.4021,0.268 -5.1905,0.803 -9.7568,2.611 -13.7646,5.389 -4.0079,2.779 -7.3259,6.059 -9.954,9.842 -2.6281,3.782 -4.6977,7.732 -6.2417,11.917 -1.5111,4.184 -2.3982,8.134 -2.6281,11.85 -0.3943,3.749 -0.3285,7.431 0.1643,11.08 0.4927,3.649 1.544,6.862 3.1866,9.674 1.6097,2.812 3.8435,5.088 6.6359,6.762 2.7923,1.707 6.406,2.444 10.8081,2.276 1.4126,-0.067 3.1865,-0.368 5.3218,-0.903 2.1025,-0.503 4.4021,-1.272 6.8659,-2.31 2.4639,-1.038 4.9606,-2.343 7.4901,-3.95 2.5296,-1.607 5.0263,-3.615 7.4244,-6.026 l -2.1353,24.671 c -5.2233,2.477 -10.1839,4.319 -14.9145,5.557 -4.7306,1.239 -8.9355,2.109 -12.6477,2.544 -9.8554,1.205 -18.2981,0.938 -25.394,-0.77 -7.0958,-1.74 -12.8448,-4.686 -17.2798,-8.837 -4.4349,-4.151 -7.6215,-9.34 -9.5597,-15.532 -1.93820003,-6.193 -2.62810003,-13.19 -2.06960003,-20.989 0.36130003,-7.097 1.93820003,-14.127 4.82910003,-21.123 2.8909,-6.996 7.1616,-13.39 12.812,-19.214 5.6832,-5.825 12.8448,-10.88 21.5504,-15.131 8.7056,-4.251 19.1195,-7.264 31.1759,-8.971 4.5992,-0.67 9.264,-0.837 13.9945,-0.569 4.6977,0.268 8.8697,1.272 12.4507,2.946 l -7.95,27.75 c -1.6097,-2.176 -3.3508,-3.849 -5.15765,-5.021 -1.80685,-1.172 -3.61365,-2.009 -5.45325,-2.477 z"
     fill="black"
     id="path10"
     style="fill:none;stroke:#000000;stroke-opacity:1"
     sodipodi:nodetypes="csccccccccccsscccccsccscscccccc" />
  <path
     d="m 100.49999,282.50002 13.475,-104.087 35.232,-4.913 -11.963,84.403 38.256,-4.749 -3.188,20.667 z"
     fill="black"
     id="path12"
     style="fill:none;stroke:#000000;stroke-opacity:1"
     sodipodi:nodetypes="ccccccc" />
  <path
     d="m 233.93499,269.56902 c -15.941,1.926 -27.846,0.864 -35.716,-3.187 -7.904,-4.018 -11.005,-11.522 -9.237,-22.445 l 12.405,-77.961 36.216,-5.046 -13.206,77.229 c -0.3,1.793 -0.433,3.453 -0.433,5.014 0,1.56 0.4,2.855 1.134,3.951 0.733,1.063 2.067,1.826 4.001,2.291 1.935,0.432 4.702,0.432 8.371,0 3.668,-0.432 6.569,-1.162 8.737,-2.092 2.168,-0.963 3.835,-2.091 5.002,-3.42 1.167,-1.328 2.034,-2.789 2.635,-4.449 0.567,-1.627 1.033,-3.353 1.367,-5.146 l 14.073,-77.761 36.216,-5.047 -15.34,79.72 c -2.168,11.189 -8.07,19.922 -17.708,26.164 -9.604,6.209 -22.443,10.293 -38.517,12.218 z"
     fill="black"
     id="path14"
     style="fill:none;stroke:#000000;stroke-opacity:1"
     sodipodi:nodetypes="ccccccsccccccccccccc" />
  <path
     d="m 323.29199,150.12602 c 8.04,-1.402 15.946,-2.966 23.819,-4.694 7.874,-1.727 16.112,-3.161 24.683,-4.335 3.156,-0.424 6.412,-0.815 9.767,-1.108 3.355,-0.326 6.677,-0.489 9.966,-0.489 3.289,0 6.312,0.228 9.136,0.717 2.79,0.489 5.315,1.271 7.541,2.347 4.418,2.249 7.208,5.247 8.371,9.028 1.163,3.781 1.229,7.855 0.199,12.223 -1.162,4.987 -4.086,9.843 -8.77,14.569 -4.684,4.726 -10.996,8.54 -18.969,11.441 10.664,-0.196 18.072,1.956 22.258,6.453 4.153,4.498 5.182,10.593 3.09,18.253 -1.23,5.182 -3.821,10.202 -7.774,15.026 -3.953,4.824 -8.936,9.028 -14.982,12.613 -6.013,3.586 -13.156,6.291 -21.361,8.149 -8.205,1.858 -17.839,3.194 -28.835,4.009 -4.153,0.293 -8.139,0.587 -11.993,0.847 -3.853,0.261 -7.807,0.652 -11.859,1.109 -2.758,0.326 -5.448,0.684 -8.139,1.043 -2.691,0.358 -5.349,0.749 -7.94,1.173 z m 25.713,39.438 c 4.086,-0.228 7.873,-0.587 11.395,-1.108 3.488,-0.489 6.577,-1.336 9.268,-2.51 2.691,-1.173 4.95,-2.803 6.777,-4.856 1.827,-2.054 3.123,-4.824 3.887,-8.344 0.697,-3.129 0.531,-5.541 -0.465,-7.269 -0.997,-1.727 -2.691,-2.803 -5.05,-3.292 -2.358,-0.456 -5.315,-0.423 -8.836,0.163 -3.522,0.587 -7.475,1.5 -11.794,2.738 z m -9.401,44.491 c 10.829,0.326 19.135,-1.011 24.882,-3.944 5.747,-2.966 9.202,-7.301 10.331,-13.038 0.797,-3.618 0.598,-6.421 -0.598,-8.376 -1.229,-1.956 -3.123,-3.26 -5.78,-3.977 -2.625,-0.684 -5.913,-0.847 -9.867,-0.424 -3.953,0.392 -8.305,1.109 -13.122,2.119 z"
     fill="black"
     id="path16"
     style="fill:none;stroke:#000000;stroke-opacity:1"
     sodipodi:nodetypes="ccccsccscscccscscccccccccccccccccccccccc" />
</svg>
