<svg width="78" height="22" viewBox="0 0 78 22" fill="none" xmlns="http://www.w3.org/2000/svg">
<path d="M0.693359 21.5722V20.9244C3.19382 20.9244 3.54755 20.4356 3.54755 18.7978V2.77444C3.54755 1.12444 3.19382 0.647778 0.693359 0.647778V0H9.10956C13.0371 0 15.6474 1.72333 15.6474 5.34111C15.6474 8.33556 13.6836 10.0833 11.0733 10.4133V10.5478C14.4398 10.7678 16.6475 12.87 16.6475 15.7789C16.6475 20.0444 13.1469 21.5722 8.84121 21.5722H0.693359ZM6.53591 9.87556C7.20676 9.98556 7.90202 9.98556 8.54848 9.98556C10.7562 9.98556 12.6956 8.58 12.6956 5.45111C12.6956 2.32222 10.7318 1.11222 8.60946 1.11222C8.09717 1.11222 7.53609 1.13667 7.07259 1.24667C6.69447 1.33222 6.53591 1.56444 6.53591 1.94333V9.87556ZM6.53591 19.6289C6.53591 20.2767 7.23116 20.46 8.49969 20.46C11.0245 20.46 13.6348 19.5189 13.6348 15.7911C13.6348 12.0633 10.6464 11.0733 8.57287 11.0733C7.87762 11.0733 7.20677 11.0733 6.52371 11.1833V19.6167L6.53591 19.6289Z" fill="#241F21"/>
<path d="M26.2713 21.5356L26.2225 19.25L26.1371 19.2256C25.2223 20.68 23.9294 22 22.0144 22C20.0994 22 19.087 20.4844 19.087 18.1133V10.5111C19.087 8.76334 19.0017 8.43333 17.3672 8.94667L17.1842 8.34778L21.3314 7.00333L21.7095 7.35778V17.8444C21.7095 19.4333 22.1974 20.1911 23.222 20.1911C24.2953 20.1911 25.3687 19.2744 26.2347 18.1133V10.5111C26.2347 8.76334 26.1859 8.43333 24.5149 8.94667L24.3319 8.34778L28.5034 7.00333L28.8571 7.35778V18.3578C28.8571 20.1667 28.9059 20.5089 30.577 19.8978L30.8209 20.5211L26.8446 22L26.3079 21.5356H26.2713Z" fill="#241F21"/>
<path d="M41.2863 8.22555C41.2863 9.27667 40.6642 9.94889 39.969 9.94889C39.4811 9.94889 39.2737 9.76555 38.92 9.38667C38.5663 9.03222 38.4321 8.93444 38.1149 8.93444C37.4929 8.93444 36.7732 9.82667 36.2 11.4644V18.6389C36.2 20.4722 36.6025 20.9 39.0541 20.9V21.5722H31.7845V20.9244C33.3458 20.9244 33.6141 20.5211 33.6141 18.7978V10.4989C33.6141 8.69 33.6141 8.31111 32.0041 8.98333L31.7357 8.36L33.8825 7.49222L35.7121 6.73444L36.2 7.13778V9.72889H36.2853C37.0416 8.29889 38.3589 6.79555 39.8348 6.79555C40.774 6.79555 41.2863 7.33333 41.2863 8.22555Z" fill="#241F21"/>
<path d="M42.2011 20.9244C43.7624 20.9244 44.0307 20.5211 44.0307 18.7978V10.4989C44.0307 8.69 44.0307 8.31111 42.4206 8.98333L42.1523 8.36L44.299 7.49222L46.1287 6.73444L46.6409 7.13778V9.61889H46.7263C47.9339 7.94444 49.1536 6.78333 50.9832 6.78333C52.8128 6.78333 53.9472 8.15222 53.9472 10.6944V18.7856C53.9472 20.5089 54.1911 20.9122 55.728 20.9122V21.56H49.7025V20.9122C51.1296 20.9122 51.3491 20.5089 51.3491 18.7856V10.8533C51.3491 9.37444 50.7881 8.66556 49.7635 8.66556C48.6657 8.66556 47.6899 9.42333 46.6653 10.7433V18.7733C46.6653 20.4967 46.8849 20.9 48.312 20.9V21.5478H42.2377V20.9L42.2011 20.9244Z" fill="#241F21"/>
<path d="M66.5471 15.8033C65.986 20.1422 64.1564 22 61.6193 22C58.5822 22 56.6672 19.1156 56.6672 14.6667C56.6672 10.2178 58.5456 6.79556 61.7535 6.79556C64.9614 6.79556 66.3763 9.76556 66.3763 13.7011H59.2774V13.75C59.2774 17.4167 60.4118 20.0078 62.6439 20.0078C63.8514 20.0078 65.2541 19.0667 65.9006 15.8033H66.5471ZM63.8026 12.5889C63.8026 9.99778 63.3391 7.92 61.7535 7.92C60.1678 7.92 59.4726 9.88778 59.3018 12.5889H63.8026Z" fill="#241F21"/>
<path d="M77.3051 8.22555C77.3051 9.27667 76.6831 9.94889 75.9878 9.94889C75.4999 9.94889 75.2926 9.76555 74.9388 9.38667C74.5851 9.03222 74.4509 8.93444 74.1338 8.93444C73.5117 8.93444 72.7921 9.82667 72.2188 11.4644V18.6389C72.2188 20.4722 72.6213 20.9 75.073 20.9V21.5722H67.8034V20.9244C69.3646 20.9244 69.633 20.5211 69.633 18.7978V10.4989C69.633 8.69 69.633 8.31111 68.0229 8.98333L67.7546 8.36L69.9013 7.49222L71.7309 6.73444L72.2188 7.13778V9.72889H72.3042C73.0604 8.29889 74.3778 6.79555 75.8536 6.79555C76.7928 6.79555 77.3051 7.33333 77.3051 8.22555Z" fill="#241F21"/>
</svg>
