<?xml version="1.0" encoding="UTF-8" standalone="no"?>
<!-- Created with Inkscape (http://www.inkscape.org/) -->

<svg
   version="1.1"
   id="svg1"
   width="521.33337"
   height="441.33331"
   viewBox="0 0 521.33338 441.33332"
   xmlns="http://www.w3.org/2000/svg"
   xmlns:svg="http://www.w3.org/2000/svg">
  <defs
     id="defs1" />
  <g
     id="g1"
     transform="translate(-69.333336,-1.3333333)"
     style="fill:#000000;fill-opacity:1;stroke:none">
    <path
       style="fill:#000000;fill-opacity:1;stroke:none"
       d="m 197.33334,438.66666 c 0,-3.68254 -0.37037,-4 -4.66667,-4 -4.55555,0 -4.66666,-0.12699 -4.66666,-5.33334 v -5.33333 H 163.33334 138.66667 V 409.33332 394.66666 H 143.33334 148 v -39.33333 -39.33334 h -10 -10 v -44 -44 h 5.33334 5.33333 V 208 188 H 114 89.333336 v -4.66667 c 0,-4.55556 -0.126984,-4.66667 -5.333333,-4.66667 h -5.333334 v -5.33333 C 78.666669,168.12698 78.555558,168 74.000002,168 h -4.666666 v -19.33334 -19.33333 h 4.666666 4.666667 V 114.66666 99.999998 h 5.333334 5.333333 v -5.333334 c 0,-5.206349 0.111111,-5.333333 4.666667,-5.333333 4.444445,0 4.666667,-0.222222 4.666667,-4.666666 0,-4.444445 -0.222222,-4.666667 -4.666667,-4.666667 h -4.666667 v -10 -9.999999 H 84.000003 78.666669 V 50.666666 41.333332 H 74.000002 69.333336 V 21.333333 1.3333333 h 20 20.000004 v 4.6666666 c 0,4.4444441 0.22222,4.6666661 4.66666,4.6666661 4.55556,0 4.66667,0.126985 4.66667,5.333334 0,5.206349 0.11111,5.333333 4.66667,5.333333 4.44444,0 4.66666,0.222222 4.66666,4.666666 v 4.666667 h 10 10 v 5.333333 c 0,5.206349 0.11112,5.333333 4.66667,5.333333 4.55556,0 4.66667,-0.126984 4.66667,-5.333333 v -5.333333 h 10 10 v -4.666667 -4.666666 h 10 10 V 16 10.666666 h 14.66667 14.66666 v 10 10 h -4.66666 -4.66667 v 10 10 h 34 34 v 19.333332 19.333333 h -4.66666 -4.66667 v 10 9.999999 h -14.66667 -14.66667 v 10 10 h 4.66667 4.66667 V 144 158.66666 h -4.66667 c -4.44444,0 -4.66667,0.22223 -4.66667,4.66667 0,4.55556 -0.12698,4.66667 -5.33333,4.66667 h -5.33333 v 5.33333 5.33333 h 5.33333 c 5.20635,0 5.33333,0.11111 5.33333,4.66667 V 188 h 78.66667 78.66667 v 5.33333 c 0,5.20635 0.11111,5.33333 4.66667,5.33333 4.44444,0 4.66667,0.22222 4.66667,4.66667 V 208 h 10 10 v 4.66666 c 0,4.44445 0.22222,4.66667 4.66666,4.66667 4.55556,0 4.66667,0.12698 4.66667,5.33333 v 5.33333 h 10 10 v 4.66667 c 0,4.44445 0.22222,4.66667 4.66667,4.66667 4.44444,0 4.66667,0.22222 4.66667,4.66666 0,4.55556 0.12698,4.66667 5.33333,4.66667 h 5.33333 v 5.33333 c 0,5.20635 0.11111,5.33334 4.66667,5.33334 4.44444,0 4.66667,0.22222 4.66667,4.66666 0,4.55556 0.12698,4.66667 5.33333,4.66667 h 5.33333 v 5.33333 c 0,5.20635 0.11111,5.33334 4.66667,5.33334 4.44444,0 4.66667,0.22222 4.66667,4.66666 0,4.44445 0.22222,4.66667 4.66666,4.66667 h 4.66667 v 10 10 h 5.33333 c 5.20635,0 5.33334,0.11111 5.33334,4.66667 v 4.66666 h 9.33333 9.33333 v 4.66667 4.66667 h 10 10.00001 v 5.33333 5.33333 h 10 10 v 44 44 h -20 -20.00001 v -4.66667 -4.66666 h -29.33333 -29.33333 v 10 10 h -4.66667 c -4.2963,0 -4.66667,0.31746 -4.66667,4 v 4 h -20 -20 v -4 c 0,-3.68254 -0.37037,-4 -4.66667,-4 h -4.66666 v -10 -10 h -4.66667 -4.66667 v -14.66667 -14.66667 h -10 -10 v 14.66667 14.66667 h -5.33333 c -5.20635,0 -5.33333,0.11111 -5.33333,4.66666 v 4.66667 h -24 -24.00001 v -14.66667 -14.66666 h 4.66667 4.66667 v -10 -10 h 4.66667 c 4.44444,0 4.66666,-0.22222 4.66666,-4.66667 0,-4.55555 0.12699,-4.66667 5.33334,-4.66667 5.20634,0 5.33333,-0.11111 5.33333,-4.66666 v -4.66667 h -10 -10 v 4.66667 4.66666 h -14.66667 -14.66667 v -4.66666 c 0,-4.55556 -0.12698,-4.66667 -5.33333,-4.66667 h -5.33333 v -5.33333 c 0,-5.20635 -0.11111,-5.33333 -4.66667,-5.33333 -4.44444,0 -4.66667,-0.22223 -4.66667,-4.66667 v -4.66667 h -10 -10 v 10 10 h -4.66666 -4.66667 v 19.33333 19.33334 h -4.66667 -4.66666 v 14.66666 14.66667 h -5.33334 -5.33333 v 5.33333 c 0,5.20635 -0.11111,5.33334 -4.66667,5.33334 -4.29629,0 -4.66667,0.31746 -4.66667,4 v 4 h -24.66666 -24.66667 z m 38.66667,-19.33334 c 0,-4.55555 0.12698,-4.66666 5.33333,-4.66666 h 5.33333 v -10 -10 h 4.66667 4.66667 v -19.33334 -19.33333 h 5.33333 5.33334 v -15.33333 -15.33333 h 4.66666 c 4.44445,0 4.66667,-0.22223 4.66667,-4.66667 0,-4.44445 0.22222,-4.66667 4.66667,-4.66667 4.44444,0 4.66666,-0.22222 4.66666,-4.66666 0,-4.55556 0.12699,-4.66667 5.33334,-4.66667 h 5.33333 v -5.33333 c 0,-5.20635 0.11111,-5.33334 4.66667,-5.33334 4.44444,0 4.66666,-0.22222 4.66666,-4.66666 v -4.66667 h 14.66667 14.66667 v 4.66667 4.66666 h 10 10 v 5.33334 c 0,5.20635 0.11111,5.33333 4.66667,5.33333 4.44444,0 4.66666,0.22222 4.66666,4.66667 0,4.55555 0.12699,4.66666 5.33334,4.66666 5.20634,0 5.33333,0.11111 5.33333,4.66667 v 4.66667 h 14.66667 14.66666 v 5.33333 5.33333 h 10 10 v 10 10 h 4.66667 4.66667 v 9.33333 9.33334 h 4.66666 4.66667 v 14.66666 14.66667 h 5.33333 5.33334 v 10 10 h 9.33333 9.33334 v -14.66667 -14.66666 h -4.66667 -4.66667 v -10 -10 h -4.66667 -4.66666 v -19.33333 -19.33334 h -5.33334 -5.33333 v -10 -10 h -4.66667 c -4.44444,0 -4.66666,-0.22222 -4.66666,-4.66666 0,-4.44445 -0.22222,-4.66667 -4.66667,-4.66667 h -4.66667 v -34.66667 -34.66666 h -5.33333 c -5.20635,0 -5.33333,-0.11111 -5.33333,-4.66667 0,-4.44444 -0.22223,-4.66667 -4.66667,-4.66667 -4.55556,0 -4.66667,-0.12698 -4.66667,-5.33333 v -5.33333 h -5.33333 c -5.20635,0 -5.33333,-0.11111 -5.33333,-4.66667 V 208 h -78.66667 -78.66667 v -4.66667 c 0,-4.44445 -0.22222,-4.66667 -4.66667,-4.66667 -4.55555,0 -4.66667,-0.12698 -4.66667,-5.33333 0,-5.20635 -0.11111,-5.33333 -4.66666,-5.33333 h -4.66667 v -14.66667 -14.66667 h 4.66667 c 4.44444,0 4.66666,-0.22222 4.66666,-4.66666 0,-4.44445 0.22223,-4.66667 4.66667,-4.66667 4.55556,0 4.66667,-0.12698 4.66667,-5.33333 0,-5.20635 -0.11111,-5.33334 -4.66667,-5.33334 -4.44444,0 -4.66667,-0.22222 -4.66667,-4.66666 0,-4.44445 -0.22222,-4.66667 -4.66666,-4.66667 h -4.66667 v -10 -10 h 4.66667 c 4.44444,0 4.66666,-0.22222 4.66666,-4.66667 v -4.666662 h 14.66667 14.66667 v -5.333334 -5.333333 h 5.33333 5.33334 v -9.333333 -9.333333 h -39.33334 -39.33333 v -10 -9.999999 h -15.33334 -15.33333 v 4.666666 4.666667 H 148 138.66667 v -4.666667 -4.666666 h -10 -10 v -4.666667 c 0,-4.444444 -0.22222,-4.666667 -4.66667,-4.666667 -4.55555,0 -4.66666,-0.126984 -4.66666,-5.333333 V 30.666666 H 104 c -5.206346,0 -5.33333,-0.111111 -5.33333,-4.666667 0,-4.444444 -0.222222,-4.666666 -4.666667,-4.666666 h -4.666667 v 10 9.999999 h 4.666667 4.666667 v 9.333334 9.333333 H 104 h 5.33334 v 5.333333 c 0,5.206349 0.11111,5.333333 4.66666,5.333333 h 4.66667 V 85.333331 99.999998 H 114 c -4.44444,0 -4.66666,0.222222 -4.66666,4.666662 0,4.55556 -0.12699,4.66667 -5.33334,4.66667 h -5.33333 v 10 10 H 94.000003 89.333336 V 144 158.66666 h 4.666667 c 4.444445,0 4.666667,0.22223 4.666667,4.66667 V 168 H 128 157.33334 v 30 29.99999 H 152.66667 148 v 34 34 h 10.00001 10 v 10 10 h 10 10 v 4.66667 4.66667 h 9.33333 9.33333 v 5.33333 5.33333 h 10 10 v 29.33333 29.33334 h -4.66666 c -4.44445,0 -4.66667,0.22222 -4.66667,4.66666 0,4.55556 -0.12698,4.66667 -5.33333,4.66667 h -5.33334 v 5.33333 5.33334 h 5.33334 c 5.20635,0 5.33333,0.11111 5.33333,4.66666 v 4.66667 h 9.33333 9.33334 z M 168.00001,136 v -6.66667 h 6.66666 6.66667 V 136 v 6.66666 h -6.66667 -6.66666 z M 128,126.66666 V 120 h 6.66667 6.66667 v 6.66666 6.66667 H 134.66667 128 Z m 442.66669,248 v -29.33333 h -10.00001 -10 v -4.66667 -4.66667 h -19.33333 -19.33333 v -10 -10 h -4.66667 -4.66667 v -10 -10 h -5.33333 c -5.20635,0 -5.33333,-0.11111 -5.33333,-4.66666 0,-4.44445 -0.22223,-4.66667 -4.66667,-4.66667 -4.44445,0 -4.66667,-0.22222 -4.66667,-4.66667 0,-4.55555 -0.12698,-4.66666 -5.33333,-4.66666 h -5.33333 v -5.33334 c 0,-5.20635 -0.11112,-5.33333 -4.66667,-5.33333 -4.44445,0 -4.66667,-0.22222 -4.66667,-4.66667 0,-4.44444 -0.22222,-4.66666 -4.66667,-4.66666 -4.55555,0 -4.66666,-0.12699 -4.66666,-5.33334 v -5.33333 h -5.33334 -5.33333 v 20 20 h 10 10 v 4.66667 4.66666 h 10 10 v 5.33334 c 0,5.20635 0.11111,5.33333 4.66667,5.33333 h 4.66667 v 9.33333 9.33334 h 5.33333 5.33333 v 5.33333 c 0,5.20635 0.11111,5.33333 4.66667,5.33333 h 4.66667 v 29.33333 29.33334 h 24.66666 24.66667 v 4.66666 c 0,4.44445 0.22222,4.66667 4.66667,4.66667 h 4.66667 z m -78.66667,-4.66667 v -24.66666 h -4.66667 -4.66667 v -10 -10 h -5.33333 c -5.20635,0 -5.33333,-0.11112 -5.33333,-4.66667 0,-4.44445 -0.22223,-4.66667 -4.66667,-4.66667 -4.44445,0 -4.66667,0.22222 -4.66667,4.66667 0,4.44444 0.22222,4.66667 4.66667,4.66667 h 4.66667 v 15.33333 15.33333 h 5.33333 5.33333 v 19.33333 19.33334 h 4.66667 4.66667 z m -285.33335,-4.66667 v -19.99999 h -4.66666 -4.66667 v 19.99999 20 h 4.66667 4.66666 z"
       id="path1" />
  </g>
</svg>
