  0
SECTION
  2
HEADER
  9
$ACADVER
  1
AC1014
  9
$HANDSEED
  5
FFFF
  9
$MEASUREMENT
 70
     1
  0
ENDSEC
  0
SECTION
  2
TABLES
  0
TABLE
  2
VPORT
  5
8
330
0
100
AcDbSymbolTable
 70
     4
  0
VPORT
  5
2E
330
8
100
AcDbSymbolTableRecord
100
AcDbViewportTableRecord
  2
*ACTIVE
 70
     0
 10
0.0
 20
0.0
 11
1.0
 21
1.0
 12
210.0
 22
148.5
 13
0.0
 23
0.0
 14
10.0
 24
10.0
 15
10.0
 25
10.0
 16
0.0
 26
0.0
 36
1.0
 17
0.0
 27
0.0
 37
0.0
 40
341.0
 41
1.24
 42
50.0
 43
0.0
 44
0.0
 50
0.0
 51
0.0
 71
     0
 72
   100
 73
     1
 74
     3
 75
     0
 76
     0
 77
     0
 78
     0
  0
ENDTAB
  0
TABLE
  2
LTYPE
  5
5
330
0
100
AcDbSymbolTable
 70
     1
  0
LTYPE
  5
14
330
5
100
AcDbSymbolTableRecord
100
AcDbLinetypeTableRecord
  2
BYBLOCK
 70
     0
  3

 72
    65
 73
     0
 40
0.0
  0
LTYPE
  5
15
330
5
100
AcDbSymbolTableRecord
100
AcDbLinetypeTableRecord
  2
BYLAYER
 70
     0
  3

 72
    65
 73
     0
 40
0.0
  0
LTYPE
  5
16
330
5
100
AcDbSymbolTableRecord
100
AcDbLinetypeTableRecord
  2
CONTINUOUS
 70
     0
  3
Solid line
 72
    65
 73
     0
 40
0.0
  0
ENDTAB
  0
TABLE
  2
LAYER
  5
2
100
AcDbSymbolTable
 70
1
  0
LAYER
  5
50
100
AcDbSymbolTableRecord
100
AcDbLayerTableRecord
  2
0
 70
0
  6
CONTINUOUS
  0
ENDTAB
  0
TABLE
  2
STYLE
  5
3
330
0
100
AcDbSymbolTable
 70
     1
  0
STYLE
  5
11
330
3
100
AcDbSymbolTableRecord
100
AcDbTextStyleTableRecord
  2
STANDARD
 70
     0
 40
0.0
 41
1.0
 50
0.0
 71
     0
 42
2.5
  3
txt
  4

  0
ENDTAB
  0
TABLE
  2
VIEW
  5
6
330
0
100
AcDbSymbolTable
 70
     0
  0
ENDTAB
  0
TABLE
  2
UCS
  5
7
330
0
100
AcDbSymbolTable
 70
     0
  0
ENDTAB
  0
TABLE
  2
APPID
  5
9
330
0
100
AcDbSymbolTable
 70
     2
  0
APPID
  5
12
330
9
100
AcDbSymbolTableRecord
100
AcDbRegAppTableRecord
  2
ACAD
 70
     0
  0
ENDTAB
  0
TABLE
  2
DIMSTYLE
  5
A
330
0
100
AcDbSymbolTable
 70
     1
  0
DIMSTYLE
105
27
330
A
100
AcDbSymbolTableRecord
100
AcDbDimStyleTableRecord
  2
ISO-25
 70
     0
  3

  4

  5

  6

  7

 40
1.0
 41
2.5
 42
0.625
 43
3.75
 44
1.25
 45
0.0
 46
0.0
 47
0.0
 48
0.0
140
2.5
141
2.5
142
0.0
143
0.03937007874016
144
1.0
145
0.0
146
1.0
147
0.625
 71
     0
 72
     0
 73
     0
 74
     0
 75
     0
 76
     0
 77
     1
 78
     8
170
     0
171
     3
172
     1
173
     0
174
     0
175
     0
176
     0
177
     0
178
     0
270
     2
271
     2
272
     2
273
     2
274
     3
340
11
275
     0
280
     0
281
     0
282
     0
283
     0
284
     8
285
     0
286
     0
287
     3
288
     0
  0
ENDTAB
  0
TABLE
  2
BLOCK_RECORD
  5
1
330
0
100
AcDbSymbolTable
 70
     1
  0
BLOCK_RECORD
  5
1F
330
1
100
AcDbSymbolTableRecord
100
AcDbBlockTableRecord
  2
*MODEL_SPACE
  0
BLOCK_RECORD
  5
1B
330
1
100
AcDbSymbolTableRecord
100
AcDbBlockTableRecord
  2
*PAPER_SPACE
  0
ENDTAB
  0
ENDSEC
  0
SECTION
  2
BLOCKS
  0
BLOCK
  5
20
330
1F
100
AcDbEntity
  8
0
100
AcDbBlockBegin
  2
*MODEL_SPACE
 70
     0
 10
0.0
 20
0.0
 30
0.0
  3
*MODEL_SPACE
  1

  0
ENDBLK
  5
21
330
1F
100
AcDbEntity
  8
0
100
AcDbBlockEnd
  0
BLOCK
  5
1C
330
1B
100
AcDbEntity
 67
     1
  8
0
100
AcDbBlockBegin
  2
*PAPER_SPACE
  1

  0
ENDBLK
  5
1D
330
1B
100
AcDbEntity
 67
     1
  8
0
100
AcDbBlockEnd
  0
ENDSEC
  0
SECTION
  2
ENTITIES
  0
LINE
  5
100
100
AcDbEntity
  8
0
 62
7
100
AcDbLine
 10
0.183451
 20
0.113189
 30
0.0
 11
0.183451
 21
0.284586
 31
0.0
  0
SPLINE
  5
101
100
AcDbEntity
  8
0
 62
7
100
AcDbSpline
 70
8
 71
3
 72
8
 73
4
 74
0
 40
0
 40
0
 40
0
 40
0
 40
1
 40
1
 40
1
 40
1
 10
0.183451
 20
0.284586
 30
0.0
 10
0.845032
 20
0.284586
 30
0.0
 10
0.938623
 20
0.413914
 30
0.0
 10
0.938623
 20
0.847249
 30
0.0
  0
LINE
  5
102
100
AcDbEntity
  8
0
 62
7
100
AcDbLine
 10
0.938623
 20
0.847249
 30
0.0
 11
0.938623
 21
5.086763
 31
0.0
  0
SPLINE
  5
103
100
AcDbEntity
  8
0
 62
7
100
AcDbSpline
 70
8
 71
3
 72
8
 73
4
 74
0
 40
0
 40
0
 40
0
 40
0
 40
1
 40
1
 40
1
 40
1
 10
0.938623
 20
5.086763
 30
0.0
 10
0.938623
 20
5.523325
 30
0.0
 10
0.845032
 20
5.649442
 30
0.0
 10
0.183451
 20
5.649442
 30
0.0
  0
LINE
  5
104
100
AcDbEntity
  8
0
 62
7
100
AcDbLine
 10
0.183451
 20
5.649442
 30
0.0
 11
0.183451
 21
5.820833
 31
0.0
  0
LINE
  5
105
100
AcDbEntity
  8
0
 62
7
100
AcDbLine
 10
0.183451
 20
5.820833
 30
0.0
 11
2.410238
 21
5.820833
 31
0.0
  0
SPLINE
  5
106
100
AcDbEntity
  8
0
 62
7
100
AcDbSpline
 70
8
 71
3
 72
8
 73
4
 74
0
 40
0
 40
0
 40
0
 40
0
 40
1
 40
1
 40
1
 40
1
 10
2.410238
 20
5.820833
 30
0.0
 10
3.449399
 20
5.820833
 30
0.0
 10
4.140041
 20
5.364869
 30
0.0
 10
4.140041
 20
4.407665
 30
0.0
  0
SPLINE
  5
107
100
AcDbEntity
  8
0
 62
7
100
AcDbSpline
 70
8
 71
3
 72
8
 73
4
 74
0
 40
0
 40
0
 40
0
 40
0
 40
1
 40
1
 40
1
 40
1
 10
4.140041
 20
4.407665
 30
0.0
 10
4.140041
 20
3.615383
 30
0.0
 10
3.620453
 20
3.152960
 30
0.0
 10
2.929811
 20
3.065648
 30
0.0
  0
LINE
  5
108
100
AcDbEntity
  8
0
 62
7
100
AcDbLine
 10
2.929811
 20
3.065648
 30
0.0
 11
2.929811
 21
3.030061
 31
0.0
  0
SPLINE
  5
109
100
AcDbEntity
  8
0
 62
7
100
AcDbSpline
 70
8
 71
3
 72
8
 73
4
 74
0
 40
0
 40
0
 40
0
 40
0
 40
1
 40
1
 40
1
 40
1
 10
2.929811
 20
3.030061
 30
0.0
 10
3.820530
 20
2.971853
 30
0.0
 10
4.404651
 20
2.415646
 30
0.0
 10
4.404651
 20
1.645999
 30
0.0
  0
SPLINE
  5
10a
100
AcDbEntity
  8
0
 62
7
100
AcDbSpline
 70
8
 71
3
 72
8
 73
4
 74
0
 40
0
 40
0
 40
0
 40
0
 40
1
 40
1
 40
1
 40
1
 10
4.404651
 20
1.645999
 30
0.0
 10
4.404651
 20
0.517419
 30
0.0
 10
3.478451
 20
0.113189
 30
0.0
 10
2.339237
 20
0.113189
 30
0.0
  0
LINE
  5
10b
100
AcDbEntity
  8
0
 62
7
100
AcDbLine
 10
2.339237
 20
0.113189
 30
0.0
 11
0.183451
 21
0.113189
 31
0.0
  0
LINE
  5
10c
100
AcDbEntity
  8
0
 62
7
100
AcDbLine
 10
0.183451
 20
0.113189
 30
0.0
 11
0.183451
 21
0.113189
 31
0.0
  0
SPLINE
  5
10d
100
AcDbEntity
  8
0
 62
7
100
AcDbSpline
 70
8
 71
3
 72
8
 73
4
 74
0
 40
0
 40
0
 40
0
 40
0
 40
1
 40
1
 40
1
 40
1
 10
1.729293
 20
3.207925
 30
0.0
 10
1.906789
 20
3.178821
 30
0.0
 10
2.090743
 20
3.178821
 30
0.0
 10
2.261785
 20
3.178821
 30
0.0
  0
SPLINE
  5
10e
100
AcDbEntity
  8
0
 62
7
100
AcDbSpline
 70
8
 71
3
 72
8
 73
4
 74
0
 40
0
 40
0
 40
0
 40
0
 40
1
 40
1
 40
1
 40
1
 10
2.261785
 20
3.178821
 30
0.0
 10
2.845911
 20
3.178821
 30
0.0
 10
3.359044
 20
3.550708
 30
0.0
 10
3.359044
 20
4.378560
 30
0.0
  0
SPLINE
  5
10f
100
AcDbEntity
  8
0
 62
7
100
AcDbSpline
 70
8
 71
3
 72
8
 73
4
 74
0
 40
0
 40
0
 40
0
 40
0
 40
1
 40
1
 40
1
 40
1
 10
3.359044
 20
4.378560
 30
0.0
 10
3.359044
 20
5.206413
 30
0.0
 10
2.839455
 20
5.526558
 30
0.0
 10
2.277920
 20
5.526558
 30
0.0
  0
SPLINE
  5
110
100
AcDbEntity
  8
0
 62
7
100
AcDbSpline
 70
8
 71
3
 72
8
 73
4
 74
0
 40
0
 40
0
 40
0
 40
0
 40
1
 40
1
 40
1
 40
1
 10
2.277920
 20
5.526558
 30
0.0
 10
2.142376
 20
5.526558
 30
0.0
 10
1.993924
 20
5.520089
 30
0.0
 10
1.871289
 20
5.490985
 30
0.0
  0
SPLINE
  5
111
100
AcDbEntity
  8
0
 62
7
100
AcDbSpline
 70
8
 71
3
 72
8
 73
4
 74
0
 40
0
 40
0
 40
0
 40
0
 40
1
 40
1
 40
1
 40
1
 10
1.871289
 20
5.490985
 30
0.0
 10
1.771245
 20
5.468350
 30
0.0
 10
1.729293
 20
5.406909
 30
0.0
 10
1.729293
 20
5.306661
 30
0.0
  0
LINE
  5
112
100
AcDbEntity
  8
0
 62
7
100
AcDbLine
 10
1.729293
 20
5.306661
 30
0.0
 11
1.729293
 21
3.207925
 31
0.0
  0
LINE
  5
113
100
AcDbEntity
  8
0
 62
7
100
AcDbLine
 10
1.729293
 20
3.207925
 30
0.0
 11
1.729293
 21
3.207925
 31
0.0
  0
SPLINE
  5
114
100
AcDbEntity
  8
0
 62
7
100
AcDbSpline
 70
8
 71
3
 72
8
 73
4
 74
0
 40
0
 40
0
 40
0
 40
0
 40
1
 40
1
 40
1
 40
1
 10
1.729293
 20
0.627354
 30
0.0
 10
1.729293
 20
0.455956
 30
0.0
 10
1.913244
 20
0.407458
 30
0.0
 10
2.248876
 20
0.407458
 30
0.0
  0
SPLINE
  5
115
100
AcDbEntity
  8
0
 62
7
100
AcDbSpline
 70
8
 71
3
 72
8
 73
4
 74
0
 40
0
 40
0
 40
0
 40
0
 40
1
 40
1
 40
1
 40
1
 10
2.248876
 20
0.407458
 30
0.0
 10
2.916899
 20
0.407458
 30
0.0
 10
3.607541
 20
0.656458
 30
0.0
 10
3.607541
 20
1.642771
 30
0.0
  0
SPLINE
  5
116
100
AcDbEntity
  8
0
 62
7
100
AcDbSpline
 70
8
 71
3
 72
8
 73
4
 74
0
 40
0
 40
0
 40
0
 40
0
 40
1
 40
1
 40
1
 40
1
 10
3.607541
 20
1.642771
 30
0.0
 10
3.607541
 20
2.629085
 30
0.0
 10
2.816860
 20
2.891023
 30
0.0
 10
2.268239
 20
2.891023
 30
0.0
  0
SPLINE
  5
117
100
AcDbEntity
  8
0
 62
7
100
AcDbSpline
 70
8
 71
3
 72
8
 73
4
 74
0
 40
0
 40
0
 40
0
 40
0
 40
1
 40
1
 40
1
 40
1
 10
2.268239
 20
2.891023
 30
0.0
 10
2.084287
 20
2.891023
 30
0.0
 10
1.906791
 20
2.891023
 30
0.0
 10
1.726065
 20
2.861919
 30
0.0
  0
LINE
  5
118
100
AcDbEntity
  8
0
 62
7
100
AcDbLine
 10
1.726065
 20
2.861919
 30
0.0
 11
1.726065
 21
0.630581
 31
0.0
  0
LINE
  5
119
100
AcDbEntity
  8
0
 62
7
100
AcDbLine
 10
1.726065
 20
0.630581
 30
0.0
 11
1.729293
 21
0.627354
 31
0.0
  0
LINE
  5
11a
100
AcDbEntity
  8
0
 62
7
100
AcDbLine
 10
1.729293
 20
0.627354
 30
0.0
 11
1.729293
 21
0.627354
 31
0.0
  0
LINE
  5
11b
100
AcDbEntity
  8
0
 62
7
100
AcDbLine
 10
6.950948
 20
0.122873
 30
0.0
 11
6.938036
 21
0.727604
 31
0.0
  0
LINE
  5
11c
100
AcDbEntity
  8
0
 62
7
100
AcDbLine
 10
6.938036
 20
0.727604
 30
0.0
 11
6.915441
 21
0.734060
 31
0.0
  0
SPLINE
  5
11d
100
AcDbEntity
  8
0
 62
7
100
AcDbSpline
 70
8
 71
3
 72
8
 73
4
 74
0
 40
0
 40
0
 40
0
 40
0
 40
1
 40
1
 40
1
 40
1
 10
6.915441
 20
0.734060
 30
0.0
 10
6.673400
 20
0.349250
 30
0.0
 10
6.331320
 20
0.000000
 30
0.0
 10
5.824643
 20
0.000000
 30
0.0
  0
SPLINE
  5
11e
100
AcDbEntity
  8
0
 62
7
100
AcDbSpline
 70
8
 71
3
 72
8
 73
4
 74
0
 40
0
 40
0
 40
0
 40
0
 40
1
 40
1
 40
1
 40
1
 10
5.824643
 20
0.000000
 30
0.0
 10
5.317966
 20
0.000000
 30
0.0
 10
5.050102
 20
0.401002
 30
0.0
 10
5.050102
 20
1.028356
 30
0.0
  0
LINE
  5
11f
100
AcDbEntity
  8
0
 62
7
100
AcDbLine
 10
5.050102
 20
1.028356
 30
0.0
 11
5.050102
 21
3.039771
 31
0.0
  0
SPLINE
  5
120
100
AcDbEntity
  8
0
 62
7
100
AcDbSpline
 70
8
 71
3
 72
8
 73
4
 74
0
 40
0
 40
0
 40
0
 40
0
 40
1
 40
1
 40
1
 40
1
 10
5.050102
 20
3.039771
 30
0.0
 10
5.050102
 20
3.502200
 30
0.0
 10
5.027533
 20
3.589515
 30
0.0
 10
4.595072
 20
3.453694
 30
0.0
  0
LINE
  5
121
100
AcDbEntity
  8
0
 62
7
100
AcDbLine
 10
4.595072
 20
3.453694
 30
0.0
 11
4.546653
 21
3.612150
 31
0.0
  0
LINE
  5
122
100
AcDbEntity
  8
0
 62
7
100
AcDbLine
 10
4.546653
 20
3.612150
 30
0.0
 11
5.643933
 21
3.967869
 31
0.0
  0
LINE
  5
123
100
AcDbEntity
  8
0
 62
7
100
AcDbLine
 10
5.643933
 20
3.967869
 30
0.0
 11
5.743972
 21
3.874087
 31
0.0
  0
LINE
  5
124
100
AcDbEntity
  8
0
 62
7
100
AcDbLine
 10
5.743972
 20
3.874087
 30
0.0
 11
5.743972
 21
1.099503
 31
0.0
  0
SPLINE
  5
125
100
AcDbEntity
  8
0
 62
7
100
AcDbSpline
 70
8
 71
3
 72
8
 73
4
 74
0
 40
0
 40
0
 40
0
 40
0
 40
1
 40
1
 40
1
 40
1
 10
5.743972
 20
1.099503
 30
0.0
 10
5.743972
 20
0.679106
 30
0.0
 10
5.873062
 20
0.478605
 30
0.0
 10
6.144154
 20
0.478605
 30
0.0
  0
SPLINE
  5
126
100
AcDbEntity
  8
0
 62
7
100
AcDbSpline
 70
8
 71
3
 72
8
 73
4
 74
0
 40
0
 40
0
 40
0
 40
0
 40
1
 40
1
 40
1
 40
1
 10
6.144154
 20
0.478605
 30
0.0
 10
6.428131
 20
0.478605
 30
0.0
 10
6.712135
 20
0.721148
 30
0.0
 10
6.941264
 20
1.028356
 30
0.0
  0
LINE
  5
127
100
AcDbEntity
  8
0
 62
7
100
AcDbLine
 10
6.941264
 20
1.028356
 30
0.0
 11
6.941264
 21
3.039771
 31
0.0
  0
SPLINE
  5
128
100
AcDbEntity
  8
0
 62
7
100
AcDbSpline
 70
8
 71
3
 72
8
 73
4
 74
0
 40
0
 40
0
 40
0
 40
0
 40
1
 40
1
 40
1
 40
1
 10
6.941264
 20
3.039771
 30
0.0
 10
6.941264
 20
3.502200
 30
0.0
 10
6.928353
 20
3.589515
 30
0.0
 10
6.486234
 20
3.453694
 30
0.0
  0
LINE
  5
129
100
AcDbEntity
  8
0
 62
7
100
AcDbLine
 10
6.486234
 20
3.453694
 30
0.0
 11
6.437815
 21
3.612150
 31
0.0
  0
LINE
  5
12a
100
AcDbEntity
  8
0
 62
7
100
AcDbLine
 10
6.437815
 20
3.612150
 30
0.0
 11
7.541525
 21
3.967869
 31
0.0
  0
LINE
  5
12b
100
AcDbEntity
  8
0
 62
7
100
AcDbLine
 10
7.541525
 20
3.967869
 30
0.0
 11
7.635108
 21
3.874087
 31
0.0
  0
LINE
  5
12c
100
AcDbEntity
  8
0
 62
7
100
AcDbLine
 10
7.635108
 20
3.874087
 30
0.0
 11
7.635108
 21
0.963665
 31
0.0
  0
SPLINE
  5
12d
100
AcDbEntity
  8
0
 62
7
100
AcDbSpline
 70
8
 71
3
 72
8
 73
4
 74
0
 40
0
 40
0
 40
0
 40
0
 40
1
 40
1
 40
1
 40
1
 10
7.635108
 20
0.963665
 30
0.0
 10
7.635108
 20
0.485061
 30
0.0
 10
7.648019
 20
0.394520
 30
0.0
 10
8.090165
 20
0.556207
 30
0.0
  0
LINE
  5
12e
100
AcDbEntity
  8
0
 62
7
100
AcDbLine
 10
8.090165
 20
0.556207
 30
0.0
 11
8.154696
 21
0.391292
 31
0.0
  0
LINE
  5
12f
100
AcDbEntity
  8
0
 62
7
100
AcDbLine
 10
8.154696
 20
0.391292
 30
0.0
 11
7.102634
 21
0.000000
 31
0.0
  0
LINE
  5
130
100
AcDbEntity
  8
0
 62
7
100
AcDbLine
 10
7.102634
 20
0.000000
 30
0.0
 11
6.960632
 21
0.122873
 31
0.0
  0
LINE
  5
131
100
AcDbEntity
  8
0
 62
7
100
AcDbLine
 10
6.960632
 20
0.122873
 30
0.0
 11
6.950948
 21
0.122873
 31
0.0
  0
LINE
  5
132
100
AcDbEntity
  8
0
 62
7
100
AcDbLine
 10
6.950948
 20
0.122873
 30
0.0
 11
6.950948
 21
0.122873
 31
0.0
  0
SPLINE
  5
133
100
AcDbEntity
  8
0
 62
7
100
AcDbSpline
 70
8
 71
3
 72
8
 73
4
 74
0
 40
0
 40
0
 40
0
 40
0
 40
1
 40
1
 40
1
 40
1
 10
10.923667
 20
3.644490
 30
0.0
 10
10.923667
 20
3.366381
 30
0.0
 10
10.759070
 20
3.188523
 30
0.0
 10
10.575131
 20
3.188523
 30
0.0
  0
SPLINE
  5
134
100
AcDbEntity
  8
0
 62
7
100
AcDbSpline
 70
8
 71
3
 72
8
 73
4
 74
0
 40
0
 40
0
 40
0
 40
0
 40
1
 40
1
 40
1
 40
1
 10
10.575131
 20
3.188523
 30
0.0
 10
10.446041
 20
3.188523
 30
0.0
 10
10.391166
 20
3.237032
 30
0.0
 10
10.297583
 20
3.337277
 30
0.0
  0
SPLINE
  5
135
100
AcDbEntity
  8
0
 62
7
100
AcDbSpline
 70
8
 71
3
 72
8
 73
4
 74
0
 40
0
 40
0
 40
0
 40
0
 40
1
 40
1
 40
1
 40
1
 10
10.297583
 20
3.337277
 30
0.0
 10
10.204000
 20
3.431058
 30
0.0
 10
10.168493
 20
3.456929
 30
0.0
 10
10.084567
 20
3.456929
 30
0.0
  0
SPLINE
  5
136
100
AcDbEntity
  8
0
 62
7
100
AcDbSpline
 70
8
 71
3
 72
8
 73
4
 74
0
 40
0
 40
0
 40
0
 40
0
 40
1
 40
1
 40
1
 40
1
 10
10.084567
 20
3.456929
 30
0.0
 10
9.919996
 20
3.456929
 30
0.0
 10
9.729576
 20
3.220860
 30
0.0
 10
9.577917
 20
2.787544
 30
0.0
  0
LINE
  5
137
100
AcDbEntity
  8
0
 62
7
100
AcDbLine
 10
9.577917
 20
2.787544
 30
0.0
 11
9.577917
 21
0.889291
 31
0.0
  0
SPLINE
  5
138
100
AcDbEntity
  8
0
 62
7
100
AcDbSpline
 70
8
 71
3
 72
8
 73
4
 74
0
 40
0
 40
0
 40
0
 40
0
 40
1
 40
1
 40
1
 40
1
 10
9.577917
 20
0.889291
 30
0.0
 10
9.577917
 20
0.404230
 30
0.0
 10
9.684411
 20
0.291042
 30
0.0
 10
10.333064
 20
0.291042
 30
0.0
  0
LINE
  5
139
100
AcDbEntity
  8
0
 62
7
100
AcDbLine
 10
10.333064
 20
0.291042
 30
0.0
 11
10.333064
 21
0.113189
 31
0.0
  0
LINE
  5
13a
100
AcDbEntity
  8
0
 62
7
100
AcDbLine
 10
10.333064
 20
0.113189
 30
0.0
 11
8.409649
 21
0.113189
 31
0.0
  0
LINE
  5
13b
100
AcDbEntity
  8
0
 62
7
100
AcDbLine
 10
8.409649
 20
0.113189
 30
0.0
 11
8.409649
 21
0.284586
 31
0.0
  0
SPLINE
  5
13c
100
AcDbEntity
  8
0
 62
7
100
AcDbSpline
 70
8
 71
3
 72
8
 73
4
 74
0
 40
0
 40
0
 40
0
 40
0
 40
1
 40
1
 40
1
 40
1
 10
8.409649
 20
0.284586
 30
0.0
 10
8.822743
 20
0.284586
 30
0.0
 10
8.893731
 20
0.391292
 30
0.0
 10
8.893731
 20
0.847249
 30
0.0
  0
LINE
  5
13d
100
AcDbEntity
  8
0
 62
7
100
AcDbLine
 10
8.893731
 20
0.847249
 30
0.0
 11
8.893731
 21
3.042999
 31
0.0
  0
SPLINE
  5
13e
100
AcDbEntity
  8
0
 62
7
100
AcDbSpline
 70
8
 71
3
 72
8
 73
4
 74
0
 40
0
 40
0
 40
0
 40
0
 40
1
 40
1
 40
1
 40
1
 10
8.893731
 20
3.042999
 30
0.0
 10
8.893731
 20
3.521604
 30
0.0
 10
8.893731
 20
3.621852
 30
0.0
 10
8.467751
 20
3.443994
 30
0.0
  0
LINE
  5
13f
100
AcDbEntity
  8
0
 62
7
100
AcDbLine
 10
8.467751
 20
3.443994
 30
0.0
 11
8.396737
 21
3.608917
 31
0.0
  0
LINE
  5
140
100
AcDbEntity
  8
0
 62
7
100
AcDbLine
 10
8.396737
 20
3.608917
 30
0.0
 11
8.964745
 21
3.838517
 31
0.0
  0
LINE
  5
141
100
AcDbEntity
  8
0
 62
7
100
AcDbLine
 10
8.964745
 20
3.838517
 30
0.0
 11
9.448826
 21
4.039013
 31
0.0
  0
LINE
  5
142
100
AcDbEntity
  8
0
 62
7
100
AcDbLine
 10
9.448826
 20
4.039013
 30
0.0
 11
9.577917
 21
3.932296
 31
0.0
  0
LINE
  5
143
100
AcDbEntity
  8
0
 62
7
100
AcDbLine
 10
9.577917
 20
3.932296
 30
0.0
 11
9.577917
 21
3.246731
 31
0.0
  0
LINE
  5
144
100
AcDbEntity
  8
0
 62
7
100
AcDbLine
 10
9.577917
 20
3.246731
 30
0.0
 11
9.600486
 21
3.246731
 31
0.0
  0
SPLINE
  5
145
100
AcDbEntity
  8
0
 62
7
100
AcDbSpline
 70
8
 71
3
 72
8
 73
4
 74
0
 40
0
 40
0
 40
0
 40
0
 40
1
 40
1
 40
1
 40
1
 10
9.600486
 20
3.246731
 30
0.0
 10
9.800590
 20
3.625085
 30
0.0
 10
10.149126
 20
4.022844
 30
0.0
 10
10.539624
 20
4.022844
 30
0.0
  0
SPLINE
  5
146
100
AcDbEntity
  8
0
 62
7
100
AcDbSpline
 70
8
 71
3
 72
8
 73
4
 74
0
 40
0
 40
0
 40
0
 40
0
 40
1
 40
1
 40
1
 40
1
 10
10.539624
 20
4.022844
 30
0.0
 10
10.788121
 20
4.022844
 30
0.0
 10
10.923667
 20
3.880556
 30
0.0
 10
10.923667
 20
3.644490
 30
0.0
  0
LINE
  5
147
100
AcDbEntity
  8
0
 62
7
100
AcDbLine
 10
10.923667
 20
3.644490
 30
0.0
 11
10.923667
 21
3.644490
 31
0.0
  0
SPLINE
  5
148
100
AcDbEntity
  8
0
 62
7
100
AcDbSpline
 70
8
 71
3
 72
8
 73
4
 74
0
 40
0
 40
0
 40
0
 40
0
 40
1
 40
1
 40
1
 40
1
 10
11.165708
 20
0.284586
 30
0.0
 10
11.578802
 20
0.284586
 30
0.0
 10
11.649789
 20
0.391292
 30
0.0
 10
11.649789
 20
0.847249
 30
0.0
  0
LINE
  5
149
100
AcDbEntity
  8
0
 62
7
100
AcDbLine
 10
11.649789
 20
0.847249
 30
0.0
 11
11.649789
 21
3.042999
 31
0.0
  0
SPLINE
  5
14a
100
AcDbEntity
  8
0
 62
7
100
AcDbSpline
 70
8
 71
3
 72
8
 73
4
 74
0
 40
0
 40
0
 40
0
 40
0
 40
1
 40
1
 40
1
 40
1
 10
11.649789
 20
3.042999
 30
0.0
 10
11.649789
 20
3.521604
 30
0.0
 10
11.649789
 20
3.621852
 30
0.0
 10
11.223784
 20
3.443994
 30
0.0
  0
LINE
  5
14b
100
AcDbEntity
  8
0
 62
7
100
AcDbLine
 10
11.223784
 20
3.443994
 30
0.0
 11
11.152796
 21
3.608917
 31
0.0
  0
LINE
  5
14c
100
AcDbEntity
  8
0
 62
7
100
AcDbLine
 10
11.152796
 20
3.608917
 30
0.0
 11
11.720777
 21
3.838517
 31
0.0
  0
LINE
  5
14d
100
AcDbEntity
  8
0
 62
7
100
AcDbLine
 10
11.720777
 20
3.838517
 30
0.0
 11
12.204885
 21
4.039013
 31
0.0
  0
LINE
  5
14e
100
AcDbEntity
  8
0
 62
7
100
AcDbLine
 10
12.204885
 20
4.039013
 30
0.0
 11
12.340405
 21
3.932296
 31
0.0
  0
LINE
  5
14f
100
AcDbEntity
  8
0
 62
7
100
AcDbLine
 10
12.340405
 20
3.932296
 30
0.0
 11
12.340405
 21
3.275835
 31
0.0
  0
LINE
  5
150
100
AcDbEntity
  8
0
 62
7
100
AcDbLine
 10
12.340405
 20
3.275835
 30
0.0
 11
12.363000
 21
3.275835
 31
0.0
  0
SPLINE
  5
151
100
AcDbEntity
  8
0
 62
7
100
AcDbSpline
 70
8
 71
3
 72
8
 73
4
 74
0
 40
0
 40
0
 40
0
 40
0
 40
1
 40
1
 40
1
 40
1
 10
12.363000
 20
3.275835
 30
0.0
 10
12.682511
 20
3.718867
 30
0.0
 10
13.005223
 20
4.026077
 30
0.0
 10
13.489305
 20
4.026077
 30
0.0
  0
SPLINE
  5
152
100
AcDbEntity
  8
0
 62
7
100
AcDbSpline
 70
8
 71
3
 72
8
 73
4
 74
0
 40
0
 40
0
 40
0
 40
0
 40
1
 40
1
 40
1
 40
1
 10
13.489305
 20
4.026077
 30
0.0
 10
13.973387
 20
4.026077
 30
0.0
 10
14.273530
 20
3.663892
 30
0.0
 10
14.273530
 20
2.991273
 30
0.0
  0
LINE
  5
153
100
AcDbEntity
  8
0
 62
7
100
AcDbLine
 10
14.273530
 20
2.991273
 30
0.0
 11
14.273530
 21
0.850477
 31
0.0
  0
SPLINE
  5
154
100
AcDbEntity
  8
0
 62
7
100
AcDbSpline
 70
8
 71
3
 72
8
 73
4
 74
0
 40
0
 40
0
 40
0
 40
0
 40
1
 40
1
 40
1
 40
1
 10
14.273530
 20
0.850477
 30
0.0
 10
14.273530
 20
0.394520
 30
0.0
 10
14.338062
 20
0.287814
 30
0.0
 10
14.744700
 20
0.287814
 30
0.0
  0
LINE
  5
155
100
AcDbEntity
  8
0
 62
7
100
AcDbLine
 10
14.744700
 20
0.287814
 30
0.0
 11
14.744700
 21
0.116417
 31
0.0
  0
LINE
  5
156
100
AcDbEntity
  8
0
 62
7
100
AcDbLine
 10
14.744700
 20
0.116417
 30
0.0
 11
13.150453
 21
0.116417
 31
0.0
  0
LINE
  5
157
100
AcDbEntity
  8
0
 62
7
100
AcDbLine
 10
13.150453
 20
0.116417
 30
0.0
 11
13.150453
 21
0.287814
 31
0.0
  0
SPLINE
  5
158
100
AcDbEntity
  8
0
 62
7
100
AcDbSpline
 70
8
 71
3
 72
8
 73
4
 74
0
 40
0
 40
0
 40
0
 40
0
 40
1
 40
1
 40
1
 40
1
 10
13.150453
 20
0.287814
 30
0.0
 10
13.528040
 20
0.287814
 30
0.0
 10
13.586116
 20
0.394520
 30
0.0
 10
13.586116
 20
0.850477
 30
0.0
  0
LINE
  5
159
100
AcDbEntity
  8
0
 62
7
100
AcDbLine
 10
13.586116
 20
0.850477
 30
0.0
 11
13.586116
 21
2.949231
 31
0.0
  0
SPLINE
  5
15a
100
AcDbEntity
  8
0
 62
7
100
AcDbSpline
 70
8
 71
3
 72
8
 73
4
 74
0
 40
0
 40
0
 40
0
 40
0
 40
1
 40
1
 40
1
 40
1
 10
13.586116
 20
2.949231
 30
0.0
 10
13.586116
 20
3.340513
 30
0.0
 10
13.437685
 20
3.528071
 30
0.0
 10
13.166593
 20
3.528071
 30
0.0
  0
SPLINE
  5
15b
100
AcDbEntity
  8
0
 62
7
100
AcDbSpline
 70
8
 71
3
 72
8
 73
4
 74
0
 40
0
 40
0
 40
0
 40
0
 40
1
 40
1
 40
1
 40
1
 10
13.166593
 20
3.528071
 30
0.0
 10
12.876133
 20
3.528071
 30
0.0
 10
12.617953
 20
3.327577
 30
0.0
 10
12.346861
 20
2.978335
 30
0.0
  0
LINE
  5
15c
100
AcDbEntity
  8
0
 62
7
100
AcDbLine
 10
12.346861
 20
2.978335
 30
0.0
 11
12.346861
 21
0.853731
 31
0.0
  0
SPLINE
  5
15d
100
AcDbEntity
  8
0
 62
7
100
AcDbSpline
 70
8
 71
3
 72
8
 73
4
 74
0
 40
0
 40
0
 40
0
 40
0
 40
1
 40
1
 40
1
 40
1
 10
12.346861
 20
0.853731
 30
0.0
 10
12.346861
 20
0.397748
 30
0.0
 10
12.404963
 20
0.291042
 30
0.0
 10
12.782550
 20
0.291042
 30
0.0
  0
LINE
  5
15e
100
AcDbEntity
  8
0
 62
7
100
AcDbLine
 10
12.782550
 20
0.291042
 30
0.0
 11
12.782550
 21
0.119645
 31
0.0
  0
LINE
  5
15f
100
AcDbEntity
  8
0
 62
7
100
AcDbLine
 10
12.782550
 20
0.119645
 30
0.0
 11
11.175391
 21
0.119645
 31
0.0
  0
LINE
  5
160
100
AcDbEntity
  8
0
 62
7
100
AcDbLine
 10
11.175391
 20
0.119645
 30
0.0
 11
11.175391
 21
0.291042
 31
0.0
  0
LINE
  5
161
100
AcDbEntity
  8
0
 62
7
100
AcDbLine
 10
11.175391
 20
0.291042
 30
0.0
 11
11.165708
 21
0.284586
 31
0.0
  0
LINE
  5
162
100
AcDbEntity
  8
0
 62
7
100
AcDbLine
 10
11.165708
 20
0.284586
 30
0.0
 11
11.165708
 21
0.284586
 31
0.0
  0
SPLINE
  5
163
100
AcDbEntity
  8
0
 62
7
100
AcDbSpline
 70
8
 71
3
 72
8
 73
4
 74
0
 40
0
 40
0
 40
0
 40
0
 40
1
 40
1
 40
1
 40
1
 10
17.607254
 20
1.639544
 30
0.0
 10
17.458796
 20
0.491543
 30
0.0
 10
16.974714
 20
0.000000
 30
0.0
 10
16.303440
 20
0.000000
 30
0.0
  0
SPLINE
  5
164
100
AcDbEntity
  8
0
 62
7
100
AcDbSpline
 70
8
 71
3
 72
8
 73
4
 74
0
 40
0
 40
0
 40
0
 40
0
 40
1
 40
1
 40
1
 40
1
 10
16.303440
 20
0.000000
 30
0.0
 10
15.499874
 20
0.000000
 30
0.0
 10
14.993197
 20
0.763164
 30
0.0
 10
14.993197
 20
1.940269
 30
0.0
  0
SPLINE
  5
165
100
AcDbEntity
  8
0
 62
7
100
AcDbSpline
 70
8
 71
3
 72
8
 73
4
 74
0
 40
0
 40
0
 40
0
 40
0
 40
1
 40
1
 40
1
 40
1
 10
14.993197
 20
1.940269
 30
0.0
 10
14.993197
 20
3.117374
 30
0.0
 10
15.490190
 20
4.022841
 30
0.0
 10
16.338947
 20
4.022841
 30
0.0
  0
SPLINE
  5
166
100
AcDbEntity
  8
0
 62
7
100
AcDbSpline
 70
8
 71
3
 72
8
 73
4
 74
0
 40
0
 40
0
 40
0
 40
0
 40
1
 40
1
 40
1
 40
1
 10
16.338947
 20
4.022841
 30
0.0
 10
17.187704
 20
4.022841
 30
0.0
 10
17.562063
 20
3.237029
 30
0.0
 10
17.562063
 20
2.195751
 30
0.0
  0
LINE
  5
167
100
AcDbEntity
  8
0
 62
7
100
AcDbLine
 10
17.562063
 20
2.195751
 30
0.0
 11
15.683812
 21
2.195751
 31
0.0
  0
LINE
  5
168
100
AcDbEntity
  8
0
 62
7
100
AcDbLine
 10
15.683812
 20
2.195751
 30
0.0
 11
15.683812
 21
2.182813
 31
0.0
  0
SPLINE
  5
169
100
AcDbEntity
  8
0
 62
7
100
AcDbSpline
 70
8
 71
3
 72
8
 73
4
 74
0
 40
0
 40
0
 40
0
 40
0
 40
1
 40
1
 40
1
 40
1
 10
15.683812
 20
2.182813
 30
0.0
 10
15.683812
 20
1.212665
 30
0.0
 10
15.983955
 20
0.527103
 30
0.0
 10
16.574532
 20
0.527103
 30
0.0
  0
SPLINE
  5
16a
100
AcDbEntity
  8
0
 62
7
100
AcDbSpline
 70
8
 71
3
 72
8
 73
4
 74
0
 40
0
 40
0
 40
0
 40
0
 40
1
 40
1
 40
1
 40
1
 10
16.574532
 20
0.527103
 30
0.0
 10
16.894016
 20
0.527103
 30
0.0
 10
17.265147
 20
0.776102
 30
0.0
 10
17.436200
 20
1.639544
 30
0.0
  0
LINE
  5
16b
100
AcDbEntity
  8
0
 62
7
100
AcDbLine
 10
17.436200
 20
1.639544
 30
0.0
 11
17.607254
 21
1.639544
 31
0.0
  0
LINE
  5
16c
100
AcDbEntity
  8
0
 62
7
100
AcDbLine
 10
17.607254
 20
1.639544
 30
0.0
 11
17.607254
 21
1.639544
 31
0.0
  0
SPLINE
  5
16d
100
AcDbEntity
  8
0
 62
7
100
AcDbSpline
 70
8
 71
3
 72
8
 73
4
 74
0
 40
0
 40
0
 40
0
 40
0
 40
1
 40
1
 40
1
 40
1
 10
16.881105
 20
2.490020
 30
0.0
 10
16.881105
 20
3.175587
 30
0.0
 10
16.758470
 20
3.725333
 30
0.0
 10
16.338947
 20
3.725333
 30
0.0
  0
SPLINE
  5
16e
100
AcDbEntity
  8
0
 62
7
100
AcDbSpline
 70
8
 71
3
 72
8
 73
4
 74
0
 40
0
 40
0
 40
0
 40
0
 40
1
 40
1
 40
1
 40
1
 10
16.338947
 20
3.725333
 30
0.0
 10
15.919397
 20
3.725333
 30
0.0
 10
15.735459
 20
3.204692
 30
0.0
 10
15.690268
 20
2.490020
 30
0.0
  0
LINE
  5
16f
100
AcDbEntity
  8
0
 62
7
100
AcDbLine
 10
15.690268
 20
2.490020
 30
0.0
 11
16.881105
 21
2.490020
 31
0.0
  0
LINE
  5
170
100
AcDbEntity
  8
0
 62
7
100
AcDbLine
 10
16.881105
 20
2.490020
 30
0.0
 11
16.881105
 21
2.490020
 31
0.0
  0
SPLINE
  5
171
100
AcDbEntity
  8
0
 62
7
100
AcDbSpline
 70
8
 71
3
 72
8
 73
4
 74
0
 40
0
 40
0
 40
0
 40
0
 40
1
 40
1
 40
1
 40
1
 10
20.453641
 20
3.644490
 30
0.0
 10
20.453641
 20
3.366381
 30
0.0
 10
20.289070
 20
3.188523
 30
0.0
 10
20.105105
 20
3.188523
 30
0.0
  0
SPLINE
  5
172
100
AcDbEntity
  8
0
 62
7
100
AcDbSpline
 70
8
 71
3
 72
8
 73
4
 74
0
 40
0
 40
0
 40
0
 40
0
 40
1
 40
1
 40
1
 40
1
 10
20.105105
 20
3.188523
 30
0.0
 10
19.976015
 20
3.188523
 30
0.0
 10
19.921167
 20
3.237032
 30
0.0
 10
19.827558
 20
3.337277
 30
0.0
  0
SPLINE
  5
173
100
AcDbEntity
  8
0
 62
7
100
AcDbSpline
 70
8
 71
3
 72
8
 73
4
 74
0
 40
0
 40
0
 40
0
 40
0
 40
1
 40
1
 40
1
 40
1
 10
19.827558
 20
3.337277
 30
0.0
 10
19.733974
 20
3.431058
 30
0.0
 10
19.698467
 20
3.456929
 30
0.0
 10
19.614568
 20
3.456929
 30
0.0
  0
SPLINE
  5
174
100
AcDbEntity
  8
0
 62
7
100
AcDbSpline
 70
8
 71
3
 72
8
 73
4
 74
0
 40
0
 40
0
 40
0
 40
0
 40
1
 40
1
 40
1
 40
1
 10
19.614568
 20
3.456929
 30
0.0
 10
19.449971
 20
3.456929
 30
0.0
 10
19.259576
 20
3.220860
 30
0.0
 10
19.107891
 20
2.787544
 30
0.0
  0
LINE
  5
175
100
AcDbEntity
  8
0
 62
7
100
AcDbLine
 10
19.107891
 20
2.787544
 30
0.0
 11
19.107891
 21
0.889291
 31
0.0
  0
SPLINE
  5
176
100
AcDbEntity
  8
0
 62
7
100
AcDbSpline
 70
8
 71
3
 72
8
 73
4
 74
0
 40
0
 40
0
 40
0
 40
0
 40
1
 40
1
 40
1
 40
1
 10
19.107891
 20
0.889291
 30
0.0
 10
19.107891
 20
0.404230
 30
0.0
 10
19.214386
 20
0.291042
 30
0.0
 10
19.863065
 20
0.291042
 30
0.0
  0
LINE
  5
177
100
AcDbEntity
  8
0
 62
7
100
AcDbLine
 10
19.863065
 20
0.291042
 30
0.0
 11
19.863065
 21
0.113189
 31
0.0
  0
LINE
  5
178
100
AcDbEntity
  8
0
 62
7
100
AcDbLine
 10
19.863065
 20
0.113189
 30
0.0
 11
17.939650
 21
0.113189
 31
0.0
  0
LINE
  5
179
100
AcDbEntity
  8
0
 62
7
100
AcDbLine
 10
17.939650
 20
0.113189
 30
0.0
 11
17.939650
 21
0.284586
 31
0.0
  0
SPLINE
  5
17a
100
AcDbEntity
  8
0
 62
7
100
AcDbSpline
 70
8
 71
3
 72
8
 73
4
 74
0
 40
0
 40
0
 40
0
 40
0
 40
1
 40
1
 40
1
 40
1
 10
17.939650
 20
0.284586
 30
0.0
 10
18.352717
 20
0.284586
 30
0.0
 10
18.423731
 20
0.391292
 30
0.0
 10
18.423731
 20
0.847249
 30
0.0
  0
LINE
  5
17b
100
AcDbEntity
  8
0
 62
7
100
AcDbLine
 10
18.423731
 20
0.847249
 30
0.0
 11
18.423731
 21
3.042999
 31
0.0
  0
SPLINE
  5
17c
100
AcDbEntity
  8
0
 62
7
100
AcDbSpline
 70
8
 71
3
 72
8
 73
4
 74
0
 40
0
 40
0
 40
0
 40
0
 40
1
 40
1
 40
1
 40
1
 10
18.423731
 20
3.042999
 30
0.0
 10
18.423731
 20
3.521604
 30
0.0
 10
18.423731
 20
3.621852
 30
0.0
 10
17.997726
 20
3.443994
 30
0.0
  0
LINE
  5
17d
100
AcDbEntity
  8
0
 62
7
100
AcDbLine
 10
17.997726
 20
3.443994
 30
0.0
 11
17.926738
 21
3.608917
 31
0.0
  0
LINE
  5
17e
100
AcDbEntity
  8
0
 62
7
100
AcDbLine
 10
17.926738
 20
3.608917
 30
0.0
 11
18.494719
 21
3.838517
 31
0.0
  0
LINE
  5
17f
100
AcDbEntity
  8
0
 62
7
100
AcDbLine
 10
18.494719
 20
3.838517
 30
0.0
 11
18.978801
 21
4.039013
 31
0.0
  0
LINE
  5
180
100
AcDbEntity
  8
0
 62
7
100
AcDbLine
 10
18.978801
 20
4.039013
 30
0.0
 11
19.107891
 21
3.932296
 31
0.0
  0
LINE
  5
181
100
AcDbEntity
  8
0
 62
7
100
AcDbLine
 10
19.107891
 20
3.932296
 30
0.0
 11
19.107891
 21
3.246731
 31
0.0
  0
LINE
  5
182
100
AcDbEntity
  8
0
 62
7
100
AcDbLine
 10
19.107891
 20
3.246731
 30
0.0
 11
19.130486
 21
3.246731
 31
0.0
  0
SPLINE
  5
183
100
AcDbEntity
  8
0
 62
7
100
AcDbSpline
 70
8
 71
3
 72
8
 73
4
 74
0
 40
0
 40
0
 40
0
 40
0
 40
1
 40
1
 40
1
 40
1
 10
19.130486
 20
3.246731
 30
0.0
 10
19.330564
 20
3.625085
 30
0.0
 10
19.679126
 20
4.022844
 30
0.0
 10
20.069598
 20
4.022844
 30
0.0
  0
SPLINE
  5
184
100
AcDbEntity
  8
0
 62
7
100
AcDbSpline
 70
8
 71
3
 72
8
 73
4
 74
0
 40
0
 40
0
 40
0
 40
0
 40
1
 40
1
 40
1
 40
1
 10
20.069598
 20
4.022844
 30
0.0
 10
20.318095
 20
4.022844
 30
0.0
 10
20.453641
 20
3.880556
 30
0.0
 10
20.453641
 20
3.644490
 30
0.0
  0
LINE
  5
185
100
AcDbEntity
  8
0
 62
7
100
AcDbLine
 10
20.453641
 20
3.644490
 30
0.0
 11
20.453641
 21
3.644490
 31
0.0
  0
ENDSEC
  0
SECTION
  2
OBJECTS
  0
DICTIONARY
  5
C
330
0
100
AcDbDictionary
  3
ACAD_GROUP
350
D
  3
ACAD_MLINESTYLE
350
17
  0
DICTIONARY
  5
D
330
C
100
AcDbDictionary
  0
DICTIONARY
  5
1A
330
C
100
AcDbDictionary
  0
DICTIONARY
  5
17
330
C
100
AcDbDictionary
  3
STANDARD
350
18
  0
DICTIONARY
  5
19
330
C
100
AcDbDictionary
  0
ENDSEC
  0
EOF
