  0
SECTION
  2
HEADER
  9
$ACADVER
  1
AC1014
  9
$HANDSEED
  5
FFFF
  9
$MEASUREMENT
 70
     1
  0
ENDSEC
  0
SECTION
  2
TABLES
  0
TABLE
  2
VPORT
  5
8
330
0
100
AcDbSymbolTable
 70
     4
  0
VPORT
  5
2E
330
8
100
AcDbSymbolTableRecord
100
AcDbViewportTableRecord
  2
*ACTIVE
 70
     0
 10
0.0
 20
0.0
 11
1.0
 21
1.0
 12
210.0
 22
148.5
 13
0.0
 23
0.0
 14
10.0
 24
10.0
 15
10.0
 25
10.0
 16
0.0
 26
0.0
 36
1.0
 17
0.0
 27
0.0
 37
0.0
 40
341.0
 41
1.24
 42
50.0
 43
0.0
 44
0.0
 50
0.0
 51
0.0
 71
     0
 72
   100
 73
     1
 74
     3
 75
     0
 76
     0
 77
     0
 78
     0
  0
ENDTAB
  0
TABLE
  2
LTYPE
  5
5
330
0
100
AcDbSymbolTable
 70
     1
  0
LTYPE
  5
14
330
5
100
AcDbSymbolTableRecord
100
AcDbLinetypeTableRecord
  2
BYBLOCK
 70
     0
  3

 72
    65
 73
     0
 40
0.0
  0
LTYPE
  5
15
330
5
100
AcDbSymbolTableRecord
100
AcDbLinetypeTableRecord
  2
BYLAYER
 70
     0
  3

 72
    65
 73
     0
 40
0.0
  0
LTYPE
  5
16
330
5
100
AcDbSymbolTableRecord
100
AcDbLinetypeTableRecord
  2
CONTINUOUS
 70
     0
  3
Solid line
 72
    65
 73
     0
 40
0.0
  0
ENDTAB
  0
TABLE
  2
LAYER
  5
2
100
AcDbSymbolTable
 70
1
  0
LAYER
  5
50
100
AcDbSymbolTableRecord
100
AcDbLayerTableRecord
  2
0
 70
0
  6
CONTINUOUS
  0
ENDTAB
  0
TABLE
  2
STYLE
  5
3
330
0
100
AcDbSymbolTable
 70
     1
  0
STYLE
  5
11
330
3
100
AcDbSymbolTableRecord
100
AcDbTextStyleTableRecord
  2
STANDARD
 70
     0
 40
0.0
 41
1.0
 50
0.0
 71
     0
 42
2.5
  3
txt
  4

  0
ENDTAB
  0
TABLE
  2
VIEW
  5
6
330
0
100
AcDbSymbolTable
 70
     0
  0
ENDTAB
  0
TABLE
  2
UCS
  5
7
330
0
100
AcDbSymbolTable
 70
     0
  0
ENDTAB
  0
TABLE
  2
APPID
  5
9
330
0
100
AcDbSymbolTable
 70
     2
  0
APPID
  5
12
330
9
100
AcDbSymbolTableRecord
100
AcDbRegAppTableRecord
  2
ACAD
 70
     0
  0
ENDTAB
  0
TABLE
  2
DIMSTYLE
  5
A
330
0
100
AcDbSymbolTable
 70
     1
  0
DIMSTYLE
105
27
330
A
100
AcDbSymbolTableRecord
100
AcDbDimStyleTableRecord
  2
ISO-25
 70
     0
  3

  4

  5

  6

  7

 40
1.0
 41
2.5
 42
0.625
 43
3.75
 44
1.25
 45
0.0
 46
0.0
 47
0.0
 48
0.0
140
2.5
141
2.5
142
0.0
143
0.03937007874016
144
1.0
145
0.0
146
1.0
147
0.625
 71
     0
 72
     0
 73
     0
 74
     0
 75
     0
 76
     0
 77
     1
 78
     8
170
     0
171
     3
172
     1
173
     0
174
     0
175
     0
176
     0
177
     0
178
     0
270
     2
271
     2
272
     2
273
     2
274
     3
340
11
275
     0
280
     0
281
     0
282
     0
283
     0
284
     8
285
     0
286
     0
287
     3
288
     0
  0
ENDTAB
  0
TABLE
  2
BLOCK_RECORD
  5
1
330
0
100
AcDbSymbolTable
 70
     1
  0
BLOCK_RECORD
  5
1F
330
1
100
AcDbSymbolTableRecord
100
AcDbBlockTableRecord
  2
*MODEL_SPACE
  0
BLOCK_RECORD
  5
1B
330
1
100
AcDbSymbolTableRecord
100
AcDbBlockTableRecord
  2
*PAPER_SPACE
  0
ENDTAB
  0
ENDSEC
  0
SECTION
  2
BLOCKS
  0
BLOCK
  5
20
330
1F
100
AcDbEntity
  8
0
100
AcDbBlockBegin
  2
*MODEL_SPACE
 70
     0
 10
0.0
 20
0.0
 30
0.0
  3
*MODEL_SPACE
  1

  0
ENDBLK
  5
21
330
1F
100
AcDbEntity
  8
0
100
AcDbBlockEnd
  0
BLOCK
  5
1C
330
1B
100
AcDbEntity
 67
     1
  8
0
100
AcDbBlockBegin
  2
*PAPER_SPACE
  1

  0
ENDBLK
  5
1D
330
1B
100
AcDbEntity
 67
     1
  8
0
100
AcDbBlockEnd
  0
ENDSEC
  0
SECTION
  2
ENTITIES
  0
SPLINE
  5
100
100
AcDbEntity
  8
0
 62
7
100
AcDbSpline
 70
8
 71
3
 72
8
 73
4
 74
0
 40
0
 40
0
 40
0
 40
0
 40
1
 40
1
 40
1
 40
1
 10
33.866701
 20
1.058329
 30
0.0
 10
33.866701
 20
2.032668
 30
0.0
 10
33.768707
 20
2.116663
 30
0.0
 10
32.631977
 20
2.116663
 30
0.0
  0
SPLINE
  5
101
100
AcDbEntity
  8
0
 62
7
100
AcDbSpline
 70
8
 71
3
 72
8
 73
4
 74
0
 40
0
 40
0
 40
0
 40
0
 40
1
 40
1
 40
1
 40
1
 10
32.631977
 20
2.116663
 30
0.0
 10
31.426654
 20
2.116663
 30
0.0
 10
31.397256
 20
2.150262
 30
0.0
 10
31.397256
 20
3.527777
 30
0.0
  0
LINE
  5
102
100
AcDbEntity
  8
0
 62
7
100
AcDbLine
 10
31.397256
 20
3.527777
 30
0.0
 11
31.397256
 21
4.938888
 31
0.0
  0
LINE
  5
103
100
AcDbEntity
  8
0
 62
7
100
AcDbLine
 10
31.397256
 20
4.938888
 30
0.0
 11
24.870861
 21
4.938888
 31
0.0
  0
LINE
  5
104
100
AcDbEntity
  8
0
 62
7
100
AcDbLine
 10
24.870861
 20
4.938888
 30
0.0
 11
18.344467
 21
4.938888
 31
0.0
  0
LINE
  5
105
100
AcDbEntity
  8
0
 62
7
100
AcDbLine
 10
18.344467
 20
4.938888
 30
0.0
 11
18.344467
 21
8.819447
 31
0.0
  0
LINE
  5
106
100
AcDbEntity
  8
0
 62
7
100
AcDbLine
 10
18.344467
 20
8.819447
 30
0.0
 11
18.344467
 21
12.700004
 31
0.0
  0
LINE
  5
107
100
AcDbEntity
  8
0
 62
7
100
AcDbLine
 10
18.344467
 20
12.700004
 30
0.0
 11
19.579191
 21
12.700004
 31
0.0
  0
LINE
  5
108
100
AcDbEntity
  8
0
 62
7
100
AcDbLine
 10
19.579191
 20
12.700004
 30
0.0
 11
20.813912
 21
12.700004
 31
0.0
  0
LINE
  5
109
100
AcDbEntity
  8
0
 62
7
100
AcDbLine
 10
20.813912
 20
12.700004
 30
0.0
 11
20.813912
 21
23.106955
 31
0.0
  0
LINE
  5
10a
100
AcDbEntity
  8
0
 62
7
100
AcDbLine
 10
20.813912
 20
23.106955
 30
0.0
 11
20.813912
 21
33.513908
 31
0.0
  0
LINE
  5
10b
100
AcDbEntity
  8
0
 62
7
100
AcDbLine
 10
20.813912
 20
33.513908
 30
0.0
 11
18.168077
 21
33.513908
 31
0.0
  0
LINE
  5
10c
100
AcDbEntity
  8
0
 62
7
100
AcDbLine
 10
18.168077
 20
33.513908
 30
0.0
 11
15.522242
 21
33.513908
 31
0.0
  0
LINE
  5
10d
100
AcDbEntity
  8
0
 62
7
100
AcDbLine
 10
15.522242
 20
33.513908
 30
0.0
 11
15.522242
 21
45.155583
 31
0.0
  0
LINE
  5
10e
100
AcDbEntity
  8
0
 62
7
100
AcDbLine
 10
15.522242
 20
45.155583
 30
0.0
 11
15.522242
 21
56.797258
 31
0.0
  0
LINE
  5
10f
100
AcDbEntity
  8
0
 62
7
100
AcDbLine
 10
15.522242
 20
56.797258
 30
0.0
 11
16.933356
 21
56.797258
 31
0.0
  0
LINE
  5
110
100
AcDbEntity
  8
0
 62
7
100
AcDbLine
 10
16.933356
 20
56.797258
 30
0.0
 11
18.344467
 21
56.797258
 31
0.0
  0
LINE
  5
111
100
AcDbEntity
  8
0
 62
7
100
AcDbLine
 10
18.344467
 20
56.797258
 30
0.0
 11
18.344467
 21
62.088925
 31
0.0
  0
LINE
  5
112
100
AcDbEntity
  8
0
 62
7
100
AcDbLine
 10
18.344467
 20
62.088925
 30
0.0
 11
18.344467
 21
67.380596
 31
0.0
  0
LINE
  5
113
100
AcDbEntity
  8
0
 62
7
100
AcDbLine
 10
18.344467
 20
67.380596
 30
0.0
 11
11.818073
 21
67.380596
 31
0.0
  0
LINE
  5
114
100
AcDbEntity
  8
0
 62
7
100
AcDbLine
 10
11.818073
 20
67.380596
 30
0.0
 11
5.291680
 21
67.380596
 31
0.0
  0
LINE
  5
115
100
AcDbEntity
  8
0
 62
7
100
AcDbLine
 10
5.291680
 20
67.380596
 30
0.0
 11
5.291680
 21
68.615320
 31
0.0
  0
SPLINE
  5
116
100
AcDbEntity
  8
0
 62
7
100
AcDbSpline
 70
8
 71
3
 72
8
 73
4
 74
0
 40
0
 40
0
 40
0
 40
0
 40
1
 40
1
 40
1
 40
1
 10
5.291680
 20
68.615320
 30
0.0
 10
5.291680
 20
69.820646
 30
0.0
 10
5.258082
 20
69.850044
 30
0.0
 10
3.880568
 20
69.850044
 30
0.0
  0
LINE
  5
117
100
AcDbEntity
  8
0
 62
7
100
AcDbLine
 10
3.880568
 20
69.850044
 30
0.0
 11
2.469456
 21
69.850044
 31
0.0
  0
LINE
  5
118
100
AcDbEntity
  8
0
 62
7
100
AcDbLine
 10
2.469456
 20
69.850044
 30
0.0
 11
2.469456
 21
71.261155
 31
0.0
  0
SPLINE
  5
119
100
AcDbEntity
  8
0
 62
7
100
AcDbSpline
 70
8
 71
3
 72
8
 73
4
 74
0
 40
0
 40
0
 40
0
 40
0
 40
1
 40
1
 40
1
 40
1
 10
2.469456
 20
71.261155
 30
0.0
 10
2.469456
 20
72.638669
 30
0.0
 10
2.440057
 20
72.672266
 30
0.0
 10
1.234732
 20
72.672266
 30
0.0
  0
LINE
  5
11a
100
AcDbEntity
  8
0
 62
7
100
AcDbLine
 10
1.234732
 20
72.672266
 30
0.0
 11
0.000010
 21
72.672266
 31
0.0
  0
LINE
  5
11b
100
AcDbEntity
  8
0
 62
7
100
AcDbLine
 10
0.000010
 20
72.672266
 30
0.0
 11
0.000010
 21
77.787549
 31
0.0
  0
LINE
  5
11c
100
AcDbEntity
  8
0
 62
7
100
AcDbLine
 10
0.000010
 20
77.787549
 30
0.0
 11
0.000010
 21
82.902830
 31
0.0
  0
LINE
  5
11d
100
AcDbEntity
  8
0
 62
7
100
AcDbLine
 10
0.000010
 20
82.902830
 30
0.0
 11
1.234732
 21
82.902830
 31
0.0
  0
LINE
  5
11e
100
AcDbEntity
  8
0
 62
7
100
AcDbLine
 10
1.234732
 20
82.902830
 30
0.0
 11
2.469456
 21
82.902830
 31
0.0
  0
LINE
  5
11f
100
AcDbEntity
  8
0
 62
7
100
AcDbLine
 10
2.469456
 20
82.902830
 30
0.0
 11
2.469456
 21
86.783389
 31
0.0
  0
LINE
  5
120
100
AcDbEntity
  8
0
 62
7
100
AcDbLine
 10
2.469456
 20
86.783389
 30
0.0
 11
2.469456
 21
90.663946
 31
0.0
  0
LINE
  5
121
100
AcDbEntity
  8
0
 62
7
100
AcDbLine
 10
2.469456
 20
90.663946
 30
0.0
 11
3.880568
 21
90.663946
 31
0.0
  0
LINE
  5
122
100
AcDbEntity
  8
0
 62
7
100
AcDbLine
 10
3.880568
 20
90.663946
 30
0.0
 11
5.291680
 21
90.663946
 31
0.0
  0
LINE
  5
123
100
AcDbEntity
  8
0
 62
7
100
AcDbLine
 10
5.291680
 20
90.663946
 30
0.0
 11
5.291680
 21
92.075058
 31
0.0
  0
SPLINE
  5
124
100
AcDbEntity
  8
0
 62
7
100
AcDbSpline
 70
8
 71
3
 72
8
 73
4
 74
0
 40
0
 40
0
 40
0
 40
0
 40
1
 40
1
 40
1
 40
1
 10
5.291680
 20
92.075058
 30
0.0
 10
5.291680
 20
93.452572
 30
0.0
 10
5.321078
 20
93.486170
 30
0.0
 10
6.526403
 20
93.486170
 30
0.0
  0
SPLINE
  5
125
100
AcDbEntity
  8
0
 62
7
100
AcDbSpline
 70
8
 71
3
 72
8
 73
4
 74
0
 40
0
 40
0
 40
0
 40
0
 40
1
 40
1
 40
1
 40
1
 10
6.526403
 20
93.486170
 30
0.0
 10
7.702330
 20
93.486170
 30
0.0
 10
7.761126
 20
93.544967
 30
0.0
 10
7.761126
 20
94.720893
 30
0.0
  0
SPLINE
  5
126
100
AcDbEntity
  8
0
 62
7
100
AcDbSpline
 70
8
 71
3
 72
8
 73
4
 74
0
 40
0
 40
0
 40
0
 40
0
 40
1
 40
1
 40
1
 40
1
 10
7.761126
 20
94.720893
 30
0.0
 10
7.761126
 20
95.896820
 30
0.0
 10
7.702330
 20
95.955616
 30
0.0
 10
6.526403
 20
95.955616
 30
0.0
  0
LINE
  5
127
100
AcDbEntity
  8
0
 62
7
100
AcDbLine
 10
6.526403
 20
95.955616
 30
0.0
 11
5.291680
 21
95.955616
 31
0.0
  0
LINE
  5
128
100
AcDbEntity
  8
0
 62
7
100
AcDbLine
 10
5.291680
 20
95.955616
 30
0.0
 11
5.291680
 21
98.601452
 31
0.0
  0
LINE
  5
129
100
AcDbEntity
  8
0
 62
7
100
AcDbLine
 10
5.291680
 20
98.601452
 30
0.0
 11
5.291680
 21
101.247287
 31
0.0
  0
LINE
  5
12a
100
AcDbEntity
  8
0
 62
7
100
AcDbLine
 10
5.291680
 20
101.247287
 30
0.0
 11
3.880568
 21
101.247287
 31
0.0
  0
LINE
  5
12b
100
AcDbEntity
  8
0
 62
7
100
AcDbLine
 10
3.880568
 20
101.247287
 30
0.0
 11
2.469456
 21
101.247287
 31
0.0
  0
LINE
  5
12c
100
AcDbEntity
  8
0
 62
7
100
AcDbLine
 10
2.469456
 20
101.247287
 30
0.0
 11
2.469456
 21
103.716733
 31
0.0
  0
LINE
  5
12d
100
AcDbEntity
  8
0
 62
7
100
AcDbLine
 10
2.469456
 20
103.716733
 30
0.0
 11
2.469456
 21
106.186179
 31
0.0
  0
LINE
  5
12e
100
AcDbEntity
  8
0
 62
7
100
AcDbLine
 10
2.469456
 20
106.186179
 30
0.0
 11
1.234732
 21
106.186179
 31
0.0
  0
LINE
  5
12f
100
AcDbEntity
  8
0
 62
7
100
AcDbLine
 10
1.234732
 20
106.186179
 30
0.0
 11
0.000010
 21
106.186179
 31
0.0
  0
LINE
  5
130
100
AcDbEntity
  8
0
 62
7
100
AcDbLine
 10
0.000010
 20
106.186179
 30
0.0
 11
0.000010
 21
111.477849
 31
0.0
  0
LINE
  5
131
100
AcDbEntity
  8
0
 62
7
100
AcDbLine
 10
0.000010
 20
111.477849
 30
0.0
 11
0.000010
 21
116.769519
 31
0.0
  0
LINE
  5
132
100
AcDbEntity
  8
0
 62
7
100
AcDbLine
 10
0.000010
 20
116.769519
 30
0.0
 11
5.291680
 21
116.769519
 31
0.0
  0
LINE
  5
133
100
AcDbEntity
  8
0
 62
7
100
AcDbLine
 10
5.291680
 20
116.769519
 30
0.0
 11
10.583351
 21
116.769519
 31
0.0
  0
LINE
  5
134
100
AcDbEntity
  8
0
 62
7
100
AcDbLine
 10
10.583351
 20
116.769519
 30
0.0
 11
10.583351
 21
115.534796
 31
0.0
  0
SPLINE
  5
135
100
AcDbEntity
  8
0
 62
7
100
AcDbSpline
 70
8
 71
3
 72
8
 73
4
 74
0
 40
0
 40
0
 40
0
 40
0
 40
1
 40
1
 40
1
 40
1
 10
10.583351
 20
115.534796
 30
0.0
 10
10.583351
 20
114.358870
 30
0.0
 10
10.642147
 20
114.300073
 30
0.0
 10
11.818073
 20
114.300073
 30
0.0
  0
SPLINE
  5
136
100
AcDbEntity
  8
0
 62
7
100
AcDbSpline
 70
8
 71
3
 72
8
 73
4
 74
0
 40
0
 40
0
 40
0
 40
0
 40
1
 40
1
 40
1
 40
1
 10
11.818073
 20
114.300073
 30
0.0
 10
13.023399
 20
114.300073
 30
0.0
 10
13.052797
 20
114.266475
 30
0.0
 10
13.052797
 20
112.888961
 30
0.0
  0
SPLINE
  5
137
100
AcDbEntity
  8
0
 62
7
100
AcDbSpline
 70
8
 71
3
 72
8
 73
4
 74
0
 40
0
 40
0
 40
0
 40
0
 40
1
 40
1
 40
1
 40
1
 10
13.052797
 20
112.888961
 30
0.0
 10
13.052797
 20
111.511447
 30
0.0
 10
13.082195
 20
111.477849
 30
0.0
 10
14.287521
 20
111.477849
 30
0.0
  0
SPLINE
  5
138
100
AcDbEntity
  8
0
 62
7
100
AcDbSpline
 70
8
 71
3
 72
8
 73
4
 74
0
 40
0
 40
0
 40
0
 40
0
 40
1
 40
1
 40
1
 40
1
 10
14.287521
 20
111.477849
 30
0.0
 10
15.463446
 20
111.477849
 30
0.0
 10
15.522242
 20
111.419053
 30
0.0
 10
15.522242
 20
110.243126
 30
0.0
  0
LINE
  5
139
100
AcDbEntity
  8
0
 62
7
100
AcDbLine
 10
15.522242
 20
110.243126
 30
0.0
 11
15.522242
 21
109.008403
 31
0.0
  0
LINE
  5
13a
100
AcDbEntity
  8
0
 62
7
100
AcDbLine
 10
15.522242
 20
109.008403
 30
0.0
 11
18.168077
 21
109.008403
 31
0.0
  0
LINE
  5
13b
100
AcDbEntity
  8
0
 62
7
100
AcDbLine
 10
18.168077
 20
109.008403
 30
0.0
 11
20.813912
 21
109.008403
 31
0.0
  0
LINE
  5
13c
100
AcDbEntity
  8
0
 62
7
100
AcDbLine
 10
20.813912
 20
109.008403
 30
0.0
 11
20.813912
 21
107.597291
 31
0.0
  0
SPLINE
  5
13d
100
AcDbEntity
  8
0
 62
7
100
AcDbSpline
 70
8
 71
3
 72
8
 73
4
 74
0
 40
0
 40
0
 40
0
 40
0
 40
1
 40
1
 40
1
 40
1
 10
20.813912
 20
107.597291
 30
0.0
 10
20.813912
 20
106.219777
 30
0.0
 10
20.843313
 20
106.186179
 30
0.0
 10
22.048636
 20
106.186179
 30
0.0
  0
SPLINE
  5
13e
100
AcDbEntity
  8
0
 62
7
100
AcDbSpline
 70
8
 71
3
 72
8
 73
4
 74
0
 40
0
 40
0
 40
0
 40
0
 40
1
 40
1
 40
1
 40
1
 10
22.048636
 20
106.186179
 30
0.0
 10
23.253962
 20
106.186179
 30
0.0
 10
23.283360
 20
106.219777
 30
0.0
 10
23.283360
 20
107.597291
 30
0.0
  0
LINE
  5
13f
100
AcDbEntity
  8
0
 62
7
100
AcDbLine
 10
23.283360
 20
107.597291
 30
0.0
 11
23.283360
 21
109.008403
 31
0.0
  0
LINE
  5
140
100
AcDbEntity
  8
0
 62
7
100
AcDbLine
 10
23.283360
 20
109.008403
 30
0.0
 11
25.929195
 21
109.008403
 31
0.0
  0
LINE
  5
141
100
AcDbEntity
  8
0
 62
7
100
AcDbLine
 10
25.929195
 20
109.008403
 30
0.0
 11
28.575031
 21
109.008403
 31
0.0
  0
LINE
  5
142
100
AcDbEntity
  8
0
 62
7
100
AcDbLine
 10
28.575031
 20
109.008403
 30
0.0
 11
28.575031
 21
110.243126
 31
0.0
  0
LINE
  5
143
100
AcDbEntity
  8
0
 62
7
100
AcDbLine
 10
28.575031
 20
110.243126
 30
0.0
 11
28.575031
 21
111.477849
 31
0.0
  0
LINE
  5
144
100
AcDbEntity
  8
0
 62
7
100
AcDbLine
 10
28.575031
 20
111.477849
 30
0.0
 11
31.220866
 21
111.477849
 31
0.0
  0
LINE
  5
145
100
AcDbEntity
  8
0
 62
7
100
AcDbLine
 10
31.220866
 20
111.477849
 30
0.0
 11
33.866701
 21
111.477849
 31
0.0
  0
LINE
  5
146
100
AcDbEntity
  8
0
 62
7
100
AcDbLine
 10
33.866701
 20
111.477849
 30
0.0
 11
33.866701
 21
112.888961
 31
0.0
  0
LINE
  5
147
100
AcDbEntity
  8
0
 62
7
100
AcDbLine
 10
33.866701
 20
112.888961
 30
0.0
 11
33.866701
 21
114.300073
 31
0.0
  0
LINE
  5
148
100
AcDbEntity
  8
0
 62
7
100
AcDbLine
 10
33.866701
 20
114.300073
 30
0.0
 11
37.747260
 21
114.300073
 31
0.0
  0
LINE
  5
149
100
AcDbEntity
  8
0
 62
7
100
AcDbLine
 10
37.747260
 20
114.300073
 30
0.0
 11
41.627817
 21
114.300073
 31
0.0
  0
LINE
  5
14a
100
AcDbEntity
  8
0
 62
7
100
AcDbLine
 10
41.627817
 20
114.300073
 30
0.0
 11
41.627817
 21
111.654238
 31
0.0
  0
LINE
  5
14b
100
AcDbEntity
  8
0
 62
7
100
AcDbLine
 10
41.627817
 20
111.654238
 30
0.0
 11
41.627817
 21
109.008403
 31
0.0
  0
LINE
  5
14c
100
AcDbEntity
  8
0
 62
7
100
AcDbLine
 10
41.627817
 20
109.008403
 30
0.0
 11
40.393095
 21
109.008403
 31
0.0
  0
LINE
  5
14d
100
AcDbEntity
  8
0
 62
7
100
AcDbLine
 10
40.393095
 20
109.008403
 30
0.0
 11
39.158371
 21
109.008403
 31
0.0
  0
LINE
  5
14e
100
AcDbEntity
  8
0
 62
7
100
AcDbLine
 10
39.158371
 20
109.008403
 30
0.0
 11
39.158371
 21
106.362568
 31
0.0
  0
LINE
  5
14f
100
AcDbEntity
  8
0
 62
7
100
AcDbLine
 10
39.158371
 20
106.362568
 30
0.0
 11
39.158371
 21
103.716733
 31
0.0
  0
LINE
  5
150
100
AcDbEntity
  8
0
 62
7
100
AcDbLine
 10
39.158371
 20
103.716733
 30
0.0
 11
48.154211
 21
103.716733
 31
0.0
  0
LINE
  5
151
100
AcDbEntity
  8
0
 62
7
100
AcDbLine
 10
48.154211
 20
103.716733
 30
0.0
 11
57.150051
 21
103.716733
 31
0.0
  0
LINE
  5
152
100
AcDbEntity
  8
0
 62
7
100
AcDbLine
 10
57.150051
 20
103.716733
 30
0.0
 11
57.150051
 21
98.601452
 31
0.0
  0
LINE
  5
153
100
AcDbEntity
  8
0
 62
7
100
AcDbLine
 10
57.150051
 20
98.601452
 30
0.0
 11
57.150051
 21
93.486170
 31
0.0
  0
LINE
  5
154
100
AcDbEntity
  8
0
 62
7
100
AcDbLine
 10
57.150051
 20
93.486170
 30
0.0
 11
55.915329
 21
93.486170
 31
0.0
  0
LINE
  5
155
100
AcDbEntity
  8
0
 62
7
100
AcDbLine
 10
55.915329
 20
93.486170
 30
0.0
 11
54.680605
 21
93.486170
 31
0.0
  0
LINE
  5
156
100
AcDbEntity
  8
0
 62
7
100
AcDbLine
 10
54.680605
 20
93.486170
 30
0.0
 11
54.680605
 21
90.840335
 31
0.0
  0
LINE
  5
157
100
AcDbEntity
  8
0
 62
7
100
AcDbLine
 10
54.680605
 20
90.840335
 30
0.0
 11
54.680605
 21
88.194500
 31
0.0
  0
LINE
  5
158
100
AcDbEntity
  8
0
 62
7
100
AcDbLine
 10
54.680605
 20
88.194500
 30
0.0
 11
50.800046
 21
88.194500
 31
0.0
  0
LINE
  5
159
100
AcDbEntity
  8
0
 62
7
100
AcDbLine
 10
50.800046
 20
88.194500
 30
0.0
 11
46.919487
 21
88.194500
 31
0.0
  0
LINE
  5
15a
100
AcDbEntity
  8
0
 62
7
100
AcDbLine
 10
46.919487
 20
88.194500
 30
0.0
 11
46.919487
 21
85.548665
 31
0.0
  0
LINE
  5
15b
100
AcDbEntity
  8
0
 62
7
100
AcDbLine
 10
46.919487
 20
85.548665
 30
0.0
 11
46.919487
 21
82.902830
 31
0.0
  0
LINE
  5
15c
100
AcDbEntity
  8
0
 62
7
100
AcDbLine
 10
46.919487
 20
82.902830
 30
0.0
 11
48.154211
 21
82.902830
 31
0.0
  0
LINE
  5
15d
100
AcDbEntity
  8
0
 62
7
100
AcDbLine
 10
48.154211
 20
82.902830
 30
0.0
 11
49.388935
 21
82.902830
 31
0.0
  0
LINE
  5
15e
100
AcDbEntity
  8
0
 62
7
100
AcDbLine
 10
49.388935
 20
82.902830
 30
0.0
 11
49.388935
 21
79.022271
 31
0.0
  0
LINE
  5
15f
100
AcDbEntity
  8
0
 62
7
100
AcDbLine
 10
49.388935
 20
79.022271
 30
0.0
 11
49.388935
 21
75.141714
 31
0.0
  0
LINE
  5
160
100
AcDbEntity
  8
0
 62
7
100
AcDbLine
 10
49.388935
 20
75.141714
 30
0.0
 11
48.154211
 21
75.141714
 31
0.0
  0
SPLINE
  5
161
100
AcDbEntity
  8
0
 62
7
100
AcDbSpline
 70
8
 71
3
 72
8
 73
4
 74
0
 40
0
 40
0
 40
0
 40
0
 40
1
 40
1
 40
1
 40
1
 10
48.154211
 20
75.141714
 30
0.0
 10
46.978285
 20
75.141714
 30
0.0
 10
46.919487
 20
75.082916
 30
0.0
 10
46.919487
 20
73.906990
 30
0.0
  0
SPLINE
  5
162
100
AcDbEntity
  8
0
 62
7
100
AcDbSpline
 70
8
 71
3
 72
8
 73
4
 74
0
 40
0
 40
0
 40
0
 40
0
 40
1
 40
1
 40
1
 40
1
 10
46.919487
 20
73.906990
 30
0.0
 10
46.919487
 20
72.701664
 30
0.0
 10
46.885890
 20
72.672266
 30
0.0
 10
45.508376
 20
72.672266
 30
0.0
  0
LINE
  5
163
100
AcDbEntity
  8
0
 62
7
100
AcDbLine
 10
45.508376
 20
72.672266
 30
0.0
 11
44.097265
 21
72.672266
 31
0.0
  0
LINE
  5
164
100
AcDbEntity
  8
0
 62
7
100
AcDbLine
 10
44.097265
 20
72.672266
 30
0.0
 11
44.097265
 21
71.261155
 31
0.0
  0
LINE
  5
165
100
AcDbEntity
  8
0
 62
7
100
AcDbLine
 10
44.097265
 20
71.261155
 30
0.0
 11
44.097265
 21
69.850044
 31
0.0
  0
LINE
  5
166
100
AcDbEntity
  8
0
 62
7
100
AcDbLine
 10
44.097265
 20
69.850044
 30
0.0
 11
45.508376
 21
69.850044
 31
0.0
  0
SPLINE
  5
167
100
AcDbEntity
  8
0
 62
7
100
AcDbSpline
 70
8
 71
3
 72
8
 73
4
 74
0
 40
0
 40
0
 40
0
 40
0
 40
1
 40
1
 40
1
 40
1
 10
45.508376
 20
69.850044
 30
0.0
 10
46.885890
 20
69.850044
 30
0.0
 10
46.919487
 20
69.820646
 30
0.0
 10
46.919487
 20
68.615320
 30
0.0
  0
LINE
  5
168
100
AcDbEntity
  8
0
 62
7
100
AcDbLine
 10
46.919487
 20
68.615320
 30
0.0
 11
46.919487
 21
67.380596
 31
0.0
  0
LINE
  5
169
100
AcDbEntity
  8
0
 62
7
100
AcDbLine
 10
46.919487
 20
67.380596
 30
0.0
 11
67.733391
 21
67.380596
 31
0.0
  0
LINE
  5
16a
100
AcDbEntity
  8
0
 62
7
100
AcDbLine
 10
67.733391
 20
67.380596
 30
0.0
 11
88.547296
 21
67.380596
 31
0.0
  0
LINE
  5
16b
100
AcDbEntity
  8
0
 62
7
100
AcDbLine
 10
88.547296
 20
67.380596
 30
0.0
 11
88.547296
 21
65.969485
 31
0.0
  0
SPLINE
  5
16c
100
AcDbEntity
  8
0
 62
7
100
AcDbSpline
 70
8
 71
3
 72
8
 73
4
 74
0
 40
0
 40
0
 40
0
 40
0
 40
1
 40
1
 40
1
 40
1
 10
88.547296
 20
65.969485
 30
0.0
 10
88.547296
 20
64.591970
 30
0.0
 10
88.576694
 20
64.558373
 30
0.0
 10
89.782020
 20
64.558373
 30
0.0
  0
SPLINE
  5
16d
100
AcDbEntity
  8
0
 62
7
100
AcDbSpline
 70
8
 71
3
 72
8
 73
4
 74
0
 40
0
 40
0
 40
0
 40
0
 40
1
 40
1
 40
1
 40
1
 10
89.782020
 20
64.558373
 30
0.0
 10
90.957945
 20
64.558373
 30
0.0
 10
91.016744
 20
64.499578
 30
0.0
 10
91.016744
 20
63.323649
 30
0.0
  0
LINE
  5
16e
100
AcDbEntity
  8
0
 62
7
100
AcDbLine
 10
91.016744
 20
63.323649
 30
0.0
 11
91.016744
 21
62.088925
 31
0.0
  0
LINE
  5
16f
100
AcDbEntity
  8
0
 62
7
100
AcDbLine
 10
91.016744
 20
62.088925
 30
0.0
 11
93.662579
 21
62.088925
 31
0.0
  0
LINE
  5
170
100
AcDbEntity
  8
0
 62
7
100
AcDbLine
 10
93.662579
 20
62.088925
 30
0.0
 11
96.308414
 21
62.088925
 31
0.0
  0
LINE
  5
171
100
AcDbEntity
  8
0
 62
7
100
AcDbLine
 10
96.308414
 20
62.088925
 30
0.0
 11
96.308414
 21
60.854204
 31
0.0
  0
SPLINE
  5
172
100
AcDbEntity
  8
0
 62
7
100
AcDbSpline
 70
8
 71
3
 72
8
 73
4
 74
0
 40
0
 40
0
 40
0
 40
0
 40
1
 40
1
 40
1
 40
1
 10
96.308414
 20
60.854204
 30
0.0
 10
96.308414
 20
59.678276
 30
0.0
 10
96.367210
 20
59.619480
 30
0.0
 10
97.543136
 20
59.619480
 30
0.0
  0
SPLINE
  5
173
100
AcDbEntity
  8
0
 62
7
100
AcDbSpline
 70
8
 71
3
 72
8
 73
4
 74
0
 40
0
 40
0
 40
0
 40
0
 40
1
 40
1
 40
1
 40
1
 10
97.543136
 20
59.619480
 30
0.0
 10
98.748462
 20
59.619480
 30
0.0
 10
98.777860
 20
59.585883
 30
0.0
 10
98.777860
 20
58.208369
 30
0.0
  0
LINE
  5
174
100
AcDbEntity
  8
0
 62
7
100
AcDbLine
 10
98.777860
 20
58.208369
 30
0.0
 11
98.777860
 21
56.797258
 31
0.0
  0
LINE
  5
175
100
AcDbEntity
  8
0
 62
7
100
AcDbLine
 10
98.777860
 20
56.797258
 30
0.0
 11
101.423695
 21
56.797258
 31
0.0
  0
LINE
  5
176
100
AcDbEntity
  8
0
 62
7
100
AcDbLine
 10
101.423695
 20
56.797258
 30
0.0
 11
104.069530
 21
56.797258
 31
0.0
  0
LINE
  5
177
100
AcDbEntity
  8
0
 62
7
100
AcDbLine
 10
104.069530
 20
56.797258
 30
0.0
 11
104.069530
 21
55.562534
 31
0.0
  0
SPLINE
  5
178
100
AcDbEntity
  8
0
 62
7
100
AcDbSpline
 70
8
 71
3
 72
8
 73
4
 74
0
 40
0
 40
0
 40
0
 40
0
 40
1
 40
1
 40
1
 40
1
 10
104.069530
 20
55.562534
 30
0.0
 10
104.069530
 20
54.386606
 30
0.0
 10
104.128326
 20
54.327810
 30
0.0
 10
105.304254
 20
54.327810
 30
0.0
  0
SPLINE
  5
179
100
AcDbEntity
  8
0
 62
7
100
AcDbSpline
 70
8
 71
3
 72
8
 73
4
 74
0
 40
0
 40
0
 40
0
 40
0
 40
1
 40
1
 40
1
 40
1
 10
105.304254
 20
54.327810
 30
0.0
 10
106.480179
 20
54.327810
 30
0.0
 10
106.538978
 20
54.269014
 30
0.0
 10
106.538978
 20
53.093088
 30
0.0
  0
SPLINE
  5
17a
100
AcDbEntity
  8
0
 62
7
100
AcDbSpline
 70
8
 71
3
 72
8
 73
4
 74
0
 40
0
 40
0
 40
0
 40
0
 40
1
 40
1
 40
1
 40
1
 10
106.538978
 20
53.093088
 30
0.0
 10
106.538978
 20
51.887762
 30
0.0
 10
106.572575
 20
51.858364
 30
0.0
 10
107.950089
 20
51.858364
 30
0.0
  0
LINE
  5
17b
100
AcDbEntity
  8
0
 62
7
100
AcDbLine
 10
107.950089
 20
51.858364
 30
0.0
 11
109.361200
 21
51.858364
 31
0.0
  0
LINE
  5
17c
100
AcDbEntity
  8
0
 62
7
100
AcDbLine
 10
109.361200
 20
51.858364
 30
0.0
 11
109.361200
 21
50.447253
 31
0.0
  0
SPLINE
  5
17d
100
AcDbEntity
  8
0
 62
7
100
AcDbSpline
 70
8
 71
3
 72
8
 73
4
 74
0
 40
0
 40
0
 40
0
 40
0
 40
1
 40
1
 40
1
 40
1
 10
109.361200
 20
50.447253
 30
0.0
 10
109.361200
 20
49.069739
 30
0.0
 10
109.390598
 20
49.036139
 30
0.0
 10
110.595924
 20
49.036139
 30
0.0
  0
SPLINE
  5
17e
100
AcDbEntity
  8
0
 62
7
100
AcDbSpline
 70
8
 71
3
 72
8
 73
4
 74
0
 40
0
 40
0
 40
0
 40
0
 40
1
 40
1
 40
1
 40
1
 10
110.595924
 20
49.036139
 30
0.0
 10
111.771850
 20
49.036139
 30
0.0
 10
111.830648
 20
48.977344
 30
0.0
 10
111.830648
 20
47.801418
 30
0.0
  0
SPLINE
  5
17f
100
AcDbEntity
  8
0
 62
7
100
AcDbSpline
 70
8
 71
3
 72
8
 73
4
 74
0
 40
0
 40
0
 40
0
 40
0
 40
1
 40
1
 40
1
 40
1
 10
111.830648
 20
47.801418
 30
0.0
 10
111.830648
 20
46.596092
 30
0.0
 10
111.864245
 20
46.566694
 30
0.0
 10
113.241759
 20
46.566694
 30
0.0
  0
LINE
  5
180
100
AcDbEntity
  8
0
 62
7
100
AcDbLine
 10
113.241759
 20
46.566694
 30
0.0
 11
114.652871
 21
46.566694
 31
0.0
  0
LINE
  5
181
100
AcDbEntity
  8
0
 62
7
100
AcDbLine
 10
114.652871
 20
46.566694
 30
0.0
 11
114.652871
 21
45.155583
 31
0.0
  0
SPLINE
  5
182
100
AcDbEntity
  8
0
 62
7
100
AcDbSpline
 70
8
 71
3
 72
8
 73
4
 74
0
 40
0
 40
0
 40
0
 40
0
 40
1
 40
1
 40
1
 40
1
 10
114.652871
 20
45.155583
 30
0.0
 10
114.652871
 20
43.778068
 30
0.0
 10
114.682269
 20
43.744469
 30
0.0
 10
115.887595
 20
43.744469
 30
0.0
  0
SPLINE
  5
183
100
AcDbEntity
  8
0
 62
7
100
AcDbSpline
 70
8
 71
3
 72
8
 73
4
 74
0
 40
0
 40
0
 40
0
 40
0
 40
1
 40
1
 40
1
 40
1
 10
115.887595
 20
43.744469
 30
0.0
 10
117.063520
 20
43.744469
 30
0.0
 10
117.122319
 20
43.685673
 30
0.0
 10
117.122319
 20
42.509748
 30
0.0
  0
SPLINE
  5
184
100
AcDbEntity
  8
0
 62
7
100
AcDbSpline
 70
8
 71
3
 72
8
 73
4
 74
0
 40
0
 40
0
 40
0
 40
0
 40
1
 40
1
 40
1
 40
1
 10
117.122319
 20
42.509748
 30
0.0
 10
117.122319
 20
41.333819
 30
0.0
 10
117.181114
 20
41.275024
 30
0.0
 10
118.357040
 20
41.275024
 30
0.0
  0
LINE
  5
185
100
AcDbEntity
  8
0
 62
7
100
AcDbLine
 10
118.357040
 20
41.275024
 30
0.0
 11
119.591764
 21
41.275024
 31
0.0
  0
LINE
  5
186
100
AcDbEntity
  8
0
 62
7
100
AcDbLine
 10
119.591764
 20
41.275024
 30
0.0
 11
119.591764
 21
38.629189
 31
0.0
  0
LINE
  5
187
100
AcDbEntity
  8
0
 62
7
100
AcDbLine
 10
119.591764
 20
38.629189
 30
0.0
 11
119.591764
 21
35.983353
 31
0.0
  0
LINE
  5
188
100
AcDbEntity
  8
0
 62
7
100
AcDbLine
 10
119.591764
 20
35.983353
 30
0.0
 11
121.002875
 21
35.983353
 31
0.0
  0
SPLINE
  5
189
100
AcDbEntity
  8
0
 62
7
100
AcDbSpline
 70
8
 71
3
 72
8
 73
4
 74
0
 40
0
 40
0
 40
0
 40
0
 40
1
 40
1
 40
1
 40
1
 10
121.002875
 20
35.983353
 30
0.0
 10
122.380390
 20
35.983353
 30
0.0
 10
122.413989
 20
35.953955
 30
0.0
 10
122.413989
 20
34.748629
 30
0.0
  0
LINE
  5
18a
100
AcDbEntity
  8
0
 62
7
100
AcDbLine
 10
122.413989
 20
34.748629
 30
0.0
 11
122.413989
 21
33.513908
 31
0.0
  0
LINE
  5
18b
100
AcDbEntity
  8
0
 62
7
100
AcDbLine
 10
122.413989
 20
33.513908
 30
0.0
 11
124.883434
 21
33.513908
 31
0.0
  0
LINE
  5
18c
100
AcDbEntity
  8
0
 62
7
100
AcDbLine
 10
124.883434
 20
33.513908
 30
0.0
 11
127.352880
 21
33.513908
 31
0.0
  0
LINE
  5
18d
100
AcDbEntity
  8
0
 62
7
100
AcDbLine
 10
127.352880
 20
33.513908
 30
0.0
 11
127.352880
 21
32.279184
 31
0.0
  0
LINE
  5
18e
100
AcDbEntity
  8
0
 62
7
100
AcDbLine
 10
127.352880
 20
32.279184
 30
0.0
 11
127.352880
 21
31.044460
 31
0.0
  0
LINE
  5
18f
100
AcDbEntity
  8
0
 62
7
100
AcDbLine
 10
127.352880
 20
31.044460
 30
0.0
 11
129.998715
 21
31.044460
 31
0.0
  0
LINE
  5
190
100
AcDbEntity
  8
0
 62
7
100
AcDbLine
 10
129.998715
 20
31.044460
 30
0.0
 11
132.644553
 21
31.044460
 31
0.0
  0
LINE
  5
191
100
AcDbEntity
  8
0
 62
7
100
AcDbLine
 10
132.644553
 20
31.044460
 30
0.0
 11
132.644553
 21
29.633349
 31
0.0
  0
LINE
  5
192
100
AcDbEntity
  8
0
 62
7
100
AcDbLine
 10
132.644553
 20
29.633349
 30
0.0
 11
132.644553
 21
28.222238
 31
0.0
  0
LINE
  5
193
100
AcDbEntity
  8
0
 62
7
100
AcDbLine
 10
132.644553
 20
28.222238
 30
0.0
 11
135.290388
 21
28.222238
 31
0.0
  0
LINE
  5
194
100
AcDbEntity
  8
0
 62
7
100
AcDbLine
 10
135.290388
 20
28.222238
 30
0.0
 11
137.936223
 21
28.222238
 31
0.0
  0
LINE
  5
195
100
AcDbEntity
  8
0
 62
7
100
AcDbLine
 10
137.936223
 20
28.222238
 30
0.0
 11
137.936223
 21
16.580563
 31
0.0
  0
LINE
  5
196
100
AcDbEntity
  8
0
 62
7
100
AcDbLine
 10
137.936223
 20
16.580563
 30
0.0
 11
137.936223
 21
4.938888
 31
0.0
  0
LINE
  5
197
100
AcDbEntity
  8
0
 62
7
100
AcDbLine
 10
137.936223
 20
4.938888
 30
0.0
 11
132.644553
 21
4.938888
 31
0.0
  0
LINE
  5
198
100
AcDbEntity
  8
0
 62
7
100
AcDbLine
 10
132.644553
 20
4.938888
 30
0.0
 11
127.352880
 21
4.938888
 31
0.0
  0
LINE
  5
199
100
AcDbEntity
  8
0
 62
7
100
AcDbLine
 10
127.352880
 20
4.938888
 30
0.0
 11
127.352880
 21
6.173612
 31
0.0
  0
LINE
  5
19a
100
AcDbEntity
  8
0
 62
7
100
AcDbLine
 10
127.352880
 20
6.173612
 30
0.0
 11
127.352880
 21
7.408333
 31
0.0
  0
LINE
  5
19b
100
AcDbEntity
  8
0
 62
7
100
AcDbLine
 10
127.352880
 20
7.408333
 30
0.0
 11
119.591764
 21
7.408333
 31
0.0
  0
LINE
  5
19c
100
AcDbEntity
  8
0
 62
7
100
AcDbLine
 10
119.591764
 20
7.408333
 30
0.0
 11
111.830648
 21
7.408333
 31
0.0
  0
LINE
  5
19d
100
AcDbEntity
  8
0
 62
7
100
AcDbLine
 10
111.830648
 20
7.408333
 30
0.0
 11
111.830648
 21
4.762498
 31
0.0
  0
LINE
  5
19e
100
AcDbEntity
  8
0
 62
7
100
AcDbLine
 10
111.830648
 20
4.762498
 30
0.0
 11
111.830648
 21
2.116663
 31
0.0
  0
LINE
  5
19f
100
AcDbEntity
  8
0
 62
7
100
AcDbLine
 10
111.830648
 20
2.116663
 30
0.0
 11
110.595924
 21
2.116663
 31
0.0
  0
SPLINE
  5
1a0
100
AcDbEntity
  8
0
 62
7
100
AcDbSpline
 70
8
 71
3
 72
8
 73
4
 74
0
 40
0
 40
0
 40
0
 40
0
 40
1
 40
1
 40
1
 40
1
 10
110.595924
 20
2.116663
 30
0.0
 10
109.459194
 20
2.116663
 30
0.0
 10
109.361200
 20
2.032668
 30
0.0
 10
109.361200
 20
1.058329
 30
0.0
  0
LINE
  5
1a1
100
AcDbEntity
  8
0
 62
7
100
AcDbLine
 10
109.361200
 20
1.058329
 30
0.0
 11
109.361200
 21
-0.000005
 31
0.0
  0
LINE
  5
1a2
100
AcDbEntity
  8
0
 62
7
100
AcDbLine
 10
109.361200
 20
-0.000005
 30
0.0
 11
104.069530
 21
-0.000005
 31
0.0
  0
LINE
  5
1a3
100
AcDbEntity
  8
0
 62
7
100
AcDbLine
 10
104.069530
 20
-0.000005
 30
0.0
 11
98.777860
 21
-0.000005
 31
0.0
  0
LINE
  5
1a4
100
AcDbEntity
  8
0
 62
7
100
AcDbLine
 10
98.777860
 20
-0.000005
 30
0.0
 11
98.777860
 21
1.058329
 31
0.0
  0
SPLINE
  5
1a5
100
AcDbEntity
  8
0
 62
7
100
AcDbSpline
 70
8
 71
3
 72
8
 73
4
 74
0
 40
0
 40
0
 40
0
 40
0
 40
1
 40
1
 40
1
 40
1
 10
98.777860
 20
1.058329
 30
0.0
 10
98.777860
 20
2.032668
 30
0.0
 10
98.679866
 20
2.116663
 30
0.0
 10
97.543136
 20
2.116663
 30
0.0
  0
LINE
  5
1a6
100
AcDbEntity
  8
0
 62
7
100
AcDbLine
 10
97.543136
 20
2.116663
 30
0.0
 11
96.308414
 21
2.116663
 31
0.0
  0
LINE
  5
1a7
100
AcDbEntity
  8
0
 62
7
100
AcDbLine
 10
96.308414
 20
2.116663
 30
0.0
 11
96.308414
 21
4.762498
 31
0.0
  0
LINE
  5
1a8
100
AcDbEntity
  8
0
 62
7
100
AcDbLine
 10
96.308414
 20
4.762498
 30
0.0
 11
96.308414
 21
7.408333
 31
0.0
  0
LINE
  5
1a9
100
AcDbEntity
  8
0
 62
7
100
AcDbLine
 10
96.308414
 20
7.408333
 30
0.0
 11
95.073690
 21
7.408333
 31
0.0
  0
LINE
  5
1aa
100
AcDbEntity
  8
0
 62
7
100
AcDbLine
 10
95.073690
 20
7.408333
 30
0.0
 11
93.838966
 21
7.408333
 31
0.0
  0
LINE
  5
1ab
100
AcDbEntity
  8
0
 62
7
100
AcDbLine
 10
93.838966
 20
7.408333
 30
0.0
 11
93.838966
 21
11.288892
 31
0.0
  0
LINE
  5
1ac
100
AcDbEntity
  8
0
 62
7
100
AcDbLine
 10
93.838966
 20
11.288892
 30
0.0
 11
93.838966
 21
15.169452
 31
0.0
  0
LINE
  5
1ad
100
AcDbEntity
  8
0
 62
7
100
AcDbLine
 10
93.838966
 20
15.169452
 30
0.0
 11
91.193131
 21
15.169452
 31
0.0
  0
LINE
  5
1ae
100
AcDbEntity
  8
0
 62
7
100
AcDbLine
 10
91.193131
 20
15.169452
 30
0.0
 11
88.547296
 21
15.169452
 31
0.0
  0
LINE
  5
1af
100
AcDbEntity
  8
0
 62
7
100
AcDbLine
 10
88.547296
 20
15.169452
 30
0.0
 11
88.547296
 21
11.288892
 31
0.0
  0
LINE
  5
1b0
100
AcDbEntity
  8
0
 62
7
100
AcDbLine
 10
88.547296
 20
11.288892
 30
0.0
 11
88.547296
 21
7.408333
 31
0.0
  0
LINE
  5
1b1
100
AcDbEntity
  8
0
 62
7
100
AcDbLine
 10
88.547296
 20
7.408333
 30
0.0
 11
87.136185
 21
7.408333
 31
0.0
  0
SPLINE
  5
1b2
100
AcDbEntity
  8
0
 62
7
100
AcDbSpline
 70
8
 71
3
 72
8
 73
4
 74
0
 40
0
 40
0
 40
0
 40
0
 40
1
 40
1
 40
1
 40
1
 10
87.136185
 20
7.408333
 30
0.0
 10
85.758670
 20
7.408333
 30
0.0
 10
85.725073
 20
7.378935
 30
0.0
 10
85.725073
 20
6.173612
 30
0.0
  0
LINE
  5
1b3
100
AcDbEntity
  8
0
 62
7
100
AcDbLine
 10
85.725073
 20
6.173612
 30
0.0
 11
85.725073
 21
4.938888
 31
0.0
  0
LINE
  5
1b4
100
AcDbEntity
  8
0
 62
7
100
AcDbLine
 10
85.725073
 20
4.938888
 30
0.0
 11
79.375069
 21
4.938888
 31
0.0
  0
LINE
  5
1b5
100
AcDbEntity
  8
0
 62
7
100
AcDbLine
 10
79.375069
 20
4.938888
 30
0.0
 11
73.025062
 21
4.938888
 31
0.0
  0
LINE
  5
1b6
100
AcDbEntity
  8
0
 62
7
100
AcDbLine
 10
73.025062
 20
4.938888
 30
0.0
 11
73.025062
 21
8.819447
 31
0.0
  0
LINE
  5
1b7
100
AcDbEntity
  8
0
 62
7
100
AcDbLine
 10
73.025062
 20
8.819447
 30
0.0
 11
73.025062
 21
12.700004
 31
0.0
  0
LINE
  5
1b8
100
AcDbEntity
  8
0
 62
7
100
AcDbLine
 10
73.025062
 20
12.700004
 30
0.0
 11
74.259786
 21
12.700004
 31
0.0
  0
LINE
  5
1b9
100
AcDbEntity
  8
0
 62
7
100
AcDbLine
 10
74.259786
 20
12.700004
 30
0.0
 11
75.494510
 21
12.700004
 31
0.0
  0
LINE
  5
1ba
100
AcDbEntity
  8
0
 62
7
100
AcDbLine
 10
75.494510
 20
12.700004
 30
0.0
 11
75.494510
 21
15.345839
 31
0.0
  0
LINE
  5
1bb
100
AcDbEntity
  8
0
 62
7
100
AcDbLine
 10
75.494510
 20
15.345839
 30
0.0
 11
75.494510
 21
17.991674
 31
0.0
  0
LINE
  5
1bc
100
AcDbEntity
  8
0
 62
7
100
AcDbLine
 10
75.494510
 20
17.991674
 30
0.0
 11
76.729234
 21
17.991674
 31
0.0
  0
SPLINE
  5
1bd
100
AcDbEntity
  8
0
 62
7
100
AcDbSpline
 70
8
 71
3
 72
8
 73
4
 74
0
 40
0
 40
0
 40
0
 40
0
 40
1
 40
1
 40
1
 40
1
 10
76.729234
 20
17.991674
 30
0.0
 10
77.905159
 20
17.991674
 30
0.0
 10
77.963955
 20
18.050470
 30
0.0
 10
77.963955
 20
19.226398
 30
0.0
  0
SPLINE
  5
1be
100
AcDbEntity
  8
0
 62
7
100
AcDbSpline
 70
8
 71
3
 72
8
 73
4
 74
0
 40
0
 40
0
 40
0
 40
0
 40
1
 40
1
 40
1
 40
1
 10
77.963955
 20
19.226398
 30
0.0
 10
77.963955
 20
20.431721
 30
0.0
 10
77.997555
 20
20.461122
 30
0.0
 10
79.375069
 20
20.461122
 30
0.0
  0
SPLINE
  5
1bf
100
AcDbEntity
  8
0
 62
7
100
AcDbSpline
 70
8
 71
3
 72
8
 73
4
 74
0
 40
0
 40
0
 40
0
 40
0
 40
1
 40
1
 40
1
 40
1
 10
79.375069
 20
20.461122
 30
0.0
 10
80.752581
 20
20.461122
 30
0.0
 10
80.786180
 20
20.490520
 30
0.0
 10
80.786180
 20
21.695843
 30
0.0
  0
LINE
  5
1c0
100
AcDbEntity
  8
0
 62
7
100
AcDbLine
 10
80.786180
 20
21.695843
 30
0.0
 11
80.786180
 21
22.930567
 31
0.0
  0
LINE
  5
1c1
100
AcDbEntity
  8
0
 62
7
100
AcDbLine
 10
80.786180
 20
22.930567
 30
0.0
 11
78.140345
 21
22.930567
 31
0.0
  0
LINE
  5
1c2
100
AcDbEntity
  8
0
 62
7
100
AcDbLine
 10
78.140345
 20
22.930567
 30
0.0
 11
75.494510
 21
22.930567
 31
0.0
  0
LINE
  5
1c3
100
AcDbEntity
  8
0
 62
7
100
AcDbLine
 10
75.494510
 20
22.930567
 30
0.0
 11
75.494510
 21
21.695843
 31
0.0
  0
LINE
  5
1c4
100
AcDbEntity
  8
0
 62
7
100
AcDbLine
 10
75.494510
 20
21.695843
 30
0.0
 11
75.494510
 21
20.461122
 31
0.0
  0
LINE
  5
1c5
100
AcDbEntity
  8
0
 62
7
100
AcDbLine
 10
75.494510
 20
20.461122
 30
0.0
 11
71.613951
 21
20.461122
 31
0.0
  0
LINE
  5
1c6
100
AcDbEntity
  8
0
 62
7
100
AcDbLine
 10
71.613951
 20
20.461122
 30
0.0
 11
67.733391
 21
20.461122
 31
0.0
  0
LINE
  5
1c7
100
AcDbEntity
  8
0
 62
7
100
AcDbLine
 10
67.733391
 20
20.461122
 30
0.0
 11
67.733391
 21
21.695843
 31
0.0
  0
SPLINE
  5
1c8
100
AcDbEntity
  8
0
 62
7
100
AcDbSpline
 70
8
 71
3
 72
8
 73
4
 74
0
 40
0
 40
0
 40
0
 40
0
 40
1
 40
1
 40
1
 40
1
 10
67.733391
 20
21.695843
 30
0.0
 10
67.733391
 20
22.901169
 30
0.0
 10
67.699795
 20
22.930567
 30
0.0
 10
66.322280
 20
22.930567
 30
0.0
  0
LINE
  5
1c9
100
AcDbEntity
  8
0
 62
7
100
AcDbLine
 10
66.322280
 20
22.930567
 30
0.0
 11
64.911169
 21
22.930567
 31
0.0
  0
LINE
  5
1ca
100
AcDbEntity
  8
0
 62
7
100
AcDbLine
 10
64.911169
 20
22.930567
 30
0.0
 11
64.911169
 21
24.341678
 31
0.0
  0
SPLINE
  5
1cb
100
AcDbEntity
  8
0
 62
7
100
AcDbSpline
 70
8
 71
3
 72
8
 73
4
 74
0
 40
0
 40
0
 40
0
 40
0
 40
1
 40
1
 40
1
 40
1
 10
64.911169
 20
24.341678
 30
0.0
 10
64.911169
 20
25.719193
 30
0.0
 10
64.881771
 20
25.752790
 30
0.0
 10
63.676445
 20
25.752790
 30
0.0
  0
SPLINE
  5
1cc
100
AcDbEntity
  8
0
 62
7
100
AcDbSpline
 70
8
 71
3
 72
8
 73
4
 74
0
 40
0
 40
0
 40
0
 40
0
 40
1
 40
1
 40
1
 40
1
 10
63.676445
 20
25.752790
 30
0.0
 10
62.500520
 20
25.752790
 30
0.0
 10
62.441721
 20
25.811588
 30
0.0
 10
62.441721
 20
26.987514
 30
0.0
  0
LINE
  5
1cd
100
AcDbEntity
  8
0
 62
7
100
AcDbLine
 10
62.441721
 20
26.987514
 30
0.0
 11
62.441721
 21
28.222238
 31
0.0
  0
LINE
  5
1ce
100
AcDbEntity
  8
0
 62
7
100
AcDbLine
 10
62.441721
 20
28.222238
 30
0.0
 11
59.795886
 21
28.222238
 31
0.0
  0
LINE
  5
1cf
100
AcDbEntity
  8
0
 62
7
100
AcDbLine
 10
59.795886
 20
28.222238
 30
0.0
 11
57.150051
 21
28.222238
 31
0.0
  0
LINE
  5
1d0
100
AcDbEntity
  8
0
 62
7
100
AcDbLine
 10
57.150051
 20
28.222238
 30
0.0
 11
57.150051
 21
25.576402
 31
0.0
  0
LINE
  5
1d1
100
AcDbEntity
  8
0
 62
7
100
AcDbLine
 10
57.150051
 20
25.576402
 30
0.0
 11
57.150051
 21
22.930567
 31
0.0
  0
LINE
  5
1d2
100
AcDbEntity
  8
0
 62
7
100
AcDbLine
 10
57.150051
 20
22.930567
 30
0.0
 11
55.915329
 21
22.930567
 31
0.0
  0
LINE
  5
1d3
100
AcDbEntity
  8
0
 62
7
100
AcDbLine
 10
55.915329
 20
22.930567
 30
0.0
 11
54.680605
 21
22.930567
 31
0.0
  0
LINE
  5
1d4
100
AcDbEntity
  8
0
 62
7
100
AcDbLine
 10
54.680605
 20
22.930567
 30
0.0
 11
54.680605
 21
17.815287
 31
0.0
  0
LINE
  5
1d5
100
AcDbEntity
  8
0
 62
7
100
AcDbLine
 10
54.680605
 20
17.815287
 30
0.0
 11
54.680605
 21
12.700004
 31
0.0
  0
LINE
  5
1d6
100
AcDbEntity
  8
0
 62
7
100
AcDbLine
 10
54.680605
 20
12.700004
 30
0.0
 11
53.445881
 21
12.700004
 31
0.0
  0
LINE
  5
1d7
100
AcDbEntity
  8
0
 62
7
100
AcDbLine
 10
53.445881
 20
12.700004
 30
0.0
 11
52.211160
 21
12.700004
 31
0.0
  0
LINE
  5
1d8
100
AcDbEntity
  8
0
 62
7
100
AcDbLine
 10
52.211160
 20
12.700004
 30
0.0
 11
52.211160
 21
8.819447
 31
0.0
  0
LINE
  5
1d9
100
AcDbEntity
  8
0
 62
7
100
AcDbLine
 10
52.211160
 20
8.819447
 30
0.0
 11
52.211160
 21
4.938888
 31
0.0
  0
LINE
  5
1da
100
AcDbEntity
  8
0
 62
7
100
AcDbLine
 10
52.211160
 20
4.938888
 30
0.0
 11
50.800046
 21
4.938888
 31
0.0
  0
LINE
  5
1db
100
AcDbEntity
  8
0
 62
7
100
AcDbLine
 10
50.800046
 20
4.938888
 30
0.0
 11
49.388935
 21
4.938888
 31
0.0
  0
LINE
  5
1dc
100
AcDbEntity
  8
0
 62
7
100
AcDbLine
 10
49.388935
 20
4.938888
 30
0.0
 11
49.388935
 21
3.527777
 31
0.0
  0
SPLINE
  5
1dd
100
AcDbEntity
  8
0
 62
7
100
AcDbSpline
 70
8
 71
3
 72
8
 73
4
 74
0
 40
0
 40
0
 40
0
 40
0
 40
1
 40
1
 40
1
 40
1
 10
49.388935
 20
3.527777
 30
0.0
 10
49.388935
 20
2.150262
 30
0.0
 10
49.359537
 20
2.116663
 30
0.0
 10
48.154211
 20
2.116663
 30
0.0
  0
SPLINE
  5
1de
100
AcDbEntity
  8
0
 62
7
100
AcDbSpline
 70
8
 71
3
 72
8
 73
4
 74
0
 40
0
 40
0
 40
0
 40
0
 40
1
 40
1
 40
1
 40
1
 10
48.154211
 20
2.116663
 30
0.0
 10
47.017484
 20
2.116663
 30
0.0
 10
46.919487
 20
2.032668
 30
0.0
 10
46.919487
 20
1.058329
 30
0.0
  0
LINE
  5
1df
100
AcDbEntity
  8
0
 62
7
100
AcDbLine
 10
46.919487
 20
1.058329
 30
0.0
 11
46.919487
 21
-0.000005
 31
0.0
  0
LINE
  5
1e0
100
AcDbEntity
  8
0
 62
7
100
AcDbLine
 10
46.919487
 20
-0.000005
 30
0.0
 11
40.393095
 21
-0.000005
 31
0.0
  0
LINE
  5
1e1
100
AcDbEntity
  8
0
 62
7
100
AcDbLine
 10
40.393095
 20
-0.000005
 30
0.0
 11
33.866701
 21
-0.000005
 31
0.0
  0
LINE
  5
1e2
100
AcDbEntity
  8
0
 62
7
100
AcDbLine
 10
33.866701
 20
-0.000005
 30
0.0
 11
33.866701
 21
1.058329
 31
0.0
  0
SPLINE
  5
1e3
100
AcDbEntity
  8
0
 62
7
100
AcDbSpline
 70
8
 71
3
 72
8
 73
4
 74
0
 40
0
 40
0
 40
0
 40
0
 40
1
 40
1
 40
1
 40
1
 10
44.097265
 20
6.173612
 30
0.0
 10
44.097265
 20
7.378935
 30
0.0
 10
44.130861
 20
7.408333
 30
0.0
 10
45.508376
 20
7.408333
 30
0.0
  0
LINE
  5
1e4
100
AcDbEntity
  8
0
 62
7
100
AcDbLine
 10
45.508376
 20
7.408333
 30
0.0
 11
46.919487
 21
7.408333
 31
0.0
  0
LINE
  5
1e5
100
AcDbEntity
  8
0
 62
7
100
AcDbLine
 10
46.919487
 20
7.408333
 30
0.0
 11
46.919487
 21
10.054168
 31
0.0
  0
LINE
  5
1e6
100
AcDbEntity
  8
0
 62
7
100
AcDbLine
 10
46.919487
 20
10.054168
 30
0.0
 11
46.919487
 21
12.700004
 31
0.0
  0
LINE
  5
1e7
100
AcDbEntity
  8
0
 62
7
100
AcDbLine
 10
46.919487
 20
12.700004
 30
0.0
 11
48.154211
 21
12.700004
 31
0.0
  0
LINE
  5
1e8
100
AcDbEntity
  8
0
 62
7
100
AcDbLine
 10
48.154211
 20
12.700004
 30
0.0
 11
49.388935
 21
12.700004
 31
0.0
  0
LINE
  5
1e9
100
AcDbEntity
  8
0
 62
7
100
AcDbLine
 10
49.388935
 20
12.700004
 30
0.0
 11
49.388935
 21
17.815287
 31
0.0
  0
LINE
  5
1ea
100
AcDbEntity
  8
0
 62
7
100
AcDbLine
 10
49.388935
 20
17.815287
 30
0.0
 11
49.388935
 21
22.930567
 31
0.0
  0
LINE
  5
1eb
100
AcDbEntity
  8
0
 62
7
100
AcDbLine
 10
49.388935
 20
22.930567
 30
0.0
 11
50.800046
 21
22.930567
 31
0.0
  0
LINE
  5
1ec
100
AcDbEntity
  8
0
 62
7
100
AcDbLine
 10
50.800046
 20
22.930567
 30
0.0
 11
52.211160
 21
22.930567
 31
0.0
  0
LINE
  5
1ed
100
AcDbEntity
  8
0
 62
7
100
AcDbLine
 10
52.211160
 20
22.930567
 30
0.0
 11
52.211160
 21
26.987514
 31
0.0
  0
LINE
  5
1ee
100
AcDbEntity
  8
0
 62
7
100
AcDbLine
 10
52.211160
 20
26.987514
 30
0.0
 11
52.211160
 21
31.044460
 31
0.0
  0
LINE
  5
1ef
100
AcDbEntity
  8
0
 62
7
100
AcDbLine
 10
52.211160
 20
31.044460
 30
0.0
 11
53.445881
 21
31.044460
 31
0.0
  0
SPLINE
  5
1f0
100
AcDbEntity
  8
0
 62
7
100
AcDbSpline
 70
8
 71
3
 72
8
 73
4
 74
0
 40
0
 40
0
 40
0
 40
0
 40
1
 40
1
 40
1
 40
1
 10
53.445881
 20
31.044460
 30
0.0
 10
54.621810
 20
31.044460
 30
0.0
 10
54.680605
 20
31.103258
 30
0.0
 10
54.680605
 20
32.279184
 30
0.0
  0
SPLINE
  5
1f1
100
AcDbEntity
  8
0
 62
7
100
AcDbSpline
 70
8
 71
3
 72
8
 73
4
 74
0
 40
0
 40
0
 40
0
 40
0
 40
1
 40
1
 40
1
 40
1
 10
54.680605
 20
32.279184
 30
0.0
 10
54.680605
 20
33.455112
 30
0.0
 10
54.739401
 20
33.513908
 30
0.0
 10
55.915329
 20
33.513908
 30
0.0
  0
SPLINE
  5
1f2
100
AcDbEntity
  8
0
 62
7
100
AcDbSpline
 70
8
 71
3
 72
8
 73
4
 74
0
 40
0
 40
0
 40
0
 40
0
 40
1
 40
1
 40
1
 40
1
 10
55.915329
 20
33.513908
 30
0.0
 10
57.091255
 20
33.513908
 30
0.0
 10
57.150051
 20
33.572704
 30
0.0
 10
57.150051
 20
34.748629
 30
0.0
  0
SPLINE
  5
1f3
100
AcDbEntity
  8
0
 62
7
100
AcDbSpline
 70
8
 71
3
 72
8
 73
4
 74
0
 40
0
 40
0
 40
0
 40
0
 40
1
 40
1
 40
1
 40
1
 10
57.150051
 20
34.748629
 30
0.0
 10
57.150051
 20
35.953955
 30
0.0
 10
57.183650
 20
35.983353
 30
0.0
 10
58.561165
 20
35.983353
 30
0.0
  0
LINE
  5
1f4
100
AcDbEntity
  8
0
 62
7
100
AcDbLine
 10
58.561165
 20
35.983353
 30
0.0
 11
59.972276
 21
35.983353
 31
0.0
  0
LINE
  5
1f5
100
AcDbEntity
  8
0
 62
7
100
AcDbLine
 10
59.972276
 20
35.983353
 30
0.0
 11
59.972276
 21
37.394465
 31
0.0
  0
SPLINE
  5
1f6
100
AcDbEntity
  8
0
 62
7
100
AcDbSpline
 70
8
 71
3
 72
8
 73
4
 74
0
 40
0
 40
0
 40
0
 40
0
 40
1
 40
1
 40
1
 40
1
 10
59.972276
 20
37.394465
 30
0.0
 10
59.972276
 20
38.771979
 30
0.0
 10
60.001674
 20
38.805578
 30
0.0
 10
61.207000
 20
38.805578
 30
0.0
  0
SPLINE
  5
1f7
100
AcDbEntity
  8
0
 62
7
100
AcDbSpline
 70
8
 71
3
 72
8
 73
4
 74
0
 40
0
 40
0
 40
0
 40
0
 40
1
 40
1
 40
1
 40
1
 10
61.207000
 20
38.805578
 30
0.0
 10
62.382925
 20
38.805578
 30
0.0
 10
62.441721
 20
38.864374
 30
0.0
 10
62.441721
 20
40.040300
 30
0.0
  0
LINE
  5
1f8
100
AcDbEntity
  8
0
 62
7
100
AcDbLine
 10
62.441721
 20
40.040300
 30
0.0
 11
62.441721
 21
41.275024
 31
0.0
  0
LINE
  5
1f9
100
AcDbEntity
  8
0
 62
7
100
AcDbLine
 10
62.441721
 20
41.275024
 30
0.0
 11
66.322280
 21
41.275024
 31
0.0
  0
LINE
  5
1fa
100
AcDbEntity
  8
0
 62
7
100
AcDbLine
 10
66.322280
 20
41.275024
 30
0.0
 11
70.202839
 21
41.275024
 31
0.0
  0
LINE
  5
1fb
100
AcDbEntity
  8
0
 62
7
100
AcDbLine
 10
70.202839
 20
41.275024
 30
0.0
 11
70.202839
 21
40.040300
 31
0.0
  0
LINE
  5
1fc
100
AcDbEntity
  8
0
 62
7
100
AcDbLine
 10
70.202839
 20
40.040300
 30
0.0
 11
70.202839
 21
38.805578
 31
0.0
  0
LINE
  5
1fd
100
AcDbEntity
  8
0
 62
7
100
AcDbLine
 10
70.202839
 20
38.805578
 30
0.0
 11
72.848675
 21
38.805578
 31
0.0
  0
LINE
  5
1fe
100
AcDbEntity
  8
0
 62
7
100
AcDbLine
 10
72.848675
 20
38.805578
 30
0.0
 11
75.494510
 21
38.805578
 31
0.0
  0
LINE
  5
1ff
100
AcDbEntity
  8
0
 62
7
100
AcDbLine
 10
75.494510
 20
38.805578
 30
0.0
 11
75.494510
 21
37.394465
 31
0.0
  0
SPLINE
  5
200
100
AcDbEntity
  8
0
 62
7
100
AcDbSpline
 70
8
 71
3
 72
8
 73
4
 74
0
 40
0
 40
0
 40
0
 40
0
 40
1
 40
1
 40
1
 40
1
 10
75.494510
 20
37.394465
 30
0.0
 10
75.494510
 20
36.016950
 30
0.0
 10
75.523908
 20
35.983353
 30
0.0
 10
76.729234
 20
35.983353
 30
0.0
  0
SPLINE
  5
201
100
AcDbEntity
  8
0
 62
7
100
AcDbSpline
 70
8
 71
3
 72
8
 73
4
 74
0
 40
0
 40
0
 40
0
 40
0
 40
1
 40
1
 40
1
 40
1
 10
76.729234
 20
35.983353
 30
0.0
 10
77.905159
 20
35.983353
 30
0.0
 10
77.963955
 20
35.924558
 30
0.0
 10
77.963955
 20
34.748629
 30
0.0
  0
SPLINE
  5
202
100
AcDbEntity
  8
0
 62
7
100
AcDbSpline
 70
8
 71
3
 72
8
 73
4
 74
0
 40
0
 40
0
 40
0
 40
0
 40
1
 40
1
 40
1
 40
1
 10
77.963955
 20
34.748629
 30
0.0
 10
77.963955
 20
33.543306
 30
0.0
 10
77.997555
 20
33.513908
 30
0.0
 10
79.375069
 20
33.513908
 30
0.0
  0
SPLINE
  5
203
100
AcDbEntity
  8
0
 62
7
100
AcDbSpline
 70
8
 71
3
 72
8
 73
4
 74
0
 40
0
 40
0
 40
0
 40
0
 40
1
 40
1
 40
1
 40
1
 10
79.375069
 20
33.513908
 30
0.0
 10
80.752581
 20
33.513908
 30
0.0
 10
80.786180
 20
33.484510
 30
0.0
 10
80.786180
 20
32.279184
 30
0.0
  0
LINE
  5
204
100
AcDbEntity
  8
0
 62
7
100
AcDbLine
 10
80.786180
 20
32.279184
 30
0.0
 11
80.786180
 21
31.044460
 31
0.0
  0
LINE
  5
205
100
AcDbEntity
  8
0
 62
7
100
AcDbLine
 10
80.786180
 20
31.044460
 30
0.0
 11
84.666739
 21
31.044460
 31
0.0
  0
LINE
  5
206
100
AcDbEntity
  8
0
 62
7
100
AcDbLine
 10
84.666739
 20
31.044460
 30
0.0
 11
88.547296
 21
31.044460
 31
0.0
  0
LINE
  5
207
100
AcDbEntity
  8
0
 62
7
100
AcDbLine
 10
88.547296
 20
31.044460
 30
0.0
 11
88.547296
 21
29.633349
 31
0.0
  0
LINE
  5
208
100
AcDbEntity
  8
0
 62
7
100
AcDbLine
 10
88.547296
 20
29.633349
 30
0.0
 11
88.547296
 21
28.222238
 31
0.0
  0
LINE
  5
209
100
AcDbEntity
  8
0
 62
7
100
AcDbLine
 10
88.547296
 20
28.222238
 30
0.0
 11
91.193131
 21
28.222238
 31
0.0
  0
LINE
  5
20a
100
AcDbEntity
  8
0
 62
7
100
AcDbLine
 10
91.193131
 20
28.222238
 30
0.0
 11
93.838966
 21
28.222238
 31
0.0
  0
LINE
  5
20b
100
AcDbEntity
  8
0
 62
7
100
AcDbLine
 10
93.838966
 20
28.222238
 30
0.0
 11
93.838966
 21
25.576402
 31
0.0
  0
LINE
  5
20c
100
AcDbEntity
  8
0
 62
7
100
AcDbLine
 10
93.838966
 20
25.576402
 30
0.0
 11
93.838966
 21
22.930567
 31
0.0
  0
LINE
  5
20d
100
AcDbEntity
  8
0
 62
7
100
AcDbLine
 10
93.838966
 20
22.930567
 30
0.0
 11
95.073690
 21
22.930567
 31
0.0
  0
LINE
  5
20e
100
AcDbEntity
  8
0
 62
7
100
AcDbLine
 10
95.073690
 20
22.930567
 30
0.0
 11
96.308414
 21
22.930567
 31
0.0
  0
LINE
  5
20f
100
AcDbEntity
  8
0
 62
7
100
AcDbLine
 10
96.308414
 20
22.930567
 30
0.0
 11
96.308414
 21
20.461122
 31
0.0
  0
LINE
  5
210
100
AcDbEntity
  8
0
 62
7
100
AcDbLine
 10
96.308414
 20
20.461122
 30
0.0
 11
96.308414
 21
17.991674
 31
0.0
  0
LINE
  5
211
100
AcDbEntity
  8
0
 62
7
100
AcDbLine
 10
96.308414
 20
17.991674
 30
0.0
 11
97.543136
 21
17.991674
 31
0.0
  0
LINE
  5
212
100
AcDbEntity
  8
0
 62
7
100
AcDbLine
 10
97.543136
 20
17.991674
 30
0.0
 11
98.777860
 21
17.991674
 31
0.0
  0
LINE
  5
213
100
AcDbEntity
  8
0
 62
7
100
AcDbLine
 10
98.777860
 20
17.991674
 30
0.0
 11
98.777860
 21
14.111117
 31
0.0
  0
LINE
  5
214
100
AcDbEntity
  8
0
 62
7
100
AcDbLine
 10
98.777860
 20
14.111117
 30
0.0
 11
98.777860
 21
10.230558
 31
0.0
  0
LINE
  5
215
100
AcDbEntity
  8
0
 62
7
100
AcDbLine
 10
98.777860
 20
10.230558
 30
0.0
 11
100.188971
 21
10.230558
 31
0.0
  0
LINE
  5
216
100
AcDbEntity
  8
0
 62
7
100
AcDbLine
 10
100.188971
 20
10.230558
 30
0.0
 11
101.600085
 21
10.230558
 31
0.0
  0
LINE
  5
217
100
AcDbEntity
  8
0
 62
7
100
AcDbLine
 10
101.600085
 20
10.230558
 30
0.0
 11
101.600085
 21
7.584723
 31
0.0
  0
LINE
  5
218
100
AcDbEntity
  8
0
 62
7
100
AcDbLine
 10
101.600085
 20
7.584723
 30
0.0
 11
101.600085
 21
4.938888
 31
0.0
  0
LINE
  5
219
100
AcDbEntity
  8
0
 62
7
100
AcDbLine
 10
101.600085
 20
4.938888
 30
0.0
 11
104.069530
 21
4.938888
 31
0.0
  0
LINE
  5
21a
100
AcDbEntity
  8
0
 62
7
100
AcDbLine
 10
104.069530
 20
4.938888
 30
0.0
 11
106.538978
 21
4.938888
 31
0.0
  0
LINE
  5
21b
100
AcDbEntity
  8
0
 62
7
100
AcDbLine
 10
106.538978
 20
4.938888
 30
0.0
 11
106.538978
 21
8.819447
 31
0.0
  0
LINE
  5
21c
100
AcDbEntity
  8
0
 62
7
100
AcDbLine
 10
106.538978
 20
8.819447
 30
0.0
 11
106.538978
 21
12.700004
 31
0.0
  0
LINE
  5
21d
100
AcDbEntity
  8
0
 62
7
100
AcDbLine
 10
106.538978
 20
12.700004
 30
0.0
 11
105.304254
 21
12.700004
 31
0.0
  0
LINE
  5
21e
100
AcDbEntity
  8
0
 62
7
100
AcDbLine
 10
105.304254
 20
12.700004
 30
0.0
 11
104.069530
 21
12.700004
 31
0.0
  0
LINE
  5
21f
100
AcDbEntity
  8
0
 62
7
100
AcDbLine
 10
104.069530
 20
12.700004
 30
0.0
 11
104.069530
 21
15.345839
 31
0.0
  0
LINE
  5
220
100
AcDbEntity
  8
0
 62
7
100
AcDbLine
 10
104.069530
 20
15.345839
 30
0.0
 11
104.069530
 21
17.991674
 31
0.0
  0
LINE
  5
221
100
AcDbEntity
  8
0
 62
7
100
AcDbLine
 10
104.069530
 20
17.991674
 30
0.0
 11
102.834806
 21
17.991674
 31
0.0
  0
LINE
  5
222
100
AcDbEntity
  8
0
 62
7
100
AcDbLine
 10
102.834806
 20
17.991674
 30
0.0
 11
101.600085
 21
17.991674
 31
0.0
  0
LINE
  5
223
100
AcDbEntity
  8
0
 62
7
100
AcDbLine
 10
101.600085
 20
17.991674
 30
0.0
 11
101.600085
 21
23.106955
 31
0.0
  0
LINE
  5
224
100
AcDbEntity
  8
0
 62
7
100
AcDbLine
 10
101.600085
 20
23.106955
 30
0.0
 11
101.600085
 21
28.222238
 31
0.0
  0
LINE
  5
225
100
AcDbEntity
  8
0
 62
7
100
AcDbLine
 10
101.600085
 20
28.222238
 30
0.0
 11
100.188971
 21
28.222238
 31
0.0
  0
LINE
  5
226
100
AcDbEntity
  8
0
 62
7
100
AcDbLine
 10
100.188971
 20
28.222238
 30
0.0
 11
98.777860
 21
28.222238
 31
0.0
  0
LINE
  5
227
100
AcDbEntity
  8
0
 62
7
100
AcDbLine
 10
98.777860
 20
28.222238
 30
0.0
 11
98.777860
 21
30.868073
 31
0.0
  0
LINE
  5
228
100
AcDbEntity
  8
0
 62
7
100
AcDbLine
 10
98.777860
 20
30.868073
 30
0.0
 11
98.777860
 21
33.513908
 31
0.0
  0
LINE
  5
229
100
AcDbEntity
  8
0
 62
7
100
AcDbLine
 10
98.777860
 20
33.513908
 30
0.0
 11
97.543136
 21
33.513908
 31
0.0
  0
SPLINE
  5
22a
100
AcDbEntity
  8
0
 62
7
100
AcDbSpline
 70
8
 71
3
 72
8
 73
4
 74
0
 40
0
 40
0
 40
0
 40
0
 40
1
 40
1
 40
1
 40
1
 10
97.543136
 20
33.513908
 30
0.0
 10
96.367210
 20
33.513908
 30
0.0
 10
96.308414
 20
33.572704
 30
0.0
 10
96.308414
 20
34.748629
 30
0.0
  0
SPLINE
  5
22b
100
AcDbEntity
  8
0
 62
7
100
AcDbSpline
 70
8
 71
3
 72
8
 73
4
 74
0
 40
0
 40
0
 40
0
 40
0
 40
1
 40
1
 40
1
 40
1
 10
96.308414
 20
34.748629
 30
0.0
 10
96.308414
 20
35.924558
 30
0.0
 10
96.249618
 20
35.983353
 30
0.0
 10
95.073690
 20
35.983353
 30
0.0
  0
LINE
  5
22c
100
AcDbEntity
  8
0
 62
7
100
AcDbLine
 10
95.073690
 20
35.983353
 30
0.0
 11
93.838966
 21
35.983353
 31
0.0
  0
LINE
  5
22d
100
AcDbEntity
  8
0
 62
7
100
AcDbLine
 10
93.838966
 20
35.983353
 30
0.0
 11
93.838966
 21
45.155583
 31
0.0
  0
LINE
  5
22e
100
AcDbEntity
  8
0
 62
7
100
AcDbLine
 10
93.838966
 20
45.155583
 30
0.0
 11
93.838966
 21
54.327810
 31
0.0
  0
LINE
  5
22f
100
AcDbEntity
  8
0
 62
7
100
AcDbLine
 10
93.838966
 20
54.327810
 30
0.0
 11
92.427855
 21
54.327810
 31
0.0
  0
SPLINE
  5
230
100
AcDbEntity
  8
0
 62
7
100
AcDbSpline
 70
8
 71
3
 72
8
 73
4
 74
0
 40
0
 40
0
 40
0
 40
0
 40
1
 40
1
 40
1
 40
1
 10
92.427855
 20
54.327810
 30
0.0
 10
91.050341
 20
54.327810
 30
0.0
 10
91.016744
 20
54.357208
 30
0.0
 10
91.016744
 20
55.562534
 30
0.0
  0
SPLINE
  5
231
100
AcDbEntity
  8
0
 62
7
100
AcDbSpline
 70
8
 71
3
 72
8
 73
4
 74
0
 40
0
 40
0
 40
0
 40
0
 40
1
 40
1
 40
1
 40
1
 10
91.016744
 20
55.562534
 30
0.0
 10
91.016744
 20
56.738459
 30
0.0
 10
90.957945
 20
56.797258
 30
0.0
 10
89.782020
 20
56.797258
 30
0.0
  0
SPLINE
  5
232
100
AcDbEntity
  8
0
 62
7
100
AcDbSpline
 70
8
 71
3
 72
8
 73
4
 74
0
 40
0
 40
0
 40
0
 40
0
 40
1
 40
1
 40
1
 40
1
 10
89.782020
 20
56.797258
 30
0.0
 10
88.576694
 20
56.797258
 30
0.0
 10
88.547296
 20
56.830855
 30
0.0
 10
88.547296
 20
58.208369
 30
0.0
  0
LINE
  5
233
100
AcDbEntity
  8
0
 62
7
100
AcDbLine
 10
88.547296
 20
58.208369
 30
0.0
 11
88.547296
 21
59.619480
 31
0.0
  0
LINE
  5
234
100
AcDbEntity
  8
0
 62
7
100
AcDbLine
 10
88.547296
 20
59.619480
 30
0.0
 11
87.136185
 21
59.619480
 31
0.0
  0
SPLINE
  5
235
100
AcDbEntity
  8
0
 62
7
100
AcDbSpline
 70
8
 71
3
 72
8
 73
4
 74
0
 40
0
 40
0
 40
0
 40
0
 40
1
 40
1
 40
1
 40
1
 10
87.136185
 20
59.619480
 30
0.0
 10
85.758670
 20
59.619480
 30
0.0
 10
85.725073
 20
59.648878
 30
0.0
 10
85.725073
 20
60.854204
 30
0.0
  0
LINE
  5
236
100
AcDbEntity
  8
0
 62
7
100
AcDbLine
 10
85.725073
 20
60.854204
 30
0.0
 11
85.725073
 21
62.088925
 31
0.0
  0
LINE
  5
237
100
AcDbEntity
  8
0
 62
7
100
AcDbLine
 10
85.725073
 20
62.088925
 30
0.0
 11
64.911169
 21
62.088925
 31
0.0
  0
LINE
  5
238
100
AcDbEntity
  8
0
 62
7
100
AcDbLine
 10
64.911169
 20
62.088925
 30
0.0
 11
44.097265
 21
62.088925
 31
0.0
  0
LINE
  5
239
100
AcDbEntity
  8
0
 62
7
100
AcDbLine
 10
44.097265
 20
62.088925
 30
0.0
 11
44.097265
 21
63.323649
 31
0.0
  0
SPLINE
  5
23a
100
AcDbEntity
  8
0
 62
7
100
AcDbSpline
 70
8
 71
3
 72
8
 73
4
 74
0
 40
0
 40
0
 40
0
 40
0
 40
1
 40
1
 40
1
 40
1
 10
44.097265
 20
63.323649
 30
0.0
 10
44.097265
 20
64.499578
 30
0.0
 10
44.038469
 20
64.558373
 30
0.0
 10
42.862541
 20
64.558373
 30
0.0
  0
SPLINE
  5
23b
100
AcDbEntity
  8
0
 62
7
100
AcDbSpline
 70
8
 71
3
 72
8
 73
4
 74
0
 40
0
 40
0
 40
0
 40
0
 40
1
 40
1
 40
1
 40
1
 10
42.862541
 20
64.558373
 30
0.0
 10
41.657217
 20
64.558373
 30
0.0
 10
41.627817
 20
64.591970
 30
0.0
 10
41.627817
 20
65.969485
 30
0.0
  0
SPLINE
  5
23c
100
AcDbEntity
  8
0
 62
7
100
AcDbSpline
 70
8
 71
3
 72
8
 73
4
 74
0
 40
0
 40
0
 40
0
 40
0
 40
1
 40
1
 40
1
 40
1
 10
41.627817
 20
65.969485
 30
0.0
 10
41.627817
 20
67.346999
 30
0.0
 10
41.598419
 20
67.380596
 30
0.0
 10
40.393095
 20
67.380596
 30
0.0
  0
LINE
  5
23d
100
AcDbEntity
  8
0
 62
7
100
AcDbLine
 10
40.393095
 20
67.380596
 30
0.0
 11
39.158371
 21
67.380596
 31
0.0
  0
LINE
  5
23e
100
AcDbEntity
  8
0
 62
7
100
AcDbLine
 10
39.158371
 20
67.380596
 30
0.0
 11
39.158371
 21
71.261155
 31
0.0
  0
LINE
  5
23f
100
AcDbEntity
  8
0
 62
7
100
AcDbLine
 10
39.158371
 20
71.261155
 30
0.0
 11
39.158371
 21
75.141714
 31
0.0
  0
LINE
  5
240
100
AcDbEntity
  8
0
 62
7
100
AcDbLine
 10
39.158371
 20
75.141714
 30
0.0
 11
40.393095
 21
75.141714
 31
0.0
  0
SPLINE
  5
241
100
AcDbEntity
  8
0
 62
7
100
AcDbSpline
 70
8
 71
3
 72
8
 73
4
 74
0
 40
0
 40
0
 40
0
 40
0
 40
1
 40
1
 40
1
 40
1
 10
40.393095
 20
75.141714
 30
0.0
 10
41.569021
 20
75.141714
 30
0.0
 10
41.627817
 20
75.200510
 30
0.0
 10
41.627817
 20
76.376435
 30
0.0
  0
SPLINE
  5
242
100
AcDbEntity
  8
0
 62
7
100
AcDbSpline
 70
8
 71
3
 72
8
 73
4
 74
0
 40
0
 40
0
 40
0
 40
0
 40
1
 40
1
 40
1
 40
1
 10
41.627817
 20
76.376435
 30
0.0
 10
41.627817
 20
77.552364
 30
0.0
 10
41.686615
 20
77.611159
 30
0.0
 10
42.862541
 20
77.611159
 30
0.0
  0
SPLINE
  5
243
100
AcDbEntity
  8
0
 62
7
100
AcDbSpline
 70
8
 71
3
 72
8
 73
4
 74
0
 40
0
 40
0
 40
0
 40
0
 40
1
 40
1
 40
1
 40
1
 10
42.862541
 20
77.611159
 30
0.0
 10
44.067867
 20
77.611159
 30
0.0
 10
44.097265
 20
77.644756
 30
0.0
 10
44.097265
 20
79.022271
 30
0.0
  0
SPLINE
  5
244
100
AcDbEntity
  8
0
 62
7
100
AcDbSpline
 70
8
 71
3
 72
8
 73
4
 74
0
 40
0
 40
0
 40
0
 40
0
 40
1
 40
1
 40
1
 40
1
 10
44.097265
 20
79.022271
 30
0.0
 10
44.097265
 20
80.399785
 30
0.0
 10
44.067867
 20
80.433385
 30
0.0
 10
42.862541
 20
80.433385
 30
0.0
  0
SPLINE
  5
245
100
AcDbEntity
  8
0
 62
7
100
AcDbSpline
 70
8
 71
3
 72
8
 73
4
 74
0
 40
0
 40
0
 40
0
 40
0
 40
1
 40
1
 40
1
 40
1
 10
42.862541
 20
80.433385
 30
0.0
 10
41.686615
 20
80.433385
 30
0.0
 10
41.627817
 20
80.492180
 30
0.0
 10
41.627817
 20
81.668106
 30
0.0
  0
SPLINE
  5
246
100
AcDbEntity
  8
0
 62
7
100
AcDbSpline
 70
8
 71
3
 72
8
 73
4
 74
0
 40
0
 40
0
 40
0
 40
0
 40
1
 40
1
 40
1
 40
1
 10
41.627817
 20
81.668106
 30
0.0
 10
41.627817
 20
82.844034
 30
0.0
 10
41.569021
 20
82.902830
 30
0.0
 10
40.393095
 20
82.902830
 30
0.0
  0
LINE
  5
247
100
AcDbEntity
  8
0
 62
7
100
AcDbLine
 10
40.393095
 20
82.902830
 30
0.0
 11
39.158371
 21
82.902830
 31
0.0
  0
LINE
  5
248
100
AcDbEntity
  8
0
 62
7
100
AcDbLine
 10
39.158371
 20
82.902830
 30
0.0
 11
39.158371
 21
85.548665
 31
0.0
  0
LINE
  5
249
100
AcDbEntity
  8
0
 62
7
100
AcDbLine
 10
39.158371
 20
85.548665
 30
0.0
 11
39.158371
 21
88.194500
 31
0.0
  0
LINE
  5
24a
100
AcDbEntity
  8
0
 62
7
100
AcDbLine
 10
39.158371
 20
88.194500
 30
0.0
 11
40.393095
 21
88.194500
 31
0.0
  0
SPLINE
  5
24b
100
AcDbEntity
  8
0
 62
7
100
AcDbSpline
 70
8
 71
3
 72
8
 73
4
 74
0
 40
0
 40
0
 40
0
 40
0
 40
1
 40
1
 40
1
 40
1
 10
40.393095
 20
88.194500
 30
0.0
 10
41.569021
 20
88.194500
 30
0.0
 10
41.627817
 20
88.253296
 30
0.0
 10
41.627817
 20
89.429224
 30
0.0
  0
LINE
  5
24c
100
AcDbEntity
  8
0
 62
7
100
AcDbLine
 10
41.627817
 20
89.429224
 30
0.0
 11
41.627817
 21
90.663946
 31
0.0
  0
LINE
  5
24d
100
AcDbEntity
  8
0
 62
7
100
AcDbLine
 10
41.627817
 20
90.663946
 30
0.0
 11
45.508376
 21
90.663946
 31
0.0
  0
LINE
  5
24e
100
AcDbEntity
  8
0
 62
7
100
AcDbLine
 10
45.508376
 20
90.663946
 30
0.0
 11
49.388935
 21
90.663946
 31
0.0
  0
LINE
  5
24f
100
AcDbEntity
  8
0
 62
7
100
AcDbLine
 10
49.388935
 20
90.663946
 30
0.0
 11
49.388935
 21
92.075058
 31
0.0
  0
LINE
  5
250
100
AcDbEntity
  8
0
 62
7
100
AcDbLine
 10
49.388935
 20
92.075058
 30
0.0
 11
49.388935
 21
93.486170
 31
0.0
  0
LINE
  5
251
100
AcDbEntity
  8
0
 62
7
100
AcDbLine
 10
49.388935
 20
93.486170
 30
0.0
 11
50.800046
 21
93.486170
 31
0.0
  0
LINE
  5
252
100
AcDbEntity
  8
0
 62
7
100
AcDbLine
 10
50.800046
 20
93.486170
 30
0.0
 11
52.211160
 21
93.486170
 31
0.0
  0
LINE
  5
253
100
AcDbEntity
  8
0
 62
7
100
AcDbLine
 10
52.211160
 20
93.486170
 30
0.0
 11
52.211160
 21
95.955616
 31
0.0
  0
LINE
  5
254
100
AcDbEntity
  8
0
 62
7
100
AcDbLine
 10
52.211160
 20
95.955616
 30
0.0
 11
52.211160
 21
98.425063
 31
0.0
  0
LINE
  5
255
100
AcDbEntity
  8
0
 62
7
100
AcDbLine
 10
52.211160
 20
98.425063
 30
0.0
 11
41.804207
 21
98.425063
 31
0.0
  0
LINE
  5
256
100
AcDbEntity
  8
0
 62
7
100
AcDbLine
 10
41.804207
 20
98.425063
 30
0.0
 11
31.397256
 21
98.425063
 31
0.0
  0
LINE
  5
257
100
AcDbEntity
  8
0
 62
7
100
AcDbLine
 10
31.397256
 20
98.425063
 30
0.0
 11
31.397256
 21
101.070898
 31
0.0
  0
LINE
  5
258
100
AcDbEntity
  8
0
 62
7
100
AcDbLine
 10
31.397256
 20
101.070898
 30
0.0
 11
31.397256
 21
103.716733
 31
0.0
  0
LINE
  5
259
100
AcDbEntity
  8
0
 62
7
100
AcDbLine
 10
31.397256
 20
103.716733
 30
0.0
 11
27.340307
 21
103.716733
 31
0.0
  0
LINE
  5
25a
100
AcDbEntity
  8
0
 62
7
100
AcDbLine
 10
27.340307
 20
103.716733
 30
0.0
 11
23.283360
 21
103.716733
 31
0.0
  0
LINE
  5
25b
100
AcDbEntity
  8
0
 62
7
100
AcDbLine
 10
23.283360
 20
103.716733
 30
0.0
 11
23.283360
 21
102.482010
 31
0.0
  0
LINE
  5
25c
100
AcDbEntity
  8
0
 62
7
100
AcDbLine
 10
23.283360
 20
102.482010
 30
0.0
 11
23.283360
 21
101.247287
 31
0.0
  0
LINE
  5
25d
100
AcDbEntity
  8
0
 62
7
100
AcDbLine
 10
23.283360
 20
101.247287
 30
0.0
 11
20.813912
 21
101.247287
 31
0.0
  0
LINE
  5
25e
100
AcDbEntity
  8
0
 62
7
100
AcDbLine
 10
20.813912
 20
101.247287
 30
0.0
 11
18.344467
 21
101.247287
 31
0.0
  0
LINE
  5
25f
100
AcDbEntity
  8
0
 62
7
100
AcDbLine
 10
18.344467
 20
101.247287
 30
0.0
 11
18.344467
 21
102.482010
 31
0.0
  0
LINE
  5
260
100
AcDbEntity
  8
0
 62
7
100
AcDbLine
 10
18.344467
 20
102.482010
 30
0.0
 11
18.344467
 21
103.716733
 31
0.0
  0
LINE
  5
261
100
AcDbEntity
  8
0
 62
7
100
AcDbLine
 10
18.344467
 20
103.716733
 30
0.0
 11
15.698632
 21
103.716733
 31
0.0
  0
LINE
  5
262
100
AcDbEntity
  8
0
 62
7
100
AcDbLine
 10
15.698632
 20
103.716733
 30
0.0
 11
13.052797
 21
103.716733
 31
0.0
  0
LINE
  5
263
100
AcDbEntity
  8
0
 62
7
100
AcDbLine
 10
13.052797
 20
103.716733
 30
0.0
 11
13.052797
 21
104.951456
 31
0.0
  0
SPLINE
  5
264
100
AcDbEntity
  8
0
 62
7
100
AcDbSpline
 70
8
 71
3
 72
8
 73
4
 74
0
 40
0
 40
0
 40
0
 40
0
 40
1
 40
1
 40
1
 40
1
 10
13.052797
 20
104.951456
 30
0.0
 10
13.052797
 20
106.127382
 30
0.0
 10
12.994001
 20
106.186179
 30
0.0
 10
11.818073
 20
106.186179
 30
0.0
  0
SPLINE
  5
265
100
AcDbEntity
  8
0
 62
7
100
AcDbSpline
 70
8
 71
3
 72
8
 73
4
 74
0
 40
0
 40
0
 40
0
 40
0
 40
1
 40
1
 40
1
 40
1
 10
11.818073
 20
106.186179
 30
0.0
 10
10.612749
 20
106.186179
 30
0.0
 10
10.583351
 20
106.219777
 30
0.0
 10
10.583351
 20
107.597291
 30
0.0
  0
LINE
  5
266
100
AcDbEntity
  8
0
 62
7
100
AcDbLine
 10
10.583351
 20
107.597291
 30
0.0
 11
10.583351
 21
109.008403
 31
0.0
  0
LINE
  5
267
100
AcDbEntity
  8
0
 62
7
100
AcDbLine
 10
10.583351
 20
109.008403
 30
0.0
 11
9.172237
 21
109.008403
 31
0.0
  0
SPLINE
  5
268
100
AcDbEntity
  8
0
 62
7
100
AcDbSpline
 70
8
 71
3
 72
8
 73
4
 74
0
 40
0
 40
0
 40
0
 40
0
 40
1
 40
1
 40
1
 40
1
 10
9.172237
 20
109.008403
 30
0.0
 10
7.794724
 20
109.008403
 30
0.0
 10
7.761126
 20
109.037801
 30
0.0
 10
7.761126
 20
110.243126
 30
0.0
  0
SPLINE
  5
269
100
AcDbEntity
  8
0
 62
7
100
AcDbSpline
 70
8
 71
3
 72
8
 73
4
 74
0
 40
0
 40
0
 40
0
 40
0
 40
1
 40
1
 40
1
 40
1
 10
7.761126
 20
110.243126
 30
0.0
 10
7.761126
 20
111.419053
 30
0.0
 10
7.702330
 20
111.477849
 30
0.0
 10
6.526403
 20
111.477849
 30
0.0
  0
LINE
  5
26a
100
AcDbEntity
  8
0
 62
7
100
AcDbLine
 10
6.526403
 20
111.477849
 30
0.0
 11
5.291680
 21
111.477849
 31
0.0
  0
LINE
  5
26b
100
AcDbEntity
  8
0
 62
7
100
AcDbLine
 10
5.291680
 20
111.477849
 30
0.0
 11
5.291680
 21
108.832014
 31
0.0
  0
LINE
  5
26c
100
AcDbEntity
  8
0
 62
7
100
AcDbLine
 10
5.291680
 20
108.832014
 30
0.0
 11
5.291680
 21
106.186179
 31
0.0
  0
LINE
  5
26d
100
AcDbEntity
  8
0
 62
7
100
AcDbLine
 10
5.291680
 20
106.186179
 30
0.0
 11
6.526403
 21
106.186179
 31
0.0
  0
LINE
  5
26e
100
AcDbEntity
  8
0
 62
7
100
AcDbLine
 10
6.526403
 20
106.186179
 30
0.0
 11
7.761126
 21
106.186179
 31
0.0
  0
LINE
  5
26f
100
AcDbEntity
  8
0
 62
7
100
AcDbLine
 10
7.761126
 20
106.186179
 30
0.0
 11
7.761126
 21
103.716733
 31
0.0
  0
LINE
  5
270
100
AcDbEntity
  8
0
 62
7
100
AcDbLine
 10
7.761126
 20
103.716733
 30
0.0
 11
7.761126
 21
101.247287
 31
0.0
  0
LINE
  5
271
100
AcDbEntity
  8
0
 62
7
100
AcDbLine
 10
7.761126
 20
101.247287
 30
0.0
 11
9.172237
 21
101.247287
 31
0.0
  0
LINE
  5
272
100
AcDbEntity
  8
0
 62
7
100
AcDbLine
 10
9.172237
 20
101.247287
 30
0.0
 11
10.583351
 21
101.247287
 31
0.0
  0
LINE
  5
273
100
AcDbEntity
  8
0
 62
7
100
AcDbLine
 10
10.583351
 20
101.247287
 30
0.0
 11
10.583351
 21
99.836175
 31
0.0
  0
SPLINE
  5
274
100
AcDbEntity
  8
0
 62
7
100
AcDbSpline
 70
8
 71
3
 72
8
 73
4
 74
0
 40
0
 40
0
 40
0
 40
0
 40
1
 40
1
 40
1
 40
1
 10
10.583351
 20
99.836175
 30
0.0
 10
10.583351
 20
98.458660
 30
0.0
 10
10.612749
 20
98.425063
 30
0.0
 10
11.818073
 20
98.425063
 30
0.0
  0
LINE
  5
275
100
AcDbEntity
  8
0
 62
7
100
AcDbLine
 10
11.818073
 20
98.425063
 30
0.0
 11
13.052797
 21
98.425063
 31
0.0
  0
LINE
  5
276
100
AcDbEntity
  8
0
 62
7
100
AcDbLine
 10
13.052797
 20
98.425063
 30
0.0
 11
13.052797
 21
94.544504
 31
0.0
  0
LINE
  5
277
100
AcDbEntity
  8
0
 62
7
100
AcDbLine
 10
13.052797
 20
94.544504
 30
0.0
 11
13.052797
 21
90.663946
 31
0.0
  0
LINE
  5
278
100
AcDbEntity
  8
0
 62
7
100
AcDbLine
 10
13.052797
 20
90.663946
 30
0.0
 11
11.818073
 21
90.663946
 31
0.0
  0
SPLINE
  5
279
100
AcDbEntity
  8
0
 62
7
100
AcDbSpline
 70
8
 71
3
 72
8
 73
4
 74
0
 40
0
 40
0
 40
0
 40
0
 40
1
 40
1
 40
1
 40
1
 10
11.818073
 20
90.663946
 30
0.0
 10
10.642147
 20
90.663946
 30
0.0
 10
10.583351
 20
90.605150
 30
0.0
 10
10.583351
 20
89.429224
 30
0.0
  0
SPLINE
  5
27a
100
AcDbEntity
  8
0
 62
7
100
AcDbSpline
 70
8
 71
3
 72
8
 73
4
 74
0
 40
0
 40
0
 40
0
 40
0
 40
1
 40
1
 40
1
 40
1
 10
10.583351
 20
89.429224
 30
0.0
 10
10.583351
 20
88.223898
 30
0.0
 10
10.549752
 20
88.194500
 30
0.0
 10
9.172237
 20
88.194500
 30
0.0
  0
LINE
  5
27b
100
AcDbEntity
  8
0
 62
7
100
AcDbLine
 10
9.172237
 20
88.194500
 30
0.0
 11
7.761126
 21
88.194500
 31
0.0
  0
LINE
  5
27c
100
AcDbEntity
  8
0
 62
7
100
AcDbLine
 10
7.761126
 20
88.194500
 30
0.0
 11
7.761126
 21
85.548665
 31
0.0
  0
LINE
  5
27d
100
AcDbEntity
  8
0
 62
7
100
AcDbLine
 10
7.761126
 20
85.548665
 30
0.0
 11
7.761126
 21
82.902830
 31
0.0
  0
LINE
  5
27e
100
AcDbEntity
  8
0
 62
7
100
AcDbLine
 10
7.761126
 20
82.902830
 30
0.0
 11
6.526403
 21
82.902830
 31
0.0
  0
LINE
  5
27f
100
AcDbEntity
  8
0
 62
7
100
AcDbLine
 10
6.526403
 20
82.902830
 30
0.0
 11
5.291680
 21
82.902830
 31
0.0
  0
LINE
  5
280
100
AcDbEntity
  8
0
 62
7
100
AcDbLine
 10
5.291680
 20
82.902830
 30
0.0
 11
5.291680
 21
79.022271
 31
0.0
  0
LINE
  5
281
100
AcDbEntity
  8
0
 62
7
100
AcDbLine
 10
5.291680
 20
79.022271
 30
0.0
 11
5.291680
 21
75.141714
 31
0.0
  0
LINE
  5
282
100
AcDbEntity
  8
0
 62
7
100
AcDbLine
 10
5.291680
 20
75.141714
 30
0.0
 11
6.526403
 21
75.141714
 31
0.0
  0
SPLINE
  5
283
100
AcDbEntity
  8
0
 62
7
100
AcDbSpline
 70
8
 71
3
 72
8
 73
4
 74
0
 40
0
 40
0
 40
0
 40
0
 40
1
 40
1
 40
1
 40
1
 10
6.526403
 20
75.141714
 30
0.0
 10
7.702330
 20
75.141714
 30
0.0
 10
7.761126
 20
75.082916
 30
0.0
 10
7.761126
 20
73.906990
 30
0.0
  0
LINE
  5
284
100
AcDbEntity
  8
0
 62
7
100
AcDbLine
 10
7.761126
 20
73.906990
 30
0.0
 11
7.761126
 21
72.672266
 31
0.0
  0
LINE
  5
285
100
AcDbEntity
  8
0
 62
7
100
AcDbLine
 10
7.761126
 20
72.672266
 30
0.0
 11
15.522242
 21
72.672266
 31
0.0
  0
LINE
  5
286
100
AcDbEntity
  8
0
 62
7
100
AcDbLine
 10
15.522242
 20
72.672266
 30
0.0
 11
23.283360
 21
72.672266
 31
0.0
  0
LINE
  5
287
100
AcDbEntity
  8
0
 62
7
100
AcDbLine
 10
23.283360
 20
72.672266
 30
0.0
 11
23.283360
 21
64.734761
 31
0.0
  0
LINE
  5
288
100
AcDbEntity
  8
0
 62
7
100
AcDbLine
 10
23.283360
 20
64.734761
 30
0.0
 11
23.283360
 21
56.797258
 31
0.0
  0
LINE
  5
289
100
AcDbEntity
  8
0
 62
7
100
AcDbLine
 10
23.283360
 20
56.797258
 30
0.0
 11
22.048636
 21
56.797258
 31
0.0
  0
LINE
  5
28a
100
AcDbEntity
  8
0
 62
7
100
AcDbLine
 10
22.048636
 20
56.797258
 30
0.0
 11
20.813912
 21
56.797258
 31
0.0
  0
LINE
  5
28b
100
AcDbEntity
  8
0
 62
7
100
AcDbLine
 10
20.813912
 20
56.797258
 30
0.0
 11
20.813912
 21
47.801418
 31
0.0
  0
LINE
  5
28c
100
AcDbEntity
  8
0
 62
7
100
AcDbLine
 10
20.813912
 20
47.801418
 30
0.0
 11
20.813912
 21
38.805578
 31
0.0
  0
LINE
  5
28d
100
AcDbEntity
  8
0
 62
7
100
AcDbLine
 10
20.813912
 20
38.805578
 30
0.0
 11
23.459750
 21
38.805578
 31
0.0
  0
LINE
  5
28e
100
AcDbEntity
  8
0
 62
7
100
AcDbLine
 10
23.459750
 20
38.805578
 30
0.0
 11
26.105585
 21
38.805578
 31
0.0
  0
LINE
  5
28f
100
AcDbEntity
  8
0
 62
7
100
AcDbLine
 10
26.105585
 20
38.805578
 30
0.0
 11
26.105585
 21
36.159743
 31
0.0
  0
LINE
  5
290
100
AcDbEntity
  8
0
 62
7
100
AcDbLine
 10
26.105585
 20
36.159743
 30
0.0
 11
26.105585
 21
33.513908
 31
0.0
  0
LINE
  5
291
100
AcDbEntity
  8
0
 62
7
100
AcDbLine
 10
26.105585
 20
33.513908
 30
0.0
 11
28.751421
 21
33.513908
 31
0.0
  0
LINE
  5
292
100
AcDbEntity
  8
0
 62
7
100
AcDbLine
 10
28.751421
 20
33.513908
 30
0.0
 11
31.397256
 21
33.513908
 31
0.0
  0
LINE
  5
293
100
AcDbEntity
  8
0
 62
7
100
AcDbLine
 10
31.397256
 20
33.513908
 30
0.0
 11
31.397256
 21
32.279184
 31
0.0
  0
LINE
  5
294
100
AcDbEntity
  8
0
 62
7
100
AcDbLine
 10
31.397256
 20
32.279184
 30
0.0
 11
31.397256
 21
31.044460
 31
0.0
  0
LINE
  5
295
100
AcDbEntity
  8
0
 62
7
100
AcDbLine
 10
31.397256
 20
31.044460
 30
0.0
 11
33.866701
 21
31.044460
 31
0.0
  0
LINE
  5
296
100
AcDbEntity
  8
0
 62
7
100
AcDbLine
 10
33.866701
 20
31.044460
 30
0.0
 11
36.336146
 21
31.044460
 31
0.0
  0
LINE
  5
297
100
AcDbEntity
  8
0
 62
7
100
AcDbLine
 10
36.336146
 20
31.044460
 30
0.0
 11
36.336146
 21
29.633349
 31
0.0
  0
LINE
  5
298
100
AcDbEntity
  8
0
 62
7
100
AcDbLine
 10
36.336146
 20
29.633349
 30
0.0
 11
36.336146
 21
28.222238
 31
0.0
  0
LINE
  5
299
100
AcDbEntity
  8
0
 62
7
100
AcDbLine
 10
36.336146
 20
28.222238
 30
0.0
 11
38.981982
 21
28.222238
 31
0.0
  0
LINE
  5
29a
100
AcDbEntity
  8
0
 62
7
100
AcDbLine
 10
38.981982
 20
28.222238
 30
0.0
 11
41.627817
 21
28.222238
 31
0.0
  0
LINE
  5
29b
100
AcDbEntity
  8
0
 62
7
100
AcDbLine
 10
41.627817
 20
28.222238
 30
0.0
 11
41.627817
 21
20.461122
 31
0.0
  0
LINE
  5
29c
100
AcDbEntity
  8
0
 62
7
100
AcDbLine
 10
41.627817
 20
20.461122
 30
0.0
 11
41.627817
 21
12.700004
 31
0.0
  0
LINE
  5
29d
100
AcDbEntity
  8
0
 62
7
100
AcDbLine
 10
41.627817
 20
12.700004
 30
0.0
 11
40.393095
 21
12.700004
 31
0.0
  0
SPLINE
  5
29e
100
AcDbEntity
  8
0
 62
7
100
AcDbSpline
 70
8
 71
3
 72
8
 73
4
 74
0
 40
0
 40
0
 40
0
 40
0
 40
1
 40
1
 40
1
 40
1
 10
40.393095
 20
12.700004
 30
0.0
 10
39.217167
 20
12.700004
 30
0.0
 10
39.158371
 20
12.641208
 30
0.0
 10
39.158371
 20
11.465282
 30
0.0
  0
SPLINE
  5
29f
100
AcDbEntity
  8
0
 62
7
100
AcDbSpline
 70
8
 71
3
 72
8
 73
4
 74
0
 40
0
 40
0
 40
0
 40
0
 40
1
 40
1
 40
1
 40
1
 10
39.158371
 20
11.465282
 30
0.0
 10
39.158371
 20
10.259956
 30
0.0
 10
39.124775
 20
10.230558
 30
0.0
 10
37.747260
 20
10.230558
 30
0.0
  0
LINE
  5
2a0
100
AcDbEntity
  8
0
 62
7
100
AcDbLine
 10
37.747260
 20
10.230558
 30
0.0
 11
36.336146
 21
10.230558
 31
0.0
  0
LINE
  5
2a1
100
AcDbEntity
  8
0
 62
7
100
AcDbLine
 10
36.336146
 20
10.230558
 30
0.0
 11
36.336146
 21
8.819447
 31
0.0
  0
LINE
  5
2a2
100
AcDbEntity
  8
0
 62
7
100
AcDbLine
 10
36.336146
 20
8.819447
 30
0.0
 11
36.336146
 21
7.408333
 31
0.0
  0
LINE
  5
2a3
100
AcDbEntity
  8
0
 62
7
100
AcDbLine
 10
36.336146
 20
7.408333
 30
0.0
 11
37.747260
 21
7.408333
 31
0.0
  0
SPLINE
  5
2a4
100
AcDbEntity
  8
0
 62
7
100
AcDbSpline
 70
8
 71
3
 72
8
 73
4
 74
0
 40
0
 40
0
 40
0
 40
0
 40
1
 40
1
 40
1
 40
1
 10
37.747260
 20
7.408333
 30
0.0
 10
39.124775
 20
7.408333
 30
0.0
 10
39.158371
 20
7.378935
 30
0.0
 10
39.158371
 20
6.173612
 30
0.0
  0
LINE
  5
2a5
100
AcDbEntity
  8
0
 62
7
100
AcDbLine
 10
39.158371
 20
6.173612
 30
0.0
 11
39.158371
 21
4.938888
 31
0.0
  0
LINE
  5
2a6
100
AcDbEntity
  8
0
 62
7
100
AcDbLine
 10
39.158371
 20
4.938888
 30
0.0
 11
41.627817
 21
4.938888
 31
0.0
  0
LINE
  5
2a7
100
AcDbEntity
  8
0
 62
7
100
AcDbLine
 10
41.627817
 20
4.938888
 30
0.0
 11
44.097265
 21
4.938888
 31
0.0
  0
LINE
  5
2a8
100
AcDbEntity
  8
0
 62
7
100
AcDbLine
 10
44.097265
 20
4.938888
 30
0.0
 11
44.097265
 21
6.173612
 31
0.0
  0
LINE
  5
2a9
100
AcDbEntity
  8
0
 62
7
100
AcDbLine
 10
26.105585
 20
81.138939
 30
0.0
 11
26.105585
 21
82.902830
 31
0.0
  0
LINE
  5
2aa
100
AcDbEntity
  8
0
 62
7
100
AcDbLine
 10
26.105585
 20
82.902830
 30
0.0
 11
27.869474
 21
82.902830
 31
0.0
  0
LINE
  5
2ab
100
AcDbEntity
  8
0
 62
7
100
AcDbLine
 10
27.869474
 20
82.902830
 30
0.0
 11
29.633365
 21
82.902830
 31
0.0
  0
LINE
  5
2ac
100
AcDbEntity
  8
0
 62
7
100
AcDbLine
 10
29.633365
 20
82.902830
 30
0.0
 11
29.633365
 21
81.138939
 31
0.0
  0
LINE
  5
2ad
100
AcDbEntity
  8
0
 62
7
100
AcDbLine
 10
29.633365
 20
81.138939
 30
0.0
 11
29.633365
 21
79.375050
 31
0.0
  0
LINE
  5
2ae
100
AcDbEntity
  8
0
 62
7
100
AcDbLine
 10
29.633365
 20
79.375050
 30
0.0
 11
27.869474
 21
79.375050
 31
0.0
  0
LINE
  5
2af
100
AcDbEntity
  8
0
 62
7
100
AcDbLine
 10
27.869474
 20
79.375050
 30
0.0
 11
26.105585
 21
79.375050
 31
0.0
  0
LINE
  5
2b0
100
AcDbEntity
  8
0
 62
7
100
AcDbLine
 10
26.105585
 20
79.375050
 30
0.0
 11
26.105585
 21
81.138939
 31
0.0
  0
LINE
  5
2b1
100
AcDbEntity
  8
0
 62
7
100
AcDbLine
 10
15.522242
 20
83.608387
 30
0.0
 11
15.522242
 21
85.372275
 31
0.0
  0
LINE
  5
2b2
100
AcDbEntity
  8
0
 62
7
100
AcDbLine
 10
15.522242
 20
85.372275
 30
0.0
 11
17.286133
 21
85.372275
 31
0.0
  0
LINE
  5
2b3
100
AcDbEntity
  8
0
 62
7
100
AcDbLine
 10
17.286133
 20
85.372275
 30
0.0
 11
19.050024
 21
85.372275
 31
0.0
  0
LINE
  5
2b4
100
AcDbEntity
  8
0
 62
7
100
AcDbLine
 10
19.050024
 20
85.372275
 30
0.0
 11
19.050024
 21
83.608387
 31
0.0
  0
LINE
  5
2b5
100
AcDbEntity
  8
0
 62
7
100
AcDbLine
 10
19.050024
 20
83.608387
 30
0.0
 11
19.050024
 21
81.844496
 31
0.0
  0
LINE
  5
2b6
100
AcDbEntity
  8
0
 62
7
100
AcDbLine
 10
19.050024
 20
81.844496
 30
0.0
 11
17.286133
 21
81.844496
 31
0.0
  0
LINE
  5
2b7
100
AcDbEntity
  8
0
 62
7
100
AcDbLine
 10
17.286133
 20
81.844496
 30
0.0
 11
15.522242
 21
81.844496
 31
0.0
  0
LINE
  5
2b8
100
AcDbEntity
  8
0
 62
7
100
AcDbLine
 10
15.522242
 20
81.844496
 30
0.0
 11
15.522242
 21
83.608387
 31
0.0
  0
LINE
  5
2b9
100
AcDbEntity
  8
0
 62
7
100
AcDbLine
 10
132.644553
 20
17.991674
 30
0.0
 11
132.644553
 21
25.752790
 31
0.0
  0
LINE
  5
2ba
100
AcDbEntity
  8
0
 62
7
100
AcDbLine
 10
132.644553
 20
25.752790
 30
0.0
 11
129.998715
 21
25.752790
 31
0.0
  0
LINE
  5
2bb
100
AcDbEntity
  8
0
 62
7
100
AcDbLine
 10
129.998715
 20
25.752790
 30
0.0
 11
127.352880
 21
25.752790
 31
0.0
  0
LINE
  5
2bc
100
AcDbEntity
  8
0
 62
7
100
AcDbLine
 10
127.352880
 20
25.752790
 30
0.0
 11
127.352880
 21
26.987514
 31
0.0
  0
LINE
  5
2bd
100
AcDbEntity
  8
0
 62
7
100
AcDbLine
 10
127.352880
 20
26.987514
 30
0.0
 11
127.352880
 21
28.222238
 31
0.0
  0
LINE
  5
2be
100
AcDbEntity
  8
0
 62
7
100
AcDbLine
 10
127.352880
 20
28.222238
 30
0.0
 11
122.237599
 21
28.222238
 31
0.0
  0
LINE
  5
2bf
100
AcDbEntity
  8
0
 62
7
100
AcDbLine
 10
122.237599
 20
28.222238
 30
0.0
 11
117.122319
 21
28.222238
 31
0.0
  0
LINE
  5
2c0
100
AcDbEntity
  8
0
 62
7
100
AcDbLine
 10
117.122319
 20
28.222238
 30
0.0
 11
117.122319
 21
30.868073
 31
0.0
  0
LINE
  5
2c1
100
AcDbEntity
  8
0
 62
7
100
AcDbLine
 10
117.122319
 20
30.868073
 30
0.0
 11
117.122319
 21
33.513908
 31
0.0
  0
LINE
  5
2c2
100
AcDbEntity
  8
0
 62
7
100
AcDbLine
 10
117.122319
 20
33.513908
 30
0.0
 11
115.887595
 21
33.513908
 31
0.0
  0
LINE
  5
2c3
100
AcDbEntity
  8
0
 62
7
100
AcDbLine
 10
115.887595
 20
33.513908
 30
0.0
 11
114.652871
 21
33.513908
 31
0.0
  0
LINE
  5
2c4
100
AcDbEntity
  8
0
 62
7
100
AcDbLine
 10
114.652871
 20
33.513908
 30
0.0
 11
114.652871
 21
36.159743
 31
0.0
  0
LINE
  5
2c5
100
AcDbEntity
  8
0
 62
7
100
AcDbLine
 10
114.652871
 20
36.159743
 30
0.0
 11
114.652871
 21
38.805578
 31
0.0
  0
LINE
  5
2c6
100
AcDbEntity
  8
0
 62
7
100
AcDbLine
 10
114.652871
 20
38.805578
 30
0.0
 11
113.241759
 21
38.805578
 31
0.0
  0
SPLINE
  5
2c7
100
AcDbEntity
  8
0
 62
7
100
AcDbSpline
 70
8
 71
3
 72
8
 73
4
 74
0
 40
0
 40
0
 40
0
 40
0
 40
1
 40
1
 40
1
 40
1
 10
113.241759
 20
38.805578
 30
0.0
 10
111.864245
 20
38.805578
 30
0.0
 10
111.830648
 20
38.834976
 30
0.0
 10
111.830648
 20
40.040300
 30
0.0
  0
SPLINE
  5
2c8
100
AcDbEntity
  8
0
 62
7
100
AcDbSpline
 70
8
 71
3
 72
8
 73
4
 74
0
 40
0
 40
0
 40
0
 40
0
 40
1
 40
1
 40
1
 40
1
 10
111.830648
 20
40.040300
 30
0.0
 10
111.830648
 20
41.216228
 30
0.0
 10
111.771850
 20
41.275024
 30
0.0
 10
110.595924
 20
41.275024
 30
0.0
  0
SPLINE
  5
2c9
100
AcDbEntity
  8
0
 62
7
100
AcDbSpline
 70
8
 71
3
 72
8
 73
4
 74
0
 40
0
 40
0
 40
0
 40
0
 40
1
 40
1
 40
1
 40
1
 10
110.595924
 20
41.275024
 30
0.0
 10
109.419996
 20
41.275024
 30
0.0
 10
109.361200
 20
41.333819
 30
0.0
 10
109.361200
 20
42.509748
 30
0.0
  0
SPLINE
  5
2ca
100
AcDbEntity
  8
0
 62
7
100
AcDbSpline
 70
8
 71
3
 72
8
 73
4
 74
0
 40
0
 40
0
 40
0
 40
0
 40
1
 40
1
 40
1
 40
1
 10
109.361200
 20
42.509748
 30
0.0
 10
109.361200
 20
43.715071
 30
0.0
 10
109.327603
 20
43.744469
 30
0.0
 10
107.950089
 20
43.744469
 30
0.0
  0
LINE
  5
2cb
100
AcDbEntity
  8
0
 62
7
100
AcDbLine
 10
107.950089
 20
43.744469
 30
0.0
 11
106.538978
 21
43.744469
 31
0.0
  0
LINE
  5
2cc
100
AcDbEntity
  8
0
 62
7
100
AcDbLine
 10
106.538978
 20
43.744469
 30
0.0
 11
106.538978
 21
45.155583
 31
0.0
  0
SPLINE
  5
2cd
100
AcDbEntity
  8
0
 62
7
100
AcDbSpline
 70
8
 71
3
 72
8
 73
4
 74
0
 40
0
 40
0
 40
0
 40
0
 40
1
 40
1
 40
1
 40
1
 10
106.538978
 20
45.155583
 30
0.0
 10
106.538978
 20
46.533097
 30
0.0
 10
106.509577
 20
46.566694
 30
0.0
 10
105.304254
 20
46.566694
 30
0.0
  0
SPLINE
  5
2ce
100
AcDbEntity
  8
0
 62
7
100
AcDbSpline
 70
8
 71
3
 72
8
 73
4
 74
0
 40
0
 40
0
 40
0
 40
0
 40
1
 40
1
 40
1
 40
1
 10
105.304254
 20
46.566694
 30
0.0
 10
104.128326
 20
46.566694
 30
0.0
 10
104.069530
 20
46.625490
 30
0.0
 10
104.069530
 20
47.801418
 30
0.0
  0
SPLINE
  5
2cf
100
AcDbEntity
  8
0
 62
7
100
AcDbSpline
 70
8
 71
3
 72
8
 73
4
 74
0
 40
0
 40
0
 40
0
 40
0
 40
1
 40
1
 40
1
 40
1
 10
104.069530
 20
47.801418
 30
0.0
 10
104.069530
 20
48.977344
 30
0.0
 10
104.010734
 20
49.036139
 30
0.0
 10
102.834806
 20
49.036139
 30
0.0
  0
SPLINE
  5
2d0
100
AcDbEntity
  8
0
 62
7
100
AcDbSpline
 70
8
 71
3
 72
8
 73
4
 74
0
 40
0
 40
0
 40
0
 40
0
 40
1
 40
1
 40
1
 40
1
 10
102.834806
 20
49.036139
 30
0.0
 10
101.629482
 20
49.036139
 30
0.0
 10
101.600085
 20
49.069739
 30
0.0
 10
101.600085
 20
50.447253
 30
0.0
  0
LINE
  5
2d1
100
AcDbEntity
  8
0
 62
7
100
AcDbLine
 10
101.600085
 20
50.447253
 30
0.0
 11
101.600085
 21
51.858364
 31
0.0
  0
LINE
  5
2d2
100
AcDbEntity
  8
0
 62
7
100
AcDbLine
 10
101.600085
 20
51.858364
 30
0.0
 11
100.188971
 21
51.858364
 31
0.0
  0
LINE
  5
2d3
100
AcDbEntity
  8
0
 62
7
100
AcDbLine
 10
100.188971
 20
51.858364
 30
0.0
 11
98.777860
 21
51.858364
 31
0.0
  0
LINE
  5
2d4
100
AcDbEntity
  8
0
 62
7
100
AcDbLine
 10
98.777860
 20
51.858364
 30
0.0
 11
98.777860
 21
46.566694
 31
0.0
  0
LINE
  5
2d5
100
AcDbEntity
  8
0
 62
7
100
AcDbLine
 10
98.777860
 20
46.566694
 30
0.0
 11
98.777860
 21
41.275024
 31
0.0
  0
LINE
  5
2d6
100
AcDbEntity
  8
0
 62
7
100
AcDbLine
 10
98.777860
 20
41.275024
 30
0.0
 11
101.423695
 21
41.275024
 31
0.0
  0
LINE
  5
2d7
100
AcDbEntity
  8
0
 62
7
100
AcDbLine
 10
101.423695
 20
41.275024
 30
0.0
 11
104.069530
 21
41.275024
 31
0.0
  0
LINE
  5
2d8
100
AcDbEntity
  8
0
 62
7
100
AcDbLine
 10
104.069530
 20
41.275024
 30
0.0
 11
104.069530
 21
40.040300
 31
0.0
  0
LINE
  5
2d9
100
AcDbEntity
  8
0
 62
7
100
AcDbLine
 10
104.069530
 20
40.040300
 30
0.0
 11
104.069530
 21
38.805578
 31
0.0
  0
LINE
  5
2da
100
AcDbEntity
  8
0
 62
7
100
AcDbLine
 10
104.069530
 20
38.805578
 30
0.0
 11
106.715365
 21
38.805578
 31
0.0
  0
LINE
  5
2db
100
AcDbEntity
  8
0
 62
7
100
AcDbLine
 10
106.715365
 20
38.805578
 30
0.0
 11
109.361200
 21
38.805578
 31
0.0
  0
LINE
  5
2dc
100
AcDbEntity
  8
0
 62
7
100
AcDbLine
 10
109.361200
 20
38.805578
 30
0.0
 11
109.361200
 21
37.394465
 31
0.0
  0
SPLINE
  5
2dd
100
AcDbEntity
  8
0
 62
7
100
AcDbSpline
 70
8
 71
3
 72
8
 73
4
 74
0
 40
0
 40
0
 40
0
 40
0
 40
1
 40
1
 40
1
 40
1
 10
109.361200
 20
37.394465
 30
0.0
 10
109.361200
 20
36.016950
 30
0.0
 10
109.390598
 20
35.983353
 30
0.0
 10
110.595924
 20
35.983353
 30
0.0
  0
LINE
  5
2de
100
AcDbEntity
  8
0
 62
7
100
AcDbLine
 10
110.595924
 20
35.983353
 30
0.0
 11
111.830648
 21
35.983353
 31
0.0
  0
LINE
  5
2df
100
AcDbEntity
  8
0
 62
7
100
AcDbLine
 10
111.830648
 20
35.983353
 30
0.0
 11
111.830648
 21
33.513908
 31
0.0
  0
LINE
  5
2e0
100
AcDbEntity
  8
0
 62
7
100
AcDbLine
 10
111.830648
 20
33.513908
 30
0.0
 11
111.830648
 21
31.044460
 31
0.0
  0
LINE
  5
2e1
100
AcDbEntity
  8
0
 62
7
100
AcDbLine
 10
111.830648
 20
31.044460
 30
0.0
 11
113.241759
 21
31.044460
 31
0.0
  0
LINE
  5
2e2
100
AcDbEntity
  8
0
 62
7
100
AcDbLine
 10
113.241759
 20
31.044460
 30
0.0
 11
114.652871
 21
31.044460
 31
0.0
  0
LINE
  5
2e3
100
AcDbEntity
  8
0
 62
7
100
AcDbLine
 10
114.652871
 20
31.044460
 30
0.0
 11
114.652871
 21
29.633349
 31
0.0
  0
SPLINE
  5
2e4
100
AcDbEntity
  8
0
 62
7
100
AcDbSpline
 70
8
 71
3
 72
8
 73
4
 74
0
 40
0
 40
0
 40
0
 40
0
 40
1
 40
1
 40
1
 40
1
 10
114.652871
 20
29.633349
 30
0.0
 10
114.652871
 20
28.255834
 30
0.0
 10
114.682269
 20
28.222238
 30
0.0
 10
115.887595
 20
28.222238
 30
0.0
  0
LINE
  5
2e5
100
AcDbEntity
  8
0
 62
7
100
AcDbLine
 10
115.887595
 20
28.222238
 30
0.0
 11
117.122319
 21
28.222238
 31
0.0
  0
LINE
  5
2e6
100
AcDbEntity
  8
0
 62
7
100
AcDbLine
 10
117.122319
 20
28.222238
 30
0.0
 11
117.122319
 21
20.461122
 31
0.0
  0
LINE
  5
2e7
100
AcDbEntity
  8
0
 62
7
100
AcDbLine
 10
117.122319
 20
20.461122
 30
0.0
 11
117.122319
 21
12.700004
 31
0.0
  0
LINE
  5
2e8
100
AcDbEntity
  8
0
 62
7
100
AcDbLine
 10
117.122319
 20
12.700004
 30
0.0
 11
123.648710
 21
12.700004
 31
0.0
  0
LINE
  5
2e9
100
AcDbEntity
  8
0
 62
7
100
AcDbLine
 10
123.648710
 20
12.700004
 30
0.0
 11
130.175105
 21
12.700004
 31
0.0
  0
LINE
  5
2ea
100
AcDbEntity
  8
0
 62
7
100
AcDbLine
 10
130.175105
 20
12.700004
 30
0.0
 11
130.175105
 21
11.465282
 31
0.0
  0
SPLINE
  5
2eb
100
AcDbEntity
  8
0
 62
7
100
AcDbSpline
 70
8
 71
3
 72
8
 73
4
 74
0
 40
0
 40
0
 40
0
 40
0
 40
1
 40
1
 40
1
 40
1
 10
130.175105
 20
11.465282
 30
0.0
 10
130.175105
 20
10.289354
 30
0.0
 10
130.233900
 20
10.230558
 30
0.0
 10
131.409829
 20
10.230558
 30
0.0
  0
LINE
  5
2ec
100
AcDbEntity
  8
0
 62
7
100
AcDbLine
 10
131.409829
 20
10.230558
 30
0.0
 11
132.644553
 21
10.230558
 31
0.0
  0
LINE
  5
2ed
100
AcDbEntity
  8
0
 62
7
100
AcDbLine
 10
132.644553
 20
10.230558
 30
0.0
 11
132.644553
 21
17.991674
 31
0.0
  0
LINE
  5
2ee
100
AcDbEntity
  8
0
 62
7
100
AcDbLine
 10
111.830648
 20
19.226398
 30
0.0
 11
111.830648
 21
25.752790
 31
0.0
  0
LINE
  5
2ef
100
AcDbEntity
  8
0
 62
7
100
AcDbLine
 10
111.830648
 20
25.752790
 30
0.0
 11
110.595924
 21
25.752790
 31
0.0
  0
LINE
  5
2f0
100
AcDbEntity
  8
0
 62
7
100
AcDbLine
 10
110.595924
 20
25.752790
 30
0.0
 11
109.361200
 21
25.752790
 31
0.0
  0
LINE
  5
2f1
100
AcDbEntity
  8
0
 62
7
100
AcDbLine
 10
109.361200
 20
25.752790
 30
0.0
 11
109.361200
 21
28.398625
 31
0.0
  0
LINE
  5
2f2
100
AcDbEntity
  8
0
 62
7
100
AcDbLine
 10
109.361200
 20
28.398625
 30
0.0
 11
109.361200
 21
31.044460
 31
0.0
  0
LINE
  5
2f3
100
AcDbEntity
  8
0
 62
7
100
AcDbLine
 10
109.361200
 20
31.044460
 30
0.0
 11
107.950089
 21
31.044460
 31
0.0
  0
SPLINE
  5
2f4
100
AcDbEntity
  8
0
 62
7
100
AcDbSpline
 70
8
 71
3
 72
8
 73
4
 74
0
 40
0
 40
0
 40
0
 40
0
 40
1
 40
1
 40
1
 40
1
 10
107.950089
 20
31.044460
 30
0.0
 10
106.572575
 20
31.044460
 30
0.0
 10
106.538978
 20
31.073861
 30
0.0
 10
106.538978
 20
32.279184
 30
0.0
  0
SPLINE
  5
2f5
100
AcDbEntity
  8
0
 62
7
100
AcDbSpline
 70
8
 71
3
 72
8
 73
4
 74
0
 40
0
 40
0
 40
0
 40
0
 40
1
 40
1
 40
1
 40
1
 10
106.538978
 20
32.279184
 30
0.0
 10
106.538978
 20
33.455112
 30
0.0
 10
106.480179
 20
33.513908
 30
0.0
 10
105.304254
 20
33.513908
 30
0.0
  0
SPLINE
  5
2f6
100
AcDbEntity
  8
0
 62
7
100
AcDbSpline
 70
8
 71
3
 72
8
 73
4
 74
0
 40
0
 40
0
 40
0
 40
0
 40
1
 40
1
 40
1
 40
1
 10
105.304254
 20
33.513908
 30
0.0
 10
104.128326
 20
33.513908
 30
0.0
 10
104.069530
 20
33.455112
 30
0.0
 10
104.069530
 20
32.279184
 30
0.0
  0
SPLINE
  5
2f7
100
AcDbEntity
  8
0
 62
7
100
AcDbSpline
 70
8
 71
3
 72
8
 73
4
 74
0
 40
0
 40
0
 40
0
 40
0
 40
1
 40
1
 40
1
 40
1
 10
104.069530
 20
32.279184
 30
0.0
 10
104.069530
 20
31.103258
 30
0.0
 10
104.128326
 20
31.044460
 30
0.0
 10
105.304254
 20
31.044460
 30
0.0
  0
LINE
  5
2f8
100
AcDbEntity
  8
0
 62
7
100
AcDbLine
 10
105.304254
 20
31.044460
 30
0.0
 11
106.538978
 21
31.044460
 31
0.0
  0
LINE
  5
2f9
100
AcDbEntity
  8
0
 62
7
100
AcDbLine
 10
106.538978
 20
31.044460
 30
0.0
 11
106.538978
 21
26.987514
 31
0.0
  0
LINE
  5
2fa
100
AcDbEntity
  8
0
 62
7
100
AcDbLine
 10
106.538978
 20
26.987514
 30
0.0
 11
106.538978
 21
22.930567
 31
0.0
  0
LINE
  5
2fb
100
AcDbEntity
  8
0
 62
7
100
AcDbLine
 10
106.538978
 20
22.930567
 30
0.0
 11
107.950089
 21
22.930567
 31
0.0
  0
LINE
  5
2fc
100
AcDbEntity
  8
0
 62
7
100
AcDbLine
 10
107.950089
 20
22.930567
 30
0.0
 11
109.361200
 21
22.930567
 31
0.0
  0
LINE
  5
2fd
100
AcDbEntity
  8
0
 62
7
100
AcDbLine
 10
109.361200
 20
22.930567
 30
0.0
 11
109.361200
 21
17.815287
 31
0.0
  0
LINE
  5
2fe
100
AcDbEntity
  8
0
 62
7
100
AcDbLine
 10
109.361200
 20
17.815287
 30
0.0
 11
109.361200
 21
12.700004
 31
0.0
  0
LINE
  5
2ff
100
AcDbEntity
  8
0
 62
7
100
AcDbLine
 10
109.361200
 20
12.700004
 30
0.0
 11
110.595924
 21
12.700004
 31
0.0
  0
LINE
  5
300
100
AcDbEntity
  8
0
 62
7
100
AcDbLine
 10
110.595924
 20
12.700004
 30
0.0
 11
111.830648
 21
12.700004
 31
0.0
  0
LINE
  5
301
100
AcDbEntity
  8
0
 62
7
100
AcDbLine
 10
111.830648
 20
12.700004
 30
0.0
 11
111.830648
 21
19.226398
 31
0.0
  0
LINE
  5
302
100
AcDbEntity
  8
0
 62
7
100
AcDbLine
 10
36.336146
 20
20.461122
 30
0.0
 11
36.336146
 21
25.752790
 31
0.0
  0
LINE
  5
303
100
AcDbEntity
  8
0
 62
7
100
AcDbLine
 10
36.336146
 20
25.752790
 30
0.0
 11
35.101425
 21
25.752790
 31
0.0
  0
LINE
  5
304
100
AcDbEntity
  8
0
 62
7
100
AcDbLine
 10
35.101425
 20
25.752790
 30
0.0
 11
33.866701
 21
25.752790
 31
0.0
  0
LINE
  5
305
100
AcDbEntity
  8
0
 62
7
100
AcDbLine
 10
33.866701
 20
25.752790
 30
0.0
 11
33.866701
 21
20.461122
 31
0.0
  0
LINE
  5
306
100
AcDbEntity
  8
0
 62
7
100
AcDbLine
 10
33.866701
 20
20.461122
 30
0.0
 11
33.866701
 21
15.169452
 31
0.0
  0
LINE
  5
307
100
AcDbEntity
  8
0
 62
7
100
AcDbLine
 10
33.866701
 20
15.169452
 30
0.0
 11
35.101425
 21
15.169452
 31
0.0
  0
LINE
  5
308
100
AcDbEntity
  8
0
 62
7
100
AcDbLine
 10
35.101425
 20
15.169452
 30
0.0
 11
36.336146
 21
15.169452
 31
0.0
  0
LINE
  5
309
100
AcDbEntity
  8
0
 62
7
100
AcDbLine
 10
36.336146
 20
15.169452
 30
0.0
 11
36.336146
 21
20.461122
 31
0.0
  0
ENDSEC
  0
SECTION
  2
OBJECTS
  0
DICTIONARY
  5
C
330
0
100
AcDbDictionary
  3
ACAD_GROUP
350
D
  3
ACAD_MLINESTYLE
350
17
  0
DICTIONARY
  5
D
330
C
100
AcDbDictionary
  0
DICTIONARY
  5
1A
330
C
100
AcDbDictionary
  0
DICTIONARY
  5
17
330
C
100
AcDbDictionary
  3
STANDARD
350
18
  0
DICTIONARY
  5
19
330
C
100
AcDbDictionary
  0
ENDSEC
  0
EOF
