<?xml version="1.0" encoding="UTF-8" standalone="no"?>
<!-- Created with Inkscape (http://www.inkscape.org/) -->

<svg
   version="1.1"
   id="svg1"
   width="2531.6428"
   height="1104.8273"
   viewBox="0 0 2531.6428 1104.8273"
   xmlns="http://www.w3.org/2000/svg"
   xmlns:svg="http://www.w3.org/2000/svg">
  <defs
     id="defs1" />
  <g
     id="g1"
     transform="translate(-2.8765605,-22.74842)">
    <path
       style="fill:#000000;stroke:none"
       d="m 1516.3905,1126.0708 c -18.1079,-4.1135 -35.754,-15.7622 -46.3311,-30.5848 -5.9355,-8.3178 -13.5715,-24.4184 -12.2212,-25.7687 0.3567,-0.3567 35.9391,-10.4418 79.0719,-22.4112 43.1328,-11.9695 87.1232,-24.2624 97.7566,-27.3176 10.6333,-3.0553 51.1333,-14.5543 90,-25.55339 38.8666,-10.99912 74.2969,-21.16003 78.7339,-22.57979 4.437,-1.41977 9.8393,-2.80566 12.0051,-3.07976 2.1658,-0.27409 27.9355,-7.20039 57.2661,-15.39176 126.7615,-35.40171 144.5429,-40.34312 179.3282,-49.83499 20.1667,-5.50288 62.7667,-17.01067 94.6667,-25.57287 31.9,-8.5622 73,-19.66682 91.3333,-24.67693 18.3333,-5.01012 42.9333,-11.63303 54.6667,-14.71757 11.7333,-3.08455 21.4769,-5.72082 21.6524,-5.85839 0.5389,-0.42248 4.3243,-181.17273 4.3363,-207.05642 l 0.011,-24.33333 h 64.4962 64.4963 l 0.9503,-5.66667 c 0.937,-5.58727 1.7857,-20.01525 4.7255,-80.33333 1.6798,-34.46597 3.3354,-42.64035 9.0783,-44.82378 6.9822,-2.65463 28.3183,-2.97335 37.5067,-0.56028 16.7821,4.40732 22.068,8.76163 29.6606,24.43341 3.992,8.23973 4.3775,10.20087 4.8539,24.69101 0.2846,8.6572 -0.1666,20.41802 -1.0025,26.13515 -0.836,5.71713 -2.0805,21.43397 -2.7655,34.9263 -1.4434,28.42743 -2.7871,36.78463 -8.1246,50.53152 -9.6303,24.80316 -31.2902,43.27147 -57.2086,48.7788 -5.8316,1.23915 -18.153,1.84913 -37.6666,1.86471 -15.95,0.0127 -29.0387,0.17315 -29.086,0.35648 -0.047,0.18334 -0.9276,36.33334 -1.9562,80.33333 -1.3675,58.49787 -2.3831,82.32939 -3.7787,88.66666 -5.7563,26.13922 -24.1098,47.62869 -48.8458,57.19206 -5.5,2.12639 -19.6,6.39175 -31.3333,9.47858 -11.7334,3.08683 -36.0334,9.70459 -54,14.70612 -34.3972,9.57543 -50.4529,13.2899 -57.4452,13.2899 -2.3233,0 -9.3986,2.04796 -15.7229,4.55102 -6.3242,2.50305 -21.0986,7.06499 -32.8319,10.13764 -11.7334,3.07265 -40.5334,10.98345 -64,17.57955 -46.4212,13.04823 -57.3074,15.67337 -65.1427,15.70864 -2.9092,0.0131 -8.7477,1.74363 -13.4431,3.98453 -4.6336,2.21143 -44.4754,14.08135 -90.1906,26.87015 -77.3203,21.6302 -82.6716,22.9414 -95.8903,23.495 -17.1109,0.7167 -29.9762,-1.7235 -42.7922,-8.1166 l -9.0517,-4.5154 -4.6403,7.4861 c -9.7956,15.8031 -23.5281,27.7708 -39.1056,34.0799 -4.2589,1.725 -45.8435,13.7851 -92.4102,26.8003 -79.7988,22.3034 -85.4333,23.6896 -98,24.1103 -8.2822,0.2773 -16.4686,-0.2658 -21.6095,-1.4336 z m -833.05717,-89.4491 c -34.53191,-5.5703 -65.30656,-18.238 -94.34689,-38.83571 -14.94157,-10.59777 -43.71624,-39.59971 -54.68745,-55.11938 -8.2679,-11.69563 -23.63232,-39.31691 -23.63232,-42.48485 0,-0.75115 7.35,2.46034 16.33333,7.13665 38.5336,20.05881 84.54065,34.52307 119,37.41267 6.43817,0.53988 15.95229,2.66705 24,5.36594 21.10488,7.07774 35.16524,9.01033 59.33333,8.15536 16.91176,-0.59827 23.48313,-1.45072 36.16817,-4.6918 26.05447,-6.65702 57.73901,-20.69044 73.05784,-32.35809 5.04376,-3.8416 15.11039,-8.63224 33.33333,-15.8631 C 886.2517,899.64172 910.6,889.57793 926,882.9754 c 18.93502,-8.11812 31.02166,-12.50423 37.33333,-13.54788 5.13334,-0.8488 10.38334,-1.85768 11.66667,-2.24194 1.69509,-0.50756 2.33333,0.0553 2.33333,2.05785 0,3.37578 0.32058,3.38146 10.85956,0.19229 9.45973,-2.86257 51.75261,-14.45096 80.80711,-22.14141 10.45,-2.76601 19.0162,-5.0888 19.036,-5.16174 0.4049,-1.4893 3.9067,-181.87773 3.9305,-202.46594 l 0.034,-29 h 25.9583 25.9582 l 0.3751,76.33333 0.3751,76.33333 3.8047,7.74849 c 11.301,23.01461 41.2075,36.56689 65.863,29.8461 4.2161,-1.14926 17.8656,-3.95607 30.3323,-6.23737 12.4666,-2.2813 34.0666,-7.37014 48,-11.30853 28.4106,-8.03055 42.5161,-11.85999 86.4087,-23.45869 16.7248,-4.41957 37.1248,-10.02753 45.3334,-12.46213 51.2361,-15.19638 66.6169,-19.5466 67.1666,-18.99696 0.3406,0.34067 -6.6683,19.30724 -15.5755,42.14793 -19.419,49.79659 -19.645,50.34441 -21.1435,51.27059 -0.6513,0.40248 -9.8104,3.1218 -20.3536,6.04294 -10.5432,2.92114 -24.2695,6.86018 -30.5028,8.75342 -6.2333,1.89324 -21.5333,6.1001 -34,9.34858 -12.4667,3.24849 -38.5046,10.41071 -57.862,15.91606 -41.6252,11.83843 -47.0905,12.93989 -65.4713,13.19514 -11.6067,0.16118 -15.7096,-0.36461 -24,-3.07567 -24.2986,-7.94586 -45.0644,-29.4133 -51.2531,-52.985 -1.6654,-6.34321 -1.6928,-6.22676 -2.57,10.92176 -0.4876,9.53333 -1.4898,21.42699 -2.2271,26.43034 -3.6428,24.72157 -20.2959,47.11196 -43.2832,58.1949 -7.3843,3.56025 -26.6456,9.29725 -60,17.87104 -7.3333,1.88505 -25.0333,6.78092 -39.3333,10.87972 -37.81178,10.83795 -56.75491,11.32926 -78.87541,2.04574 l -8.87542,-3.72484 -11.79125,11.9264 c -23.81213,24.08503 -49.56727,42.7407 -76.85493,55.66965 -27.73676,13.1418 -51.62606,21.1266 -78.52157,26.2454 -15.8391,3.0145 -69.56843,3.6934 -85.74809,1.0834 z m 773.84207,-57.82222 c -0.087,-6.30641 -0.062,-12.21231 0.056,-13.12421 0.118,-0.91189 70.7455,-174.91188 156.9502,-386.66664 86.2047,-211.75475 157.6258,-387.21211 158.7136,-389.90524 2.2095,-5.47007 5.5931,-7.25249 22.0497,-11.61524 5.3468,-1.41747 15.1214,-4.21804 21.7214,-6.2235 47.7768,-14.51736 95.2071,-27.86413 96.0004,-27.01426 0.2137,0.22895 -0.1402,11.21627 -0.7865,24.41627 -0.6462,13.2 -2.4124,89.09999 -3.9247,168.66665 -4.3953,231.24718 -10.5537,529.71227 -10.937,530.05406 -0.6428,0.57317 -154.4364,43.27924 -155.8578,43.27924 -0.9414,0 -1.1122,-5.09476 -0.5252,-15.66667 0.4783,-8.61666 1.679,-30.06666 2.6681,-47.66666 0.989,-17.6 1.5698,-32.23044 1.2906,-32.51209 -0.9506,-0.95886 -79.8358,20.28142 -82.7217,22.27328 -0.7215,0.49801 -7.2104,16.80548 -14.4197,36.23881 -7.2093,19.43333 -16.1855,43.42492 -19.9472,53.31464 l -6.8393,17.9813 -20,5.61227 c -11,3.08675 -47.75,13.35495 -81.6667,22.81823 l -61.6667,17.20596 z m 278.1579,-250.33389 c 6.6,-1.88494 12.5193,-3.91006 13.1539,-4.50027 1.2591,-1.17096 8.1223,-126.46694 6.9894,-127.59984 -0.3822,-0.38223 -1.4779,-0.3945 -2.4348,-0.0273 -0.957,0.36722 -12.7688,29.99134 -26.2486,65.83138 -13.4798,35.84005 -25.5862,67.94344 -26.9032,71.34087 l -2.3946,6.17716 12.9189,-3.89743 c 7.1055,-2.14358 18.319,-5.43965 24.919,-7.32458 z M 61.723866,983.40987 C 37.035995,977.78454 15.401537,959.39364 5.86598,935.92649 4.0273092,931.40149 2.7052803,927.53331 2.9281378,927.33053 3.1509953,927.12774 37.233333,917.55462 78.666667,906.05693 150.78228,886.04494 238.75583,861.2891 247.45072,858.56092 l 4.11739,-1.29191 0.89978,-65.63453 c 1.06248,-77.50178 2.21756,-118.62206 3.36724,-119.87166 1.42,-1.54341 44.6259,-13.93057 78.14255,-22.40352 24.98961,-6.31733 73.82097,-20.22272 82.68899,-23.5468 0.85927,-0.32209 1.37179,9.10353 1.44151,26.5105 0.0939,23.44715 1.77803,45.79934 4.01326,53.2651 0.54397,1.81689 -1.38552,2.90576 -9.93458,5.60641 -16.07082,5.07677 -27.04962,6.57108 -42.75467,5.81927 -10.29481,-0.49281 -16.7079,-1.58426 -23.76872,-4.0452 -5.31843,-1.85366 -9.90047,-2.97992 -10.18232,-2.50279 -0.28185,0.47712 -1.18882,30.8675 -2.01549,67.53416 -2.19445,97.33464 -2.05097,94.63632 -5.60088,105.33333 -4.08498,12.30934 -14.6922,27.72693 -24.58978,35.74121 -15.58467,12.61925 -13.35572,11.86359 -136.60833,46.31312 -64.43503,18.00981 -67.964652,18.84331 -82.000003,19.36397 -9.711391,0.36025 -17.462839,-0.0931 -22.942801,-1.34171 z M 620.86049,899.95768 c -21.03815,-3.315 -44.81962,-12.92101 -60.42,-24.40535 C 540.34477,860.7587 521.82565,839.54392 512.07439,820.14602 482.65418,761.62121 471.12111,662.16431 484.64387,583.59549 499.55702,496.9483 536.23866,407.12605 578.29642,354.26866 607.94852,317.00247 635.6756,297.47263 676,285.45017 c 28.2812,-8.43186 39.43107,-10.03895 69.33333,-9.99336 23.81815,0.0363 27.08966,0.33373 38.98493,3.54412 7.14171,1.92746 17.2579,5.74986 22.48043,8.49421 18.61083,9.77972 38.40962,32.40417 51.98497,59.40419 L 864,357.27412 l -0.007,79.69626 -0.007,79.69625 -47.49748,14.34408 -47.49748,14.34408 -9.78588,-4.70682 c -26.41569,-12.70544 -47.16231,-34.92029 -59.93425,-64.1758 -2.51449,-5.75971 -4.57913,-9.50696 -4.58808,-8.32722 -0.0295,3.88599 -10.64938,30.91754 -18.01506,45.85502 -3.97767,8.06666 -10.74863,20.06666 -15.04656,26.66666 -19.12103,29.3627 -50.29464,62.72276 -68.28757,73.07712 -5.43739,3.12905 -6.67761,4.34605 -4.79788,4.70806 7.9261,1.52642 43.09062,27.97662 59.0525,44.41835 24.11598,24.84097 41.60907,60.14936 45.28166,91.39738 0.46122,3.9242 1.02134,6.95214 1.24473,6.72875 0.22339,-0.22338 1.34536,-6.6875 2.49327,-14.3647 3.97979,-26.61668 11.28009,-48.29832 23.0171,-68.36 7.97173,-13.62582 32.966,-39.5954 41.84643,-43.47934 4.78279,-2.09179 98.92666,-28.12562 101.70825,-28.12562 0.4511,0 0.82018,26.49506 0.82018,58.8779 v 58.87791 l -10.45356,20.15861 C 834.6754,780.97165 810.7079,816.59564 791.12507,837.36057 786.10634,842.68239 775.7,852.09225 768,858.27136 c -21.79147,17.48728 -56.6905,33.38047 -87.33333,39.77203 -12.47165,2.60137 -48.19007,3.74465 -59.80618,1.91429 z M 1940.9383,839.66661 c 0.2438,-8.24999 1.9838,-92.03648 3.8666,-186.19218 1.8828,-94.15571 3.8713,-172.40348 4.419,-173.88394 0.7891,-2.13328 5.8139,-4.12865 24.2192,-9.61755 12.773,-3.80919 34.3599,-10.28191 47.971,-14.38382 29.8777,-9.00409 62.4572,-18.25581 64.2869,-18.25581 0.8405,0 0.9926,2.83217 0.4118,7.66666 -0.5066,4.21667 -2.6262,89.75363 -4.7102,190.08214 -2.084,100.32851 -4.0191,182.64543 -4.3001,182.92648 -0.2811,0.28105 -9.7941,2.9819 -21.1401,6.00188 -11.346,3.01998 -23.9291,6.42416 -27.9624,7.56484 -4.0333,1.14068 -16.9333,4.65498 -28.6667,7.80956 -11.7333,3.15458 -28.8084,7.88348 -37.9446,10.50867 -9.1363,2.62519 -17.5749,4.77307 -18.7525,4.77307 -1.8653,0 -2.084,-1.93208 -1.6979,-15 z M 3.3074482,816.44814 C 3.746555,798.9683 5.2868842,725.26662 6.730402,652.66663 10.656835,455.19139 13.141783,334.30038 14.119453,293.19434 l 0.875389,-36.80564 30.169246,-8.32425 C 61.757173,243.48611 88.233333,236.12132 104,231.69825 c 62.89559,-17.64429 80.46516,-22.34422 81.11166,-21.69771 0.37148,0.37148 -0.1023,43.72332 -1.05284,96.33742 -1.82125,100.80948 -1.81005,101.12675 3.96347,112.32118 6.81513,13.21403 26.2702,22.65102 46.64438,22.6256 10.33253,-0.0129 29.61254,-4.54461 37.42492,-8.79664 12.41823,-6.75885 23.60699,-21.1539 26.45831,-34.04032 0.70354,-3.17962 2.24698,-52.88113 3.42986,-110.4478 1.26212,-61.42257 2.71627,-106.45373 3.51959,-108.99204 1.17467,-3.71175 2.36755,-4.61571 8.40831,-6.37181 3.87169,-1.12553 10.27634,-2.58434 14.23256,-3.2418 3.95621,-0.65746 9.30804,-2.09177 11.89294,-3.18734 6.72576,-2.8506 98.17661,-28.77034 101.78484,-28.84867 0.63323,-0.0137 0.8081,1.925 0.3886,4.30834 -0.4195,2.38333 -2.62884,88.03333 -4.90965,190.33332 -2.2808,102.29999 -4.47355,191.76557 -4.87277,198.81239 l -0.72585,12.8124 -18.84916,4.97678 c -28.75942,7.5934 -60.19775,16.23364 -88.03638,24.19516 -13.85297,3.96179 -26.15297,7.20362 -27.33333,7.20406 -1.91341,7.1e-4 -2.09644,-2.74631 -1.6879,-25.33333 0.25203,-13.93378 0.0821,-25.33414 -0.37766,-25.33414 -0.45973,0 -3.66594,1.41641 -7.12489,3.14757 -30.87795,15.45404 -78.37969,18.71613 -102.05659,7.00853 -4.18517,-2.06945 -6.58566,-2.65279 -6.86741,-1.66883 -0.23823,0.832 -1.40655,55.21273 -2.59625,120.84606 -1.18971,65.63333 -2.26802,124.28055 -2.39626,130.32715 -0.18333,8.64481 -0.67537,11.12564 -2.30282,11.61073 -10.4421,3.11241 -59.13934,16.81116 -106.736347,30.02542 -31.9,8.85632 -59.0854584,16.43931 -60.4121303,16.85107 -2.2959146,0.7126 -2.373665,-0.78256 -1.6137545,-31.03286 z M 900.32875,625.68308 l 0.33792,-188.98354 6,-0.89867 c 3.3,-0.49427 8.11492,-1.80329 10.69983,-2.90893 8.01303,-3.4274 101.099,-29.5549 101.9951,-28.62814 0.2143,0.22156 -0.125,8.80284 -0.7539,19.06951 -0.6289,10.26666 -1.1729,23.39733 -1.2089,29.17926 l -0.066,10.51261 15,-14.52585 c 22.127,-21.42751 39.1727,-31.86006 57.6314,-35.27234 20.4213,-3.77509 40.3626,7.95188 51.2995,30.16805 l 4.0691,8.26551 v 46.66971 c 0,25.66834 -0.375,48.54471 -0.8333,50.83637 l -0.8333,4.16667 h -64.5 -64.5 l -0.028,27.66666 c -0.03,30.47934 -3.6346,203.12774 -4.2524,203.68872 -0.2127,0.19323 -8.7868,2.57652 -19.05347,5.29621 -30.23312,8.00889 -71.34605,19.2931 -80.47378,22.08751 -4.66058,1.42682 -9.01264,2.59422 -9.67124,2.59422 -0.7037,0 -1.05813,-77.92738 -0.85956,-188.98354 z M 2126.6667,615.99996 V 426.66664 h 4.0333 c 2.2183,0 7.4683,-1.22304 11.6666,-2.71787 4.1984,-1.49482 19.3334,-6.01202 33.6334,-10.03821 14.3,-4.0262 30.8,-8.77728 36.6667,-10.55797 14.3516,-4.35612 32.8007,-8.99637 33.3971,-8.39997 0.2659,0.26593 -0.068,10.36037 -0.7417,22.43209 -0.6738,12.07173 -1.247,24.85497 -1.2736,28.40721 l -0.048,6.45862 12.2917,-11.57085 c 15.0334,-14.15184 26.8975,-23.17802 38.5408,-29.32179 34.7719,-18.34796 62.964,-6.10456 78.4582,34.07314 4.3718,11.3365 4.9877,18.74398 2.708,32.56893 -0.7256,4.4 -1.9221,19.7 -2.659,34 -0.737,14.3 -1.7098,27.35 -2.162,29 l -0.8221,3 h -64.5111 -64.5112 l -0.04,31.66666 c -0.045,35.55763 -3.4809,198.96576 -4.1982,199.68304 -0.2545,0.25448 -7.3549,2.33382 -15.7787,4.62075 -8.4238,2.28693 -16.516,4.71072 -17.9827,5.38621 -2.7265,1.25571 -42.3908,11.74928 -48.5775,12.85162 -1.8823,0.3354 -8.4965,2.07574 -14.6982,3.86743 -6.2016,1.79168 -11.7516,3.2576 -12.3333,3.2576 -0.5817,0 -1.0576,-85.19999 -1.0576,-189.33332 z m -953.3334,65.1084 c 0,-71.99033 4.9853,-315.57474 6.5325,-319.18408 0.8931,-2.08339 4.815,-3.79995 16.3216,-7.14364 8.3302,-2.42071 23.8459,-6.99501 34.4793,-10.16511 26.1214,-7.78756 78.4223,-22.92049 83.1791,-24.06735 3.7632,-0.90728 3.8288,-0.83 3.055,3.59563 -0.4349,2.48756 -2.5802,88.13753 -4.7673,190.33327 -2.1871,102.19573 -4.1619,185.97974 -4.3884,186.18667 -0.2265,0.20694 -8.8118,2.59516 -19.0784,5.30715 -10.2667,2.712 -39.7782,10.87799 -65.5812,18.14665 -25.803,7.26865 -47.553,13.21574 -48.3333,13.21574 -0.9805,0 -1.4189,-17.37189 -1.4189,-56.22493 z m 178.874,-165.4414 c 7.63,-371.36907 9.3297,-445.808688 10.265,-449.551327 0.9045,-3.619835 1.9657,-4.176287 15.5825,-8.17099 8.0365,-2.357645 16.8757,-5.234825 19.6425,-6.393734 4.3029,-1.802312 87.7159,-25.738747 98.8152,-28.356295 3.7613,-0.887037 3.8282,-0.807598 3.0473,3.615877 -0.8123,4.600962 -4.1197,138.404829 -5.591,226.189489 -0.6615,39.47251 -0.4885,48.33228 0.9439,48.32757 0.9647,-0.003 14.654,-3.63253 30.4206,-8.06524 47.935,-13.47665 79.1403,-22.1587 83,-23.09261 L 1612,269.28251 v 19.1413 c 0,10.52772 -0.3969,38.13915 -0.882,61.35873 l -0.882,42.21744 h -59.7847 -59.7846 l -0.012,5 c -0.033,14.20866 -5.3628,254.14399 -5.6507,254.38445 -0.1857,0.1551 -11.1376,3.09732 -24.3376,6.53827 -13.2,3.44094 -35.1,9.44927 -48.6667,13.35184 -34.3324,9.87601 -59.5602,16.72536 -61.6049,16.72574 -1.4064,2.6e-4 -1.0687,-32.11172 1.8122,-172.33332 z m 596.3262,-96.00032 c 0.3833,-3.11667 1.0711,-29.30248 1.5285,-58.1907 0.4574,-28.88822 1.28,-53.736 1.828,-55.21728 0.7898,-2.13518 5.8083,-4.1283 24.2198,-9.61904 12.7729,-3.8092 34.3599,-10.28192 47.971,-14.38382 29.8049,-8.98217 62.4558,-18.25582 64.2755,-18.25582 0.8245,0 0.9863,2.96251 0.4302,7.8778 -0.4902,4.33278 -1.4222,32.2873 -2.0712,62.12115 -0.6489,29.83386 -1.3922,54.45577 -1.6518,54.71536 -0.2596,0.2596 -9.7551,2.94882 -21.1011,5.97605 -41.488,11.06944 -61.1588,16.44942 -85.8163,23.47077 -13.8529,3.94471 -26.3397,7.1722 -27.7483,7.1722 -2.2336,0 -2.4721,-0.72485 -1.8643,-5.66667 z M 1179.1938,296.45993 c 0.4174,-7.21964 1.1264,-34.12244 1.5757,-59.784 0.4493,-25.66156 1.3236,-47.60425 1.943,-48.76154 0.655,-1.22401 7.4342,-3.92988 16.2068,-6.46891 8.2944,-2.40061 21.6807,-6.35331 29.7474,-8.78376 19.8793,-5.98957 83.0646,-24.29138 87.8682,-25.45129 l 3.8683,-0.93407 -0.9232,5.77335 c -0.5077,3.17534 -1.485,31.24975 -2.1718,62.38758 -0.6867,31.13783 -1.412,56.76165 -1.6118,56.94182 -0.1997,0.18017 -8.7631,2.54115 -19.0297,5.24662 -14.4433,3.8061 -102.7647,28.39819 -115.7825,32.23833 -2.2946,0.67688 -2.4013,-0.1061 -1.6904,-12.40413 z"
       id="path1" />
  </g>
</svg>
