  0
SECTION
  2
HEADER
  9
$ACADVER
  1
AC1014
  9
$HANDSEED
  5
FFFF
  9
$MEASUREMENT
 70
     1
  0
ENDSEC
  0
SECTION
  2
TABLES
  0
TABLE
  2
VPORT
  5
8
330
0
100
AcDbSymbolTable
 70
     4
  0
VPORT
  5
2E
330
8
100
AcDbSymbolTableRecord
100
AcDbViewportTableRecord
  2
*ACTIVE
 70
     0
 10
0.0
 20
0.0
 11
1.0
 21
1.0
 12
210.0
 22
148.5
 13
0.0
 23
0.0
 14
10.0
 24
10.0
 15
10.0
 25
10.0
 16
0.0
 26
0.0
 36
1.0
 17
0.0
 27
0.0
 37
0.0
 40
341.0
 41
1.24
 42
50.0
 43
0.0
 44
0.0
 50
0.0
 51
0.0
 71
     0
 72
   100
 73
     1
 74
     3
 75
     0
 76
     0
 77
     0
 78
     0
  0
ENDTAB
  0
TABLE
  2
LTYPE
  5
5
330
0
100
AcDbSymbolTable
 70
     1
  0
LTYPE
  5
14
330
5
100
AcDbSymbolTableRecord
100
AcDbLinetypeTableRecord
  2
BYBLOCK
 70
     0
  3

 72
    65
 73
     0
 40
0.0
  0
LTYPE
  5
15
330
5
100
AcDbSymbolTableRecord
100
AcDbLinetypeTableRecord
  2
BYLAYER
 70
     0
  3

 72
    65
 73
     0
 40
0.0
  0
LTYPE
  5
16
330
5
100
AcDbSymbolTableRecord
100
AcDbLinetypeTableRecord
  2
CONTINUOUS
 70
     0
  3
Solid line
 72
    65
 73
     0
 40
0.0
  0
ENDTAB
  0
TABLE
  2
LAYER
  5
2
100
AcDbSymbolTable
 70
2
  0
LAYER
  5
50
100
AcDbSymbolTableRecord
100
AcDbLayerTableRecord
  2
0
 70
0
  6
CONTINUOUS
  0
LAYER
  5
51
100
AcDbSymbolTableRecord
100
AcDbLayerTableRecord
  2
Image
 70
0
  6
CONTINUOUS
  0
ENDTAB
  0
TABLE
  2
STYLE
  5
3
330
0
100
AcDbSymbolTable
 70
     1
  0
STYLE
  5
11
330
3
100
AcDbSymbolTableRecord
100
AcDbTextStyleTableRecord
  2
STANDARD
 70
     0
 40
0.0
 41
1.0
 50
0.0
 71
     0
 42
2.5
  3
txt
  4

  0
ENDTAB
  0
TABLE
  2
VIEW
  5
6
330
0
100
AcDbSymbolTable
 70
     0
  0
ENDTAB
  0
TABLE
  2
UCS
  5
7
330
0
100
AcDbSymbolTable
 70
     0
  0
ENDTAB
  0
TABLE
  2
APPID
  5
9
330
0
100
AcDbSymbolTable
 70
     2
  0
APPID
  5
12
330
9
100
AcDbSymbolTableRecord
100
AcDbRegAppTableRecord
  2
ACAD
 70
     0
  0
ENDTAB
  0
TABLE
  2
DIMSTYLE
  5
A
330
0
100
AcDbSymbolTable
 70
     1
  0
DIMSTYLE
105
27
330
A
100
AcDbSymbolTableRecord
100
AcDbDimStyleTableRecord
  2
ISO-25
 70
     0
  3

  4

  5

  6

  7

 40
1.0
 41
2.5
 42
0.625
 43
3.75
 44
1.25
 45
0.0
 46
0.0
 47
0.0
 48
0.0
140
2.5
141
2.5
142
0.0
143
0.03937007874016
144
1.0
145
0.0
146
1.0
147
0.625
 71
     0
 72
     0
 73
     0
 74
     0
 75
     0
 76
     0
 77
     1
 78
     8
170
     0
171
     3
172
     1
173
     0
174
     0
175
     0
176
     0
177
     0
178
     0
270
     2
271
     2
272
     2
273
     2
274
     3
340
11
275
     0
280
     0
281
     0
282
     0
283
     0
284
     8
285
     0
286
     0
287
     3
288
     0
  0
ENDTAB
  0
TABLE
  2
BLOCK_RECORD
  5
1
330
0
100
AcDbSymbolTable
 70
     1
  0
BLOCK_RECORD
  5
1F
330
1
100
AcDbSymbolTableRecord
100
AcDbBlockTableRecord
  2
*MODEL_SPACE
  0
BLOCK_RECORD
  5
1B
330
1
100
AcDbSymbolTableRecord
100
AcDbBlockTableRecord
  2
*PAPER_SPACE
  0
ENDTAB
  0
ENDSEC
  0
SECTION
  2
BLOCKS
  0
BLOCK
  5
20
330
1F
100
AcDbEntity
  8
0
100
AcDbBlockBegin
  2
*MODEL_SPACE
 70
     0
 10
0.0
 20
0.0
 30
0.0
  3
*MODEL_SPACE
  1

  0
ENDBLK
  5
21
330
1F
100
AcDbEntity
  8
0
100
AcDbBlockEnd
  0
BLOCK
  5
1C
330
1B
100
AcDbEntity
 67
     1
  8
0
100
AcDbBlockBegin
  2
*PAPER_SPACE
  1

  0
ENDBLK
  5
1D
330
1B
100
AcDbEntity
 67
     1
  8
0
100
AcDbBlockEnd
  0
ENDSEC
  0
SECTION
  2
ENTITIES
  0
SPLINE
  5
100
100
AcDbEntity
  8
Image
 62
7
100
AcDbSpline
 70
8
 71
3
 72
8
 73
4
 74
0
 40
0
 40
0
 40
0
 40
0
 40
1
 40
1
 40
1
 40
1
 10
400.449585
 20
0.398170
 30
0.0
 10
395.658548
 20
1.486531
 30
0.0
 10
390.989695
 20
4.568576
 30
0.0
 10
388.191178
 20
8.490379
 30
0.0
  0
SPLINE
  5
101
100
AcDbEntity
  8
Image
 62
7
100
AcDbSpline
 70
8
 71
3
 72
8
 73
4
 74
0
 40
0
 40
0
 40
0
 40
0
 40
1
 40
1
 40
1
 40
1
 10
388.191178
 20
8.490379
 30
0.0
 10
386.620747
 20
10.691125
 30
0.0
 10
384.600394
 20
14.951065
 30
0.0
 10
384.957660
 20
15.308331
 30
0.0
  0
SPLINE
  5
102
100
AcDbEntity
  8
Image
 62
7
100
AcDbSpline
 70
8
 71
3
 72
8
 73
4
 74
0
 40
0
 40
0
 40
0
 40
0
 40
1
 40
1
 40
1
 40
1
 10
384.957660
 20
15.308331
 30
0.0
 10
385.052036
 20
15.402708
 30
0.0
 10
394.466523
 20
18.071050
 30
0.0
 10
405.878716
 20
21.237946
 30
0.0
  0
SPLINE
  5
103
100
AcDbEntity
  8
Image
 62
7
100
AcDbSpline
 70
8
 71
3
 72
8
 73
4
 74
0
 40
0
 40
0
 40
0
 40
0
 40
1
 40
1
 40
1
 40
1
 10
405.878716
 20
21.237946
 30
0.0
 10
417.290908
 20
24.404869
 30
0.0
 10
428.930006
 20
27.657357
 30
0.0
 10
431.743419
 20
28.465710
 30
0.0
  0
SPLINE
  5
104
100
AcDbEntity
  8
Image
 62
7
100
AcDbSpline
 70
8
 71
3
 72
8
 73
4
 74
0
 40
0
 40
0
 40
0
 40
0
 40
1
 40
1
 40
1
 40
1
 10
431.743419
 20
28.465710
 30
0.0
 10
434.556807
 20
29.274090
 30
0.0
 10
445.272405
 20
32.316526
 30
0.0
 10
455.555861
 20
35.226695
 30
0.0
  0
SPLINE
  5
105
100
AcDbEntity
  8
Image
 62
7
100
AcDbSpline
 70
8
 71
3
 72
8
 73
4
 74
0
 40
0
 40
0
 40
0
 40
0
 40
1
 40
1
 40
1
 40
1
 10
455.555861
 20
35.226695
 30
0.0
 10
465.839291
 20
38.136872
 30
0.0
 10
475.213535
 20
40.825273
 30
0.0
 10
476.387488
 20
41.200917
 30
0.0
  0
SPLINE
  5
106
100
AcDbEntity
  8
Image
 62
7
100
AcDbSpline
 70
8
 71
3
 72
8
 73
4
 74
0
 40
0
 40
0
 40
0
 40
0
 40
1
 40
1
 40
1
 40
1
 10
476.387488
 20
41.200917
 30
0.0
 10
477.561441
 20
41.576563
 30
0.0
 10
478.990796
 20
41.943246
 30
0.0
 10
479.563830
 20
42.015768
 30
0.0
  0
SPLINE
  5
107
100
AcDbEntity
  8
Image
 62
7
100
AcDbSpline
 70
8
 71
3
 72
8
 73
4
 74
0
 40
0
 40
0
 40
0
 40
0
 40
1
 40
1
 40
1
 40
1
 10
479.563830
 20
42.015768
 30
0.0
 10
480.136863
 20
42.088287
 30
0.0
 10
486.955079
 20
43.920866
 30
0.0
 10
494.715448
 20
46.088161
 30
0.0
  0
SPLINE
  5
108
100
AcDbEntity
  8
Image
 62
7
100
AcDbSpline
 70
8
 71
3
 72
8
 73
4
 74
0
 40
0
 40
0
 40
0
 40
0
 40
1
 40
1
 40
1
 40
1
 10
494.715448
 20
46.088161
 30
0.0
 10
528.254346
 20
55.454840
 30
0.0
 10
532.958997
 20
56.762252
 30
0.0
 10
542.162585
 20
59.273636
 30
0.0
  0
SPLINE
  5
109
100
AcDbEntity
  8
Image
 62
7
100
AcDbSpline
 70
8
 71
3
 72
8
 73
4
 74
0
 40
0
 40
0
 40
0
 40
0
 40
1
 40
1
 40
1
 40
1
 10
542.162585
 20
59.273636
 30
0.0
 10
547.498345
 20
60.729603
 30
0.0
 10
558.769567
 20
63.774365
 30
0.0
 10
567.209755
 20
66.039775
 30
0.0
  0
SPLINE
  5
10a
100
AcDbEntity
  8
Image
 62
7
100
AcDbSpline
 70
8
 71
3
 72
8
 73
4
 74
0
 40
0
 40
0
 40
0
 40
0
 40
1
 40
1
 40
1
 40
1
 10
567.209755
 20
66.039775
 30
0.0
 10
575.649943
 20
68.305185
 30
0.0
 10
586.524291
 20
71.243275
 30
0.0
 10
591.374965
 20
72.568864
 30
0.0
  0
SPLINE
  5
10b
100
AcDbEntity
  8
Image
 62
7
100
AcDbSpline
 70
8
 71
3
 72
8
 73
4
 74
0
 40
0
 40
0
 40
0
 40
0
 40
1
 40
1
 40
1
 40
1
 10
591.374965
 20
72.568864
 30
0.0
 10
596.225639
 20
73.894455
 30
0.0
 10
602.734373
 20
75.646762
 30
0.0
 10
605.838827
 20
76.462878
 30
0.0
  0
SPLINE
  5
10c
100
AcDbEntity
  8
Image
 62
7
100
AcDbSpline
 70
8
 71
3
 72
8
 73
4
 74
0
 40
0
 40
0
 40
0
 40
0
 40
1
 40
1
 40
1
 40
1
 10
605.838827
 20
76.462878
 30
0.0
 10
608.943255
 20
77.278996
 30
0.0
 10
611.521243
 20
77.976508
 30
0.0
 10
611.567677
 20
78.012906
 30
0.0
  0
SPLINE
  5
10d
100
AcDbEntity
  8
Image
 62
7
100
AcDbSpline
 70
8
 71
3
 72
8
 73
4
 74
0
 40
0
 40
0
 40
0
 40
0
 40
1
 40
1
 40
1
 40
1
 10
611.567677
 20
78.012906
 30
0.0
 10
611.710261
 20
78.124687
 30
0.0
 10
612.711812
 20
125.948074
 30
0.0
 10
612.714987
 20
132.796450
 30
0.0
  0
LINE
  5
10e
100
AcDbEntity
  8
Image
 62
7
100
AcDbLine
 10
612.714987
 20
132.796450
 30
0.0
 11
612.717898
 21
139.234628
 31
0.0
  0
LINE
  5
10f
100
AcDbEntity
  8
Image
 62
7
100
AcDbLine
 10
612.717898
 20
139.234628
 30
0.0
 11
629.782476
 21
139.234628
 31
0.0
  0
LINE
  5
110
100
AcDbEntity
  8
Image
 62
7
100
AcDbLine
 10
629.782476
 20
139.234628
 30
0.0
 11
646.847080
 21
139.234628
 31
0.0
  0
LINE
  5
111
100
AcDbEntity
  8
Image
 62
7
100
AcDbLine
 10
646.847080
 20
139.234628
 30
0.0
 11
647.098513
 21
140.733931
 31
0.0
  0
SPLINE
  5
112
100
AcDbEntity
  8
Image
 62
7
100
AcDbSpline
 70
8
 71
3
 72
8
 73
4
 74
0
 40
0
 40
0
 40
0
 40
0
 40
1
 40
1
 40
1
 40
1
 10
647.098513
 20
140.733931
 30
0.0
 10
647.346427
 20
142.212226
 30
0.0
 10
647.570978
 20
146.029619
 30
0.0
 10
648.348798
 20
161.988739
 30
0.0
  0
SPLINE
  5
113
100
AcDbEntity
  8
Image
 62
7
100
AcDbSpline
 70
8
 71
3
 72
8
 73
4
 74
0
 40
0
 40
0
 40
0
 40
0
 40
1
 40
1
 40
1
 40
1
 10
648.348798
 20
161.988739
 30
0.0
 10
648.793244
 20
171.107838
 30
0.0
 10
649.231288
 20
173.270637
 30
0.0
 10
650.750759
 20
173.848335
 30
0.0
  0
SPLINE
  5
114
100
AcDbEntity
  8
Image
 62
7
100
AcDbSpline
 70
8
 71
3
 72
8
 73
4
 74
0
 40
0
 40
0
 40
0
 40
0
 40
1
 40
1
 40
1
 40
1
 10
650.750759
 20
173.848335
 30
0.0
 10
652.598129
 20
174.550704
 30
0.0
 10
658.243291
 20
174.635032
 30
0.0
 10
660.674383
 20
173.996576
 30
0.0
  0
SPLINE
  5
115
100
AcDbEntity
  8
Image
 62
7
100
AcDbSpline
 70
8
 71
3
 72
8
 73
4
 74
0
 40
0
 40
0
 40
0
 40
0
 40
1
 40
1
 40
1
 40
1
 10
660.674383
 20
173.996576
 30
0.0
 10
665.114636
 20
172.830475
 30
0.0
 10
666.513194
 20
171.678400
 30
0.0
 10
668.522064
 20
167.531918
 30
0.0
  0
SPLINE
  5
116
100
AcDbEntity
  8
Image
 62
7
100
AcDbSpline
 70
8
 71
3
 72
8
 73
4
 74
0
 40
0
 40
0
 40
0
 40
0
 40
1
 40
1
 40
1
 40
1
 10
668.522064
 20
167.531918
 30
0.0
 10
669.578278
 20
165.351828
 30
0.0
 10
669.680275
 20
164.832945
 30
0.0
 10
669.806322
 20
160.999105
 30
0.0
  0
SPLINE
  5
117
100
AcDbEntity
  8
Image
 62
7
100
AcDbSpline
 70
8
 71
3
 72
8
 73
4
 74
0
 40
0
 40
0
 40
0
 40
0
 40
1
 40
1
 40
1
 40
1
 10
669.806322
 20
160.999105
 30
0.0
 10
669.881622
 20
158.708559
 30
0.0
 10
669.762243
 20
155.596850
 30
0.0
 10
669.541078
 20
154.084196
 30
0.0
  0
SPLINE
  5
118
100
AcDbEntity
  8
Image
 62
7
100
AcDbSpline
 70
8
 71
3
 72
8
 73
4
 74
0
 40
0
 40
0
 40
0
 40
0
 40
1
 40
1
 40
1
 40
1
 10
669.541078
 20
154.084196
 30
0.0
 10
669.319887
 20
152.571543
 30
0.0
 10
668.990614
 20
148.413139
 30
0.0
 10
668.809374
 20
144.843302
 30
0.0
  0
SPLINE
  5
119
100
AcDbEntity
  8
Image
 62
7
100
AcDbSpline
 70
8
 71
3
 72
8
 73
4
 74
0
 40
0
 40
0
 40
0
 40
0
 40
1
 40
1
 40
1
 40
1
 10
668.809374
 20
144.843302
 30
0.0
 10
668.427476
 20
137.321896
 30
0.0
 10
668.071956
 20
135.110726
 30
0.0
 10
666.659746
 20
131.473537
 30
0.0
  0
SPLINE
  5
11a
100
AcDbEntity
  8
Image
 62
7
100
AcDbSpline
 70
8
 71
3
 72
8
 73
4
 74
0
 40
0
 40
0
 40
0
 40
0
 40
1
 40
1
 40
1
 40
1
 10
666.659746
 20
131.473537
 30
0.0
 10
664.111735
 20
124.911050
 30
0.0
 10
658.380901
 20
120.024655
 30
0.0
 10
651.523341
 20
118.567511
 30
0.0
  0
SPLINE
  5
11b
100
AcDbEntity
  8
Image
 62
7
100
AcDbSpline
 70
8
 71
3
 72
8
 73
4
 74
0
 40
0
 40
0
 40
0
 40
0
 40
1
 40
1
 40
1
 40
1
 10
651.523341
 20
118.567511
 30
0.0
 10
649.980400
 20
118.239653
 30
0.0
 10
646.720371
 20
118.078263
 30
0.0
 10
641.557411
 20
118.074141
 30
0.0
  0
SPLINE
  5
11c
100
AcDbEntity
  8
Image
 62
7
100
AcDbSpline
 70
8
 71
3
 72
8
 73
4
 74
0
 40
0
 40
0
 40
0
 40
0
 40
1
 40
1
 40
1
 40
1
 10
641.557411
 20
118.074141
 30
0.0
 10
637.337317
 20
118.070781
 30
0.0
 10
633.874273
 20
118.028328
 30
0.0
 10
633.861759
 20
117.979822
 30
0.0
  0
SPLINE
  5
11d
100
AcDbEntity
  8
Image
 62
7
100
AcDbSpline
 70
8
 71
3
 72
8
 73
4
 74
0
 40
0
 40
0
 40
0
 40
0
 40
1
 40
1
 40
1
 40
1
 10
633.861759
 20
117.979822
 30
0.0
 10
633.849323
 20
117.931314
 30
0.0
 10
633.616332
 20
108.366650
 30
0.0
 10
633.344182
 20
96.725014
 30
0.0
  0
SPLINE
  5
11e
100
AcDbEntity
  8
Image
 62
7
100
AcDbSpline
 70
8
 71
3
 72
8
 73
4
 74
0
 40
0
 40
0
 40
0
 40
0
 40
1
 40
1
 40
1
 40
1
 10
633.344182
 20
96.725014
 30
0.0
 10
632.982365
 20
81.247491
 30
0.0
 10
632.713655
 20
74.942083
 30
0.0
 10
632.344403
 20
73.265351
 30
0.0
  0
SPLINE
  5
11f
100
AcDbEntity
  8
Image
 62
7
100
AcDbSpline
 70
8
 71
3
 72
8
 73
4
 74
0
 40
0
 40
0
 40
0
 40
0
 40
1
 40
1
 40
1
 40
1
 10
632.344403
 20
73.265351
 30
0.0
 10
630.821386
 20
66.349366
 30
0.0
 10
625.965368
 20
60.663624
 30
0.0
 10
619.420650
 20
58.133322
 30
0.0
  0
SPLINE
  5
120
100
AcDbEntity
  8
Image
 62
7
100
AcDbSpline
 70
8
 71
3
 72
8
 73
4
 74
0
 40
0
 40
0
 40
0
 40
0
 40
1
 40
1
 40
1
 40
1
 10
619.420650
 20
58.133322
 30
0.0
 10
617.965446
 20
57.570716
 30
0.0
 10
614.234830
 20
56.442176
 30
0.0
 10
611.130402
 20
55.625454
 30
0.0
  0
SPLINE
  5
121
100
AcDbEntity
  8
Image
 62
7
100
AcDbSpline
 70
8
 71
3
 72
8
 73
4
 74
0
 40
0
 40
0
 40
0
 40
0
 40
1
 40
1
 40
1
 40
1
 10
611.130402
 20
55.625454
 30
0.0
 10
608.025947
 20
54.808732
 30
0.0
 10
601.596588
 20
53.057787
 30
0.0
 10
596.842937
 20
51.734469
 30
0.0
  0
SPLINE
  5
122
100
AcDbEntity
  8
Image
 62
7
100
AcDbSpline
 70
8
 71
3
 72
8
 73
4
 74
0
 40
0
 40
0
 40
0
 40
0
 40
1
 40
1
 40
1
 40
1
 10
596.842937
 20
51.734469
 30
0.0
 10
587.742033
 20
49.200976
 30
0.0
 10
583.493973
 20
48.218192
 30
0.0
 10
581.643931
 20
48.218192
 30
0.0
  0
SPLINE
  5
123
100
AcDbEntity
  8
Image
 62
7
100
AcDbSpline
 70
8
 71
3
 72
8
 73
4
 74
0
 40
0
 40
0
 40
0
 40
0
 40
1
 40
1
 40
1
 40
1
 10
581.643931
 20
48.218192
 30
0.0
 10
581.029226
 20
48.218192
 30
0.0
 10
579.157224
 20
47.676337
 30
0.0
 10
577.483924
 20
47.014071
 30
0.0
  0
SPLINE
  5
124
100
AcDbEntity
  8
Image
 62
7
100
AcDbSpline
 70
8
 71
3
 72
8
 73
4
 74
0
 40
0
 40
0
 40
0
 40
0
 40
1
 40
1
 40
1
 40
1
 10
577.483924
 20
47.014071
 30
0.0
 10
575.810650
 20
46.351807
 30
0.0
 10
571.901600
 20
45.144797
 30
0.0
 10
568.797172
 20
44.331827
 30
0.0
  0
SPLINE
  5
125
100
AcDbEntity
  8
Image
 62
7
100
AcDbSpline
 70
8
 71
3
 72
8
 73
4
 74
0
 40
0
 40
0
 40
0
 40
0
 40
1
 40
1
 40
1
 40
1
 10
568.797172
 20
44.331827
 30
0.0
 10
565.692717
 20
43.518857
 30
0.0
 10
558.072736
 20
41.425796
 30
0.0
 10
551.863880
 20
39.680582
 30
0.0
  0
SPLINE
  5
126
100
AcDbEntity
  8
Image
 62
7
100
AcDbSpline
 70
8
 71
3
 72
8
 73
4
 74
0
 40
0
 40
0
 40
0
 40
0
 40
1
 40
1
 40
1
 40
1
 10
551.863880
 20
39.680582
 30
0.0
 10
539.581634
 20
36.228246
 30
0.0
 10
536.701334
 20
35.533680
 30
0.0
 10
534.628249
 20
35.524348
 30
0.0
  0
SPLINE
  5
127
100
AcDbEntity
  8
Image
 62
7
100
AcDbSpline
 70
8
 71
3
 72
8
 73
4
 74
0
 40
0
 40
0
 40
0
 40
0
 40
1
 40
1
 40
1
 40
1
 10
534.628249
 20
35.524348
 30
0.0
 10
533.858525
 20
35.520882
 30
0.0
 10
532.313759
 20
35.063014
 30
0.0
 10
531.071438
 20
34.470110
 30
0.0
  0
SPLINE
  5
128
100
AcDbEntity
  8
Image
 62
7
100
AcDbSpline
 70
8
 71
3
 72
8
 73
4
 74
0
 40
0
 40
0
 40
0
 40
0
 40
1
 40
1
 40
1
 40
1
 10
531.071438
 20
34.470110
 30
0.0
 10
529.845467
 20
33.885004
 30
0.0
 10
519.304017
 20
30.744429
 30
0.0
 10
507.208566
 20
27.360734
 30
0.0
  0
SPLINE
  5
129
100
AcDbEntity
  8
Image
 62
7
100
AcDbSpline
 70
8
 71
3
 72
8
 73
4
 74
0
 40
0
 40
0
 40
0
 40
0
 40
1
 40
1
 40
1
 40
1
 10
507.208566
 20
27.360734
 30
0.0
 10
486.750954
 20
21.637757
 30
0.0
 10
485.335092
 20
21.290837
 30
0.0
 10
481.837653
 20
21.144364
 30
0.0
  0
SPLINE
  5
12a
100
AcDbEntity
  8
Image
 62
7
100
AcDbSpline
 70
8
 71
3
 72
8
 73
4
 74
0
 40
0
 40
0
 40
0
 40
0
 40
1
 40
1
 40
1
 40
1
 10
481.837653
 20
21.144364
 30
0.0
 10
477.310405
 20
20.954737
 30
0.0
 10
473.906470
 20
21.600372
 30
0.0
 10
470.515578
 20
23.291875
 30
0.0
  0
LINE
  5
12b
100
AcDbEntity
  8
Image
 62
7
100
AcDbLine
 10
470.515578
 20
23.291875
 30
0.0
 11
468.120655
 21
24.486572
 31
0.0
  0
LINE
  5
12c
100
AcDbEntity
  8
Image
 62
7
100
AcDbLine
 10
468.120655
 20
24.486572
 30
0.0
 11
466.892912
 21
22.505880
 31
0.0
  0
SPLINE
  5
12d
100
AcDbEntity
  8
Image
 62
7
100
AcDbSpline
 70
8
 71
3
 72
8
 73
4
 74
0
 40
0
 40
0
 40
0
 40
0
 40
1
 40
1
 40
1
 40
1
 10
466.892912
 20
22.505880
 30
0.0
 10
464.301166
 20
18.324653
 30
0.0
 10
460.667784
 20
15.158207
 30
0.0
 10
456.546247
 20
13.488928
 30
0.0
  0
SPLINE
  5
12e
100
AcDbEntity
  8
Image
 62
7
100
AcDbSpline
 70
8
 71
3
 72
8
 73
4
 74
0
 40
0
 40
0
 40
0
 40
0
 40
1
 40
1
 40
1
 40
1
 10
456.546247
 20
13.488928
 30
0.0
 10
455.419416
 20
13.032523
 30
0.0
 10
444.416851
 20
9.841629
 30
0.0
 10
432.096108
 20
6.398033
 30
0.0
  0
SPLINE
  5
12f
100
AcDbEntity
  8
Image
 62
7
100
AcDbSpline
 70
8
 71
3
 72
8
 73
4
 74
0
 40
0
 40
0
 40
0
 40
0
 40
1
 40
1
 40
1
 40
1
 10
432.096108
 20
6.398033
 30
0.0
 10
410.982727
 20
0.496939
 30
0.0
 10
409.491936
 20
0.130175
 30
0.0
 10
406.167005
 20
0.018865
 30
0.0
  0
SPLINE
  5
130
100
AcDbEntity
  8
Image
 62
7
100
AcDbSpline
 70
8
 71
3
 72
8
 73
4
 74
0
 40
0
 40
0
 40
0
 40
0
 40
1
 40
1
 40
1
 40
1
 10
406.167005
 20
0.018865
 30
0.0
 10
403.975678
 20
-0.054504
 30
0.0
 10
401.809698
 20
0.089191
 30
0.0
 10
400.449505
 20
0.398170
 30
0.0
  0
LINE
  5
131
100
AcDbEntity
  8
Image
 62
7
100
AcDbLine
 10
400.449505
 20
0.398170
 30
0.0
 11
400.449585
 21
0.398170
 31
0.0
  0
SPLINE
  5
132
100
AcDbEntity
  8
Image
 62
7
100
AcDbSpline
 70
8
 71
3
 72
8
 73
4
 74
0
 40
0
 40
0
 40
0
 40
0
 40
1
 40
1
 40
1
 40
1
 10
180.037080
 20
24.064854
 30
0.0
 10
170.900535
 20
25.538659
 30
0.0
 10
162.758095
 20
28.890313
 30
0.0
 10
155.074527
 20
34.340110
 30
0.0
  0
SPLINE
  5
133
100
AcDbEntity
  8
Image
 62
7
100
AcDbSpline
 70
8
 71
3
 72
8
 73
4
 74
0
 40
0
 40
0
 40
0
 40
0
 40
1
 40
1
 40
1
 40
1
 10
155.074527
 20
34.340110
 30
0.0
 10
151.121246
 20
37.144097
 30
0.0
 10
143.507967
 20
44.817508
 30
0.0
 10
140.605174
 20
48.923744
 30
0.0
  0
SPLINE
  5
134
100
AcDbEntity
  8
Image
 62
7
100
AcDbSpline
 70
8
 71
3
 72
8
 73
4
 74
0
 40
0
 40
0
 40
0
 40
0
 40
1
 40
1
 40
1
 40
1
 10
140.605174
 20
48.923744
 30
0.0
 10
138.417631
 20
52.018205
 30
0.0
 10
134.352472
 20
59.326318
 30
0.0
 10
134.352472
 20
60.164500
 30
0.0
  0
SPLINE
  5
135
100
AcDbEntity
  8
Image
 62
7
100
AcDbSpline
 70
8
 71
3
 72
8
 73
4
 74
0
 40
0
 40
0
 40
0
 40
0
 40
1
 40
1
 40
1
 40
1
 10
134.352472
 20
60.164500
 30
0.0
 10
134.352472
 20
60.363241
 30
0.0
 10
136.297154
 20
59.513536
 30
0.0
 10
138.673988
 20
58.276266
 30
0.0
  0
SPLINE
  5
136
100
AcDbEntity
  8
Image
 62
7
100
AcDbSpline
 70
8
 71
3
 72
8
 73
4
 74
0
 40
0
 40
0
 40
0
 40
0
 40
1
 40
1
 40
1
 40
1
 10
138.673988
 20
58.276266
 30
0.0
 10
148.869311
 20
52.969052
 30
0.0
 10
161.041980
 20
49.142059
 30
0.0
 10
170.159328
 20
48.377521
 30
0.0
  0
SPLINE
  5
137
100
AcDbEntity
  8
Image
 62
7
100
AcDbSpline
 70
8
 71
3
 72
8
 73
4
 74
0
 40
0
 40
0
 40
0
 40
0
 40
1
 40
1
 40
1
 40
1
 10
170.159328
 20
48.377521
 30
0.0
 10
171.862756
 20
48.234678
 30
0.0
 10
174.380027
 20
47.671866
 30
0.0
 10
176.509312
 20
46.957786
 30
0.0
  0
SPLINE
  5
138
100
AcDbEntity
  8
Image
 62
7
100
AcDbSpline
 70
8
 71
3
 72
8
 73
4
 74
0
 40
0
 40
0
 40
0
 40
0
 40
1
 40
1
 40
1
 40
1
 10
176.509312
 20
46.957786
 30
0.0
 10
182.093298
 20
45.085139
 30
0.0
 10
185.813426
 20
44.573809
 30
0.0
 10
192.207884
 20
44.800019
 30
0.0
  0
SPLINE
  5
139
100
AcDbEntity
  8
Image
 62
7
100
AcDbSpline
 70
8
 71
3
 72
8
 73
4
 74
0
 40
0
 40
0
 40
0
 40
0
 40
1
 40
1
 40
1
 40
1
 10
192.207884
 20
44.800019
 30
0.0
 10
196.682443
 20
44.958311
 30
0.0
 10
198.421114
 20
45.183854
 30
0.0
 10
201.777356
 20
46.041388
 30
0.0
  0
SPLINE
  5
13a
100
AcDbEntity
  8
Image
 62
7
100
AcDbSpline
 70
8
 71
3
 72
8
 73
4
 74
0
 40
0
 40
0
 40
0
 40
0
 40
1
 40
1
 40
1
 40
1
 10
201.777356
 20
46.041388
 30
0.0
 10
208.670917
 20
47.802720
 30
0.0
 10
217.054098
 20
51.515720
 30
0.0
 10
221.107195
 20
54.602778
 30
0.0
  0
SPLINE
  5
13b
100
AcDbEntity
  8
Image
 62
7
100
AcDbSpline
 70
8
 71
3
 72
8
 73
4
 74
0
 40
0
 40
0
 40
0
 40
0
 40
1
 40
1
 40
1
 40
1
 10
221.107195
 20
54.602778
 30
0.0
 10
222.441687
 20
55.619199
 30
0.0
 10
225.105143
 20
56.886720
 30
0.0
 10
229.926617
 20
58.799880
 30
0.0
  0
SPLINE
  5
13c
100
AcDbEntity
  8
Image
 62
7
100
AcDbSpline
 70
8
 71
3
 72
8
 73
4
 74
0
 40
0
 40
0
 40
0
 40
0
 40
1
 40
1
 40
1
 40
1
 10
229.926617
 20
58.799880
 30
0.0
 10
233.725768
 20
60.307385
 30
0.0
 10
240.167907
 20
62.970089
 30
0.0
 10
244.242480
 20
64.717005
 30
0.0
  0
SPLINE
  5
13d
100
AcDbEntity
  8
Image
 62
7
100
AcDbSpline
 70
8
 71
3
 72
8
 73
4
 74
0
 40
0
 40
0
 40
0
 40
0
 40
1
 40
1
 40
1
 40
1
 10
244.242480
 20
64.717005
 30
0.0
 10
249.252358
 20
66.864919
 30
0.0
 10
252.450274
 20
68.025407
 30
0.0
 10
254.120233
 20
68.301539
 30
0.0
  0
SPLINE
  5
13e
100
AcDbEntity
  8
Image
 62
7
100
AcDbSpline
 70
8
 71
3
 72
8
 73
4
 74
0
 40
0
 40
0
 40
0
 40
0
 40
1
 40
1
 40
1
 40
1
 10
254.120233
 20
68.301539
 30
0.0
 10
255.478426
 20
68.526117
 30
0.0
 10
256.867485
 20
68.793049
 30
0.0
 10
257.207032
 20
68.894718
 30
0.0
  0
SPLINE
  5
13f
100
AcDbEntity
  8
Image
 62
7
100
AcDbSpline
 70
8
 71
3
 72
8
 73
4
 74
0
 40
0
 40
0
 40
0
 40
0
 40
1
 40
1
 40
1
 40
1
 10
257.207032
 20
68.894718
 30
0.0
 10
257.655523
 20
69.029009
 30
0.0
 10
257.824390
 20
68.880086
 30
0.0
 10
257.824390
 20
68.350246
 30
0.0
  0
SPLINE
  5
140
100
AcDbEntity
  8
Image
 62
7
100
AcDbSpline
 70
8
 71
3
 72
8
 73
4
 74
0
 40
0
 40
0
 40
0
 40
0
 40
1
 40
1
 40
1
 40
1
 10
257.824390
 20
68.350246
 30
0.0
 10
257.824390
 20
67.457073
 30
0.0
 10
257.909210
 20
67.455570
 30
0.0
 10
260.697642
 20
68.299369
 30
0.0
  0
SPLINE
  5
141
100
AcDbEntity
  8
Image
 62
7
100
AcDbSpline
 70
8
 71
3
 72
8
 73
4
 74
0
 40
0
 40
0
 40
0
 40
0
 40
1
 40
1
 40
1
 40
1
 10
260.697642
 20
68.299369
 30
0.0
 10
263.200523
 20
69.056756
 30
0.0
 10
274.390486
 20
72.122843
 30
0.0
 10
282.077804
 20
74.157603
 30
0.0
  0
SPLINE
  5
142
100
AcDbEntity
  8
Image
 62
7
100
AcDbSpline
 70
8
 71
3
 72
8
 73
4
 74
0
 40
0
 40
0
 40
0
 40
0
 40
1
 40
1
 40
1
 40
1
 10
282.077804
 20
74.157603
 30
0.0
 10
284.842693
 20
74.889442
 30
0.0
 10
287.109161
 20
75.504012
 30
0.0
 10
287.114400
 20
75.523310
 30
0.0
  0
SPLINE
  5
143
100
AcDbEntity
  8
Image
 62
7
100
AcDbSpline
 70
8
 71
3
 72
8
 73
4
 74
0
 40
0
 40
0
 40
0
 40
0
 40
1
 40
1
 40
1
 40
1
 10
287.114400
 20
75.523310
 30
0.0
 10
287.221530
 20
75.917353
 30
0.0
 10
288.148045
 20
123.645009
 30
0.0
 10
288.154342
 20
129.092293
 30
0.0
  0
LINE
  5
144
100
AcDbEntity
  8
Image
 62
7
100
AcDbLine
 10
288.154342
 20
129.092293
 30
0.0
 11
288.163338
 21
136.765191
 31
0.0
  0
LINE
  5
145
100
AcDbEntity
  8
Image
 62
7
100
AcDbLine
 10
288.163338
 20
136.765191
 30
0.0
 11
295.031455
 21
136.765191
 31
0.0
  0
LINE
  5
146
100
AcDbEntity
  8
Image
 62
7
100
AcDbLine
 10
295.031455
 20
136.765191
 30
0.0
 11
301.899545
 21
136.765191
 31
0.0
  0
LINE
  5
147
100
AcDbEntity
  8
Image
 62
7
100
AcDbLine
 10
301.899545
 20
136.765191
 30
0.0
 11
301.998790
 21
116.568713
 31
0.0
  0
LINE
  5
148
100
AcDbEntity
  8
Image
 62
7
100
AcDbLine
 10
301.998790
 20
116.568713
 30
0.0
 11
302.098035
 21
96.372235
 31
0.0
  0
LINE
  5
149
100
AcDbEntity
  8
Image
 62
7
100
AcDbLine
 10
302.098035
 20
96.372235
 30
0.0
 11
303.104693
 21
94.322119
 31
0.0
  0
SPLINE
  5
14a
100
AcDbEntity
  8
Image
 62
7
100
AcDbSpline
 70
8
 71
3
 72
8
 73
4
 74
0
 40
0
 40
0
 40
0
 40
0
 40
1
 40
1
 40
1
 40
1
 10
303.104693
 20
94.322119
 30
0.0
 10
306.094742
 20
88.232852
 30
0.0
 10
314.007484
 20
84.647153
 30
0.0
 10
320.530902
 20
86.425358
 30
0.0
  0
SPLINE
  5
14b
100
AcDbEntity
  8
Image
 62
7
100
AcDbSpline
 70
8
 71
3
 72
8
 73
4
 74
0
 40
0
 40
0
 40
0
 40
0
 40
1
 40
1
 40
1
 40
1
 10
320.530902
 20
86.425358
 30
0.0
 10
321.646410
 20
86.729432
 30
0.0
 10
325.257831
 20
87.472065
 30
0.0
 10
328.556304
 20
88.075658
 30
0.0
  0
SPLINE
  5
14c
100
AcDbEntity
  8
Image
 62
7
100
AcDbSpline
 70
8
 71
3
 72
8
 73
4
 74
0
 40
0
 40
0
 40
0
 40
0
 40
1
 40
1
 40
1
 40
1
 10
328.556304
 20
88.075658
 30
0.0
 10
331.854750
 20
88.679250
 30
0.0
 10
337.569736
 20
90.025669
 30
0.0
 10
341.256273
 20
91.067699
 30
0.0
  0
SPLINE
  5
14d
100
AcDbEntity
  8
Image
 62
7
100
AcDbSpline
 70
8
 71
3
 72
8
 73
4
 74
0
 40
0
 40
0
 40
0
 40
0
 40
1
 40
1
 40
1
 40
1
 10
341.256273
 20
91.067699
 30
0.0
 10
348.773226
 20
93.192444
 30
0.0
 10
352.505297
 20
94.205647
 30
0.0
 10
364.118519
 20
97.274462
 30
0.0
  0
SPLINE
  5
14e
100
AcDbEntity
  8
Image
 62
7
100
AcDbSpline
 70
8
 71
3
 72
8
 73
4
 74
0
 40
0
 40
0
 40
0
 40
0
 40
1
 40
1
 40
1
 40
1
 10
364.118519
 20
97.274462
 30
0.0
 10
368.543611
 20
98.443804
 30
0.0
 10
373.941098
 20
99.927573
 30
0.0
 10
376.112952
 20
100.571726
 30
0.0
  0
SPLINE
  5
14f
100
AcDbEntity
  8
Image
 62
7
100
AcDbSpline
 70
8
 71
3
 72
8
 73
4
 74
0
 40
0
 40
0
 40
0
 40
0
 40
1
 40
1
 40
1
 40
1
 10
376.112952
 20
100.571726
 30
0.0
 10
389.669137
 20
104.592425
 30
0.0
 10
393.738630
 20
105.743418
 30
0.0
 10
393.884071
 20
105.597993
 30
0.0
  0
SPLINE
  5
150
100
AcDbEntity
  8
Image
 62
7
100
AcDbSpline
 70
8
 71
3
 72
8
 73
4
 74
0
 40
0
 40
0
 40
0
 40
0
 40
1
 40
1
 40
1
 40
1
 10
393.884071
 20
105.597993
 30
0.0
 10
393.974188
 20
105.507858
 30
0.0
 10
392.119754
 20
100.489632
 30
0.0
 10
389.763063
 20
94.446380
 30
0.0
  0
SPLINE
  5
151
100
AcDbEntity
  8
Image
 62
7
100
AcDbSpline
 70
8
 71
3
 72
8
 73
4
 74
0
 40
0
 40
0
 40
0
 40
0
 40
1
 40
1
 40
1
 40
1
 10
389.763063
 20
94.446380
 30
0.0
 10
384.625132
 20
81.271065
 30
0.0
 10
384.565337
 20
81.126121
 30
0.0
 10
384.168859
 20
80.881070
 30
0.0
  0
SPLINE
  5
152
100
AcDbEntity
  8
Image
 62
7
100
AcDbSpline
 70
8
 71
3
 72
8
 73
4
 74
0
 40
0
 40
0
 40
0
 40
0
 40
1
 40
1
 40
1
 40
1
 10
384.168859
 20
80.881070
 30
0.0
 10
383.996537
 20
80.774581
 30
0.0
 10
381.573197
 20
80.055096
 30
0.0
 10
378.783649
 20
79.282213
 30
0.0
  0
SPLINE
  5
153
100
AcDbEntity
  8
Image
 62
7
100
AcDbSpline
 70
8
 71
3
 72
8
 73
4
 74
0
 40
0
 40
0
 40
0
 40
0
 40
1
 40
1
 40
1
 40
1
 10
378.783649
 20
79.282213
 30
0.0
 10
375.994101
 20
78.509330
 30
0.0
 10
372.362360
 20
77.467128
 30
0.0
 10
370.713137
 20
76.966209
 30
0.0
  0
SPLINE
  5
154
100
AcDbEntity
  8
Image
 62
7
100
AcDbSpline
 70
8
 71
3
 72
8
 73
4
 74
0
 40
0
 40
0
 40
0
 40
0
 40
1
 40
1
 40
1
 40
1
 10
370.713137
 20
76.966209
 30
0.0
 10
369.063913
 20
76.465291
 30
0.0
 10
365.015798
 20
75.352228
 30
0.0
 10
361.717325
 20
74.492737
 30
0.0
  0
SPLINE
  5
155
100
AcDbEntity
  8
Image
 62
7
100
AcDbSpline
 70
8
 71
3
 72
8
 73
4
 74
0
 40
0
 40
0
 40
0
 40
0
 40
1
 40
1
 40
1
 40
1
 10
361.717325
 20
74.492737
 30
0.0
 10
358.418852
 20
73.633243
 30
0.0
 10
351.529675
 20
71.738243
 30
0.0
 10
346.408042
 20
70.281623
 30
0.0
  0
SPLINE
  5
156
100
AcDbEntity
  8
Image
 62
7
100
AcDbSpline
 70
8
 71
3
 72
8
 73
4
 74
0
 40
0
 40
0
 40
0
 40
0
 40
1
 40
1
 40
1
 40
1
 10
346.408042
 20
70.281623
 30
0.0
 10
335.394734
 20
67.149379
 30
0.0
 10
333.948711
 20
66.857952
 30
0.0
 10
329.085469
 20
66.790417
 30
0.0
  0
SPLINE
  5
157
100
AcDbEntity
  8
Image
 62
7
100
AcDbSpline
 70
8
 71
3
 72
8
 73
4
 74
0
 40
0
 40
0
 40
0
 40
0
 40
1
 40
1
 40
1
 40
1
 10
329.085469
 20
66.790417
 30
0.0
 10
326.014537
 20
66.747772
 30
0.0
 10
324.928981
 20
66.886887
 30
0.0
 10
322.735485
 20
67.604186
 30
0.0
  0
SPLINE
  5
158
100
AcDbEntity
  8
Image
 62
7
100
AcDbSpline
 70
8
 71
3
 72
8
 73
4
 74
0
 40
0
 40
0
 40
0
 40
0
 40
1
 40
1
 40
1
 40
1
 10
322.735485
 20
67.604186
 30
0.0
 10
316.306496
 20
69.706523
 30
0.0
 10
310.812225
 20
75.386436
 30
0.0
 10
309.174802
 20
81.623100
 30
0.0
  0
SPLINE
  5
159
100
AcDbEntity
  8
Image
 62
7
100
AcDbSpline
 70
8
 71
3
 72
8
 73
4
 74
0
 40
0
 40
0
 40
0
 40
0
 40
1
 40
1
 40
1
 40
1
 10
309.174802
 20
81.623100
 30
0.0
 10
308.734166
 20
83.301404
 30
0.0
 10
308.726916
 20
83.270593
 30
0.0
 10
308.494824
 20
78.733391
 30
0.0
  0
SPLINE
  5
15a
100
AcDbEntity
  8
Image
 62
7
100
AcDbSpline
 70
8
 71
3
 72
8
 73
4
 74
0
 40
0
 40
0
 40
0
 40
0
 40
1
 40
1
 40
1
 40
1
 10
308.494824
 20
78.733391
 30
0.0
 10
308.365814
 20
76.211037
 30
0.0
 10
308.100649
 20
73.064181
 30
0.0
 10
307.905572
 20
71.740381
 30
0.0
  0
SPLINE
  5
15b
100
AcDbEntity
  8
Image
 62
7
100
AcDbSpline
 70
8
 71
3
 72
8
 73
4
 74
0
 40
0
 40
0
 40
0
 40
0
 40
1
 40
1
 40
1
 40
1
 10
307.905572
 20
71.740381
 30
0.0
 10
306.941750
 20
65.199482
 30
0.0
 10
302.535629
 20
59.275372
 30
0.0
 10
296.453587
 20
56.343018
 30
0.0
  0
SPLINE
  5
15c
100
AcDbEntity
  8
Image
 62
7
100
AcDbSpline
 70
8
 71
3
 72
8
 73
4
 74
0
 40
0
 40
0
 40
0
 40
0
 40
1
 40
1
 40
1
 40
1
 10
296.453587
 20
56.343018
 30
0.0
 10
294.499829
 20
55.401038
 30
0.0
 10
289.403622
 20
53.883127
 30
0.0
 10
280.578626
 20
51.614650
 30
0.0
  0
SPLINE
  5
15d
100
AcDbEntity
  8
Image
 62
7
100
AcDbSpline
 70
8
 71
3
 72
8
 73
4
 74
0
 40
0
 40
0
 40
0
 40
0
 40
1
 40
1
 40
1
 40
1
 10
280.578626
 20
51.614650
 30
0.0
 10
278.638362
 20
51.115899
 30
0.0
 10
273.955248
 20
49.820536
 30
0.0
 10
270.171716
 20
48.736065
 30
0.0
  0
SPLINE
  5
15e
100
AcDbEntity
  8
Image
 62
7
100
AcDbSpline
 70
8
 71
3
 72
8
 73
4
 74
0
 40
0
 40
0
 40
0
 40
0
 40
1
 40
1
 40
1
 40
1
 10
270.171716
 20
48.736065
 30
0.0
 10
260.167373
 20
45.868531
 30
0.0
 10
255.155349
 20
45.738539
 30
0.0
 10
249.302648
 20
48.194797
 30
0.0
  0
LINE
  5
15f
100
AcDbEntity
  8
Image
 62
7
100
AcDbLine
 10
249.302648
 20
48.194797
 30
0.0
 11
246.954365
 21
49.180326
 31
0.0
  0
LINE
  5
160
100
AcDbEntity
  8
Image
 62
7
100
AcDbLine
 10
246.954365
 20
49.180326
 30
0.0
 11
243.834605
 21
46.024807
 31
0.0
  0
SPLINE
  5
161
100
AcDbEntity
  8
Image
 62
7
100
AcDbSpline
 70
8
 71
3
 72
8
 73
4
 74
0
 40
0
 40
0
 40
0
 40
0
 40
1
 40
1
 40
1
 40
1
 10
243.834605
 20
46.024807
 30
0.0
 10
237.534327
 20
39.652325
 30
0.0
 10
230.719963
 20
34.716357
 30
0.0
 10
223.500121
 20
31.295581
 30
0.0
  0
SPLINE
  5
162
100
AcDbEntity
  8
Image
 62
7
100
AcDbSpline
 70
8
 71
3
 72
8
 73
4
 74
0
 40
0
 40
0
 40
0
 40
0
 40
1
 40
1
 40
1
 40
1
 10
223.500121
 20
31.295581
 30
0.0
 10
216.161454
 20
27.818488
 30
0.0
 10
209.840759
 20
25.705848
 30
0.0
 10
202.724673
 20
24.351503
 30
0.0
  0
SPLINE
  5
163
100
AcDbEntity
  8
Image
 62
7
100
AcDbSpline
 70
8
 71
3
 72
8
 73
4
 74
0
 40
0
 40
0
 40
0
 40
0
 40
1
 40
1
 40
1
 40
1
 10
202.724673
 20
24.351503
 30
0.0
 10
198.533921
 20
23.553918
 30
0.0
 10
184.318071
 20
23.374293
 30
0.0
 10
180.037213
 20
24.064854
 30
0.0
  0
LINE
  5
164
100
AcDbEntity
  8
Image
 62
7
100
AcDbLine
 10
180.037213
 20
24.064854
 30
0.0
 11
180.037080
 21
24.064854
 31
0.0
  0
SPLINE
  5
165
100
AcDbEntity
  8
Image
 62
7
100
AcDbSpline
 70
8
 71
3
 72
8
 73
4
 74
0
 40
0
 40
0
 40
0
 40
0
 40
1
 40
1
 40
1
 40
1
 10
384.782294
 20
39.363612
 30
0.0
 10
384.759276
 20
41.032179
 30
0.0
 10
384.765890
 20
42.594778
 30
0.0
 10
384.797111
 20
42.836051
 30
0.0
  0
SPLINE
  5
166
100
AcDbEntity
  8
Image
 62
7
100
AcDbSpline
 70
8
 71
3
 72
8
 73
4
 74
0
 40
0
 40
0
 40
0
 40
0
 40
1
 40
1
 40
1
 40
1
 10
384.797111
 20
42.836051
 30
0.0
 10
384.828332
 20
43.077321
 30
0.0
 10
403.515146
 20
89.114706
 30
0.0
 10
426.323417
 20
145.141349
 30
0.0
  0
SPLINE
  5
167
100
AcDbEntity
  8
Image
 62
7
100
AcDbSpline
 70
8
 71
3
 72
8
 73
4
 74
0
 40
0
 40
0
 40
0
 40
0
 40
1
 40
1
 40
1
 40
1
 10
426.323417
 20
145.141349
 30
0.0
 10
449.131688
 20
201.167990
 30
0.0
 10
468.028474
 20
247.590970
 30
0.0
 10
468.316287
 20
248.303525
 30
0.0
  0
SPLINE
  5
168
100
AcDbEntity
  8
Image
 62
7
100
AcDbSpline
 70
8
 71
3
 72
8
 73
4
 74
0
 40
0
 40
0
 40
0
 40
0
 40
1
 40
1
 40
1
 40
1
 10
468.316287
 20
248.303525
 30
0.0
 10
468.900883
 20
249.750811
 30
0.0
 10
469.796125
 20
250.222409
 30
0.0
 10
474.150256
 20
251.376717
 30
0.0
  0
SPLINE
  5
169
100
AcDbEntity
  8
Image
 62
7
100
AcDbSpline
 70
8
 71
3
 72
8
 73
4
 74
0
 40
0
 40
0
 40
0
 40
0
 40
1
 40
1
 40
1
 40
1
 10
474.150256
 20
251.376717
 30
0.0
 10
475.564927
 20
251.751755
 30
0.0
 10
478.151117
 20
252.492737
 30
0.0
 10
479.897363
 20
253.023347
 30
0.0
  0
SPLINE
  5
16a
100
AcDbEntity
  8
Image
 62
7
100
AcDbSpline
 70
8
 71
3
 72
8
 73
4
 74
0
 40
0
 40
0
 40
0
 40
0
 40
1
 40
1
 40
1
 40
1
 10
479.897363
 20
253.023347
 30
0.0
 10
492.538277
 20
256.864389
 30
0.0
 10
505.087513
 20
260.395713
 30
0.0
 10
505.297406
 20
260.170852
 30
0.0
  0
SPLINE
  5
16b
100
AcDbEntity
  8
Image
 62
7
100
AcDbSpline
 70
8
 71
3
 72
8
 73
4
 74
0
 40
0
 40
0
 40
0
 40
0
 40
1
 40
1
 40
1
 40
1
 10
505.297406
 20
260.170852
 30
0.0
 10
505.353948
 20
260.110276
 30
0.0
 10
505.260312
 20
257.203222
 30
0.0
 10
505.089312
 20
253.710730
 30
0.0
  0
SPLINE
  5
16c
100
AcDbEntity
  8
Image
 62
7
100
AcDbSpline
 70
8
 71
3
 72
8
 73
4
 74
0
 40
0
 40
0
 40
0
 40
0
 40
1
 40
1
 40
1
 40
1
 10
505.089312
 20
253.710730
 30
0.0
 10
504.918339
 20
250.218239
 30
0.0
 10
504.451033
 20
230.136415
 30
0.0
 10
504.050904
 20
209.084455
 30
0.0
  0
SPLINE
  5
16d
100
AcDbEntity
  8
Image
 62
7
100
AcDbSpline
 70
8
 71
3
 72
8
 73
4
 74
0
 40
0
 40
0
 40
0
 40
0
 40
1
 40
1
 40
1
 40
1
 10
504.050904
 20
209.084455
 30
0.0
 10
502.887984
 20
147.900455
 30
0.0
 10
501.258578
 20
68.931759
 30
0.0
 10
501.157164
 20
68.841327
 30
0.0
  0
SPLINE
  5
16e
100
AcDbEntity
  8
Image
 62
7
100
AcDbSpline
 70
8
 71
3
 72
8
 73
4
 74
0
 40
0
 40
0
 40
0
 40
0
 40
1
 40
1
 40
1
 40
1
 10
501.157164
 20
68.841327
 30
0.0
 10
500.987090
 20
68.689677
 30
0.0
 10
460.295966
 20
57.390390
 30
0.0
 10
459.919888
 20
57.390390
 30
0.0
  0
SPLINE
  5
16f
100
AcDbEntity
  8
Image
 62
7
100
AcDbSpline
 70
8
 71
3
 72
8
 73
4
 74
0
 40
0
 40
0
 40
0
 40
0
 40
1
 40
1
 40
1
 40
1
 10
459.919888
 20
57.390390
 30
0.0
 10
459.670810
 20
57.390390
 30
0.0
 10
459.625619
 20
58.738375
 30
0.0
 10
459.780929
 20
61.535519
 30
0.0
  0
SPLINE
  5
170
100
AcDbEntity
  8
Image
 62
7
100
AcDbSpline
 70
8
 71
3
 72
8
 73
4
 74
0
 40
0
 40
0
 40
0
 40
0
 40
1
 40
1
 40
1
 40
1
 10
459.780929
 20
61.535519
 30
0.0
 10
459.907479
 20
63.815339
 30
0.0
 10
460.225164
 20
69.490637
 30
0.0
 10
460.486862
 20
74.147292
 30
0.0
  0
SPLINE
  5
171
100
AcDbEntity
  8
Image
 62
7
100
AcDbSpline
 70
8
 71
3
 72
8
 73
4
 74
0
 40
0
 40
0
 40
0
 40
0
 40
1
 40
1
 40
1
 40
1
 10
460.486862
 20
74.147292
 30
0.0
 10
460.748535
 20
78.803948
 30
0.0
 10
460.902204
 20
82.674909
 30
0.0
 10
460.828333
 20
82.749429
 30
0.0
  0
SPLINE
  5
172
100
AcDbEntity
  8
Image
 62
7
100
AcDbSpline
 70
8
 71
3
 72
8
 73
4
 74
0
 40
0
 40
0
 40
0
 40
0
 40
1
 40
1
 40
1
 40
1
 10
460.828333
 20
82.749429
 30
0.0
 10
460.576820
 20
83.003126
 30
0.0
 10
439.705162
 20
77.383316
 30
0.0
 10
438.941603
 20
76.856304
 30
0.0
  0
SPLINE
  5
173
100
AcDbEntity
  8
Image
 62
7
100
AcDbSpline
 70
8
 71
3
 72
8
 73
4
 74
0
 40
0
 40
0
 40
0
 40
0
 40
1
 40
1
 40
1
 40
1
 10
438.941603
 20
76.856304
 30
0.0
 10
438.750707
 20
76.724539
 30
0.0
 10
437.033856
 20
72.409865
 30
0.0
 10
435.126400
 20
67.268143
 30
0.0
  0
SPLINE
  5
174
100
AcDbEntity
  8
Image
 62
7
100
AcDbSpline
 70
8
 71
3
 72
8
 73
4
 74
0
 40
0
 40
0
 40
0
 40
0
 40
1
 40
1
 40
1
 40
1
 10
435.126400
 20
67.268143
 30
0.0
 10
433.218944
 20
62.126420
 30
0.0
 10
430.843997
 20
55.778661
 30
0.0
 10
429.848716
 20
53.162012
 30
0.0
  0
LINE
  5
175
100
AcDbEntity
  8
Image
 62
7
100
AcDbLine
 10
429.848716
 20
53.162012
 30
0.0
 11
428.039156
 21
48.404471
 31
0.0
  0
LINE
  5
176
100
AcDbEntity
  8
Image
 62
7
100
AcDbLine
 10
428.039156
 20
48.404471
 30
0.0
 11
422.747502
 21
46.919562
 31
0.0
  0
SPLINE
  5
177
100
AcDbEntity
  8
Image
 62
7
100
AcDbSpline
 70
8
 71
3
 72
8
 73
4
 74
0
 40
0
 40
0
 40
0
 40
0
 40
1
 40
1
 40
1
 40
1
 10
422.747502
 20
46.919562
 30
0.0
 10
419.837093
 20
46.102861
 30
0.0
 10
410.113679
 20
43.386073
 30
0.0
 10
401.139907
 20
40.882253
 30
0.0
  0
LINE
  5
178
100
AcDbEntity
  8
Image
 62
7
100
AcDbLine
 10
401.139907
 20
40.882253
 30
0.0
 11
384.823966
 21
36.329854
 31
0.0
  0
LINE
  5
179
100
AcDbEntity
  8
Image
 62
7
100
AcDbLine
 10
384.823966
 20
36.329854
 30
0.0
 11
384.782294
 21
39.363612
 31
0.0
  0
SPLINE
  5
17a
100
AcDbEntity
  8
Image
 62
7
100
AcDbSpline
 70
8
 71
3
 72
8
 73
4
 74
0
 40
0
 40
0
 40
0
 40
0
 40
1
 40
1
 40
1
 40
1
 10
458.378059
 20
105.597625
 30
0.0
 10
460.124305
 20
106.096348
 30
0.0
 10
461.690449
 20
106.632159
 30
0.0
 10
461.858353
 20
106.788319
 30
0.0
  0
SPLINE
  5
17b
100
AcDbEntity
  8
Image
 62
7
100
AcDbSpline
 70
8
 71
3
 72
8
 73
4
 74
0
 40
0
 40
0
 40
0
 40
0
 40
1
 40
1
 40
1
 40
1
 10
461.858353
 20
106.788319
 30
0.0
 10
462.191489
 20
107.098134
 30
0.0
 10
464.007373
 20
140.249282
 30
0.0
 10
463.707627
 20
140.549027
 30
0.0
  0
SPLINE
  5
17c
100
AcDbEntity
  8
Image
 62
7
100
AcDbSpline
 70
8
 71
3
 72
8
 73
4
 74
0
 40
0
 40
0
 40
0
 40
0
 40
1
 40
1
 40
1
 40
1
 10
463.707627
 20
140.549027
 30
0.0
 10
463.606504
 20
140.650159
 30
0.0
 10
463.316601
 20
140.653405
 30
0.0
 10
463.063421
 20
140.556250
 30
0.0
  0
SPLINE
  5
17d
100
AcDbEntity
  8
Image
 62
7
100
AcDbSpline
 70
8
 71
3
 72
8
 73
4
 74
0
 40
0
 40
0
 40
0
 40
0
 40
1
 40
1
 40
1
 40
1
 10
463.063421
 20
140.556250
 30
0.0
 10
462.810216
 20
140.459090
 30
0.0
 10
459.685018
 20
132.621061
 30
0.0
 10
456.118496
 20
123.138407
 30
0.0
  0
SPLINE
  5
17e
100
AcDbEntity
  8
Image
 62
7
100
AcDbSpline
 70
8
 71
3
 72
8
 73
4
 74
0
 40
0
 40
0
 40
0
 40
0
 40
1
 40
1
 40
1
 40
1
 10
456.118496
 20
123.138407
 30
0.0
 10
452.551975
 20
113.655750
 30
0.0
 10
449.348831
 20
105.161749
 30
0.0
 10
449.000375
 20
104.262848
 30
0.0
  0
LINE
  5
17f
100
AcDbEntity
  8
Image
 62
7
100
AcDbLine
 10
449.000375
 20
104.262848
 30
0.0
 11
448.366806
 21
102.628478
 31
0.0
  0
LINE
  5
180
100
AcDbEntity
  8
Image
 62
7
100
AcDbLine
 10
448.366806
 20
102.628478
 30
0.0
 11
451.784923
 21
103.659671
 31
0.0
  0
SPLINE
  5
181
100
AcDbEntity
  8
Image
 62
7
100
AcDbSpline
 70
8
 71
3
 72
8
 73
4
 74
0
 40
0
 40
0
 40
0
 40
0
 40
1
 40
1
 40
1
 40
1
 10
451.784923
 20
103.659671
 30
0.0
 10
453.664915
 20
104.226825
 30
0.0
 10
456.631813
 20
105.098908
 30
0.0
 10
458.378059
 20
105.597628
 30
0.0
  0
LINE
  5
182
100
AcDbEntity
  8
Image
 62
7
100
AcDbLine
 10
458.378059
 20
105.597628
 30
0.0
 11
458.378059
 21
105.597625
 31
0.0
  0
SPLINE
  5
183
100
AcDbEntity
  8
Image
 62
7
100
AcDbSpline
 70
8
 71
3
 72
8
 73
4
 74
0
 40
0
 40
0
 40
0
 40
0
 40
1
 40
1
 40
1
 40
1
 10
15.569978
 20
38.143783
 30
0.0
 10
9.037995
 20
39.632148
 30
0.0
 10
3.313892
 20
44.498061
 30
0.0
 10
0.790949
 20
50.707063
 30
0.0
  0
SPLINE
  5
184
100
AcDbEntity
  8
Image
 62
7
100
AcDbSpline
 70
8
 71
3
 72
8
 73
4
 74
0
 40
0
 40
0
 40
0
 40
0
 40
1
 40
1
 40
1
 40
1
 10
0.790949
 20
50.707063
 30
0.0
 10
0.304468
 20
51.904300
 30
0.0
 10
-0.045318
 20
52.927753
 30
0.0
 10
0.013647
 20
52.981405
 30
0.0
  0
SPLINE
  5
185
100
AcDbEntity
  8
Image
 62
7
100
AcDbSpline
 70
8
 71
3
 72
8
 73
4
 74
0
 40
0
 40
0
 40
0
 40
0
 40
1
 40
1
 40
1
 40
1
 10
0.013647
 20
52.981405
 30
0.0
 10
0.072611
 20
53.035060
 30
0.0
 10
9.090207
 20
55.567942
 30
0.0
 10
20.052750
 20
58.610031
 30
0.0
  0
SPLINE
  5
186
100
AcDbEntity
  8
Image
 62
7
100
AcDbSpline
 70
8
 71
3
 72
8
 73
4
 74
0
 40
0
 40
0
 40
0
 40
0
 40
1
 40
1
 40
1
 40
1
 10
20.052750
 20
58.610031
 30
0.0
 10
39.133293
 20
63.904857
 30
0.0
 10
62.409571
 20
70.454824
 30
0.0
 10
64.710088
 20
71.176653
 30
0.0
  0
LINE
  5
187
100
AcDbEntity
  8
Image
 62
7
100
AcDbLine
 10
64.710088
 20
71.176653
 30
0.0
 11
65.799478
 21
71.518470
 31
0.0
  0
LINE
  5
188
100
AcDbEntity
  8
Image
 62
7
100
AcDbLine
 10
65.799478
 20
71.518470
 30
0.0
 11
66.037545
 21
88.884231
 31
0.0
  0
SPLINE
  5
189
100
AcDbEntity
  8
Image
 62
7
100
AcDbSpline
 70
8
 71
3
 72
8
 73
4
 74
0
 40
0
 40
0
 40
0
 40
0
 40
1
 40
1
 40
1
 40
1
 10
66.037545
 20
88.884231
 30
0.0
 10
66.318658
 20
109.389860
 30
0.0
 10
66.624273
 20
120.269574
 30
0.0
 10
66.928458
 20
120.600196
 30
0.0
  0
SPLINE
  5
18a
100
AcDbEntity
  8
Image
 62
7
100
AcDbSpline
 70
8
 71
3
 72
8
 73
4
 74
0
 40
0
 40
0
 40
0
 40
0
 40
1
 40
1
 40
1
 40
1
 10
66.928458
 20
120.600196
 30
0.0
 10
67.304165
 20
121.008556
 30
0.0
 10
78.735699
 20
124.285984
 30
0.0
 10
87.603624
 20
126.527780
 30
0.0
  0
SPLINE
  5
18b
100
AcDbEntity
  8
Image
 62
7
100
AcDbSpline
 70
8
 71
3
 72
8
 73
4
 74
0
 40
0
 40
0
 40
0
 40
0
 40
1
 40
1
 40
1
 40
1
 10
87.603624
 20
126.527780
 30
0.0
 10
94.215442
 20
128.199236
 30
0.0
 10
107.135374
 20
131.878362
 30
0.0
 10
109.481699
 20
132.757856
 30
0.0
  0
SPLINE
  5
18c
100
AcDbEntity
  8
Image
 62
7
100
AcDbSpline
 70
8
 71
3
 72
8
 73
4
 74
0
 40
0
 40
0
 40
0
 40
0
 40
1
 40
1
 40
1
 40
1
 10
109.481699
 20
132.757856
 30
0.0
 10
109.709047
 20
132.843075
 30
0.0
 10
109.844651
 20
130.349219
 30
0.0
 10
109.863098
 20
125.743636
 30
0.0
  0
SPLINE
  5
18d
100
AcDbEntity
  8
Image
 62
7
100
AcDbSpline
 70
8
 71
3
 72
8
 73
4
 74
0
 40
0
 40
0
 40
0
 40
0
 40
1
 40
1
 40
1
 40
1
 10
109.863098
 20
125.743636
 30
0.0
 10
109.887942
 20
119.539926
 30
0.0
 10
110.333534
 20
113.625924
 30
0.0
 10
110.924937
 20
111.650613
 30
0.0
  0
SPLINE
  5
18e
100
AcDbEntity
  8
Image
 62
7
100
AcDbSpline
 70
8
 71
3
 72
8
 73
4
 74
0
 40
0
 40
0
 40
0
 40
0
 40
1
 40
1
 40
1
 40
1
 10
110.924937
 20
111.650613
 30
0.0
 10
111.068862
 20
111.169895
 30
0.0
 10
110.558352
 20
110.881799
 30
0.0
 10
108.296419
 20
110.167254
 30
0.0
  0
SPLINE
  5
18f
100
AcDbEntity
  8
Image
 62
7
100
AcDbSpline
 70
8
 71
3
 72
8
 73
4
 74
0
 40
0
 40
0
 40
0
 40
0
 40
1
 40
1
 40
1
 40
1
 10
108.296419
 20
110.167254
 30
0.0
 10
104.044358
 20
108.824029
 30
0.0
 10
101.139558
 20
108.428660
 30
0.0
 10
96.984273
 20
108.627576
 30
0.0
  0
SPLINE
  5
190
100
AcDbEntity
  8
Image
 62
7
100
AcDbSpline
 70
8
 71
3
 72
8
 73
4
 74
0
 40
0
 40
0
 40
0
 40
0
 40
1
 40
1
 40
1
 40
1
 10
96.984273
 20
108.627576
 30
0.0
 10
94.260445
 20
108.757965
 30
0.0
 10
92.563652
 20
109.046744
 30
0.0
 10
90.695482
 20
109.697866
 30
0.0
  0
SPLINE
  5
191
100
AcDbEntity
  8
Image
 62
7
100
AcDbSpline
 70
8
 71
3
 72
8
 73
4
 74
0
 40
0
 40
0
 40
0
 40
0
 40
1
 40
1
 40
1
 40
1
 10
90.695482
 20
109.697866
 30
0.0
 10
89.288317
 20
110.188312
 30
0.0
 10
88.075989
 20
110.486301
 30
0.0
 10
88.001416
 20
110.360061
 30
0.0
  0
SPLINE
  5
192
100
AcDbEntity
  8
Image
 62
7
100
AcDbSpline
 70
8
 71
3
 72
8
 73
4
 74
0
 40
0
 40
0
 40
0
 40
0
 40
1
 40
1
 40
1
 40
1
 10
88.001416
 20
110.360061
 30
0.0
 10
87.926843
 20
110.233823
 30
0.0
 10
87.686875
 20
102.193055
 30
0.0
 10
87.468152
 20
92.491691
 30
0.0
  0
SPLINE
  5
193
100
AcDbEntity
  8
Image
 62
7
100
AcDbSpline
 70
8
 71
3
 72
8
 73
4
 74
0
 40
0
 40
0
 40
0
 40
0
 40
1
 40
1
 40
1
 40
1
 10
87.468152
 20
92.491691
 30
0.0
 10
86.887539
 20
66.738631
 30
0.0
 10
86.925501
 20
67.452559
 30
0.0
 10
85.986256
 20
64.622316
 30
0.0
  0
SPLINE
  5
194
100
AcDbEntity
  8
Image
 62
7
100
AcDbSpline
 70
8
 71
3
 72
8
 73
4
 74
0
 40
0
 40
0
 40
0
 40
0
 40
1
 40
1
 40
1
 40
1
 10
85.986256
 20
64.622316
 30
0.0
 10
84.905441
 20
61.365477
 30
0.0
 10
82.098955
 20
57.286250
 30
0.0
 10
79.480226
 20
55.165810
 30
0.0
  0
SPLINE
  5
195
100
AcDbEntity
  8
Image
 62
7
100
AcDbSpline
 70
8
 71
3
 72
8
 73
4
 74
0
 40
0
 40
0
 40
0
 40
0
 40
1
 40
1
 40
1
 40
1
 10
79.480226
 20
55.165810
 30
0.0
 10
75.356792
 20
51.826975
 30
0.0
 10
75.946534
 20
52.026910
 30
0.0
 10
43.336027
 20
42.912161
 30
0.0
  0
SPLINE
  5
196
100
AcDbEntity
  8
Image
 62
7
100
AcDbSpline
 70
8
 71
3
 72
8
 73
4
 74
0
 40
0
 40
0
 40
0
 40
0
 40
1
 40
1
 40
1
 40
1
 10
43.336027
 20
42.912161
 30
0.0
 10
26.287634
 20
38.147077
 30
0.0
 10
25.353757
 20
37.926547
 30
0.0
 10
21.640246
 20
37.788789
 30
0.0
  0
SPLINE
  5
197
100
AcDbEntity
  8
Image
 62
7
100
AcDbSpline
 70
8
 71
3
 72
8
 73
4
 74
0
 40
0
 40
0
 40
0
 40
0
 40
1
 40
1
 40
1
 40
1
 10
21.640246
 20
37.788789
 30
0.0
 10
19.070780
 20
37.693473
 30
0.0
 10
17.019881
 20
37.813422
 30
0.0
 10
15.569978
 20
38.143783
 30
0.0
  0
LINE
  5
198
100
AcDbEntity
  8
Image
 62
7
100
AcDbLine
 10
15.569978
 20
38.143783
 30
0.0
 11
15.569978
 21
38.143783
 31
0.0
  0
SPLINE
  5
199
100
AcDbEntity
  8
Image
 62
7
100
AcDbSpline
 70
8
 71
3
 72
8
 73
4
 74
0
 40
0
 40
0
 40
0
 40
0
 40
1
 40
1
 40
1
 40
1
 10
163.507849
 20
60.223787
 30
0.0
 10
157.941518
 20
61.100879
 30
0.0
 10
151.649353
 20
63.642463
 30
0.0
 10
147.521763
 20
66.681020
 30
0.0
  0
SPLINE
  5
19a
100
AcDbEntity
  8
Image
 62
7
100
AcDbSpline
 70
8
 71
3
 72
8
 73
4
 74
0
 40
0
 40
0
 40
0
 40
0
 40
1
 40
1
 40
1
 40
1
 10
147.521763
 20
66.681020
 30
0.0
 10
142.204783
 20
70.595159
 30
0.0
 10
137.304945
 20
76.208222
 30
0.0
 10
134.724930
 20
81.340571
 30
0.0
  0
SPLINE
  5
19b
100
AcDbEntity
  8
Image
 62
7
100
AcDbSpline
 70
8
 71
3
 72
8
 73
4
 74
0
 40
0
 40
0
 40
0
 40
0
 40
1
 40
1
 40
1
 40
1
 10
134.724930
 20
81.340571
 30
0.0
 10
126.940852
 20
96.825222
 30
0.0
 10
123.889401
 20
123.139796
 30
0.0
 10
127.467289
 20
143.927745
 30
0.0
  0
SPLINE
  5
19c
100
AcDbEntity
  8
Image
 62
7
100
AcDbSpline
 70
8
 71
3
 72
8
 73
4
 74
0
 40
0
 40
0
 40
0
 40
0
 40
1
 40
1
 40
1
 40
1
 10
127.467289
 20
143.927745
 30
0.0
 10
131.413051
 20
166.853092
 30
0.0
 10
141.118377
 20
190.618504
 30
0.0
 10
152.246133
 20
204.603654
 30
0.0
  0
SPLINE
  5
19d
100
AcDbEntity
  8
Image
 62
7
100
AcDbSpline
 70
8
 71
3
 72
8
 73
4
 74
0
 40
0
 40
0
 40
0
 40
0
 40
1
 40
1
 40
1
 40
1
 10
152.246133
 20
204.603654
 30
0.0
 10
160.091565
 20
214.463643
 30
0.0
 10
167.427670
 20
219.630901
 30
0.0
 10
178.096808
 20
222.811835
 30
0.0
  0
SPLINE
  5
19e
100
AcDbEntity
  8
Image
 62
7
100
AcDbSpline
 70
8
 71
3
 72
8
 73
4
 74
0
 40
0
 40
0
 40
0
 40
0
 40
1
 40
1
 40
1
 40
1
 10
178.096808
 20
222.811835
 30
0.0
 10
185.579524
 20
225.042759
 30
0.0
 10
188.529587
 20
225.467968
 30
0.0
 10
196.441207
 20
225.455905
 30
0.0
  0
SPLINE
  5
19f
100
AcDbEntity
  8
Image
 62
7
100
AcDbSpline
 70
8
 71
3
 72
8
 73
4
 74
0
 40
0
 40
0
 40
0
 40
0
 40
1
 40
1
 40
1
 40
1
 10
196.441207
 20
225.455905
 30
0.0
 10
202.743077
 20
225.446301
 30
0.0
 10
203.608662
 20
225.367606
 30
0.0
 10
206.755945
 20
224.518193
 30
0.0
  0
SPLINE
  5
1a0
100
AcDbEntity
  8
Image
 62
7
100
AcDbSpline
 70
8
 71
3
 72
8
 73
4
 74
0
 40
0
 40
0
 40
0
 40
0
 40
1
 40
1
 40
1
 40
1
 10
206.755945
 20
224.518193
 30
0.0
 10
208.645517
 20
224.008220
 30
0.0
 10
211.322086
 20
222.996879
 30
0.0
 10
212.703877
 20
222.270772
 30
0.0
  0
SPLINE
  5
1a1
100
AcDbEntity
  8
Image
 62
7
100
AcDbSpline
 70
8
 71
3
 72
8
 73
4
 74
0
 40
0
 40
0
 40
0
 40
0
 40
1
 40
1
 40
1
 40
1
 10
212.703877
 20
222.270772
 30
0.0
 10
217.627980
 20
219.683227
 30
0.0
 10
222.866398
 20
213.697189
 30
0.0
 10
226.458200
 20
206.553451
 30
0.0
  0
LINE
  5
1a2
100
AcDbEntity
  8
Image
 62
7
100
AcDbLine
 10
226.458200
 20
206.553451
 30
0.0
 11
227.838353
 21
203.808462
 31
0.0
  0
LINE
  5
1a3
100
AcDbEntity
  8
Image
 62
7
100
AcDbLine
 10
227.838353
 20
203.808462
 30
0.0
 11
227.836501
 21
182.722211
 31
0.0
  0
LINE
  5
1a4
100
AcDbEntity
  8
Image
 62
7
100
AcDbLine
 10
227.836501
 20
182.722211
 30
0.0
 11
227.834649
 21
161.635963
 31
0.0
  0
LINE
  5
1a5
100
AcDbEntity
  8
Image
 62
7
100
AcDbLine
 10
227.834649
 20
161.635963
 30
0.0
 11
215.267638
 21
157.840768
 31
0.0
  0
LINE
  5
1a6
100
AcDbEntity
  8
Image
 62
7
100
AcDbLine
 10
215.267638
 20
157.840768
 30
0.0
 11
202.700627
 21
154.045573
 31
0.0
  0
LINE
  5
1a7
100
AcDbEntity
  8
Image
 62
7
100
AcDbLine
 10
202.700627
 20
154.045573
 30
0.0
 11
200.111453
 21
155.290916
 31
0.0
  0
SPLINE
  5
1a8
100
AcDbEntity
  8
Image
 62
7
100
AcDbSpline
 70
8
 71
3
 72
8
 73
4
 74
0
 40
0
 40
0
 40
0
 40
0
 40
1
 40
1
 40
1
 40
1
 10
200.111453
 20
155.290916
 30
0.0
 10
193.122319
 20
158.652555
 30
0.0
 10
187.633122
 20
164.530220
 30
0.0
 10
184.253888
 20
172.270721
 30
0.0
  0
SPLINE
  5
1a9
100
AcDbEntity
  8
Image
 62
7
100
AcDbSpline
 70
8
 71
3
 72
8
 73
4
 74
0
 40
0
 40
0
 40
0
 40
0
 40
1
 40
1
 40
1
 40
1
 10
184.253888
 20
172.270721
 30
0.0
 10
183.588598
 20
173.794641
 30
0.0
 10
183.042330
 20
174.786098
 30
0.0
 10
183.039962
 20
174.473960
 30
0.0
  0
SPLINE
  5
1aa
100
AcDbEntity
  8
Image
 62
7
100
AcDbSpline
 70
8
 71
3
 72
8
 73
4
 74
0
 40
0
 40
0
 40
0
 40
0
 40
1
 40
1
 40
1
 40
1
 10
183.039962
 20
174.473960
 30
0.0
 10
183.032156
 20
173.445794
 30
0.0
 10
180.222320
 20
166.293714
 30
0.0
 10
178.273489
 20
162.341515
 30
0.0
  0
SPLINE
  5
1ab
100
AcDbEntity
  8
Image
 62
7
100
AcDbSpline
 70
8
 71
3
 72
8
 73
4
 74
0
 40
0
 40
0
 40
0
 40
0
 40
1
 40
1
 40
1
 40
1
 10
178.273489
 20
162.341515
 30
0.0
 10
177.221066
 20
160.207217
 30
0.0
 10
175.429587
 20
157.032224
 30
0.0
 10
174.292429
 20
155.285979
 30
0.0
  0
SPLINE
  5
1ac
100
AcDbEntity
  8
Image
 62
7
100
AcDbSpline
 70
8
 71
3
 72
8
 73
4
 74
0
 40
0
 40
0
 40
0
 40
0
 40
1
 40
1
 40
1
 40
1
 10
174.292429
 20
155.285979
 30
0.0
 10
169.233336
 20
147.517117
 30
0.0
 10
160.985338
 20
138.690622
 30
0.0
 10
156.224721
 20
135.951038
 30
0.0
  0
SPLINE
  5
1ad
100
AcDbEntity
  8
Image
 62
7
100
AcDbSpline
 70
8
 71
3
 72
8
 73
4
 74
0
 40
0
 40
0
 40
0
 40
0
 40
1
 40
1
 40
1
 40
1
 10
156.224721
 20
135.951038
 30
0.0
 10
154.786081
 20
135.123145
 30
0.0
 10
154.457941
 20
134.801148
 30
0.0
 10
154.955285
 20
134.705367
 30
0.0
  0
SPLINE
  5
1ae
100
AcDbEntity
  8
Image
 62
7
100
AcDbSpline
 70
8
 71
3
 72
8
 73
4
 74
0
 40
0
 40
0
 40
0
 40
0
 40
1
 40
1
 40
1
 40
1
 10
154.955285
 20
134.705367
 30
0.0
 10
157.052393
 20
134.301502
 30
0.0
 10
166.356317
 20
127.303237
 30
0.0
 10
170.579554
 20
122.953040
 30
0.0
  0
SPLINE
  5
1af
100
AcDbEntity
  8
Image
 62
7
100
AcDbSpline
 70
8
 71
3
 72
8
 73
4
 74
0
 40
0
 40
0
 40
0
 40
0
 40
1
 40
1
 40
1
 40
1
 10
170.579554
 20
122.953040
 30
0.0
 10
176.960225
 20
116.380550
 30
0.0
 10
181.588593
 20
107.038561
 30
0.0
 10
182.560297
 20
98.770876
 30
0.0
  0
SPLINE
  5
1b0
100
AcDbEntity
  8
Image
 62
7
100
AcDbSpline
 70
8
 71
3
 72
8
 73
4
 74
0
 40
0
 40
0
 40
0
 40
0
 40
1
 40
1
 40
1
 40
1
 10
182.560297
 20
98.770876
 30
0.0
 10
182.682328
 20
97.732601
 30
0.0
 10
182.830526
 20
96.931460
 30
0.0
 10
182.889631
 20
96.990565
 30
0.0
  0
SPLINE
  5
1b1
100
AcDbEntity
  8
Image
 62
7
100
AcDbSpline
 70
8
 71
3
 72
8
 73
4
 74
0
 40
0
 40
0
 40
0
 40
0
 40
1
 40
1
 40
1
 40
1
 10
182.889631
 20
96.990565
 30
0.0
 10
182.948736
 20
97.049668
 30
0.0
 10
183.245590
 20
98.759962
 30
0.0
 10
183.549307
 20
100.791216
 30
0.0
  0
SPLINE
  5
1b2
100
AcDbEntity
  8
Image
 62
7
100
AcDbSpline
 70
8
 71
3
 72
8
 73
4
 74
0
 40
0
 40
0
 40
0
 40
0
 40
1
 40
1
 40
1
 40
1
 10
183.549307
 20
100.791216
 30
0.0
 10
184.602291
 20
107.833529
 30
0.0
 10
186.533824
 20
113.570115
 30
0.0
 10
189.639233
 20
118.878089
 30
0.0
  0
SPLINE
  5
1b3
100
AcDbEntity
  8
Image
 62
7
100
AcDbSpline
 70
8
 71
3
 72
8
 73
4
 74
0
 40
0
 40
0
 40
0
 40
0
 40
1
 40
1
 40
1
 40
1
 10
189.639233
 20
118.878089
 30
0.0
 10
191.748415
 20
122.483245
 30
0.0
 10
198.361466
 20
129.354346
 30
0.0
 10
200.711074
 20
130.381969
 30
0.0
  0
SPLINE
  5
1b4
100
AcDbEntity
  8
Image
 62
7
100
AcDbSpline
 70
8
 71
3
 72
8
 73
4
 74
0
 40
0
 40
0
 40
0
 40
0
 40
1
 40
1
 40
1
 40
1
 10
200.711074
 20
130.381969
 30
0.0
 10
201.976518
 20
130.935421
 30
0.0
 10
226.885356
 20
137.823521
 30
0.0
 10
227.621316
 20
137.823521
 30
0.0
  0
SPLINE
  5
1b5
100
AcDbEntity
  8
Image
 62
7
100
AcDbSpline
 70
8
 71
3
 72
8
 73
4
 74
0
 40
0
 40
0
 40
0
 40
0
 40
1
 40
1
 40
1
 40
1
 10
227.621316
 20
137.823521
 30
0.0
 10
227.740669
 20
137.823521
 30
0.0
 10
227.838322
 20
130.813387
 30
0.0
 10
227.838322
 20
122.245448
 30
0.0
  0
LINE
  5
1b6
100
AcDbEntity
  8
Image
 62
7
100
AcDbLine
 10
227.838322
 20
122.245448
 30
0.0
 11
227.838322
 21
106.667373
 31
0.0
  0
LINE
  5
1b7
100
AcDbEntity
  8
Image
 62
7
100
AcDbLine
 10
227.838322
 20
106.667373
 30
0.0
 11
225.072491
 21
101.333754
 31
0.0
  0
SPLINE
  5
1b8
100
AcDbEntity
  8
Image
 62
7
100
AcDbSpline
 70
8
 71
3
 72
8
 73
4
 74
0
 40
0
 40
0
 40
0
 40
0
 40
1
 40
1
 40
1
 40
1
 10
225.072491
 20
101.333754
 30
0.0
 10
220.079572
 20
91.705431
 30
0.0
 10
213.738186
 20
82.279940
 30
0.0
 10
208.556909
 20
76.785899
 30
0.0
  0
SPLINE
  5
1b9
100
AcDbEntity
  8
Image
 62
7
100
AcDbSpline
 70
8
 71
3
 72
8
 73
4
 74
0
 40
0
 40
0
 40
0
 40
0
 40
1
 40
1
 40
1
 40
1
 10
208.556909
 20
76.785899
 30
0.0
 10
207.229040
 20
75.377837
 30
0.0
 10
204.475702
 20
72.888151
 30
0.0
 10
202.438415
 20
71.253266
 30
0.0
  0
SPLINE
  5
1ba
100
AcDbEntity
  8
Image
 62
7
100
AcDbSpline
 70
8
 71
3
 72
8
 73
4
 74
0
 40
0
 40
0
 40
0
 40
0
 40
1
 40
1
 40
1
 40
1
 10
202.438415
 20
71.253266
 30
0.0
 10
196.672770
 20
66.626434
 30
0.0
 10
187.439091
 20
62.421371
 30
0.0
 10
179.331528
 20
60.730275
 30
0.0
  0
SPLINE
  5
1bb
100
AcDbEntity
  8
Image
 62
7
100
AcDbSpline
 70
8
 71
3
 72
8
 73
4
 74
0
 40
0
 40
0
 40
0
 40
0
 40
1
 40
1
 40
1
 40
1
 10
179.331528
 20
60.730275
 30
0.0
 10
176.031746
 20
60.041998
 30
0.0
 10
166.581270
 20
59.739506
 30
0.0
 10
163.507849
 20
60.223787
 30
0.0
  0
LINE
  5
1bc
100
AcDbEntity
  8
Image
 62
7
100
AcDbLine
 10
163.507849
 20
60.223787
 30
0.0
 11
163.507849
 21
60.223787
 31
0.0
  0
SPLINE
  5
1bd
100
AcDbEntity
  8
Image
 62
7
100
AcDbSpline
 70
8
 71
3
 72
8
 73
4
 74
0
 40
0
 40
0
 40
0
 40
0
 40
1
 40
1
 40
1
 40
1
 10
512.777582
 20
76.175761
 30
0.0
 10
512.842087
 20
78.358565
 30
0.0
 10
513.302461
 20
100.527020
 30
0.0
 10
513.800618
 20
125.438988
 30
0.0
  0
SPLINE
  5
1be
100
AcDbEntity
  8
Image
 62
7
100
AcDbSpline
 70
8
 71
3
 72
8
 73
4
 74
0
 40
0
 40
0
 40
0
 40
0
 40
1
 40
1
 40
1
 40
1
 10
513.800618
 20
125.438988
 30
0.0
 10
514.298774
 20
150.350959
 30
0.0
 10
514.824897
 20
171.053964
 30
0.0
 10
514.969809
 20
171.445668
 30
0.0
  0
SPLINE
  5
1bf
100
AcDbEntity
  8
Image
 62
7
100
AcDbSpline
 70
8
 71
3
 72
8
 73
4
 74
0
 40
0
 40
0
 40
0
 40
0
 40
1
 40
1
 40
1
 40
1
 10
514.969809
 20
171.445668
 30
0.0
 10
515.178591
 20
172.010097
 30
0.0
 10
516.508066
 20
172.538037
 30
0.0
 10
521.377790
 20
173.990305
 30
0.0
  0
SPLINE
  5
1c0
100
AcDbEntity
  8
Image
 62
7
100
AcDbSpline
 70
8
 71
3
 72
8
 73
4
 74
0
 40
0
 40
0
 40
0
 40
0
 40
1
 40
1
 40
1
 40
1
 10
521.377790
 20
173.990305
 30
0.0
 10
524.757304
 20
174.998151
 30
0.0
 10
530.468824
 20
176.710720
 30
0.0
 10
534.070086
 20
177.796015
 30
0.0
  0
SPLINE
  5
1c1
100
AcDbEntity
  8
Image
 62
7
100
AcDbSpline
 70
8
 71
3
 72
8
 73
4
 74
0
 40
0
 40
0
 40
0
 40
0
 40
1
 40
1
 40
1
 40
1
 10
534.070086
 20
177.796015
 30
0.0
 10
541.975208
 20
180.178341
 30
0.0
 10
550.595179
 20
182.626186
 30
0.0
 10
551.079286
 20
182.626186
 30
0.0
  0
SPLINE
  5
1c2
100
AcDbEntity
  8
Image
 62
7
100
AcDbSpline
 70
8
 71
3
 72
8
 73
4
 74
0
 40
0
 40
0
 40
0
 40
0
 40
1
 40
1
 40
1
 40
1
 10
551.079286
 20
182.626186
 30
0.0
 10
551.301668
 20
182.626186
 30
0.0
 10
551.341911
 20
181.876843
 30
0.0
 10
551.188241
 20
180.597721
 30
0.0
  0
SPLINE
  5
1c3
100
AcDbEntity
  8
Image
 62
7
100
AcDbSpline
 70
8
 71
3
 72
8
 73
4
 74
0
 40
0
 40
0
 40
0
 40
0
 40
1
 40
1
 40
1
 40
1
 10
551.188241
 20
180.597721
 30
0.0
 10
551.054204
 20
179.482063
 30
0.0
 10
550.493394
 20
156.850464
 30
0.0
 10
549.942004
 20
130.305277
 30
0.0
  0
SPLINE
  5
1c4
100
AcDbEntity
  8
Image
 62
7
100
AcDbSpline
 70
8
 71
3
 72
8
 73
4
 74
0
 40
0
 40
0
 40
0
 40
0
 40
1
 40
1
 40
1
 40
1
 10
549.942004
 20
130.305277
 30
0.0
 10
549.390614
 20
103.760091
 30
0.0
 10
548.878620
 20
81.980459
 30
0.0
 10
548.804272
 20
81.906098
 30
0.0
  0
SPLINE
  5
1c5
100
AcDbEntity
  8
Image
 62
7
100
AcDbSpline
 70
8
 71
3
 72
8
 73
4
 74
0
 40
0
 40
0
 40
0
 40
0
 40
1
 40
1
 40
1
 40
1
 10
548.804272
 20
81.906098
 30
0.0
 10
548.729898
 20
81.831737
 30
0.0
 10
546.212923
 20
81.117139
 30
0.0
 10
543.210968
 20
80.318104
 30
0.0
  0
SPLINE
  5
1c6
100
AcDbEntity
  8
Image
 62
7
100
AcDbSpline
 70
8
 71
3
 72
8
 73
4
 74
0
 40
0
 40
0
 40
0
 40
0
 40
1
 40
1
 40
1
 40
1
 10
543.210968
 20
80.318104
 30
0.0
 10
540.209012
 20
79.519070
 30
0.0
 10
536.879742
 20
78.618383
 30
0.0
 10
535.812601
 20
78.316578
 30
0.0
  0
SPLINE
  5
1c7
100
AcDbEntity
  8
Image
 62
7
100
AcDbSpline
 70
8
 71
3
 72
8
 73
4
 74
0
 40
0
 40
0
 40
0
 40
0
 40
1
 40
1
 40
1
 40
1
 10
535.812601
 20
78.316578
 30
0.0
 10
534.745459
 20
78.014774
 30
0.0
 10
531.332343
 20
77.084951
 30
0.0
 10
528.227888
 20
76.250304
 30
0.0
  0
SPLINE
  5
1c8
100
AcDbEntity
  8
Image
 62
7
100
AcDbSpline
 70
8
 71
3
 72
8
 73
4
 74
0
 40
0
 40
0
 40
0
 40
0
 40
1
 40
1
 40
1
 40
1
 10
528.227888
 20
76.250304
 30
0.0
 10
525.123460
 20
75.415657
 30
0.0
 10
520.605684
 20
74.164472
 30
0.0
 10
518.188404
 20
73.469892
 30
0.0
  0
SPLINE
  5
1c9
100
AcDbEntity
  8
Image
 62
7
100
AcDbSpline
 70
8
 71
3
 72
8
 73
4
 74
0
 40
0
 40
0
 40
0
 40
0
 40
1
 40
1
 40
1
 40
1
 10
518.188404
 20
73.469892
 30
0.0
 10
515.771097
 20
72.775312
 30
0.0
 10
513.538390
 20
72.207020
 30
0.0
 10
513.226817
 20
72.207020
 30
0.0
  0
SPLINE
  5
1ca
100
AcDbEntity
  8
Image
 62
7
100
AcDbSpline
 70
8
 71
3
 72
8
 73
4
 74
0
 40
0
 40
0
 40
0
 40
0
 40
1
 40
1
 40
1
 40
1
 10
513.226817
 20
72.207020
 30
0.0
 10
512.733291
 20
72.207020
 30
0.0
 10
512.675427
 20
72.718215
 30
0.0
 10
512.777582
 20
76.175761
 30
0.0
  0
LINE
  5
1cb
100
AcDbEntity
  8
Image
 62
7
100
AcDbLine
 10
512.777582
 20
76.175761
 30
0.0
 11
512.777582
 21
76.175761
 31
0.0
  0
SPLINE
  5
1cc
100
AcDbEntity
  8
Image
 62
7
100
AcDbSpline
 70
8
 71
3
 72
8
 73
4
 74
0
 40
0
 40
0
 40
0
 40
0
 40
1
 40
1
 40
1
 40
1
 10
0.114006
 20
82.318966
 30
0.0
 10
0.230186
 20
86.943829
 30
0.0
 10
0.637730
 20
106.444017
 30
0.0
 10
1.019660
 20
125.652718
 30
0.0
  0
SPLINE
  5
1cd
100
AcDbEntity
  8
Image
 62
7
100
AcDbSpline
 70
8
 71
3
 72
8
 73
4
 74
0
 40
0
 40
0
 40
0
 40
0
 40
1
 40
1
 40
1
 40
1
 10
1.019660
 20
125.652718
 30
0.0
 10
2.058526
 20
177.901247
 30
0.0
 10
2.716000
 20
209.886915
 30
0.0
 10
2.974675
 20
220.762862
 30
0.0
  0
LINE
  5
1ce
100
AcDbEntity
  8
Image
 62
7
100
AcDbLine
 10
2.974675
 20
220.762862
 30
0.0
 11
3.206288
 21
230.500997
 31
0.0
  0
LINE
  5
1cf
100
AcDbEntity
  8
Image
 62
7
100
AcDbLine
 10
3.206288
 20
230.500997
 30
0.0
 11
11.188548
 21
232.703450
 31
0.0
  0
SPLINE
  5
1d0
100
AcDbEntity
  8
Image
 62
7
100
AcDbSpline
 70
8
 71
3
 72
8
 73
4
 74
0
 40
0
 40
0
 40
0
 40
0
 40
1
 40
1
 40
1
 40
1
 10
11.188548
 20
232.703450
 30
0.0
 10
15.578791
 20
233.914799
 30
0.0
 10
22.583924
 20
235.863395
 30
0.0
 10
26.755511
 20
237.033663
 30
0.0
  0
SPLINE
  5
1d1
100
AcDbEntity
  8
Image
 62
7
100
AcDbSpline
 70
8
 71
3
 72
8
 73
4
 74
0
 40
0
 40
0
 40
0
 40
0
 40
1
 40
1
 40
1
 40
1
 10
26.755511
 20
237.033663
 30
0.0
 10
43.396596
 20
241.702036
 30
0.0
 10
48.045200
 20
242.945556
 30
0.0
 10
48.216252
 20
242.774501
 30
0.0
  0
SPLINE
  5
1d2
100
AcDbEntity
  8
Image
 62
7
100
AcDbSpline
 70
8
 71
3
 72
8
 73
4
 74
0
 40
0
 40
0
 40
0
 40
0
 40
1
 40
1
 40
1
 40
1
 10
48.216252
 20
242.774501
 30
0.0
 10
48.314540
 20
242.676214
 30
0.0
 10
48.189186
 20
231.206068
 30
0.0
 10
47.937689
 20
217.285288
 30
0.0
  0
SPLINE
  5
1d3
100
AcDbEntity
  8
Image
 62
7
100
AcDbSpline
 70
8
 71
3
 72
8
 73
4
 74
0
 40
0
 40
0
 40
0
 40
0
 40
1
 40
1
 40
1
 40
1
 10
47.937689
 20
217.285288
 30
0.0
 10
47.455818
 20
190.612845
 30
0.0
 10
47.458781
 20
190.528900
 30
0.0
 10
48.986355
 20
187.567048
 30
0.0
  0
SPLINE
  5
1d4
100
AcDbEntity
  8
Image
 62
7
100
AcDbSpline
 70
8
 71
3
 72
8
 73
4
 74
0
 40
0
 40
0
 40
0
 40
0
 40
1
 40
1
 40
1
 40
1
 10
48.986355
 20
187.567048
 30
0.0
 10
50.789520
 20
184.070845
 30
0.0
 10
55.936995
 20
181.573980
 30
0.0
 10
61.327650
 20
181.580706
 30
0.0
  0
SPLINE
  5
1d5
100
AcDbEntity
  8
Image
 62
7
100
AcDbSpline
 70
8
 71
3
 72
8
 73
4
 74
0
 40
0
 40
0
 40
0
 40
0
 40
1
 40
1
 40
1
 40
1
 10
61.327650
 20
181.580706
 30
0.0
 10
64.061459
 20
181.584119
 30
0.0
 10
69.162615
 20
182.783131
 30
0.0
 10
71.229636
 20
183.908145
 30
0.0
  0
SPLINE
  5
1d6
100
AcDbEntity
  8
Image
 62
7
100
AcDbSpline
 70
8
 71
3
 72
8
 73
4
 74
0
 40
0
 40
0
 40
0
 40
0
 40
1
 40
1
 40
1
 40
1
 10
71.229636
 20
183.908145
 30
0.0
 10
74.515285
 20
185.696419
 30
0.0
 10
77.475637
 20
189.505100
 30
0.0
 10
78.230047
 20
192.914624
 30
0.0
  0
SPLINE
  5
1d7
100
AcDbEntity
  8
Image
 62
7
100
AcDbSpline
 70
8
 71
3
 72
8
 73
4
 74
0
 40
0
 40
0
 40
0
 40
0
 40
1
 40
1
 40
1
 40
1
 10
78.230047
 20
192.914624
 30
0.0
 10
78.416191
 20
193.755896
 30
0.0
 10
78.824559
 20
206.906056
 30
0.0
 10
79.137528
 20
222.137200
 30
0.0
  0
SPLINE
  5
1d8
100
AcDbEntity
  8
Image
 62
7
100
AcDbSpline
 70
8
 71
3
 72
8
 73
4
 74
0
 40
0
 40
0
 40
0
 40
0
 40
1
 40
1
 40
1
 40
1
 10
79.137528
 20
222.137200
 30
0.0
 10
79.471463
 20
238.388548
 30
0.0
 10
79.856206
 20
250.303014
 30
0.0
 10
80.068751
 20
250.974606
 30
0.0
  0
SPLINE
  5
1d9
100
AcDbEntity
  8
Image
 62
7
100
AcDbSpline
 70
8
 71
3
 72
8
 73
4
 74
0
 40
0
 40
0
 40
0
 40
0
 40
1
 40
1
 40
1
 40
1
 10
80.068751
 20
250.974606
 30
0.0
 10
80.379548
 20
251.956671
 30
0.0
 10
80.695164
 20
252.195843
 30
0.0
 10
82.293444
 20
252.660477
 30
0.0
  0
SPLINE
  5
1da
100
AcDbEntity
  8
Image
 62
7
100
AcDbSpline
 70
8
 71
3
 72
8
 73
4
 74
0
 40
0
 40
0
 40
0
 40
0
 40
1
 40
1
 40
1
 40
1
 10
82.293444
 20
252.660477
 30
0.0
 10
83.317826
 20
252.958273
 30
0.0
 10
85.012386
 20
253.344249
 30
0.0
 10
86.059133
 20
253.518201
 30
0.0
  0
SPLINE
  5
1db
100
AcDbEntity
  8
Image
 62
7
100
AcDbSpline
 70
8
 71
3
 72
8
 73
4
 74
0
 40
0
 40
0
 40
0
 40
0
 40
1
 40
1
 40
1
 40
1
 10
86.059133
 20
253.518201
 30
0.0
 10
87.105878
 20
253.692154
 30
0.0
 10
88.521879
 20
254.071647
 30
0.0
 10
89.205799
 20
254.361516
 30
0.0
  0
SPLINE
  5
1dc
100
AcDbEntity
  8
Image
 62
7
100
AcDbSpline
 70
8
 71
3
 72
8
 73
4
 74
0
 40
0
 40
0
 40
0
 40
0
 40
1
 40
1
 40
1
 40
1
 10
89.205799
 20
254.361516
 30
0.0
 10
90.985319
 20
255.115736
 30
0.0
 10
115.181630
 20
261.973650
 30
0.0
 10
116.136306
 20
261.994375
 30
0.0
  0
SPLINE
  5
1dd
100
AcDbEntity
  8
Image
 62
7
100
AcDbSpline
 70
8
 71
3
 72
8
 73
4
 74
0
 40
0
 40
0
 40
0
 40
0
 40
1
 40
1
 40
1
 40
1
 10
116.136306
 20
261.994375
 30
0.0
 10
116.303847
 20
261.998000
 30
0.0
 10
116.350115
 20
261.485053
 30
0.0
 10
116.239122
 20
260.854463
 30
0.0
  0
SPLINE
  5
1de
100
AcDbEntity
  8
Image
 62
7
100
AcDbSpline
 70
8
 71
3
 72
8
 73
4
 74
0
 40
0
 40
0
 40
0
 40
0
 40
1
 40
1
 40
1
 40
1
 10
116.239122
 20
260.854463
 30
0.0
 10
116.128130
 20
260.223875
 30
0.0
 10
115.543577
 20
237.562368
 30
0.0
 10
114.940114
 20
210.495562
 30
0.0
  0
SPLINE
  5
1df
100
AcDbEntity
  8
Image
 62
7
100
AcDbSpline
 70
8
 71
3
 72
8
 73
4
 74
0
 40
0
 40
0
 40
0
 40
0
 40
1
 40
1
 40
1
 40
1
 10
114.940114
 20
210.495562
 30
0.0
 10
114.336654
 20
183.428755
 30
0.0
 10
113.756490
 20
159.757712
 30
0.0
 10
113.650863
 20
157.893245
 30
0.0
  0
LINE
  5
1e0
100
AcDbEntity
  8
Image
 62
7
100
AcDbLine
 10
113.650863
 20
157.893245
 30
0.0
 11
113.458816
 21
154.503306
 31
0.0
  0
LINE
  5
1e1
100
AcDbEntity
  8
Image
 62
7
100
AcDbLine
 10
113.458816
 20
154.503306
 30
0.0
 11
108.471655
 21
153.186536
 31
0.0
  0
SPLINE
  5
1e2
100
AcDbEntity
  8
Image
 62
7
100
AcDbSpline
 70
8
 71
3
 72
8
 73
4
 74
0
 40
0
 40
0
 40
0
 40
0
 40
1
 40
1
 40
1
 40
1
 10
108.471655
 20
153.186536
 30
0.0
 10
100.862410
 20
151.177454
 30
0.0
 10
92.544372
 20
148.891396
 30
0.0
 10
85.178753
 20
146.784916
 30
0.0
  0
SPLINE
  5
1e3
100
AcDbEntity
  8
Image
 62
7
100
AcDbSpline
 70
8
 71
3
 72
8
 73
4
 74
0
 40
0
 40
0
 40
0
 40
0
 40
1
 40
1
 40
1
 40
1
 10
85.178753
 20
146.784916
 30
0.0
 10
81.513497
 20
145.736695
 30
0.0
 10
78.259130
 20
144.878963
 30
0.0
 10
77.946827
 20
144.878846
 30
0.0
  0
SPLINE
  5
1e4
100
AcDbEntity
  8
Image
 62
7
100
AcDbSpline
 70
8
 71
3
 72
8
 73
4
 74
0
 40
0
 40
0
 40
0
 40
0
 40
1
 40
1
 40
1
 40
1
 10
77.946827
 20
144.878846
 30
0.0
 10
77.440572
 20
144.878658
 30
0.0
 10
77.392145
 20
145.605472
 30
0.0
 10
77.500238
 20
151.581607
 30
0.0
  0
SPLINE
  5
1e5
100
AcDbEntity
  8
Image
 62
7
100
AcDbSpline
 70
8
 71
3
 72
8
 73
4
 74
0
 40
0
 40
0
 40
0
 40
0
 40
1
 40
1
 40
1
 40
1
 10
77.500238
 20
151.581607
 30
0.0
 10
77.566920
 20
155.268244
 30
0.0
 10
77.521960
 20
158.284582
 30
0.0
 10
77.400315
 20
158.284582
 30
0.0
  0
SPLINE
  5
1e6
100
AcDbEntity
  8
Image
 62
7
100
AcDbSpline
 70
8
 71
3
 72
8
 73
4
 74
0
 40
0
 40
0
 40
0
 40
0
 40
1
 40
1
 40
1
 40
1
 10
77.400315
 20
158.284582
 30
0.0
 10
77.278679
 20
158.284582
 30
0.0
 10
76.430371
 20
157.909824
 30
0.0
 10
75.515193
 20
157.451789
 30
0.0
  0
SPLINE
  5
1e7
100
AcDbEntity
  8
Image
 62
7
100
AcDbSpline
 70
8
 71
3
 72
8
 73
4
 74
0
 40
0
 40
0
 40
0
 40
0
 40
1
 40
1
 40
1
 40
1
 10
75.515193
 20
157.451789
 30
0.0
 10
67.345422
 20
153.362918
 30
0.0
 10
54.777284
 20
152.499825
 30
0.0
 10
48.512786
 20
155.597453
 30
0.0
  0
SPLINE
  5
1e8
100
AcDbEntity
  8
Image
 62
7
100
AcDbSpline
 70
8
 71
3
 72
8
 73
4
 74
0
 40
0
 40
0
 40
0
 40
0
 40
1
 40
1
 40
1
 40
1
 10
48.512786
 20
155.597453
 30
0.0
 10
47.405463
 20
156.144994
 30
0.0
 10
46.770334
 20
156.299336
 30
0.0
 10
46.695788
 20
156.038997
 30
0.0
  0
SPLINE
  5
1e9
100
AcDbEntity
  8
Image
 62
7
100
AcDbSpline
 70
8
 71
3
 72
8
 73
4
 74
0
 40
0
 40
0
 40
0
 40
0
 40
1
 40
1
 40
1
 40
1
 10
46.695788
 20
156.038997
 30
0.0
 10
46.632757
 20
155.818864
 30
0.0
 10
46.323640
 20
141.430664
 30
0.0
 10
46.008865
 20
124.065222
 30
0.0
  0
SPLINE
  5
1ea
100
AcDbEntity
  8
Image
 62
7
100
AcDbSpline
 70
8
 71
3
 72
8
 73
4
 74
0
 40
0
 40
0
 40
0
 40
0
 40
1
 40
1
 40
1
 40
1
 10
46.008865
 20
124.065222
 30
0.0
 10
45.694089
 20
106.699779
 30
0.0
 10
45.408787
 20
91.182740
 30
0.0
 10
45.374857
 20
89.582914
 30
0.0
  0
SPLINE
  5
1eb
100
AcDbEntity
  8
Image
 62
7
100
AcDbSpline
 70
8
 71
3
 72
8
 73
4
 74
0
 40
0
 40
0
 40
0
 40
0
 40
1
 40
1
 40
1
 40
1
 10
45.374857
 20
89.582914
 30
0.0
 10
45.326351
 20
87.295647
 30
0.0
 10
45.196165
 20
86.639262
 30
0.0
 10
44.765570
 20
86.510916
 30
0.0
  0
SPLINE
  5
1ec
100
AcDbEntity
  8
Image
 62
7
100
AcDbSpline
 70
8
 71
3
 72
8
 73
4
 74
0
 40
0
 40
0
 40
0
 40
0
 40
1
 40
1
 40
1
 40
1
 10
44.765570
 20
86.510916
 30
0.0
 10
42.002771
 20
85.687426
 30
0.0
 10
29.118325
 20
82.062974
 30
0.0
 10
16.524981
 20
78.566710
 30
0.0
  0
SPLINE
  5
1ed
100
AcDbEntity
  8
Image
 62
7
100
AcDbSpline
 70
8
 71
3
 72
8
 73
4
 74
0
 40
0
 40
0
 40
0
 40
0
 40
1
 40
1
 40
1
 40
1
 10
16.524981
 20
78.566710
 30
0.0
 10
8.084793
 20
76.223481
 30
0.0
 10
0.891991
 20
74.217153
 30
0.0
 10
0.540977
 20
74.108208
 30
0.0
  0
SPLINE
  5
1ee
100
AcDbEntity
  8
Image
 62
7
100
AcDbSpline
 70
8
 71
3
 72
8
 73
4
 74
0
 40
0
 40
0
 40
0
 40
0
 40
1
 40
1
 40
1
 40
1
 10
0.540977
 20
74.108208
 30
0.0
 10
-0.066482
 20
73.919667
 30
0.0
 10
-0.087054
 20
74.315260
 30
0.0
 10
0.114006
 20
82.318966
 30
0.0
  0
LINE
  5
1ef
100
AcDbEntity
  8
Image
 62
7
100
AcDbLine
 10
0.114006
 20
82.318966
 30
0.0
 11
0.114006
 21
82.318966
 31
0.0
  0
LINE
  5
1f0
100
AcDbEntity
  8
Image
 62
7
100
AcDbLine
 10
237.450312
 20
132.792098
 30
0.0
 11
237.539719
 21
182.793871
 31
0.0
  0
LINE
  5
1f1
100
AcDbEntity
  8
Image
 62
7
100
AcDbLine
 10
237.539719
 20
182.793871
 30
0.0
 11
239.127216
 21
183.031643
 31
0.0
  0
SPLINE
  5
1f2
100
AcDbEntity
  8
Image
 62
7
100
AcDbSpline
 70
8
 71
3
 72
8
 73
4
 74
0
 40
0
 40
0
 40
0
 40
0
 40
1
 40
1
 40
1
 40
1
 10
239.127216
 20
183.031643
 30
0.0
 10
240.000338
 20
183.162418
 30
0.0
 10
241.274283
 20
183.508762
 30
0.0
 10
241.958205
 20
183.801296
 30
0.0
  0
SPLINE
  5
1f3
100
AcDbEntity
  8
Image
 62
7
100
AcDbSpline
 70
8
 71
3
 72
8
 73
4
 74
0
 40
0
 40
0
 40
0
 40
0
 40
1
 40
1
 40
1
 40
1
 10
241.958205
 20
183.801296
 30
0.0
 10
244.078314
 20
184.708126
 30
0.0
 10
268.707250
 20
191.621011
 30
0.0
 10
268.944343
 20
191.375806
 30
0.0
  0
SPLINE
  5
1f4
100
AcDbEntity
  8
Image
 62
7
100
AcDbSpline
 70
8
 71
3
 72
8
 73
4
 74
0
 40
0
 40
0
 40
0
 40
0
 40
1
 40
1
 40
1
 40
1
 10
268.944343
 20
191.375806
 30
0.0
 10
269.001043
 20
191.317185
 30
0.0
 10
268.911270
 20
189.046727
 30
0.0
 10
268.744874
 20
186.330344
 30
0.0
  0
SPLINE
  5
1f5
100
AcDbEntity
  8
Image
 62
7
100
AcDbSpline
 70
8
 71
3
 72
8
 73
4
 74
0
 40
0
 40
0
 40
0
 40
0
 40
1
 40
1
 40
1
 40
1
 10
268.744874
 20
186.330344
 30
0.0
 10
268.578478
 20
183.613963
 30
0.0
 10
268.434545
 20
180.139815
 30
0.0
 10
268.425020
 20
178.610017
 30
0.0
  0
LINE
  5
1f6
100
AcDbEntity
  8
Image
 62
7
100
AcDbLine
 10
268.425020
 20
178.610017
 30
0.0
 11
268.407558
 21
175.828562
 31
0.0
  0
LINE
  5
1f7
100
AcDbEntity
  8
Image
 62
7
100
AcDbLine
 10
268.407558
 20
175.828562
 30
0.0
 11
272.376298
 21
179.671850
 31
0.0
  0
SPLINE
  5
1f8
100
AcDbEntity
  8
Image
 62
7
100
AcDbSpline
 70
8
 71
3
 72
8
 73
4
 74
0
 40
0
 40
0
 40
0
 40
0
 40
1
 40
1
 40
1
 40
1
 10
272.376298
 20
179.671850
 30
0.0
 10
278.230719
 20
185.341199
 30
0.0
 10
282.740716
 20
188.101471
 30
0.0
 10
287.624569
 20
189.004301
 30
0.0
  0
SPLINE
  5
1f9
100
AcDbEntity
  8
Image
 62
7
100
AcDbSpline
 70
8
 71
3
 72
8
 73
4
 74
0
 40
0
 40
0
 40
0
 40
0
 40
1
 40
1
 40
1
 40
1
 10
287.624569
 20
189.004301
 30
0.0
 10
293.027691
 20
190.003124
 30
0.0
 10
298.303814
 20
186.900371
 30
0.0
 10
301.197528
 20
181.022357
 30
0.0
  0
LINE
  5
1fa
100
AcDbEntity
  8
Image
 62
7
100
AcDbLine
 10
301.197528
 20
181.022357
 30
0.0
 11
302.274141
 21
178.835446
 31
0.0
  0
LINE
  5
1fb
100
AcDbEntity
  8
Image
 62
7
100
AcDbLine
 10
302.274141
 20
178.835446
 30
0.0
 11
302.274141
 21
166.487449
 31
0.0
  0
SPLINE
  5
1fc
100
AcDbEntity
  8
Image
 62
7
100
AcDbSpline
 70
8
 71
3
 72
8
 73
4
 74
0
 40
0
 40
0
 40
0
 40
0
 40
1
 40
1
 40
1
 40
1
 10
302.274141
 20
166.487449
 30
0.0
 10
302.274141
 20
159.696051
 30
0.0
 10
302.174923
 20
153.643359
 30
0.0
 10
302.053665
 20
153.037026
 30
0.0
  0
LINE
  5
1fd
100
AcDbEntity
  8
Image
 62
7
100
AcDbLine
 10
302.053665
 20
153.037026
 30
0.0
 11
301.833188
 21
151.934597
 31
0.0
  0
LINE
  5
1fe
100
AcDbEntity
  8
Image
 62
7
100
AcDbLine
 10
301.833188
 20
151.934597
 30
0.0
 11
284.767605
 21
151.934597
 31
0.0
  0
LINE
  5
1ff
100
AcDbEntity
  8
Image
 62
7
100
AcDbLine
 10
284.767605
 20
151.934597
 30
0.0
 11
267.702021
 21
151.934597
 31
0.0
  0
LINE
  5
200
100
AcDbEntity
  8
Image
 62
7
100
AcDbLine
 10
267.702021
 20
151.934597
 30
0.0
 11
267.694613
 21
144.614478
 31
0.0
  0
SPLINE
  5
201
100
AcDbEntity
  8
Image
 62
7
100
AcDbSpline
 70
8
 71
3
 72
8
 73
4
 74
0
 40
0
 40
0
 40
0
 40
0
 40
1
 40
1
 40
1
 40
1
 10
267.694613
 20
144.614478
 30
0.0
 10
267.686676
 20
136.550172
 30
0.0
 10
266.732961
 20
90.870395
 30
0.0
 10
266.569502
 20
90.721969
 30
0.0
  0
SPLINE
  5
202
100
AcDbEntity
  8
Image
 62
7
100
AcDbSpline
 70
8
 71
3
 72
8
 73
4
 74
0
 40
0
 40
0
 40
0
 40
0
 40
1
 40
1
 40
1
 40
1
 10
266.569502
 20
90.721969
 30
0.0
 10
266.513225
 20
90.670844
 30
0.0
 10
264.244666
 20
90.040266
 30
0.0
 10
261.528283
 20
89.320684
 30
0.0
  0
SPLINE
  5
203
100
AcDbEntity
  8
Image
 62
7
100
AcDbSpline
 70
8
 71
3
 72
8
 73
4
 74
0
 40
0
 40
0
 40
0
 40
0
 40
1
 40
1
 40
1
 40
1
 10
261.528283
 20
89.320684
 30
0.0
 10
253.529123
 20
87.201670
 30
0.0
 10
242.651354
 20
84.216063
 30
0.0
 10
240.236314
 20
83.476711
 30
0.0
  0
SPLINE
  5
204
100
AcDbEntity
  8
Image
 62
7
100
AcDbSpline
 70
8
 71
3
 72
8
 73
4
 74
0
 40
0
 40
0
 40
0
 40
0
 40
1
 40
1
 40
1
 40
1
 10
240.236314
 20
83.476711
 30
0.0
 10
239.003206
 20
83.099199
 30
0.0
 10
237.851726
 20
82.790325
 30
0.0
 10
237.677472
 20
82.790325
 30
0.0
  0
SPLINE
  5
205
100
AcDbEntity
  8
Image
 62
7
100
AcDbSpline
 70
8
 71
3
 72
8
 73
4
 74
0
 40
0
 40
0
 40
0
 40
0
 40
1
 40
1
 40
1
 40
1
 10
237.677472
 20
82.790325
 30
0.0
 10
237.491285
 20
82.790325
 30
0.0
 10
237.397509
 20
103.408561
 30
0.0
 10
237.450047
 20
132.792098
 30
0.0
  0
LINE
  5
206
100
AcDbEntity
  8
Image
 62
7
100
AcDbLine
 10
237.450047
 20
132.792098
 30
0.0
 11
237.450312
 21
132.792098
 31
0.0
  0
LINE
  5
207
100
AcDbEntity
  8
Image
 62
7
100
AcDbLine
 10
561.918101
 20
135.354084
 30
0.0
 11
561.918101
 21
185.448402
 31
0.0
  0
LINE
  5
208
100
AcDbEntity
  8
Image
 62
7
100
AcDbLine
 10
561.918101
 20
185.448402
 30
0.0
 11
562.985243
 21
185.448402
 31
0.0
  0
SPLINE
  5
209
100
AcDbEntity
  8
Image
 62
7
100
AcDbSpline
 70
8
 71
3
 72
8
 73
4
 74
0
 40
0
 40
0
 40
0
 40
0
 40
1
 40
1
 40
1
 40
1
 10
562.985243
 20
185.448402
 30
0.0
 10
563.572166
 20
185.448402
 30
0.0
 10
564.961226
 20
185.771997
 30
0.0
 10
566.072023
 20
186.167504
 30
0.0
  0
SPLINE
  5
20a
100
AcDbEntity
  8
Image
 62
7
100
AcDbSpline
 70
8
 71
3
 72
8
 73
4
 74
0
 40
0
 40
0
 40
0
 40
0
 40
1
 40
1
 40
1
 40
1
 10
566.072023
 20
186.167504
 30
0.0
 10
567.182847
 20
186.563007
 30
0.0
 10
571.187306
 20
187.758180
 30
0.0
 10
574.970838
 20
188.823440
 30
0.0
  0
SPLINE
  5
20b
100
AcDbEntity
  8
Image
 62
7
100
AcDbSpline
 70
8
 71
3
 72
8
 73
4
 74
0
 40
0
 40
0
 40
0
 40
0
 40
1
 40
1
 40
1
 40
1
 10
574.970838
 20
188.823440
 30
0.0
 10
578.754371
 20
189.888703
 30
0.0
 10
583.119985
 20
191.145756
 30
0.0
 10
584.672212
 20
191.616896
 30
0.0
  0
SPLINE
  5
20c
100
AcDbEntity
  8
Image
 62
7
100
AcDbSpline
 70
8
 71
3
 72
8
 73
4
 74
0
 40
0
 40
0
 40
0
 40
0
 40
1
 40
1
 40
1
 40
1
 10
584.672212
 20
191.616896
 30
0.0
 10
588.469397
 20
192.769450
 30
0.0
 10
593.350710
 20
193.997180
 30
0.0
 10
593.508507
 20
193.839383
 30
0.0
  0
SPLINE
  5
20d
100
AcDbEntity
  8
Image
 62
7
100
AcDbSpline
 70
8
 71
3
 72
8
 73
4
 74
0
 40
0
 40
0
 40
0
 40
0
 40
1
 40
1
 40
1
 40
1
 10
593.508507
 20
193.839383
 30
0.0
 10
593.578859
 20
193.769022
 30
0.0
 10
593.490515
 20
191.098208
 30
0.0
 10
593.312266
 20
187.904240
 30
0.0
  0
SPLINE
  5
20e
100
AcDbEntity
  8
Image
 62
7
100
AcDbSpline
 70
8
 71
3
 72
8
 73
4
 74
0
 40
0
 40
0
 40
0
 40
0
 40
1
 40
1
 40
1
 40
1
 10
593.312266
 20
187.904240
 30
0.0
 10
593.133990
 20
184.710269
 30
0.0
 10
592.982331
 20
181.328045
 30
0.0
 10
592.975293
 20
180.388184
 30
0.0
  0
LINE
  5
20f
100
AcDbEntity
  8
Image
 62
7
100
AcDbLine
 10
592.975293
 20
180.388184
 30
0.0
 11
592.962593
 21
178.679345
 31
0.0
  0
LINE
  5
210
100
AcDbEntity
  8
Image
 62
7
100
AcDbLine
 10
592.962593
 20
178.679345
 30
0.0
 11
596.214764
 21
181.740792
 31
0.0
  0
SPLINE
  5
211
100
AcDbEntity
  8
Image
 62
7
100
AcDbSpline
 70
8
 71
3
 72
8
 73
4
 74
0
 40
0
 40
0
 40
0
 40
0
 40
1
 40
1
 40
1
 40
1
 10
596.214764
 20
181.740792
 30
0.0
 10
600.192342
 20
185.485124
 30
0.0
 10
603.331377
 20
187.873295
 30
0.0
 10
606.411993
 20
189.498830
 30
0.0
  0
SPLINE
  5
212
100
AcDbEntity
  8
Image
 62
7
100
AcDbSpline
 70
8
 71
3
 72
8
 73
4
 74
0
 40
0
 40
0
 40
0
 40
0
 40
1
 40
1
 40
1
 40
1
 10
606.411993
 20
189.498830
 30
0.0
 10
615.612036
 20
194.353382
 30
0.0
 10
623.071177
 20
191.113991
 30
0.0
 10
627.170674
 20
180.483667
 30
0.0
  0
SPLINE
  5
213
100
AcDbEntity
  8
Image
 62
7
100
AcDbSpline
 70
8
 71
3
 72
8
 73
4
 74
0
 40
0
 40
0
 40
0
 40
0
 40
1
 40
1
 40
1
 40
1
 10
627.170674
 20
180.483667
 30
0.0
 10
628.327377
 20
177.484225
 30
0.0
 10
628.490333
 20
175.524334
 30
0.0
 10
627.887164
 20
171.866492
 30
0.0
  0
SPLINE
  5
214
100
AcDbEntity
  8
Image
 62
7
100
AcDbSpline
 70
8
 71
3
 72
8
 73
4
 74
0
 40
0
 40
0
 40
0
 40
0
 40
1
 40
1
 40
1
 40
1
 10
627.887164
 20
171.866492
 30
0.0
 10
627.695183
 20
170.702328
 30
0.0
 10
627.378610
 20
166.654213
 30
0.0
 10
627.183639
 20
162.870681
 30
0.0
  0
SPLINE
  5
215
100
AcDbEntity
  8
Image
 62
7
100
AcDbSpline
 70
8
 71
3
 72
8
 73
4
 74
0
 40
0
 40
0
 40
0
 40
0
 40
1
 40
1
 40
1
 40
1
 10
627.183639
 20
162.870681
 30
0.0
 10
626.988641
 20
159.087148
 30
0.0
 10
626.731255
 20
155.634344
 30
0.0
 10
626.611611
 20
155.197783
 30
0.0
  0
LINE
  5
216
100
AcDbEntity
  8
Image
 62
7
100
AcDbLine
 10
626.611611
 20
155.197783
 30
0.0
 11
626.394097
 21
154.404035
 31
0.0
  0
LINE
  5
217
100
AcDbEntity
  8
Image
 62
7
100
AcDbLine
 10
626.394097
 20
154.404035
 30
0.0
 11
609.325577
 21
154.404035
 31
0.0
  0
LINE
  5
218
100
AcDbEntity
  8
Image
 62
7
100
AcDbLine
 10
609.325577
 20
154.404035
 30
0.0
 11
592.257031
 21
154.404035
 31
0.0
  0
LINE
  5
219
100
AcDbEntity
  8
Image
 62
7
100
AcDbLine
 10
592.257031
 20
154.404035
 30
0.0
 11
592.246447
 21
146.025585
 31
0.0
  0
SPLINE
  5
21a
100
AcDbEntity
  8
Image
 62
7
100
AcDbSpline
 70
8
 71
3
 72
8
 73
4
 74
0
 40
0
 40
0
 40
0
 40
0
 40
1
 40
1
 40
1
 40
1
 10
592.246447
 20
146.025585
 30
0.0
 10
592.234541
 20
136.617651
 30
0.0
 10
591.325462
 20
93.382689
 30
0.0
 10
591.135676
 20
93.192909
 30
0.0
  0
SPLINE
  5
21b
100
AcDbEntity
  8
Image
 62
7
100
AcDbSpline
 70
8
 71
3
 72
8
 73
4
 74
0
 40
0
 40
0
 40
0
 40
0
 40
1
 40
1
 40
1
 40
1
 10
591.135676
 20
93.192909
 30
0.0
 10
591.068340
 20
93.125578
 30
0.0
 10
589.189697
 20
92.575421
 30
0.0
 10
586.960906
 20
91.970339
 30
0.0
  0
SPLINE
  5
21c
100
AcDbEntity
  8
Image
 62
7
100
AcDbSpline
 70
8
 71
3
 72
8
 73
4
 74
0
 40
0
 40
0
 40
0
 40
0
 40
1
 40
1
 40
1
 40
1
 10
586.960906
 20
91.970339
 30
0.0
 10
584.732114
 20
91.365257
 30
0.0
 10
582.591058
 20
90.723964
 30
0.0
 10
582.202994
 20
90.545241
 30
0.0
  0
SPLINE
  5
21d
100
AcDbEntity
  8
Image
 62
7
100
AcDbSpline
 70
8
 71
3
 72
8
 73
4
 74
0
 40
0
 40
0
 40
0
 40
0
 40
1
 40
1
 40
1
 40
1
 10
582.202994
 20
90.545241
 30
0.0
 10
581.481610
 20
90.213002
 30
0.0
 10
570.987123
 20
87.436585
 30
0.0
 10
569.350229
 20
87.144925
 30
0.0
  0
SPLINE
  5
21e
100
AcDbEntity
  8
Image
 62
7
100
AcDbSpline
 70
8
 71
3
 72
8
 73
4
 74
0
 40
0
 40
0
 40
0
 40
0
 40
1
 40
1
 40
1
 40
1
 10
569.350229
 20
87.144925
 30
0.0
 10
568.852205
 20
87.056184
 30
0.0
 10
567.102202
 20
86.595720
 30
0.0
 10
565.461340
 20
86.121670
 30
0.0
  0
SPLINE
  5
21f
100
AcDbEntity
  8
Image
 62
7
100
AcDbSpline
 70
8
 71
3
 72
8
 73
4
 74
0
 40
0
 40
0
 40
0
 40
0
 40
1
 40
1
 40
1
 40
1
 10
565.461340
 20
86.121670
 30
0.0
 10
563.820504
 20
85.647622
 30
0.0
 10
562.352070
 20
85.259765
 30
0.0
 10
562.198162
 20
85.259765
 30
0.0
  0
SPLINE
  5
220
100
AcDbEntity
  8
Image
 62
7
100
AcDbSpline
 70
8
 71
3
 72
8
 73
4
 74
0
 40
0
 40
0
 40
0
 40
0
 40
1
 40
1
 40
1
 40
1
 10
562.198162
 20
85.259765
 30
0.0
 10
562.044254
 20
85.259765
 30
0.0
 10
561.918339
 20
107.802208
 30
0.0
 10
561.918339
 20
135.354084
 30
0.0
  0
LINE
  5
221
100
AcDbEntity
  8
Image
 62
7
100
AcDbLine
 10
561.918339
 20
135.354084
 30
0.0
 11
561.918101
 21
135.354084
 31
0.0
  0
SPLINE
  5
222
100
AcDbEntity
  8
Image
 62
7
100
AcDbSpline
 70
8
 71
3
 72
8
 73
4
 74
0
 40
0
 40
0
 40
0
 40
0
 40
1
 40
1
 40
1
 40
1
 10
309.682589
 20
118.127528
 30
0.0
 10
309.682589
 20
137.174923
 30
0.0
 10
311.001613
 20
201.623141
 30
0.0
 10
311.410975
 20
202.578110
 30
0.0
  0
SPLINE
  5
223
100
AcDbEntity
  8
Image
 62
7
100
AcDbSpline
 70
8
 71
3
 72
8
 73
4
 74
0
 40
0
 40
0
 40
0
 40
0
 40
1
 40
1
 40
1
 40
1
 10
311.410975
 20
202.578110
 30
0.0
 10
311.647274
 20
203.129339
 30
0.0
 10
312.684941
 20
203.583511
 30
0.0
 10
315.729388
 20
204.468193
 30
0.0
  0
SPLINE
  5
224
100
AcDbEntity
  8
Image
 62
7
100
AcDbSpline
 70
8
 71
3
 72
8
 73
4
 74
0
 40
0
 40
0
 40
0
 40
0
 40
1
 40
1
 40
1
 40
1
 10
315.729388
 20
204.468193
 30
0.0
 10
317.933415
 20
205.108671
 30
0.0
 10
322.038600
 20
206.318952
 30
0.0
 10
324.852014
 20
207.157705
 30
0.0
  0
SPLINE
  5
225
100
AcDbEntity
  8
Image
 62
7
100
AcDbSpline
 70
8
 71
3
 72
8
 73
4
 74
0
 40
0
 40
0
 40
0
 40
0
 40
1
 40
1
 40
1
 40
1
 10
324.852014
 20
207.157705
 30
0.0
 10
331.763284
 20
209.218159
 30
0.0
 10
345.601197
 20
213.222070
 30
0.0
 10
346.859764
 20
213.525510
 30
0.0
  0
SPLINE
  5
226
100
AcDbEntity
  8
Image
 62
7
100
AcDbSpline
 70
8
 71
3
 72
8
 73
4
 74
0
 40
0
 40
0
 40
0
 40
0
 40
1
 40
1
 40
1
 40
1
 10
346.859764
 20
213.525510
 30
0.0
 10
347.855441
 20
213.765560
 30
0.0
 10
347.872798
 20
213.745113
 30
0.0
 10
347.668064
 20
212.574168
 30
0.0
  0
SPLINE
  5
227
100
AcDbEntity
  8
Image
 62
7
100
AcDbSpline
 70
8
 71
3
 72
8
 73
4
 74
0
 40
0
 40
0
 40
0
 40
0
 40
1
 40
1
 40
1
 40
1
 10
347.668064
 20
212.574168
 30
0.0
 10
347.552997
 20
211.916003
 30
0.0
 10
346.985388
 20
189.254504
 30
0.0
 10
346.406719
 20
162.215280
 30
0.0
  0
SPLINE
  5
228
100
AcDbEntity
  8
Image
 62
7
100
AcDbSpline
 70
8
 71
3
 72
8
 73
4
 74
0
 40
0
 40
0
 40
0
 40
0
 40
1
 40
1
 40
1
 40
1
 10
346.406719
 20
162.215280
 30
0.0
 10
345.828050
 20
135.176059
 30
0.0
 10
345.305552
 20
113.008261
 30
0.0
 10
345.245624
 20
112.953511
 30
0.0
  0
SPLINE
  5
229
100
AcDbEntity
  8
Image
 62
7
100
AcDbSpline
 70
8
 71
3
 72
8
 73
4
 74
0
 40
0
 40
0
 40
0
 40
0
 40
1
 40
1
 40
1
 40
1
 10
345.245624
 20
112.953511
 30
0.0
 10
345.185696
 20
112.898758
 30
0.0
 10
342.914174
 20
112.266876
 30
0.0
 10
340.197810
 20
111.549331
 30
0.0
  0
SPLINE
  5
22a
100
AcDbEntity
  8
Image
 62
7
100
AcDbSpline
 70
8
 71
3
 72
8
 73
4
 74
0
 40
0
 40
0
 40
0
 40
0
 40
1
 40
1
 40
1
 40
1
 10
340.197810
 20
111.549331
 30
0.0
 10
337.481419
 20
110.831782
 30
0.0
 10
329.673187
 20
108.671203
 30
0.0
 10
322.846160
 20
106.748041
 30
0.0
  0
SPLINE
  5
22b
100
AcDbEntity
  8
Image
 62
7
100
AcDbSpline
 70
8
 71
3
 72
8
 73
4
 74
0
 40
0
 40
0
 40
0
 40
0
 40
1
 40
1
 40
1
 40
1
 10
322.846160
 20
106.748041
 30
0.0
 10
316.019133
 20
104.824882
 30
0.0
 10
310.264459
 20
103.251385
 30
0.0
 10
310.058005
 20
103.251385
 30
0.0
  0
SPLINE
  5
22c
100
AcDbEntity
  8
Image
 62
7
100
AcDbSpline
 70
8
 71
3
 72
8
 73
4
 74
0
 40
0
 40
0
 40
0
 40
0
 40
1
 40
1
 40
1
 40
1
 10
310.058005
 20
103.251385
 30
0.0
 10
309.798582
 20
103.251385
 30
0.0
 10
309.682589
 20
107.847687
 30
0.0
 10
309.682589
 20
118.127528
 30
0.0
  0
LINE
  5
22d
100
AcDbEntity
  8
Image
 62
7
100
AcDbLine
 10
309.682589
 20
118.127528
 30
0.0
 11
309.682589
 21
118.127528
 31
0.0
  0
SPLINE
  5
22e
100
AcDbEntity
  8
Image
 62
7
100
AcDbSpline
 70
8
 71
3
 72
8
 73
4
 74
0
 40
0
 40
0
 40
0
 40
0
 40
1
 40
1
 40
1
 40
1
 10
357.009552
 20
161.900458
 30
0.0
 10
359.028318
 20
260.158285
 30
0.0
 10
359.478030
 20
279.853719
 30
0.0
 10
359.725494
 20
280.843956
 30
0.0
  0
SPLINE
  5
22f
100
AcDbEntity
  8
Image
 62
7
100
AcDbSpline
 70
8
 71
3
 72
8
 73
4
 74
0
 40
0
 40
0
 40
0
 40
0
 40
1
 40
1
 40
1
 40
1
 10
359.725494
 20
280.843956
 30
0.0
 10
359.964809
 20
281.801702
 30
0.0
 10
360.245584
 20
281.948930
 30
0.0
 10
363.848353
 20
283.005859
 30
0.0
  0
SPLINE
  5
230
100
AcDbEntity
  8
Image
 62
7
100
AcDbSpline
 70
8
 71
3
 72
8
 73
4
 74
0
 40
0
 40
0
 40
0
 40
0
 40
1
 40
1
 40
1
 40
1
 10
363.848353
 20
283.005859
 30
0.0
 10
365.974672
 20
283.629651
 30
0.0
 10
368.313372
 20
284.390903
 30
0.0
 10
369.045419
 20
284.697530
 30
0.0
  0
SPLINE
  5
231
100
AcDbEntity
  8
Image
 62
7
100
AcDbSpline
 70
8
 71
3
 72
8
 73
4
 74
0
 40
0
 40
0
 40
0
 40
0
 40
1
 40
1
 40
1
 40
1
 10
369.045419
 20
284.697530
 30
0.0
 10
370.183892
 20
285.174391
 30
0.0
 10
392.253527
 20
291.507557
 30
0.0
 10
395.190210
 20
292.200115
 30
0.0
  0
SPLINE
  5
232
100
AcDbEntity
  8
Image
 62
7
100
AcDbSpline
 70
8
 71
3
 72
8
 73
4
 74
0
 40
0
 40
0
 40
0
 40
0
 40
1
 40
1
 40
1
 40
1
 10
395.190210
 20
292.200115
 30
0.0
 10
396.185385
 20
292.434810
 30
0.0
 10
396.203085
 20
292.413791
 30
0.0
 10
395.996473
 20
291.243416
 30
0.0
  0
SPLINE
  5
233
100
AcDbEntity
  8
Image
 62
7
100
AcDbSpline
 70
8
 71
3
 72
8
 73
4
 74
0
 40
0
 40
0
 40
0
 40
0
 40
1
 40
1
 40
1
 40
1
 10
395.996473
 20
291.243416
 30
0.0
 10
395.781552
 20
290.026082
 30
0.0
 10
394.906472
 20
254.623895
 30
0.0
 10
394.517191
 20
231.397594
 30
0.0
  0
SPLINE
  5
234
100
AcDbEntity
  8
Image
 62
7
100
AcDbSpline
 70
8
 71
3
 72
8
 73
4
 74
0
 40
0
 40
0
 40
0
 40
0
 40
1
 40
1
 40
1
 40
1
 10
394.517191
 20
231.397594
 30
0.0
 10
394.342170
 20
220.953851
 30
0.0
 10
394.387942
 20
218.609709
 30
0.0
 10
394.766931
 20
218.610955
 30
0.0
  0
SPLINE
  5
235
100
AcDbEntity
  8
Image
 62
7
100
AcDbSpline
 70
8
 71
3
 72
8
 73
4
 74
0
 40
0
 40
0
 40
0
 40
0
 40
1
 40
1
 40
1
 40
1
 10
394.766931
 20
218.610955
 30
0.0
 10
395.022174
 20
218.611749
 30
0.0
 10
398.644125
 20
219.572060
 30
0.0
 10
402.815695
 20
220.744878
 30
0.0
  0
SPLINE
  5
236
100
AcDbEntity
  8
Image
 62
7
100
AcDbSpline
 70
8
 71
3
 72
8
 73
4
 74
0
 40
0
 40
0
 40
0
 40
0
 40
1
 40
1
 40
1
 40
1
 10
402.815695
 20
220.744878
 30
0.0
 10
415.498466
 20
224.310567
 30
0.0
 10
423.754848
 20
226.607687
 30
0.0
 10
424.776058
 20
226.854783
 30
0.0
  0
LINE
  5
237
100
AcDbEntity
  8
Image
 62
7
100
AcDbLine
 10
424.776058
 20
226.854783
 30
0.0
 11
425.746203
 21
227.089518
 31
0.0
  0
LINE
  5
238
100
AcDbEntity
  8
Image
 62
7
100
AcDbLine
 10
425.746203
 20
227.089518
 30
0.0
 11
425.746203
 21
222.025062
 31
0.0
  0
SPLINE
  5
239
100
AcDbEntity
  8
Image
 62
7
100
AcDbSpline
 70
8
 71
3
 72
8
 73
4
 74
0
 40
0
 40
0
 40
0
 40
0
 40
1
 40
1
 40
1
 40
1
 10
425.746203
 20
222.025062
 30
0.0
 10
425.746203
 20
219.239609
 30
0.0
 10
425.641190
 20
211.934103
 30
0.0
 10
425.512841
 20
205.790604
 30
0.0
  0
LINE
  5
23a
100
AcDbEntity
  8
Image
 62
7
100
AcDbLine
 10
425.512841
 20
205.790604
 30
0.0
 11
425.279479
 21
194.620600
 31
0.0
  0
LINE
  5
23b
100
AcDbEntity
  8
Image
 62
7
100
AcDbLine
 10
425.279479
 20
194.620600
 30
0.0
 11
409.461483
 21
194.620600
 31
0.0
  0
LINE
  5
23c
100
AcDbEntity
  8
Image
 62
7
100
AcDbLine
 10
409.461483
 20
194.620600
 30
0.0
 11
393.643513
 21
194.620600
 31
0.0
  0
LINE
  5
23d
100
AcDbEntity
  8
Image
 62
7
100
AcDbLine
 10
393.643513
 20
194.620600
 30
0.0
 11
393.640338
 21
193.297687
 31
0.0
  0
SPLINE
  5
23e
100
AcDbEntity
  8
Image
 62
7
100
AcDbSpline
 70
8
 71
3
 72
8
 73
4
 74
0
 40
0
 40
0
 40
0
 40
0
 40
1
 40
1
 40
1
 40
1
 10
393.640338
 20
193.297687
 30
0.0
 10
393.631606
 20
189.538321
 30
0.0
 10
392.221434
 20
126.055587
 30
0.0
 10
392.145260
 20
125.991966
 30
0.0
  0
SPLINE
  5
23f
100
AcDbEntity
  8
Image
 62
7
100
AcDbSpline
 70
8
 71
3
 72
8
 73
4
 74
0
 40
0
 40
0
 40
0
 40
0
 40
1
 40
1
 40
1
 40
1
 10
392.145260
 20
125.991966
 30
0.0
 10
392.096127
 20
125.950929
 30
0.0
 10
389.198444
 20
125.172468
 30
0.0
 10
385.705953
 20
124.262053
 30
0.0
  0
SPLINE
  5
240
100
AcDbEntity
  8
Image
 62
7
100
AcDbSpline
 70
8
 71
3
 72
8
 73
4
 74
0
 40
0
 40
0
 40
0
 40
0
 40
1
 40
1
 40
1
 40
1
 10
385.705953
 20
124.262053
 30
0.0
 10
382.213461
 20
123.351639
 30
0.0
 10
376.419100
 20
121.761939
 30
0.0
 10
372.829586
 20
120.729387
 30
0.0
  0
SPLINE
  5
241
100
AcDbEntity
  8
Image
 62
7
100
AcDbSpline
 70
8
 71
3
 72
8
 73
4
 74
0
 40
0
 40
0
 40
0
 40
0
 40
1
 40
1
 40
1
 40
1
 10
372.829586
 20
120.729387
 30
0.0
 10
363.745828
 20
118.116366
 30
0.0
 10
357.070989
 20
116.304146
 30
0.0
 10
356.529996
 20
116.304046
 30
0.0
  0
SPLINE
  5
242
100
AcDbEntity
  8
Image
 62
7
100
AcDbSpline
 70
8
 71
3
 72
8
 73
4
 74
0
 40
0
 40
0
 40
0
 40
0
 40
1
 40
1
 40
1
 40
1
 10
356.529996
 20
116.304046
 30
0.0
 10
356.157887
 20
116.303977
 30
0.0
 10
356.247237
 20
124.800251
 30
0.0
 10
357.009473
 20
161.900458
 30
0.0
  0
LINE
  5
243
100
AcDbEntity
  8
Image
 62
7
100
AcDbLine
 10
357.009473
 20
161.900458
 30
0.0
 11
357.009552
 21
161.900458
 31
0.0
  0
SPLINE
  5
244
100
AcDbEntity
  8
Image
 62
7
100
AcDbSpline
 70
8
 71
3
 72
8
 73
4
 74
0
 40
0
 40
0
 40
0
 40
0
 40
1
 40
1
 40
1
 40
1
 10
514.787141
 20
187.300481
 30
0.0
 10
514.888555
 20
188.125098
 30
0.0
 10
515.070535
 20
195.053410
 30
0.0
 10
515.191555
 20
202.696733
 30
0.0
  0
SPLINE
  5
245
100
AcDbEntity
  8
Image
 62
7
100
AcDbSpline
 70
8
 71
3
 72
8
 73
4
 74
0
 40
0
 40
0
 40
0
 40
0
 40
1
 40
1
 40
1
 40
1
 10
515.191555
 20
202.696733
 30
0.0
 10
515.312575
 20
210.340056
 30
0.0
 10
515.530221
 20
216.914348
 30
0.0
 10
515.675212
 20
217.306269
 30
0.0
  0
SPLINE
  5
246
100
AcDbEntity
  8
Image
 62
7
100
AcDbSpline
 70
8
 71
3
 72
8
 73
4
 74
0
 40
0
 40
0
 40
0
 40
0
 40
1
 40
1
 40
1
 40
1
 10
515.675212
 20
217.306269
 30
0.0
 10
515.884180
 20
217.871201
 30
0.0
 10
517.211988
 20
218.398546
 30
0.0
 10
522.083352
 20
219.851301
 30
0.0
  0
SPLINE
  5
247
100
AcDbEntity
  8
Image
 62
7
100
AcDbSpline
 70
8
 71
3
 72
8
 73
4
 74
0
 40
0
 40
0
 40
0
 40
0
 40
1
 40
1
 40
1
 40
1
 10
522.083352
 20
219.851301
 30
0.0
 10
525.462840
 20
220.859149
 30
0.0
 10
531.174387
 20
222.571719
 30
0.0
 10
534.775648
 20
223.657010
 30
0.0
  0
SPLINE
  5
248
100
AcDbEntity
  8
Image
 62
7
100
AcDbSpline
 70
8
 71
3
 72
8
 73
4
 74
0
 40
0
 40
0
 40
0
 40
0
 40
1
 40
1
 40
1
 40
1
 10
534.775648
 20
223.657010
 30
0.0
 10
542.661509
 20
226.033537
 30
0.0
 10
551.300372
 20
228.487184
 30
0.0
 10
551.781833
 20
228.487184
 30
0.0
  0
SPLINE
  5
249
100
AcDbEntity
  8
Image
 62
7
100
AcDbSpline
 70
8
 71
3
 72
8
 73
4
 74
0
 40
0
 40
0
 40
0
 40
0
 40
1
 40
1
 40
1
 40
1
 10
551.781833
 20
228.487184
 30
0.0
 10
551.999981
 20
228.487184
 30
0.0
 10
552.042791
 20
227.703355
 30
0.0
 10
551.895656
 20
226.402855
 30
0.0
  0
SPLINE
  5
24a
100
AcDbEntity
  8
Image
 62
7
100
AcDbSpline
 70
8
 71
3
 72
8
 73
4
 74
0
 40
0
 40
0
 40
0
 40
0
 40
1
 40
1
 40
1
 40
1
 10
551.895656
 20
226.402855
 30
0.0
 10
551.765958
 20
225.256476
 30
0.0
 10
551.519367
 20
217.860194
 30
0.0
 10
551.347653
 20
209.966674
 30
0.0
  0
SPLINE
  5
24b
100
AcDbEntity
  8
Image
 62
7
100
AcDbSpline
 70
8
 71
3
 72
8
 73
4
 74
0
 40
0
 40
0
 40
0
 40
0
 40
1
 40
1
 40
1
 40
1
 10
551.347653
 20
209.966674
 30
0.0
 10
551.175965
 20
202.073151
 30
0.0
 10
550.979301
 20
195.558620
 30
0.0
 10
550.910615
 20
195.489937
 30
0.0
  0
SPLINE
  5
24c
100
AcDbEntity
  8
Image
 62
7
100
AcDbSpline
 70
8
 71
3
 72
8
 73
4
 74
0
 40
0
 40
0
 40
0
 40
0
 40
1
 40
1
 40
1
 40
1
 10
550.910615
 20
195.489937
 30
0.0
 10
550.841929
 20
195.421251
 30
0.0
 10
548.329584
 20
194.709730
 30
0.0
 10
545.327629
 20
193.908778
 30
0.0
  0
SPLINE
  5
24d
100
AcDbEntity
  8
Image
 62
7
100
AcDbSpline
 70
8
 71
3
 72
8
 73
4
 74
0
 40
0
 40
0
 40
0
 40
0
 40
1
 40
1
 40
1
 40
1
 10
545.327629
 20
193.908778
 30
0.0
 10
534.350623
 20
190.979995
 30
0.0
 10
529.146070
 20
189.556546
 30
0.0
 10
522.622122
 20
187.698818
 30
0.0
  0
SPLINE
  5
24e
100
AcDbEntity
  8
Image
 62
7
100
AcDbSpline
 70
8
 71
3
 72
8
 73
4
 74
0
 40
0
 40
0
 40
0
 40
0
 40
1
 40
1
 40
1
 40
1
 10
522.622122
 20
187.698818
 30
0.0
 10
518.956884
 20
186.655116
 30
0.0
 10
515.653093
 20
185.801178
 30
0.0
 10
515.280402
 20
185.801178
 30
0.0
  0
SPLINE
  5
24f
100
AcDbEntity
  8
Image
 62
7
100
AcDbSpline
 70
8
 71
3
 72
8
 73
4
 74
0
 40
0
 40
0
 40
0
 40
0
 40
1
 40
1
 40
1
 40
1
 10
515.280402
 20
185.801178
 30
0.0
 10
514.689430
 20
185.801178
 30
0.0
 10
514.626327
 20
185.992961
 30
0.0
 10
514.787141
 20
187.300481
 30
0.0
  0
LINE
  5
250
100
AcDbEntity
  8
Image
 62
7
100
AcDbLine
 10
514.787141
 20
187.300481
 30
0.0
 11
514.787141
 21
187.300481
 31
0.0
  0
SPLINE
  5
251
100
AcDbEntity
  8
Image
 62
7
100
AcDbSpline
 70
8
 71
3
 72
8
 73
4
 74
0
 40
0
 40
0
 40
0
 40
0
 40
1
 40
1
 40
1
 40
1
 10
311.233176
 20
219.898843
 30
0.0
 10
311.343613
 20
221.809035
 30
0.0
 10
311.531202
 20
228.927050
 30
0.0
 10
311.650079
 20
235.716655
 30
0.0
  0
SPLINE
  5
252
100
AcDbEntity
  8
Image
 62
7
100
AcDbSpline
 70
8
 71
3
 72
8
 73
4
 74
0
 40
0
 40
0
 40
0
 40
0
 40
1
 40
1
 40
1
 40
1
 10
311.650079
 20
235.716655
 30
0.0
 10
311.768956
 20
242.506259
 30
0.0
 10
312.000280
 20
248.311915
 30
0.0
 10
312.164163
 20
248.618114
 30
0.0
  0
SPLINE
  5
253
100
AcDbEntity
  8
Image
 62
7
100
AcDbSpline
 70
8
 71
3
 72
8
 73
4
 74
0
 40
0
 40
0
 40
0
 40
0
 40
1
 40
1
 40
1
 40
1
 10
312.164163
 20
248.618114
 30
0.0
 10
312.337465
 20
248.941966
 30
0.0
 10
314.131124
 20
249.657892
 30
0.0
 10
316.452202
 20
250.329676
 30
0.0
  0
SPLINE
  5
254
100
AcDbEntity
  8
Image
 62
7
100
AcDbSpline
 70
8
 71
3
 72
8
 73
4
 74
0
 40
0
 40
0
 40
0
 40
0
 40
1
 40
1
 40
1
 40
1
 10
316.452202
 20
250.329676
 30
0.0
 10
318.646756
 20
250.964835
 30
0.0
 10
322.188539
 20
252.010651
 30
0.0
 10
324.322849
 20
252.653706
 30
0.0
  0
SPLINE
  5
255
100
AcDbEntity
  8
Image
 62
7
100
AcDbSpline
 70
8
 71
3
 72
8
 73
4
 74
0
 40
0
 40
0
 40
0
 40
0
 40
1
 40
1
 40
1
 40
1
 10
324.322849
 20
252.653706
 30
0.0
 10
329.582567
 20
254.238443
 30
0.0
 10
346.300304
 20
259.080785
 30
0.0
 10
347.571253
 20
259.387677
 30
0.0
  0
LINE
  5
256
100
AcDbEntity
  8
Image
 62
7
100
AcDbLine
 10
347.571253
 20
259.387677
 30
0.0
 11
348.594738
 21
259.634816
 31
0.0
  0
LINE
  5
257
100
AcDbEntity
  8
Image
 62
7
100
AcDbLine
 10
348.594738
 20
259.634816
 30
0.0
 11
348.350476
 21
258.107287
 31
0.0
  0
SPLINE
  5
258
100
AcDbEntity
  8
Image
 62
7
100
AcDbSpline
 70
8
 71
3
 72
8
 73
4
 74
0
 40
0
 40
0
 40
0
 40
0
 40
1
 40
1
 40
1
 40
1
 10
348.350476
 20
258.107287
 30
0.0
 10
348.216147
 20
257.267147
 30
0.0
 10
347.957570
 20
249.839145
 30
0.0
 10
347.775855
 20
241.600614
 30
0.0
  0
SPLINE
  5
259
100
AcDbEntity
  8
Image
 62
7
100
AcDbSpline
 70
8
 71
3
 72
8
 73
4
 74
0
 40
0
 40
0
 40
0
 40
0
 40
1
 40
1
 40
1
 40
1
 10
347.775855
 20
241.600614
 30
0.0
 10
347.594166
 20
233.362083
 30
0.0
 10
347.402264
 20
226.582464
 30
0.0
 10
347.349400
 20
226.534794
 30
0.0
  0
SPLINE
  5
25a
100
AcDbEntity
  8
Image
 62
7
100
AcDbSpline
 70
8
 71
3
 72
8
 73
4
 74
0
 40
0
 40
0
 40
0
 40
0
 40
1
 40
1
 40
1
 40
1
 10
347.349400
 20
226.534794
 30
0.0
 10
347.296563
 20
226.487124
 30
0.0
 10
345.030836
 20
225.862450
 30
0.0
 10
342.314471
 20
225.146629
 30
0.0
  0
SPLINE
  5
25b
100
AcDbEntity
  8
Image
 62
7
100
AcDbSpline
 70
8
 71
3
 72
8
 73
4
 74
0
 40
0
 40
0
 40
0
 40
0
 40
1
 40
1
 40
1
 40
1
 10
342.314471
 20
225.146629
 30
0.0
 10
338.493024
 20
224.139601
 30
0.0
 10
315.124711
 20
217.632960
 30
0.0
 10
311.680426
 20
216.616925
 30
0.0
  0
SPLINE
  5
25c
100
AcDbEntity
  8
Image
 62
7
100
AcDbSpline
 70
8
 71
3
 72
8
 73
4
 74
0
 40
0
 40
0
 40
0
 40
0
 40
1
 40
1
 40
1
 40
1
 10
311.680426
 20
216.616925
 30
0.0
 10
311.073315
 20
216.437835
 30
0.0
 10
311.045084
 20
216.644998
 30
0.0
 10
311.233176
 20
219.898843
 30
0.0
  0
LINE
  5
25d
100
AcDbEntity
  8
Image
 62
7
100
AcDbLine
 10
311.233176
 20
219.898843
 30
0.0
 11
311.233176
 21
219.898843
 31
0.0
  0
ENDSEC
  0
SECTION
  2
OBJECTS
  0
DICTIONARY
  5
C
330
0
100
AcDbDictionary
  3
ACAD_GROUP
350
D
  3
ACAD_MLINESTYLE
350
17
  0
DICTIONARY
  5
D
330
C
100
AcDbDictionary
  0
DICTIONARY
  5
1A
330
C
100
AcDbDictionary
  0
DICTIONARY
  5
17
330
C
100
AcDbDictionary
  3
STANDARD
350
18
  0
DICTIONARY
  5
19
330
C
100
AcDbDictionary
  0
ENDSEC
  0
EOF
