<?xml version="1.0" encoding="UTF-8" standalone="no"?>
<!-- Created with Inkscape (http://www.inkscape.org/) -->

<svg
   version="1.1"
   id="svg1"
   width="629.18604"
   height="222.26001"
   viewBox="0 0 629.18604 222.26001"
   xmlns="http://www.w3.org/2000/svg"
   xmlns:svg="http://www.w3.org/2000/svg">
  <defs
     id="defs1" />
  <g
     id="g1"
     transform="translate(0,-0.59334844)"
     style="fill:#000000;fill-opacity:1;stroke:none">
    <path
       style="fill:#000000;fill-opacity:1;stroke:none"
       d="m 189.12,222.70978 c -10.24109,-0.73015 -21.03488,-4.09037 -32.91429,-10.24654 -5.5435,-2.87277 -8.9266,-4.89605 -14.89409,-8.9075 -2.61004,-1.75452 -5.02025,-3.36037 -5.35602,-3.56857 -0.5535,-0.34321 -0.75067,-0.28905 -2.11162,0.58005 -1.88302,1.20247 -4.79519,2.67849 -5.28464,2.67849 -0.20382,0 -1.5342,0.57048 -2.95639,1.26773 -6.92579,3.39545 -16.51389,6.23606 -25.76295,7.63264 -8.323512,1.25683 -19.130706,0.62809 -25.782857,-1.49997 -0.980572,-0.31369 -3.423682,-1.3704 -5.429133,-2.34824 -3.129615,-1.52597 -3.956713,-2.07448 -5.837151,-3.87104 -3.447916,-3.29412 -5.658216,-7.0015 -6.350757,-10.65225 C 56.254953,192.79856 56.008543,192 55.892524,192 c -0.116019,0 -0.674157,0.41672 -1.240306,0.92604 -7.326218,6.59083 -20.291106,11.76211 -32.023647,12.77322 -6.361101,0.54819 -11.638364,0.31125 -18.8571424,-0.84666 L 0,204.24766 V 156.4324 108.61714 h 1.2792585 c 0.7035922,0 3.2030207,0.42849 5.5542857,0.9522 13.8052898,3.07494 27.7489218,4.4414 42.6750268,4.1821 11.237859,-0.19522 19.236574,-0.99512 29.622857,-2.96239 47.090812,-8.9195 92.678342,-37.835933 135.124512,-85.710253 8.167,-9.211419 17.95926,-21.1371562 18.22492,-22.1956578 0.19344,-0.7706959 0.58352,-0.8363355 7.382,-1.2421535 11.91162,-0.71103514 20.96029,-0.87273584 56.50285,-1.0097127 49.34348,-0.19016396 93.9648,0.31409604 175.54286,1.9837884 64.90432,1.3284239 156.64689,3.5947634 157.11025,3.8811334 0.3858,0.2384352 0.0547,4.0846642 -0.49146,5.7095192 -3.36232,10.002684 -14.46277,21.573112 -31.95593,33.308915 -7.80139,5.233791 -15.48447,9.581649 -27.13062,15.353226 -10.60591,5.256056 -18.29786,8.348672 -28.16228,11.322899 l -5.66525,1.708131 4.35336,0.720641 c 11.25344,1.862861 19.67609,4.351789 26.27903,7.765564 4.82907,2.496671 9.1358,7.256671 10.59375,11.708697 0.93295,2.848917 0.93896,7.605753 0.0124,9.854773 -0.94107,2.28432 -2.83987,4.78058 -6.05487,7.96001 -4.01615,3.97173 -7.1051,6.08974 -13.58557,9.3153 -5.78631,2.88005 -9.62137,4.36539 -17.10196,6.6237 -12.27793,3.70657 -20.19622,5.19521 -33.6409,6.32448 -5.09555,0.42799 -20.07206,0.4187 -25.20272,-0.0156 -2.09463,-0.17732 -3.84976,-0.28108 -3.90027,-0.23056 -0.0505,0.0505 0.72232,1.01101 1.71741,2.13443 4.39778,4.9649 5.91885,7.54046 6.7062,11.35533 1.11916,5.42249 0.5377,10.31664 -1.79382,15.09868 -1.49526,3.06682 -3.19396,5.30498 -6.51337,8.58179 -5.25657,5.18912 -9.76459,7.83112 -18.05343,10.58049 -11.02729,3.6577 -22.44899,5.09926 -34.09336,4.30299 -4.31656,-0.29517 -4.66764,-0.52851 -4.97295,-3.30527 -2.1306,-19.37735 -11.75746,-39.3899 -25.80226,-53.63835 -4.93018,-5.00166 -9.14271,-8.55005 -14.12315,-11.89651 -4.82935,-3.24493 -6.76989,-4.38141 -11.54583,-6.76182 -15.72193,-7.83607 -34.45248,-11.105835 -51.6332,-9.01354 -16.12138,1.96329 -30.06078,7.20607 -42.83496,16.11076 -5.12406,3.57191 -7.39836,5.4982 -12.51292,10.59821 -5.1511,5.13644 -8.27167,8.80492 -11.18508,13.14897 -11.60965,17.31059 -16.98727,35.7713 -16.4027,56.30849 l 0.16132,5.66765 -3.3446,3.25252 c -12.288,11.9497 -26.31789,17.37854 -42.01888,16.25911 z"
       id="path1" />
  </g>
</svg>
